<svg width="20" height="20" fill="none" xmlns="http://www.w3.org/2000/svg"><g clip-path="url(#clip0)"><path d="M10.02 19.98c5.528 0 10.01-4.477 10.01-10s-4.482-10-10.01-10S.01 4.457.01 9.98s4.482 10 10.01 10z" fill="#F7931A"/><path d="M14.42 8.563c.187-1.344-.813-2.032-2.19-2.532l.438-1.812-1.095-.25-.438 1.75c-.281-.063-.594-.125-.875-.219l.438-1.781-1.095-.281-.438 1.812c-.25-.063-.47-.094-.688-.156l-1.502-.375-.281 1.187.813.188c.438.125.532.406.5.625l-.5 2.062c.031 0 .063.031.125.031-.031 0-.062-.03-.125-.03l-.72 2.874c-.062.125-.187.344-.5.25 0 .031-.813-.187-.813-.187l-.532 1.25 1.439.344c.281.062.532.124.782.187l-.47 1.813 1.096.28.437-1.812c.313.094.595.156.876.219l-.438 1.781 1.095.281.47-1.812c1.876.344 3.284.219 3.878-1.469.47-1.375-.031-2.156-1.001-2.656.626-.094 1.157-.563 1.314-1.563zm-2.503 3.53c-.344 1.376-2.627.626-3.378.438l.595-2.406c.75.188 3.127.563 2.783 1.969zm.345-3.53c-.313 1.25-2.221.624-2.847.468l.532-2.187c.625.125 2.627.406 2.315 1.718z" fill="#fff"/></g><defs><clipPath id="clip0"><path fill="#fff" d="M0 0h20v20H0z"/></clipPath></defs></svg>