<svg width="4406" height="3189" viewBox="0 0 4406 3189" fill="none" xmlns="http://www.w3.org/2000/svg">
<path opacity="0.7" d="M768.32 2287.78L864.471 2254.67M864.471 2254.67L1028.58 2198.17M864.471 2254.67L772.5 2107.49M864.471 2254.67L956.442 2401.85M1028.58 2198.17L1192.67 2141.66M1028.58 2198.17L936.605 2050.98M1028.58 2198.17L1120.55 2345.35M1192.67 2141.66L1356.78 2085.16M1192.67 2141.66L1100.7 1994.48M1192.67 2141.66L1284.64 2288.85M1356.78 2085.16L1520.87 2028.65M1356.78 2085.16L1264.81 1937.97M1356.78 2085.16L1448.75 2232.34M1520.87 2028.65L1684.97 1972.15M1520.87 2028.65L1428.9 1881.47M1520.87 2028.65L1612.84 2175.84M1684.97 1972.15L1849.07 1915.64M1684.97 1972.15L1593 1824.97M1684.97 1972.15L1776.94 2119.33M1849.07 1915.64L2013.17 1859.14M1849.07 1915.64L1757.1 1768.46M1849.07 1915.64L1941.05 2062.83M2013.17 1859.14L2177.28 1802.64M2013.17 1859.14L1921.2 1711.96M2013.17 1859.14L2105.14 2006.33M2177.28 1802.64L2341.37 1746.13M2177.28 1802.64L2085.3 1655.45M2177.28 1802.64L2269.25 1949.82M2341.37 1746.13L2505.47 1689.63M2341.37 1746.13L2249.4 1598.95M2341.37 1746.13L2433.34 1893.32M2505.47 1689.63L2669.57 1633.12M2505.47 1689.63L2413.5 1542.45M2505.47 1689.63L2597.44 1836.81M2669.57 1633.12L2833.67 1576.62M2669.57 1633.12L2577.6 1485.94M2669.57 1633.12L2761.54 1780.31M2833.67 1576.62L2997.77 1520.12M2833.67 1576.62L2741.7 1429.44M2833.67 1576.62L2925.64 1723.81M2997.77 1520.12L3161.87 1463.61M2997.77 1520.12L2905.8 1372.93M2997.77 1520.12L3089.74 1667.3M3161.87 1463.61L3325.97 1407.11M3161.87 1463.61L3069.9 1316.43M3161.87 1463.61L3253.84 1610.8M3325.97 1407.11L3490.07 1350.6M3325.97 1407.11L3233.99 1259.93M3325.97 1407.11L3417.94 1554.29M3490.07 1350.6L3654.17 1294.1M3490.07 1350.6L3398.1 1203.42M3490.07 1350.6L3582.04 1497.79M3654.17 1294.1L3818.27 1237.6M3654.17 1294.1L3562.2 1146.92M3654.17 1294.1L3746.14 1441.29M3818.27 1237.6L3842.63 1229.21M3818.27 1237.6L3726.3 1090.41M3818.27 1237.6L3910.24 1384.78M1136.2 2876.51L1232.35 2843.4M1232.35 2843.4L1396.46 2786.9M1232.35 2843.4L1140.38 2696.22M1232.35 2843.4L1324.32 2990.59M1396.46 2786.9L1560.55 2730.39M1396.46 2786.9L1304.49 2639.71M1396.46 2786.9L1488.43 2934.08M1560.55 2730.39L1724.66 2673.89M1560.55 2730.39L1468.58 2583.21M1560.55 2730.39L1652.52 2877.58M1724.66 2673.89L1888.75 2617.39M1724.66 2673.89L1632.69 2526.7M1724.66 2673.89L1816.63 2821.07M1888.75 2617.39L2052.85 2560.88M1888.75 2617.39L1796.78 2470.2M1888.75 2617.39L1980.72 2764.57M2052.85 2560.88L2216.96 2504.38M2052.85 2560.88L1960.88 2413.7M2052.85 2560.88L2144.82 2708.07M2216.96 2504.38L2381.05 2447.87M2216.96 2504.38L2124.98 2357.19M2216.96 2504.38L2308.93 2651.56M2381.05 2447.87L2545.16 2391.37M2381.05 2447.87L2289.08 2300.69M2381.05 2447.87L2473.02 2595.06M2545.16 2391.37L2709.25 2334.87M2545.16 2391.37L2453.19 2244.18M2545.16 2391.37L2637.13 2538.55M2709.25 2334.87L2873.35 2278.36M2709.25 2334.87L2617.28 2187.68M2709.25 2334.87L2801.22 2482.05M2873.35 2278.36L3037.45 2221.86M2873.35 2278.36L2781.38 2131.18M2873.35 2278.36L2965.32 2425.55M3037.45 2221.86L3201.55 2165.35M3037.45 2221.86L2945.48 2074.67M3037.45 2221.86L3129.42 2369.04M3201.55 2165.35L3365.65 2108.85M3201.55 2165.35L3109.58 2018.17M3201.55 2165.35L3293.52 2312.54M3365.65 2108.85L3529.75 2052.35M3365.65 2108.85L3273.68 1961.66M3365.65 2108.85L3457.62 2256.03M3529.75 2052.35L3693.85 1995.84M3529.75 2052.35L3437.78 1905.16M3529.75 2052.35L3621.72 2199.53M3693.85 1995.84L3857.95 1939.34M3693.85 1995.84L3601.88 1848.66M3693.85 1995.84L3785.82 2143.03M3857.95 1939.34L4022.05 1882.83M3857.95 1939.34L3765.98 1792.15M3857.95 1939.34L3949.92 2086.52M4022.05 1882.83L4186.15 1826.33M4022.05 1882.83L3930.08 1735.65M4022.05 1882.83L4114.02 2030.02M4186.15 1826.33L4210.51 1817.94M4186.15 1826.33L4094.18 1679.14M4186.15 1826.33L4278.12 1973.51M400.44 1699.05L496.59 1665.94M496.59 1665.94L660.695 1609.43M496.59 1665.94L404.619 1518.75M496.59 1665.94L588.558 1813.12M660.695 1609.43L824.791 1552.93M660.695 1609.43L568.724 1462.25M660.695 1609.43L752.663 1756.61M824.791 1552.93L988.897 1496.42M824.791 1552.93L732.82 1405.75M824.791 1552.93L916.759 1700.11M988.897 1496.42L1152.99 1439.92M988.897 1496.42L896.926 1349.24M988.897 1496.42L1080.86 1643.6M1152.99 1439.92L1317.09 1383.42M1152.99 1439.92L1061.02 1292.74M1152.99 1439.92L1244.96 1587.1M1317.09 1383.42L1481.19 1326.91M1317.09 1383.42L1225.12 1236.23M1317.09 1383.42L1409.06 1530.6M1481.19 1326.91L1645.29 1270.41M1481.19 1326.91L1389.22 1179.73M1481.19 1326.91L1573.16 1474.09M1645.29 1270.41L1809.4 1213.9M1645.29 1270.41L1553.32 1123.23M1645.29 1270.41L1737.26 1417.59M1809.4 1213.9L1973.49 1157.4M1809.4 1213.9L1717.42 1066.72M1809.4 1213.9L1901.36 1361.08M1973.49 1157.4L2137.59 1100.9M1973.49 1157.4L1881.52 1010.22M1973.49 1157.4L2065.46 1304.58M2137.59 1100.9L2301.69 1044.39M2137.59 1100.9L2045.62 953.714M2137.59 1100.9L2229.56 1248.08M2301.69 1044.39L2465.79 987.89M2301.69 1044.39L2209.72 897.209M2301.69 1044.39L2393.66 1191.57M2465.79 987.89L2629.89 931.384M2465.79 987.89L2373.82 840.706M2465.79 987.89L2557.76 1135.07M2629.89 931.384L2793.99 874.881M2629.89 931.384L2537.92 784.2M2629.89 931.384L2721.86 1078.56M2793.99 874.881L2958.09 818.378M2793.99 874.881L2702.02 727.697M2793.99 874.881L2885.96 1022.06M2958.09 818.378L3122.19 761.872M2958.09 818.378L2866.11 671.194M2958.09 818.378L3050.05 965.558M3122.19 761.872L3286.29 705.369M3122.19 761.872L3030.22 614.688M3122.19 761.872L3214.16 909.052M3286.29 705.369L3450.39 648.864M3286.29 705.369L3194.32 558.185M3286.29 705.369L3378.25 852.549M3450.39 648.864L3474.74 640.478M3450.39 648.864L3358.42 501.68M3450.39 648.864L3542.36 796.043M32.5563 1110.31L128.707 1077.2M128.707 1077.2L292.812 1020.7M128.707 1077.2L96.3756 1025.46M128.707 1077.2L220.678 1224.39M292.812 1020.7L456.908 964.194M292.812 1020.7L260.481 968.956M292.812 1020.7L384.783 1167.88M456.908 964.194L621.013 907.688M456.908 964.194L424.577 912.453M456.908 964.194L548.879 1111.38M621.013 907.688L785.11 851.185M621.013 907.688L588.682 855.947M621.013 907.688L712.984 1054.87M785.11 851.185L949.206 794.682M785.11 851.185L752.778 799.444M785.11 851.185L877.081 998.369M949.206 794.682L1113.31 738.176M949.206 794.682L916.874 742.941M949.206 794.682L1041.18 941.867M1113.31 738.176L1277.41 681.674M1113.31 738.176L1080.98 686.435M1113.31 738.176L1205.28 885.361M1277.41 681.674L1441.51 625.168M1277.41 681.674L1245.08 629.933M1277.41 681.674L1369.38 828.858M1441.51 625.168L1605.61 568.665M1441.51 625.168L1409.18 573.427M1441.51 625.168L1533.48 772.352M1605.61 568.665L1769.7 512.162M1605.61 568.665L1573.28 516.923M1605.61 568.665L1697.58 715.849M1769.7 512.162L1933.81 455.656M1769.7 512.162L1737.37 460.421M1769.7 512.162L1861.67 659.347M1933.81 455.656L2097.91 399.153M1933.81 455.656L1901.48 403.915M1933.81 455.656L2025.78 602.841M2097.91 399.153L2262.01 342.648M2097.91 399.153L2065.57 347.412M2097.91 399.153L2189.88 546.338M2262.01 342.648L2426.11 286.145M2262.01 342.648L2229.68 290.907M2262.01 342.648L2353.98 489.832M2426.11 286.145L2590.2 229.642M2426.11 286.145L2393.77 234.403M2426.11 286.145L2518.08 433.329M2590.2 229.642L2754.31 173.136M2590.2 229.642L2557.87 177.901M2590.2 229.642L2682.17 376.826M2754.31 173.136L2918.4 116.633M2754.31 173.136L2721.98 121.395M2754.31 173.136L2846.28 320.32M2918.4 116.633L3082.51 60.1273M2918.4 116.633L2886.07 64.8921M2918.4 116.633L3010.37 263.818M3082.51 60.1273L3106.86 51.7418M3082.51 60.1273L3050.18 8.38623M3082.51 60.1273L3174.48 207.312M1320.14 3170.88L1416.29 3137.77M1416.29 3137.77L1580.4 3081.27M1416.29 3137.77L1324.32 2990.59M1416.29 3137.77L1427.07 3155.02M1580.4 3081.27L1744.49 3024.76M1580.4 3081.27L1488.43 2934.08M1580.4 3081.27L1591.18 3098.51M1744.49 3024.76L1908.6 2968.26M1744.49 3024.76L1652.52 2877.58M1744.49 3024.76L1755.27 3042.01M1908.6 2968.26L2072.7 2911.75M1908.6 2968.26L1816.63 2821.07M1908.6 2968.26L1919.38 2985.5M2072.7 2911.75L2236.79 2855.25M2072.7 2911.75L1980.72 2764.57M2072.7 2911.75L2083.47 2929M2236.79 2855.25L2400.9 2798.74M2236.79 2855.25L2144.82 2708.07M2236.79 2855.25L2247.57 2872.5M2400.9 2798.74L2564.99 2742.24M2400.9 2798.74L2308.93 2651.56M2400.9 2798.74L2411.67 2815.99M2564.99 2742.24L2729.1 2685.74M2564.99 2742.24L2473.02 2595.06M2564.99 2742.24L2575.77 2759.49M2729.1 2685.74L2893.19 2629.23M2729.1 2685.74L2637.13 2538.55M2729.1 2685.74L2739.88 2702.98M2893.19 2629.23L3057.29 2572.73M2893.19 2629.23L2801.22 2482.05M2893.19 2629.23L2903.97 2646.48M3057.29 2572.73L3221.39 2516.22M3057.29 2572.73L2965.32 2425.55M3057.29 2572.73L3068.07 2589.98M3221.39 2516.22L3385.49 2459.72M3221.39 2516.22L3129.42 2369.04M3221.39 2516.22L3232.17 2533.47M3385.49 2459.72L3549.6 2403.22M3385.49 2459.72L3293.52 2312.54M3385.49 2459.72L3396.27 2476.97M3549.6 2403.22L3713.69 2346.71M3549.6 2403.22L3457.62 2256.03M3549.6 2403.22L3560.37 2420.46M3713.69 2346.71L3877.79 2290.21M3713.69 2346.71L3621.72 2199.53M3713.69 2346.71L3724.47 2363.96M3877.79 2290.21L4041.89 2233.7M3877.79 2290.21L3785.82 2143.03M3877.79 2290.21L3888.57 2307.46M4041.89 2233.7L4205.99 2177.2M4041.89 2233.7L3949.92 2086.52M4041.89 2233.7L4052.67 2250.95M4205.99 2177.2L4370.09 2120.7M4205.99 2177.2L4114.02 2030.02M4205.99 2177.2L4216.77 2194.45M4370.09 2120.7L4394.45 2112.31M4370.09 2120.7L4278.12 1973.51M4370.09 2120.7L4380.87 2137.94M584.378 1993.41L680.529 1960.3M680.529 1960.3L844.634 1903.8M680.529 1960.3L588.558 1813.12M680.529 1960.3L772.5 2107.49M844.634 1903.8L1008.73 1847.29M844.634 1903.8L752.663 1756.61M844.634 1903.8L936.605 2050.98M1008.73 1847.29L1172.84 1790.79M1008.73 1847.29L916.759 1700.11M1008.73 1847.29L1100.7 1994.48M1172.84 1790.79L1336.93 1734.29M1172.84 1790.79L1080.86 1643.6M1172.84 1790.79L1264.81 1937.97M1336.93 1734.29L1501.03 1677.78M1336.93 1734.29L1244.96 1587.1M1336.93 1734.29L1428.9 1881.47M1501.03 1677.78L1665.13 1621.28M1501.03 1677.78L1409.06 1530.6M1501.03 1677.78L1593 1824.97M1665.13 1621.28L1829.23 1564.77M1665.13 1621.28L1573.16 1474.09M1665.13 1621.28L1757.1 1768.46M1829.23 1564.77L1993.33 1508.27M1829.23 1564.77L1737.26 1417.59M1829.23 1564.77L1921.2 1711.96M1993.33 1508.27L2157.43 1451.76M1993.33 1508.27L1901.36 1361.08M1993.33 1508.27L2085.3 1655.45M2157.43 1451.76L2321.53 1395.26M2157.43 1451.76L2065.46 1304.58M2157.43 1451.76L2249.4 1598.95M2321.53 1395.26L2485.63 1338.76M2321.53 1395.26L2229.56 1248.08M2321.53 1395.26L2413.5 1542.45M2485.63 1338.76L2649.73 1282.25M2485.63 1338.76L2393.66 1191.57M2485.63 1338.76L2577.6 1485.94M2649.73 1282.25L2813.83 1225.75M2649.73 1282.25L2557.76 1135.07M2649.73 1282.25L2741.7 1429.44M2813.83 1225.75L2977.93 1169.24M2813.83 1225.75L2721.86 1078.56M2813.83 1225.75L2905.8 1372.93M2977.93 1169.24L3142.02 1112.74M2977.93 1169.24L2885.96 1022.06M2977.93 1169.24L3069.9 1316.43M3142.02 1112.74L3306.13 1056.24M3142.02 1112.74L3050.05 965.558M3142.02 1112.74L3233.99 1259.93M3306.13 1056.24L3470.23 999.733M3306.13 1056.24L3214.16 909.052M3306.13 1056.24L3398.1 1203.42M3470.23 999.733L3634.33 943.227M3470.23 999.733L3378.25 852.549M3470.23 999.733L3562.2 1146.92M3634.33 943.227L3658.68 934.842M3634.33 943.227L3542.36 796.043M3634.33 943.227L3726.3 1090.41M952.259 2582.14L1048.41 2549.03M1048.41 2549.03L1212.51 2492.53M1048.41 2549.03L956.442 2401.85M1048.41 2549.03L1140.38 2696.22M1212.51 2492.53L1376.61 2436.03M1212.51 2492.53L1120.55 2345.35M1212.51 2492.53L1304.49 2639.71M1376.61 2436.03L1540.72 2379.52M1376.61 2436.03L1284.64 2288.85M1376.61 2436.03L1468.58 2583.21M1540.72 2379.52L1704.81 2323.02M1540.72 2379.52L1448.75 2232.34M1540.72 2379.52L1632.69 2526.7M1704.81 2323.02L1868.91 2266.51M1704.81 2323.02L1612.84 2175.84M1704.81 2323.02L1796.78 2470.2M1868.91 2266.51L2033.01 2210.01M1868.91 2266.51L1776.94 2119.33M1868.91 2266.51L1960.88 2413.7M2033.01 2210.01L2197.11 2153.51M2033.01 2210.01L1941.05 2062.83M2033.01 2210.01L2124.98 2357.19M2197.11 2153.51L2361.21 2097M2197.11 2153.51L2105.14 2006.33M2197.11 2153.51L2289.08 2300.69M2361.21 2097L2525.31 2040.5M2361.21 2097L2269.25 1949.82M2361.21 2097L2453.19 2244.18M2525.31 2040.5L2689.41 1983.99M2525.31 2040.5L2433.34 1893.32M2525.31 2040.5L2617.28 2187.68M2689.41 1983.99L2853.51 1927.49M2689.41 1983.99L2597.44 1836.81M2689.41 1983.99L2781.38 2131.18M2853.51 1927.49L3017.61 1870.99M2853.51 1927.49L2761.54 1780.31M2853.51 1927.49L2945.48 2074.67M3017.61 1870.99L3181.71 1814.48M3017.61 1870.99L2925.64 1723.81M3017.61 1870.99L3109.58 2018.17M3181.71 1814.48L3345.81 1757.98M3181.71 1814.48L3089.74 1667.3M3181.71 1814.48L3273.68 1961.66M3345.81 1757.98L3509.9 1701.47M3345.81 1757.98L3253.84 1610.8M3345.81 1757.98L3437.78 1905.16M3509.9 1701.47L3674.01 1644.97M3509.9 1701.47L3417.94 1554.29M3509.9 1701.47L3601.88 1848.66M3674.01 1644.97L3838.11 1588.46M3674.01 1644.97L3582.04 1497.79M3674.01 1644.97L3765.98 1792.15M3838.11 1588.46L4002.21 1531.96M3838.11 1588.46L3746.14 1441.29M3838.11 1588.46L3930.08 1735.65M4002.21 1531.96L4026.56 1523.57M4002.21 1531.96L3910.24 1384.78M4002.21 1531.96L4094.18 1679.14M216.498 1404.68L312.649 1371.57M312.649 1371.57L476.754 1315.07M312.649 1371.57L220.678 1224.39M312.649 1371.57L404.619 1518.75M476.754 1315.07L640.85 1258.56M476.754 1315.07L384.783 1167.88M476.754 1315.07L568.724 1462.25M640.85 1258.56L804.955 1202.06M640.85 1258.56L548.879 1111.38M640.85 1258.56L732.82 1405.75M804.955 1202.06L969.051 1145.55M804.955 1202.06L712.984 1054.87M804.955 1202.06L896.926 1349.24M969.051 1145.55L1133.15 1089.05M969.051 1145.55L877.081 998.369M969.051 1145.55L1061.02 1292.74M1133.15 1089.05L1297.25 1032.54M1133.15 1089.05L1041.18 941.867M1133.15 1089.05L1225.12 1236.23M1297.25 1032.54L1461.35 976.042M1297.25 1032.54L1205.28 885.361M1297.25 1032.54L1389.22 1179.73M1461.35 976.042L1625.45 919.536M1461.35 976.042L1369.38 828.858M1461.35 976.042L1553.32 1123.23M1625.45 919.536L1789.55 863.033M1625.45 919.536L1533.48 772.352M1625.45 919.536L1717.42 1066.72M1789.55 863.033L1953.65 806.53M1789.55 863.033L1697.58 715.849M1789.55 863.033L1881.52 1010.22M1953.65 806.53L2117.75 750.025M1953.65 806.53L1861.67 659.347M1953.65 806.53L2045.62 953.714M2117.75 750.025L2281.85 693.522M2117.75 750.025L2025.78 602.841M2117.75 750.025L2209.72 897.209M2281.85 693.522L2445.95 637.016M2281.85 693.522L2189.88 546.338M2281.85 693.522L2373.82 840.706M2445.95 637.016L2610.05 580.513M2445.95 637.016L2353.98 489.832M2445.95 637.016L2537.92 784.2M2610.05 580.513L2774.14 524.01M2610.05 580.513L2518.08 433.329M2610.05 580.513L2702.02 727.697M2774.14 524.01L2938.25 467.504M2774.14 524.01L2682.17 376.826M2774.14 524.01L2866.11 671.194M2938.25 467.504L3102.34 411.001M2938.25 467.504L2846.28 320.32M2938.25 467.504L3030.22 614.688M3102.34 411.001L3266.45 354.496M3102.34 411.001L3010.37 263.818M3102.34 411.001L3194.32 558.185M3266.45 354.496L3290.8 346.11M3266.45 354.496L3174.48 207.312M3266.45 354.496L3358.42 501.68M676.349 2140.59L772.5 2107.49M772.5 2107.49L936.605 2050.98M936.605 2050.98L1100.7 1994.48M1100.7 1994.48L1264.81 1937.97M1264.81 1937.97L1428.9 1881.47M1428.9 1881.47L1593 1824.97M1593 1824.97L1757.1 1768.46M1757.1 1768.46L1921.2 1711.96M1921.2 1711.96L2085.3 1655.45M2085.3 1655.45L2249.4 1598.95M2249.4 1598.95L2413.5 1542.45M2413.5 1542.45L2577.6 1485.94M2577.6 1485.94L2741.7 1429.44M2741.7 1429.44L2905.8 1372.93M2905.8 1372.93L3069.9 1316.43M3069.9 1316.43L3233.99 1259.93M3233.99 1259.93L3398.1 1203.42M3398.1 1203.42L3562.2 1146.92M3562.2 1146.92L3726.3 1090.41M3726.3 1090.41L3750.65 1082.03M1044.23 2729.33L1140.38 2696.22M1140.38 2696.22L1304.49 2639.71M1304.49 2639.71L1468.58 2583.21M1468.58 2583.21L1632.69 2526.7M1632.69 2526.7L1796.78 2470.2M1796.78 2470.2L1960.88 2413.7M1960.88 2413.7L2124.98 2357.19M2124.98 2357.19L2289.08 2300.69M2289.08 2300.69L2453.19 2244.18M2453.19 2244.18L2617.28 2187.68M2617.28 2187.68L2781.38 2131.18M2781.38 2131.18L2945.48 2074.67M2945.48 2074.67L3109.58 2018.17M3109.58 2018.17L3273.68 1961.66M3273.68 1961.66L3437.78 1905.16M3437.78 1905.16L3601.88 1848.66M3601.88 1848.66L3765.98 1792.15M3765.98 1792.15L3930.08 1735.65M3930.08 1735.65L4094.18 1679.14M4094.18 1679.14L4118.53 1670.76M308.469 1551.86L404.619 1518.75M404.619 1518.75L568.724 1462.25M568.724 1462.25L732.82 1405.75M732.82 1405.75L896.926 1349.24M896.926 1349.24L1061.02 1292.74M1061.02 1292.74L1225.12 1236.23M1225.12 1236.23L1389.22 1179.73M1389.22 1179.73L1553.32 1123.23M1553.32 1123.23L1717.42 1066.72M1717.42 1066.72L1881.52 1010.22M1881.52 1010.22L2045.62 953.714M2045.62 953.714L2209.72 897.209M2209.72 897.209L2373.82 840.706M2373.82 840.706L2537.92 784.2M2537.92 784.2L2702.02 727.697M2702.02 727.697L2866.11 671.194M2866.11 671.194L3030.22 614.688M3030.22 614.688L3194.32 558.185M3194.32 558.185L3358.42 501.68M3358.42 501.68L3382.77 493.294M1228.17 3023.69L1324.32 2990.59M1324.32 2990.59L1488.43 2934.08M1488.43 2934.08L1652.52 2877.58M1652.52 2877.58L1816.63 2821.07M1816.63 2821.07L1980.72 2764.57M1980.72 2764.57L2144.82 2708.07M2144.82 2708.07L2308.93 2651.56M2308.93 2651.56L2473.02 2595.06M2473.02 2595.06L2637.13 2538.55M2637.13 2538.55L2801.22 2482.05M2801.22 2482.05L2965.32 2425.55M2965.32 2425.55L3129.42 2369.04M3129.42 2369.04L3293.52 2312.54M3293.52 2312.54L3457.62 2256.03M3457.62 2256.03L3621.72 2199.53M3621.72 2199.53L3785.82 2143.03M3785.82 2143.03L3949.92 2086.52M3949.92 2086.52L4114.02 2030.02M4114.02 2030.02L4278.12 1973.51M4278.12 1973.51L4302.48 1965.13M492.408 1846.23L588.558 1813.12M588.558 1813.12L752.663 1756.61M752.663 1756.61L916.759 1700.11M916.759 1700.11L1080.86 1643.6M1080.86 1643.6L1244.96 1587.1M1244.96 1587.1L1409.06 1530.6M1409.06 1530.6L1573.16 1474.09M1573.16 1474.09L1737.26 1417.59M1737.26 1417.59L1901.36 1361.08M1901.36 1361.08L2065.46 1304.58M2065.46 1304.58L2229.56 1248.08M2229.56 1248.08L2393.66 1191.57M2393.66 1191.57L2557.76 1135.07M2557.76 1135.07L2721.86 1078.56M2721.86 1078.56L2885.96 1022.06M2885.96 1022.06L3050.05 965.558M3050.05 965.558L3214.16 909.052M3214.16 909.052L3378.25 852.549M3378.25 852.549L3542.36 796.043M3542.36 796.043L3566.71 787.658M860.291 2434.96L956.442 2401.85M956.442 2401.85L1120.55 2345.35M1120.55 2345.35L1284.64 2288.85M1284.64 2288.85L1448.75 2232.34M1448.75 2232.34L1612.84 2175.84M1612.84 2175.84L1776.94 2119.33M1776.94 2119.33L1941.05 2062.83M1941.05 2062.83L2105.14 2006.33M2105.14 2006.33L2269.25 1949.82M2269.25 1949.82L2433.34 1893.32M2433.34 1893.32L2597.44 1836.81M2597.44 1836.81L2761.54 1780.31M2761.54 1780.31L2925.64 1723.81M2925.64 1723.81L3089.74 1667.3M3089.74 1667.3L3253.84 1610.8M3253.84 1610.8L3417.94 1554.29M3417.94 1554.29L3582.04 1497.79M3582.04 1497.79L3746.14 1441.29M3746.14 1441.29L3910.24 1384.78M3910.24 1384.78L3934.6 1376.39M124.527 1257.49L220.678 1224.39M220.678 1224.39L384.783 1167.88M384.783 1167.88L548.879 1111.38M548.879 1111.38L712.984 1054.87M712.984 1054.87L877.081 998.369M877.081 998.369L1041.18 941.867M1041.18 941.867L1205.28 885.361M1205.28 885.361L1369.38 828.858M1369.38 828.858L1533.48 772.352M1533.48 772.352L1697.58 715.849M1697.58 715.849L1861.67 659.347M1861.67 659.347L2025.78 602.841M2025.78 602.841L2189.88 546.338M2189.88 546.338L2353.98 489.832M2353.98 489.832L2518.08 433.329M2518.08 433.329L2682.17 376.826M2682.17 376.826L2846.28 320.32M2846.28 320.32L3010.37 263.818M3010.37 263.818L3174.48 207.312M3174.48 207.312L3198.83 198.926" stroke="url(#paint0_radial_232_951)" stroke-opacity="0.8" stroke-width="0.281638"/>
<defs>
<radialGradient id="paint0_radial_232_951" cx="0" cy="0" r="1" gradientUnits="userSpaceOnUse" gradientTransform="translate(2336.21 995.636) rotate(118.84) scale(910.552 1178.27)">
<stop stop-color="white" stop-opacity="0.24"/>
<stop offset="0.480936" stop-color="white"/>
<stop offset="1" stop-color="white" stop-opacity="0.24"/>
</radialGradient>
</defs>
</svg>
