<svg width="499" height="65" viewBox="0 0 499 65" fill="none" xmlns="http://www.w3.org/2000/svg">
<path d="M121.978 4.19409L134.731 40.1498L147.424 4.19409H160.827V53.7882H150.554V40.2089L151.557 16.8288L138.155 53.7882H131.129L117.845 16.8288L118.849 40.2089V53.7882H108.635V4.19409H121.978Z" fill="white"/>
<path d="M180.606 53.7882H170.392V4.19409H180.606V53.7882Z" fill="white"/>
<path d="M230.436 53.7882H220.222L200.325 21.1388V53.7882H190.111V4.19409H200.325L220.222 36.9026V4.19409H230.377V53.7882H230.436Z" fill="white"/>
<path d="M269.167 32.2974H249.565V45.5816H272.591V53.7882H239.351V4.19409H272.532V12.4598H249.565V24.2679H269.167V32.2974Z" fill="white"/>
<path d="M283.159 48.8287C283.809 49.4782 284.104 50.1866 284.104 51.0722C284.104 51.8988 283.809 52.6663 283.159 53.3158C282.51 53.9652 281.801 54.2605 280.916 54.2605C280.03 54.2605 279.322 53.9652 278.672 53.3158C278.023 52.6663 277.728 51.9579 277.728 51.0722C277.728 50.2457 278.023 49.4782 278.672 48.8287C279.322 48.1793 280.03 47.884 280.916 47.884C281.801 47.884 282.569 48.1793 283.159 48.8287Z" fill="#FF8006"/>
<path d="M308.959 43.751H290.598C290.834 45.4041 291.661 46.8211 293.077 48.061C294.435 49.3008 296.089 49.8912 297.978 49.8912C299.336 49.8912 300.635 49.596 301.815 48.9466C302.996 48.2971 303.823 47.7067 304.354 47.1163L305.122 46.2307L308.31 49.4189C308.192 49.537 308.074 49.7141 307.897 49.9502C307.72 50.1864 307.247 50.5997 306.598 51.131C305.948 51.6624 305.24 52.1938 304.531 52.6071C303.823 53.0203 302.819 53.4336 301.697 53.7879C300.517 54.1421 299.336 54.3193 298.096 54.3193C294.79 54.3193 291.897 53.0794 289.476 50.6587C287.055 48.2381 285.875 45.2861 285.875 41.8617C285.875 38.5554 287.055 35.7214 289.417 33.3598C291.779 30.9982 294.613 29.8174 297.86 29.8174C301.166 29.8174 303.882 30.9391 306.066 33.1236C308.251 35.3081 309.373 38.0831 309.373 41.3893L308.959 43.751ZM297.683 33.9502C295.911 33.9502 294.435 34.4816 293.196 35.5443C292.015 36.6071 291.188 37.965 290.775 39.6181H304.413C304.118 37.965 303.41 36.6071 302.17 35.5443C300.989 34.4816 299.513 33.9502 297.683 33.9502Z" fill="#FF8006"/>
<path d="M326.377 41.5072L335.174 53.7286H329.565L323.425 45.1677L317.285 53.7286H311.676L320.473 41.5072L312.384 30.2305H317.993L323.425 37.7877L328.798 30.2305H334.465L326.377 41.5072Z" fill="#FF8006"/>
<path d="M341.256 50.6002C338.835 48.1795 337.595 45.2865 337.595 42.0393C337.595 38.733 338.835 35.899 341.256 33.4193C343.676 30.9986 346.569 29.7588 349.876 29.7588C351.706 29.7588 353.418 30.1721 355.012 30.9396C356.606 31.7071 357.728 32.5337 358.437 33.3012L359.44 34.423L356.252 37.6112C356.075 37.375 355.839 37.0208 355.544 36.6665C355.189 36.3123 354.481 35.7809 353.418 35.1315C352.355 34.482 351.175 34.1869 349.935 34.1869C347.927 34.1869 346.215 34.9544 344.739 36.4304C343.263 37.9655 342.555 39.7957 342.555 41.9802C342.555 44.1647 343.263 46.054 344.739 47.53C346.215 49.0651 347.927 49.7736 349.935 49.7736C351.175 49.7736 352.355 49.4784 353.418 48.8289C354.481 48.1795 355.307 47.5891 355.78 46.9986L356.547 46.113L359.735 49.3012C359.617 49.4193 359.499 49.5965 359.322 49.8326C359.145 50.0688 358.732 50.4821 358.082 51.0134C357.433 51.5448 356.783 52.0762 356.075 52.4895C355.366 52.9027 354.481 53.316 353.359 53.6703C352.237 54.0245 351.116 54.2016 349.994 54.2016C346.569 54.2607 343.735 53.0208 341.256 50.6002Z" fill="#FF8006"/>
<path d="M369.949 19.4854V32.7105C370.008 32.6514 370.126 32.5334 370.244 32.4153C370.422 32.2972 370.717 32.061 371.13 31.7068C371.602 31.3525 372.075 31.0573 372.606 30.8212C373.137 30.585 373.787 30.2898 374.613 30.1127C375.44 29.8765 376.208 29.8175 377.034 29.8175C379.868 29.8175 382.171 30.7621 383.942 32.5924C385.713 34.4817 386.599 36.9614 386.599 40.0906V53.788H381.698V40.0906C381.698 38.3784 381.167 37.0204 380.104 35.8986C379.041 34.7769 377.683 34.2455 376.089 34.2455C374.2 34.2455 372.724 34.8359 371.602 36.0758C370.481 37.2566 369.949 38.9688 369.949 41.1533V53.906H365.049V19.6034H369.949V19.4854Z" fill="#FF8006"/>
<path d="M412.281 53.7879H407.38V51.3672C407.321 51.4263 407.203 51.5443 407.085 51.6624C406.908 51.7805 406.613 52.0167 406.199 52.3709C405.727 52.7252 405.255 53.0204 404.723 53.2565C404.192 53.4927 403.543 53.7289 402.716 53.965C401.89 54.2012 401.122 54.2602 400.295 54.2602C397.875 54.2602 395.926 53.5517 394.332 52.1938C392.738 50.8359 391.971 49.2418 391.971 47.4115C391.971 45.4631 392.561 43.869 393.801 42.5701C395.041 41.2713 396.694 40.4447 398.819 40.0905L407.38 38.6145C407.38 37.3746 406.908 36.3118 406.022 35.4853C405.078 34.6587 403.956 34.2454 402.48 34.2454C401.24 34.2454 400.118 34.4816 399.115 35.013C398.111 35.5443 397.402 36.0757 397.048 36.6071L396.399 37.4336L393.211 34.2454C393.329 34.1274 393.447 33.9502 393.624 33.7731C393.801 33.596 394.155 33.2418 394.746 32.7104C395.336 32.179 395.926 31.7657 396.576 31.3524C397.225 30.9391 398.111 30.5849 399.174 30.2897C400.236 29.9945 401.358 29.8174 402.539 29.8174C405.432 29.8174 407.735 30.6439 409.624 32.3561C411.454 34.0683 412.399 36.1347 412.399 38.6145V53.7879H412.281ZM401.063 49.8322C403.07 49.8322 404.605 49.2418 405.727 48.061C406.849 46.8801 407.439 45.1679 407.439 42.9834V42.5111L399.823 43.751C398.937 43.9281 398.229 44.2824 397.698 44.8137C397.166 45.3451 396.871 46.0536 396.871 46.9392C396.871 47.7067 397.225 48.4152 397.993 49.0056C398.76 49.537 399.764 49.8322 401.063 49.8322Z" fill="#FF8006"/>
<path d="M424.03 30.2897V32.7104L424.325 32.4152C424.444 32.2971 424.798 32.0609 425.211 31.7067C425.624 31.3524 426.156 31.0572 426.687 30.8211C427.218 30.5849 427.868 30.2897 428.694 30.1126C429.521 29.8764 430.289 29.8174 431.115 29.8174C433.949 29.8174 436.252 30.762 438.023 32.5923C439.794 34.4816 440.68 36.9613 440.68 40.0905V53.7879H435.779V40.0905C435.779 38.3783 435.248 37.0203 434.185 35.8986C433.123 34.7768 431.765 34.2454 430.17 34.2454C428.281 34.2454 426.805 34.8358 425.683 36.0757C424.562 37.2565 424.03 38.9687 424.03 41.1532V53.906H419.13V30.4078H424.03V30.2897Z" fill="#FF8006"/>
<path d="M464.177 52.3714V50.364L463.882 50.6592C463.764 50.7773 463.469 51.0134 462.996 51.3677C462.524 51.7219 462.052 52.0171 461.52 52.2533C460.989 52.4894 460.34 52.7256 459.513 52.9618C458.686 53.1979 457.919 53.257 457.092 53.257C454.14 53.257 451.543 52.1352 449.358 49.8326C447.174 47.53 446.052 44.7551 446.052 41.5079C446.052 38.2606 447.115 35.4857 449.358 33.1832C451.602 30.8806 454.14 29.7588 457.092 29.7588C458.391 29.7588 459.631 29.995 460.812 30.5263C461.993 30.9987 462.819 31.53 463.351 32.0023L464.177 32.7108V30.2902H469.078V52.3714C469.078 55.6776 467.956 58.4525 465.653 60.6961C463.41 62.9396 460.635 64.1204 457.329 64.1204C455.971 64.1204 454.731 63.9433 453.491 63.5891C452.251 63.2349 451.306 62.8215 450.48 62.3492C449.712 61.8769 449.004 61.4046 448.413 60.9323C447.823 60.4599 447.41 60.0466 447.174 59.6924L446.76 59.2201L449.948 56.0319C450.008 56.15 450.126 56.268 450.244 56.4452C450.362 56.6223 450.716 56.9175 451.188 57.3308C451.661 57.7441 452.133 58.1573 452.664 58.4526C453.196 58.8068 453.845 59.102 454.672 59.3382C455.498 59.5743 456.384 59.7515 457.269 59.7515C459.277 59.7515 460.93 59.102 462.17 57.7441C463.41 56.3861 464.177 54.4968 464.177 52.3714ZM452.96 36.3123C451.661 37.7293 450.952 39.4415 450.952 41.5079C450.952 43.5743 451.602 45.2865 452.96 46.7034C454.258 48.1204 455.853 48.8289 457.624 48.8289C459.395 48.8289 460.93 48.1204 462.229 46.7034C463.528 45.2865 464.177 43.5743 464.177 41.5079C464.177 39.4415 463.528 37.7293 462.229 36.3123C460.93 34.8953 459.395 34.1869 457.624 34.1869C455.793 34.1869 454.258 34.8953 452.96 36.3123Z" fill="#FF8006"/>
<path d="M497.712 43.751H479.35C479.586 45.4041 480.413 46.8211 481.83 48.061C483.188 49.3008 484.841 49.8912 486.73 49.8912C488.088 49.8912 489.387 49.596 490.568 48.9466C491.749 48.2971 492.575 47.7067 493.107 47.1163L493.874 46.2307L497.062 49.4189C496.944 49.537 496.826 49.7141 496.649 49.9502C496.472 50.1864 496 50.5997 495.35 51.131C494.701 51.6624 493.992 52.1938 493.284 52.6071C492.575 53.0203 491.572 53.4336 490.45 53.7879C489.269 54.1421 488.088 54.3193 486.848 54.3193C483.542 54.3193 480.649 53.0794 478.228 50.6587C475.808 48.2381 474.627 45.2861 474.627 41.8617C474.627 38.5554 475.808 35.7214 478.169 33.3598C480.531 30.9982 483.365 29.8174 486.612 29.8174C489.859 29.8174 492.634 30.9391 494.819 33.1236C497.003 35.3081 498.125 38.0831 498.125 41.3893L497.712 43.751ZM486.435 33.9502C484.664 33.9502 483.188 34.4816 481.948 35.5443C480.767 36.6071 479.941 37.965 479.527 39.6181H493.166C492.871 37.965 492.162 36.6071 490.922 35.5443C489.741 34.4816 488.265 33.9502 486.435 33.9502Z" fill="#FF8006"/>
<path d="M285.757 4.13525H290.126C291.011 4.13525 291.72 4.37142 292.192 4.7847C292.724 5.25703 292.96 5.78839 292.96 6.49688C292.96 6.91017 292.901 7.2644 292.724 7.55961C292.547 7.85481 292.369 8.09097 292.192 8.20906L291.956 8.38619C292.015 8.38619 292.074 8.44522 292.133 8.44522C292.192 8.50426 292.31 8.56331 292.487 8.68139C292.665 8.79947 292.842 8.97658 292.96 9.09467C293.078 9.27179 293.196 9.44891 293.314 9.68507C293.432 9.92124 293.491 10.2164 293.491 10.5116C293.491 11.2792 293.196 11.9286 292.665 12.46C292.074 12.9323 291.307 13.2275 290.362 13.2275H285.757V4.13525ZM290.834 7.44153C291.011 7.26441 291.07 7.02824 291.07 6.73304C291.07 6.43784 291.011 6.20168 290.834 6.02456C290.657 5.84744 290.421 5.78839 290.126 5.78839H287.646V7.67769H290.126C290.421 7.67769 290.657 7.61866 290.834 7.44153ZM290.303 9.21275H287.646V11.6925H290.303C290.657 11.6925 290.952 11.5744 291.189 11.3382C291.425 11.1021 291.543 10.8069 291.543 10.4526C291.543 10.0984 291.425 9.80317 291.189 9.567C290.952 9.33084 290.657 9.21275 290.303 9.21275Z" fill="white"/>
<path d="M296.384 12.1059C295.439 11.1612 294.967 10.0394 294.967 8.74053C294.967 7.44164 295.439 6.31987 296.384 5.37522C297.328 4.43057 298.45 3.95825 299.749 3.95825C300.458 3.95825 301.107 4.13537 301.756 4.43057C302.347 4.72577 302.819 5.02098 303.055 5.37522L303.469 5.7885L302.229 7.02836C302.17 6.91027 302.052 6.79219 301.934 6.67411C301.816 6.55603 301.52 6.31986 301.107 6.0837C300.694 5.84754 300.221 5.72947 299.749 5.72947C298.982 5.72947 298.332 6.02468 297.742 6.61508C297.151 7.20549 296.915 7.91397 296.915 8.79958C296.915 9.68519 297.21 10.3937 297.742 10.9841C298.332 11.5745 298.982 11.8697 299.749 11.8697C300.221 11.8697 300.694 11.7516 301.107 11.5154C301.52 11.2793 301.816 11.0431 302.052 10.807L302.347 10.4527L303.587 11.6926C303.528 11.7516 303.469 11.8107 303.41 11.9287C303.351 12.0468 303.173 12.1649 302.937 12.4011C302.701 12.6372 302.406 12.8143 302.17 12.9915C301.875 13.1686 301.52 13.2867 301.107 13.4638C300.694 13.5819 300.221 13.7 299.808 13.7C298.45 13.5228 297.328 13.0505 296.384 12.1059Z" fill="white"/>
<path d="M313.918 9.38974H306.775C306.893 10.0392 307.188 10.5706 307.719 11.0429C308.251 11.5152 308.9 11.7514 309.608 11.7514C310.14 11.7514 310.612 11.6333 311.084 11.3971C311.557 11.161 311.852 10.9248 312.088 10.6886L312.383 10.3344L313.623 11.5742C313.564 11.6333 313.505 11.6923 313.446 11.8104C313.387 11.9285 313.21 12.0466 312.974 12.2827C312.738 12.5189 312.442 12.696 312.147 12.8731C311.852 13.0503 311.498 13.1683 311.025 13.3455C310.553 13.4635 310.081 13.5816 309.608 13.5816C308.31 13.5816 307.188 13.1093 306.243 12.1647C305.298 11.22 304.826 10.0982 304.826 8.74028C304.826 7.44139 305.298 6.37867 306.184 5.43402C307.07 4.48937 308.191 4.07608 309.49 4.07608C310.789 4.07608 311.852 4.48937 312.679 5.37498C313.505 6.20155 313.977 7.32332 313.977 8.56317L313.918 9.38974ZM308.369 0.474591C308.605 0.710754 308.664 0.946931 308.664 1.30117C308.664 1.65542 308.546 1.89158 308.369 2.12774C308.132 2.3639 307.896 2.48199 307.542 2.48199C307.188 2.48199 306.952 2.3639 306.715 2.12774C306.479 1.89158 306.42 1.65542 306.42 1.30117C306.42 0.946931 306.538 0.710754 306.715 0.474591C306.952 0.238428 307.188 0.120361 307.542 0.120361C307.896 0.179402 308.132 0.297469 308.369 0.474591ZM309.549 5.61114C308.841 5.61114 308.31 5.78826 307.837 6.20154C307.365 6.61483 307.07 7.1462 306.893 7.79565H312.206C312.088 7.1462 311.793 6.61483 311.321 6.20154C310.848 5.78826 310.258 5.61114 309.549 5.61114ZM312.383 0.474591C312.62 0.710754 312.679 0.946931 312.679 1.30117C312.679 1.65542 312.56 1.89158 312.383 2.12774C312.147 2.3639 311.911 2.48199 311.557 2.48199C311.203 2.48199 310.966 2.3639 310.73 2.12774C310.494 1.89158 310.435 1.65542 310.435 1.30117C310.435 0.946931 310.553 0.710754 310.73 0.474591C310.966 0.238428 311.203 0.120361 311.557 0.120361C311.852 0.179402 312.147 0.297469 312.383 0.474591Z" fill="white"/>
<path d="M324.783 8.15001L328.149 4.13525H329.684V13.2866H327.794V7.2644L324.842 10.8068L321.89 7.2644V13.2866H319.942V4.13525H321.477L324.783 8.15001Z" fill="white"/>
<path d="M340.783 9.39008H333.639C333.757 10.0395 334.052 10.5709 334.583 11.0432C335.115 11.5155 335.764 11.7517 336.473 11.7517C337.004 11.7517 337.476 11.6336 337.949 11.3975C338.421 11.1613 338.716 10.9251 338.952 10.689L339.248 10.3347L340.487 11.5746C340.428 11.6336 340.369 11.6927 340.31 11.8107C340.251 11.9288 340.074 12.0469 339.838 12.2831C339.602 12.5192 339.307 12.6963 339.011 12.8735C338.716 13.0506 338.362 13.1687 337.89 13.3458C337.417 13.4639 336.945 13.582 336.473 13.582C335.174 13.582 334.052 13.1096 333.107 12.165C332.163 11.2203 331.69 10.0986 331.69 8.74062C331.69 7.44173 332.163 6.37901 333.048 5.43436C333.993 4.48971 335.056 4.07642 336.355 4.07642C337.654 4.07642 338.716 4.48971 339.543 5.37532C340.369 6.20189 340.842 7.32366 340.842 8.56351L340.783 9.39008ZM336.414 5.61148C335.705 5.61148 335.174 5.7886 334.701 6.20188C334.229 6.61517 333.934 7.14654 333.757 7.79599H339.071C338.952 7.14654 338.657 6.61517 338.185 6.20188C337.654 5.7886 337.063 5.61148 336.414 5.61148Z" fill="white"/>
<path d="M344.856 9.50775V13.3454H342.966V4.19409H344.856V7.79558H349.343V4.19409H351.232V13.2863H349.343V9.44871H344.856V9.50775Z" fill="white"/>
<path d="M356.96 4.13525H361.152V13.2866H359.262V10.4526H357.255L355.425 13.2866H353.358L355.366 10.1574C355.307 10.1574 355.248 10.0984 355.189 10.0984C355.13 10.0393 354.953 9.98028 354.775 9.80316C354.598 9.62604 354.362 9.44892 354.244 9.2718C354.067 9.09468 353.949 8.79946 353.831 8.44521C353.713 8.09097 353.654 7.73673 353.654 7.32345C353.654 6.43784 353.949 5.67031 354.598 5.07991C355.13 4.4895 355.956 4.13525 356.96 4.13525ZM359.262 5.78839H356.96C356.547 5.78839 356.192 5.90647 355.897 6.20168C355.602 6.49688 355.484 6.85112 355.484 7.2644C355.484 7.67769 355.602 8.09098 355.897 8.32714C356.192 8.62235 356.547 8.74042 356.96 8.74042H359.262V5.78839Z" fill="white"/>
<path d="M372.311 9.39008H365.167C365.285 10.0395 365.58 10.5709 366.112 11.0432C366.643 11.5155 367.293 11.7517 368.001 11.7517C368.532 11.7517 369.005 11.6336 369.477 11.3975C369.949 11.1613 370.245 10.9251 370.481 10.689L370.776 10.3347L372.016 11.5746C371.957 11.6336 371.898 11.6927 371.839 11.8107C371.78 11.9288 371.603 12.0469 371.366 12.2831C371.13 12.5192 370.835 12.6963 370.54 12.8735C370.245 13.0506 369.89 13.1687 369.418 13.3458C368.946 13.4639 368.473 13.582 368.001 13.582C366.702 13.582 365.58 13.1096 364.636 12.165C363.691 11.2203 363.219 10.0986 363.219 8.74062C363.219 7.44173 363.691 6.37901 364.577 5.43436C365.521 4.48971 366.584 4.07642 367.883 4.07642C369.182 4.07642 370.245 4.48971 371.071 5.37532C371.898 6.20189 372.37 7.32366 372.37 8.56351L372.311 9.39008ZM367.883 5.61148C367.174 5.61148 366.643 5.7886 366.171 6.20188C365.698 6.61517 365.403 7.14654 365.226 7.79599H370.54C370.422 7.14654 370.127 6.61517 369.654 6.20188C369.182 5.7886 368.591 5.61148 367.883 5.61148Z" fill="white"/>
<path d="M373.55 5.84743V4.13525H381.756V5.84743H378.627V13.2866H376.738V5.84743H373.55Z" fill="white"/>
<path d="M384.295 12.1059C383.35 11.1612 382.878 10.0394 382.878 8.74053C382.878 7.44164 383.35 6.31987 384.295 5.37522C385.24 4.43057 386.361 3.95825 387.66 3.95825C388.369 3.95825 389.018 4.13537 389.668 4.43057C390.258 4.72577 390.73 5.02098 390.967 5.37522L391.38 5.7885L390.14 7.02836C390.081 6.91027 389.963 6.79219 389.845 6.67411C389.727 6.55603 389.431 6.31986 389.018 6.0837C388.605 5.84754 388.133 5.72947 387.66 5.72947C386.893 5.72947 386.184 6.02468 385.653 6.61508C385.062 7.20549 384.826 7.91397 384.826 8.79958C384.826 9.68519 385.121 10.3937 385.653 10.9841C386.243 11.5745 386.893 11.8697 387.66 11.8697C388.133 11.8697 388.605 11.7516 389.018 11.5154C389.431 11.2793 389.727 11.0431 389.963 10.807L390.258 10.4527L391.498 11.6926C391.439 11.7516 391.38 11.8107 391.321 11.9287C391.262 12.0468 391.085 12.1649 390.848 12.4011C390.612 12.6372 390.317 12.8143 390.081 12.9915C389.786 13.1686 389.431 13.2867 389.018 13.4638C388.605 13.5819 388.133 13.7 387.719 13.7C386.361 13.5228 385.24 13.0505 384.295 12.1059Z" fill="white"/>
<path d="M396.398 4.13525H400.59V13.2866H398.7V10.4526H396.693L394.863 13.2866H392.796L394.804 10.1574C394.745 10.1574 394.686 10.0984 394.627 10.0984C394.568 10.0393 394.39 9.98028 394.213 9.80316C394.036 9.62604 393.8 9.44892 393.682 9.2718C393.505 9.09468 393.387 8.79946 393.269 8.44521C393.151 8.09097 393.092 7.73673 393.092 7.32345C393.092 6.43784 393.387 5.67031 394.036 5.07991C394.509 4.4895 395.335 4.13525 396.398 4.13525ZM398.641 5.78839H396.339C395.926 5.78839 395.512 5.90647 395.276 6.20168C394.981 6.49688 394.863 6.85112 394.863 7.2644C394.863 7.67769 394.981 8.09098 395.276 8.32714C395.571 8.62235 395.926 8.74042 396.339 8.74042H398.641V5.78839Z" fill="white"/>
<path d="M415.115 4.13525L411.573 7.9729L415.351 13.2866H413.285L410.333 9.21275L408.916 10.7478V13.2866H407.026V4.13525H408.916V8.20906L412.812 4.13525H415.115V4.13525Z" fill="white"/>
<path d="M421.787 4.13525H428.813V13.2866H426.924V5.84743H423.677V6.79208C423.677 8.5633 423.559 9.92124 423.263 10.9249C422.968 11.9286 422.614 12.6371 422.201 12.9323C421.787 13.2866 421.197 13.4637 420.548 13.4637C420.37 13.4637 420.193 13.4637 420.016 13.4046C419.839 13.3456 419.662 13.3456 419.603 13.2866L419.426 13.2275V11.5153C419.662 11.5744 419.898 11.6334 420.075 11.6334C420.488 11.6334 420.784 11.5153 421.02 11.3382C421.256 11.1021 421.433 10.6888 421.61 9.92123C421.787 9.21274 421.846 8.20906 421.846 6.85113V4.13525H421.787Z" fill="white"/>
<path d="M433.712 14.2312L434.066 13.2866L430.347 4.13525H432.354L435.011 10.8068L437.668 4.13525H439.675L435.542 14.2312C435.07 15.353 434.598 16.1796 434.125 16.5928C433.653 17.0652 433.063 17.3013 432.413 17.3013C432.177 17.3013 431.941 17.3013 431.705 17.2423C431.468 17.1832 431.291 17.1832 431.232 17.1242L431.114 17.0652V15.353C431.409 15.4711 431.764 15.5301 432.059 15.5301C432.826 15.5891 433.358 15.1759 433.712 14.2312Z" fill="white"/>
<path d="M446.939 13.2866V9.86221C446.289 10.3345 445.522 10.5116 444.636 10.5116C443.514 10.5116 442.629 10.1574 441.979 9.50796C441.33 8.85851 440.976 7.91386 440.976 6.79208V4.13525H442.865V6.79208C442.865 7.38249 443.042 7.85481 443.396 8.20906C443.75 8.5633 444.223 8.79946 444.754 8.79946C445.167 8.79946 445.522 8.74043 445.876 8.62235C446.23 8.50427 446.466 8.38618 446.643 8.20906L446.88 8.03194V4.13525H448.769V13.2866H446.939Z" fill="white"/>
<path d="M451.483 13.2866V4.13525H453.373V11.5744H456.679V4.13525H458.568V11.5744H461.934V4.13525H463.823V13.2866H451.483Z" fill="white"/>
<path d="M475.041 9.39008H467.898C468.016 10.0395 468.311 10.5709 468.842 11.0432C469.374 11.5155 470.023 11.7517 470.732 11.7517C471.263 11.7517 471.735 11.6336 472.208 11.3975C472.68 11.1613 472.975 10.9251 473.211 10.689L473.506 10.3347L474.746 11.5746C474.687 11.6336 474.628 11.6927 474.569 11.8107C474.51 11.9288 474.333 12.0469 474.097 12.2831C473.861 12.5192 473.565 12.6963 473.27 12.8735C472.975 13.0506 472.621 13.1687 472.148 13.3458C471.676 13.4639 471.204 13.582 470.732 13.582C469.433 13.582 468.311 13.1096 467.366 12.165C466.422 11.2203 465.949 10.0986 465.949 8.74062C465.949 7.44173 466.422 6.37901 467.307 5.43436C468.193 4.48971 469.315 4.07642 470.613 4.07642C471.912 4.07642 472.975 4.48971 473.802 5.37532C474.628 6.20189 475.101 7.32366 475.101 8.56351L475.041 9.39008ZM470.613 5.61148C469.905 5.61148 469.374 5.7886 468.901 6.20188C468.429 6.61517 468.134 7.14654 467.957 7.79599H473.27C473.152 7.14654 472.857 6.61517 472.385 6.20188C471.912 5.7886 471.322 5.61148 470.613 5.61148Z" fill="white"/>
<path d="M482.067 8.15001L485.433 4.13525H486.968V13.2866H485.079V7.2644L482.126 10.8068L479.174 7.2644V13.2866H477.285V4.13525H478.82L482.067 8.15001Z" fill="white"/>
<path d="M491.808 14.2312L492.162 13.2866L488.442 4.13525H490.45L493.107 10.8068L495.763 4.13525H497.771L493.638 14.2312C493.166 15.353 492.693 16.1796 492.221 16.5928C491.749 17.0652 491.158 17.3013 490.509 17.3013C490.273 17.3013 490.036 17.3013 489.8 17.2423C489.564 17.1832 489.387 17.1832 489.328 17.1242L489.21 17.0652V15.353C489.505 15.4711 489.859 15.5301 490.155 15.5301C490.922 15.5891 491.453 15.1759 491.808 14.2312Z" fill="white"/>
<path d="M60.8709 44.8141C59.6311 50.3639 54.6717 54.5558 48.7676 54.5558C45.3432 54.5558 42.2141 53.1388 39.9706 50.8953L44.6348 46.8805L36.6643 44.9321V44.8731L29.9927 43.22C30.5831 53.0798 38.7307 60.9322 48.7676 60.9322C57.6827 60.9322 65.1809 54.6739 67.0702 46.3491L60.8709 44.8141Z" fill="white"/>
<path d="M36.6055 39.5007C37.8453 33.9509 42.8048 29.759 48.7088 29.759C52.1922 29.759 55.3214 31.1759 57.5649 33.4785L52.8417 37.4933L67.4837 41.0947C66.9524 31.235 58.7457 23.3826 48.7088 23.3826C39.7346 23.3826 32.2955 29.6409 30.3472 38.0247L36.6055 39.5007Z" fill="white"/>
<path d="M28.5757 53.9653C26.5683 50.4819 25.3875 46.4671 25.3875 42.1572C25.3875 29.2273 35.8377 18.777 48.7676 18.777C61.6975 18.777 72.1477 29.2273 72.1477 42.1572C72.1477 46.4671 70.9669 50.4819 68.9595 53.9653H97.5352V49.5373C97.5352 47.1756 95.6459 45.2273 93.2252 45.2273H81.0038C81.1809 43.8693 81.299 42.5114 81.299 41.0944H92.2215C89.3876 25.3306 78.1698 12.4597 63.2916 7.38221V13.3453C61.8746 12.5778 60.5757 12.1055 59.1587 11.5741V2.0095C55.8525 1.30101 52.4871 0.946777 49.0037 0.946777C45.4613 0.946777 42.0369 1.30102 38.7307 2.06855V11.5151C37.3137 11.9874 35.8967 12.5778 34.5978 13.2863V7.38221C19.7786 12.5187 8.61994 25.3306 5.78599 41.0944H16.3543C16.3543 42.5114 16.4133 43.8693 16.6495 45.2273H4.30997C1.94834 45.2273 0 47.1166 0 49.5373V53.9653H28.5757Z" fill="url(#paint0_linear_102_179)"/>
<defs>
<linearGradient id="paint0_linear_102_179" x1="18.5328" y1="14.4303" x2="65.37" y2="61.2674" gradientUnits="userSpaceOnUse">
<stop stop-color="#FF8006"/>
<stop offset="0.9987" stop-color="#FF6817"/>
</linearGradient>
</defs>
</svg>
