<?xml version="1.0" encoding="utf-8"?>
<!-- Generator: Adobe Illustrator 16.0.0, SVG Export Plug-In . SVG Version: 6.00 Build 0)  -->
<!DOCTYPE svg PUBLIC "-//W3C//DTD SVG 1.1//EN" "http://www.w3.org/Graphics/SVG/1.1/DTD/svg11.dtd">
<svg version="1.1" id="Layer_1" xmlns="http://www.w3.org/2000/svg" xmlns:xlink="http://www.w3.org/1999/xlink" x="0px" y="0px"
	 width="640px" height="84px" viewBox="0 0 640 84" enable-background="new 0 0 640 84" xml:space="preserve">
<g id="new" display="none">
	<g display="inline">
		<g>
			<path d="M157.54,6.426l16.286,45.996l16.205-45.996h17.166V69.84H194.09V52.504l1.309-29.922L178.284,69.84h-8.967
				l-17.076-47.218l1.31,29.882V69.84h-13.086V6.426H157.54z"/>
			<path d="M232.5,69.84h-13.067V6.426H232.5V69.84z"/>
			<path d="M296.183,69.84h-13.066l-25.433-41.73v41.73h-13.067V6.426h13.067l25.483,41.818V6.426h13.026V69.84H296.183z"/>
			<path d="M345.74,42.357h-25.084v16.985h29.441V69.84H307.59V6.426h42.429v10.586h-29.363v15.116h25.096L345.74,42.357
				L345.74,42.357z"/>
		</g>
	</g>
	<g display="inline">
		<path fill="#FF8006" d="M363.654,63.541c0.82,0.82,1.221,1.768,1.221,2.859c0,1.088-0.408,2.039-1.221,2.85
			c-0.82,0.799-1.768,1.209-2.859,1.209c-1.09,0-2.047-0.41-2.857-1.209c-0.82-0.803-1.223-1.75-1.223-2.85
			c0-1.092,0.41-2.051,1.223-2.859c0.818-0.82,1.768-1.221,2.857-1.221C361.887,62.32,362.834,62.721,363.654,63.541z"/>
		<path fill="#FF8006" d="M396.646,56.992h-23.494c0.33,2.119,1.369,3.959,3.129,5.508c1.76,1.551,3.859,2.32,6.289,2.32
			c1.75,0,3.387-0.4,4.908-1.191c1.521-0.797,2.588-1.568,3.219-2.318l0.949-1.168l4.07,4.068c-0.121,0.16-0.311,0.389-0.57,0.688
			c-0.262,0.301-0.799,0.803-1.627,1.502c-0.844,0.699-1.732,1.33-2.662,1.869c-0.941,0.541-2.158,1.039-3.658,1.502
			c-1.502,0.457-3.039,0.688-4.629,0.688c-4.26,0-7.938-1.559-11.029-4.699c-3.088-3.129-4.629-6.887-4.629-11.275
			c0-4.219,1.514-7.84,4.51-10.848c3.012-3.009,6.619-4.509,10.828-4.509c4.211,0,7.721,1.399,10.518,4.208
			c2.811,2.809,4.207,6.318,4.207,10.537L396.646,56.992z M382.242,44.486c-2.271,0-4.162,0.668-5.701,1.998
			c-1.539,1.34-2.57,3.059-3.107,5.189h17.404c-0.369-2.119-1.309-3.85-2.848-5.189C386.461,45.154,384.539,44.486,382.242,44.486z"
			/>
		<path fill="#FF8006" d="M418.881,54.182l11.256,15.668h-7.186l-7.83-10.957l-7.828,10.957h-7.219l11.289-15.668l-10.336-14.405
			h7.186l6.908,9.696l6.889-9.696h7.219L418.881,54.182z"/>
		<path fill="#FF8006" d="M437.945,65.789c-3.109-3.107-4.67-6.766-4.67-10.986c0-4.209,1.561-7.877,4.67-10.996
			c3.109-3.12,6.779-4.679,10.998-4.679c2.338,0,4.52,0.499,6.547,1.51c2.02,1.01,3.471,2.009,4.338,3.007l1.311,1.441l-4.07,4.07
			c-0.207-0.33-0.506-0.732-0.928-1.213c-0.42-0.479-1.328-1.129-2.719-1.938c-1.4-0.82-2.891-1.219-4.479-1.219
			c-2.549,0-4.76,0.971-6.619,2.908c-1.869,1.939-2.799,4.309-2.799,7.107c0,2.801,0.93,5.178,2.799,7.107
			c1.869,1.939,4.07,2.9,6.619,2.9c1.588,0,3.078-0.4,4.479-1.189c1.398-0.801,2.4-1.57,3.008-2.32l0.951-1.17l4.068,4.07
			c-0.121,0.16-0.311,0.389-0.549,0.689c-0.24,0.299-0.771,0.801-1.592,1.498c-0.82,0.701-1.668,1.332-2.568,1.869
			c-0.889,0.543-2.061,1.041-3.488,1.502c-1.43,0.461-2.859,0.689-4.309,0.689C444.725,70.449,441.066,68.9,437.945,65.789z"/>
		<path fill="#FF8006" d="M474.576,25.981v16.916c0.078-0.08,0.221-0.211,0.41-0.4c0.189-0.181,0.58-0.48,1.168-0.9
			c0.582-0.42,1.213-0.8,1.883-1.13c0.678-0.33,1.516-0.639,2.539-0.919c1.018-0.28,2.047-0.41,3.086-0.41
			c3.631,0,6.58,1.188,8.84,3.58c2.258,2.387,3.398,5.588,3.398,9.607V69.85h-6.27V52.313c0-2.158-0.688-3.959-2.066-5.387
			c-1.381-1.43-3.1-2.139-5.162-2.139c-2.387,0-4.287,0.768-5.705,2.309c-1.42,1.541-2.121,3.688-2.121,6.469V69.84h-6.238V25.981
			H474.576z"/>
		<path fill="#FF8006" d="M528.779,69.84h-6.266v-3.119c-0.082,0.078-0.219,0.211-0.41,0.4c-0.189,0.189-0.58,0.479-1.172,0.898
			c-0.576,0.42-1.207,0.799-1.877,1.129c-0.67,0.332-1.521,0.641-2.539,0.9c-1.02,0.26-2.051,0.4-3.092,0.4
			c-3.059,0-5.598-0.891-7.617-2.658c-2.02-1.781-3.029-3.801-3.029-6.088c0-2.471,0.781-4.541,2.342-6.209
			c1.559-1.67,3.688-2.74,6.406-3.182l10.977-1.898c0-1.588-0.588-2.93-1.76-4.01c-1.168-1.08-2.678-1.617-4.508-1.617
			c-1.588,0-3.029,0.328-4.328,0.998c-1.289,0.66-2.189,1.33-2.678,2l-0.82,1.07l-4.07-4.068c0.119-0.16,0.291-0.371,0.498-0.621
			c0.213-0.25,0.701-0.699,1.441-1.35c0.75-0.641,1.531-1.22,2.369-1.729c0.842-0.511,1.939-0.971,3.318-1.36
			c1.381-0.4,2.801-0.6,4.27-0.6c3.67,0,6.678,1.09,9.02,3.259c2.338,2.168,3.518,4.848,3.518,8.028L528.779,69.84L528.779,69.84
			L528.779,69.84z M514.377,64.83c2.549,0,4.537-0.76,5.979-2.279c1.438-1.518,2.158-3.689,2.158-6.498v-0.609l-9.729,1.561
			c-1.119,0.209-2.027,0.658-2.721,1.379c-0.697,0.711-1.037,1.609-1.037,2.689c0,0.998,0.479,1.879,1.447,2.627
			C511.445,64.449,512.746,64.83,514.377,64.83z"/>
		<path fill="#FF8006" d="M543.797,39.777v3.12l0.4-0.4c0.189-0.181,0.57-0.48,1.17-0.9s1.219-0.8,1.881-1.13
			c0.658-0.33,1.508-0.639,2.539-0.919c1.037-0.28,2.068-0.41,3.1-0.41c3.627,0,6.566,1.188,8.816,3.58
			c2.248,2.387,3.377,5.588,3.377,9.607V69.85h-6.266V52.313c0-2.158-0.691-3.959-2.07-5.387c-1.381-1.43-3.08-2.139-5.119-2.139
			c-2.389,0-4.289,0.768-5.697,2.309c-1.42,1.541-2.119,3.688-2.119,6.469V69.84h-6.27V39.777H543.797L543.797,39.777z"/>
		<path fill="#FF8006" d="M595.125,68.039v-2.568l-0.4,0.398c-0.182,0.189-0.568,0.48-1.15,0.898
			c-0.578,0.422-1.209,0.803-1.879,1.131c-0.68,0.332-1.521,0.643-2.539,0.92c-1.021,0.283-2.059,0.41-3.121,0.41
			c-3.787,0-7.088-1.459-9.875-4.387c-2.791-2.932-4.189-6.48-4.189-10.668c0-4.189,1.398-7.738,4.189-10.668
			c2.787-2.929,6.088-4.389,9.875-4.389c1.67,0,3.262,0.32,4.77,0.951c1.51,0.629,2.602,1.27,3.279,1.898l1.041,0.92v-3.12h6.268
			v28.204c0,4.219-1.449,7.777-4.34,10.674c-2.889,2.902-6.457,4.34-10.676,4.34c-1.709,0-3.35-0.217-4.9-0.656
			c-1.547-0.441-2.828-0.961-3.818-1.561c-1-0.6-1.879-1.209-2.627-1.82c-0.752-0.611-1.293-1.15-1.623-1.59l-0.52-0.639l4.1-4.068
			c0.08,0.119,0.211,0.287,0.4,0.498s0.578,0.59,1.18,1.131c0.6,0.539,1.238,1.02,1.91,1.439c0.67,0.418,1.539,0.797,2.598,1.127
			c1.061,0.332,2.16,0.502,3.301,0.502c2.549,0,4.648-0.871,6.289-2.6C594.305,73.029,595.125,70.789,595.125,68.039z
			 M580.748,47.516c-1.689,1.818-2.539,4.039-2.539,6.666c0,2.633,0.85,4.85,2.539,6.67c1.689,1.818,3.668,2.721,5.928,2.721
			s4.238-0.912,5.918-2.721c1.68-1.82,2.52-4.037,2.52-6.67c0-2.627-0.84-4.848-2.52-6.666c-1.68-1.82-3.658-2.721-5.918-2.721
			C584.416,44.787,582.438,45.695,580.748,47.516z"/>
		<path fill="#FF8006" d="M638.004,56.992H614.51c0.328,2.119,1.369,3.959,3.129,5.508c1.758,1.551,3.859,2.32,6.289,2.32
			c1.75,0,3.387-0.4,4.906-1.191c1.521-0.797,2.592-1.568,3.221-2.318l0.949-1.168l4.07,4.068c-0.119,0.16-0.313,0.389-0.572,0.688
			c-0.258,0.301-0.799,0.803-1.629,1.502c-0.84,0.699-1.729,1.33-2.658,1.869c-0.941,0.541-2.16,1.039-3.658,1.502
			c-1.5,0.457-3.041,0.688-4.629,0.688c-4.26,0-7.941-1.559-11.029-4.699c-3.088-3.129-4.627-6.887-4.627-11.275
			c0-4.219,1.508-7.84,4.508-10.848c3.01-3.009,6.617-4.509,10.826-4.509s7.719,1.399,10.518,4.208
			c2.809,2.809,4.209,6.318,4.209,10.537L638.004,56.992z M623.596,44.486c-2.27,0-4.156,0.668-5.697,1.998
			c-1.541,1.34-2.568,3.059-3.111,5.189h17.406c-0.371-2.119-1.311-3.85-2.848-5.189C627.814,45.154,625.906,44.486,623.596,44.486z
			"/>
	</g>
	<g display="inline">
		<g>
			<path d="M366.926,6.426h5.607c1.121,0,2.008,0.29,2.658,0.86c0.65,0.569,0.979,1.299,0.979,2.178c0,0.501-0.109,0.951-0.328,1.36
				c-0.221,0.41-0.438,0.7-0.67,0.851l-0.328,0.229c0.049,0.01,0.119,0.051,0.199,0.08c0.078,0.03,0.24,0.141,0.48,0.301
				c0.229,0.159,0.428,0.339,0.6,0.529c0.17,0.189,0.318,0.46,0.457,0.789c0.143,0.331,0.213,0.7,0.213,1.08
				c0,1.01-0.361,1.83-1.072,2.469c-0.719,0.641-1.697,0.951-2.949,0.951h-5.836V6.426H366.926z M373.424,10.605
				c0.219-0.22,0.328-0.51,0.328-0.891c0-0.379-0.109-0.68-0.328-0.889c-0.23-0.221-0.52-0.33-0.891-0.33h-3.17v2.438h3.17
				C372.904,10.934,373.203,10.825,373.424,10.605z M372.783,12.884h-3.42v3.17h3.42c0.479,0,0.871-0.141,1.148-0.431
				c0.281-0.29,0.432-0.67,0.432-1.15c0-0.44-0.15-0.81-0.441-1.118C373.623,13.034,373.252,12.884,372.783,12.884z"/>
			<path d="M380.563,16.542c-1.213-1.209-1.822-2.629-1.822-4.268c0-1.641,0.609-3.061,1.822-4.279
				c1.207-1.22,2.639-1.819,4.275-1.819c0.912,0,1.762,0.189,2.551,0.589c0.791,0.391,1.352,0.791,1.691,1.17l0.508,0.561
				L388,10.064c-0.08-0.129-0.201-0.279-0.363-0.469c-0.158-0.189-0.508-0.439-1.057-0.75c-0.551-0.32-1.129-0.48-1.742-0.48
				c-0.986,0-1.848,0.381-2.568,1.13c-0.729,0.751-1.09,1.67-1.09,2.77c0,1.091,0.369,2.009,1.09,2.769
				c0.73,0.751,1.582,1.13,2.568,1.13c0.621,0,1.201-0.149,1.742-0.46c0.537-0.309,0.93-0.609,1.168-0.908l0.371-0.45l1.58,1.579
				c-0.051,0.06-0.121,0.15-0.209,0.27c-0.102,0.121-0.301,0.311-0.623,0.59c-0.316,0.28-0.648,0.51-0.998,0.73
				c-0.35,0.209-0.801,0.41-1.359,0.59c-0.561,0.18-1.111,0.27-1.68,0.27C383.189,18.363,381.77,17.753,380.563,16.542z"/>
			<path d="M402.965,13.125h-9.137c0.129,0.819,0.527,1.539,1.219,2.139c0.689,0.609,1.5,0.899,2.449,0.899
				c0.68,0,1.32-0.149,1.908-0.46c0.59-0.309,1.01-0.609,1.262-0.908l0.369-0.45l1.578,1.579c-0.049,0.06-0.119,0.15-0.221,0.27
				c-0.096,0.121-0.309,0.311-0.639,0.59c-0.328,0.28-0.67,0.51-1.037,0.73c-0.371,0.209-0.84,0.41-1.422,0.59
				c-0.578,0.18-1.178,0.27-1.799,0.27c-1.658,0-3.09-0.609-4.291-1.83c-1.199-1.219-1.799-2.679-1.799-4.379
				c0-1.639,0.592-3.048,1.76-4.219c1.17-1.169,2.57-1.759,4.211-1.759c1.639,0,3.008,0.55,4.088,1.629
				c1.092,1.09,1.629,2.46,1.629,4.099L402.965,13.125z M395.855,1.716c0.281,0.28,0.41,0.621,0.41,1.051
				c0,0.42-0.139,0.77-0.41,1.049c-0.27,0.28-0.617,0.42-1.049,0.42c-0.428,0-0.77-0.14-1.049-0.42
				c-0.281-0.279-0.41-0.619-0.41-1.049c0-0.42,0.141-0.771,0.41-1.051c0.268-0.279,0.621-0.42,1.049-0.42
				C395.238,1.296,395.586,1.447,395.855,1.716z M397.367,8.255c-0.881,0-1.621,0.26-2.221,0.779c-0.6,0.521-1,1.189-1.209,2.02
				h6.768c-0.141-0.82-0.51-1.499-1.109-2.02C399.006,8.515,398.256,8.255,397.367,8.255z M400.975,1.716
				c0.27,0.28,0.408,0.621,0.408,1.051c0,0.42-0.139,0.77-0.408,1.049c-0.27,0.28-0.617,0.42-1.051,0.42
				c-0.418,0-0.766-0.14-1.049-0.42c-0.27-0.279-0.41-0.619-0.41-1.049c0-0.42,0.141-0.771,0.41-1.051
				c0.283-0.279,0.621-0.42,1.049-0.42C400.346,1.306,400.705,1.447,400.975,1.716z"/>
			<path d="M416.84,11.535l4.27-5.118h1.951v11.696h-2.441v-7.678l-3.779,4.509l-3.77-4.509v7.678h-2.438V6.426h1.949L416.84,11.535
				z"/>
			<path d="M437.305,13.125h-9.137c0.121,0.819,0.531,1.539,1.219,2.139c0.691,0.609,1.5,0.899,2.451,0.899
				c0.68,0,1.318-0.149,1.91-0.46c0.588-0.309,1.01-0.609,1.258-0.908l0.371-0.45l1.58,1.579c-0.051,0.06-0.121,0.15-0.221,0.27
				c-0.102,0.121-0.311,0.311-0.639,0.59c-0.33,0.28-0.67,0.51-1.041,0.73c-0.369,0.209-0.84,0.41-1.42,0.59
				c-0.59,0.18-1.182,0.27-1.799,0.27c-1.662,0-3.09-0.609-4.289-1.83c-1.199-1.219-1.799-2.679-1.799-4.379
				c0-1.639,0.588-3.048,1.76-4.219c1.168-1.169,2.568-1.759,4.219-1.759c1.641,0,3.006,0.55,4.086,1.629
				c1.092,1.09,1.633,2.46,1.633,4.099L437.305,13.125z M431.697,8.255c-0.881,0-1.619,0.26-2.219,0.779
				c-0.6,0.521-1,1.189-1.211,2.02h6.768c-0.139-0.82-0.508-1.499-1.107-2.02C433.346,8.515,432.605,8.255,431.697,8.255z"/>
			<path d="M442.543,13.234v4.879h-2.438V6.426h2.438v4.628h5.721V6.426h2.439v11.696h-2.439v-4.879L442.543,13.234L442.543,13.234z
				"/>
			<path d="M458.01,6.426h5.359v11.696h-2.43v-3.659h-2.561l-2.32,3.659h-2.678l2.561-4.019c-0.061-0.011-0.15-0.05-0.262-0.11
				c-0.109-0.06-0.291-0.18-0.551-0.369c-0.258-0.191-0.498-0.421-0.695-0.67c-0.203-0.25-0.393-0.611-0.561-1.061
				c-0.172-0.449-0.26-0.93-0.26-1.449c0-1.17,0.41-2.129,1.207-2.879C455.633,6.805,456.689,6.426,458.01,6.426z M460.939,8.496
				h-2.93c-0.549,0-1.02,0.189-1.391,0.559c-0.369,0.371-0.561,0.84-0.561,1.391c0,0.55,0.191,1.02,0.561,1.39
				c0.371,0.369,0.842,0.56,1.391,0.56h2.93V8.496z"/>
			<path d="M477.615,13.125h-9.137c0.129,0.819,0.529,1.539,1.217,2.139c0.682,0.609,1.502,0.899,2.451,0.899
				c0.68,0,1.318-0.149,1.908-0.46c0.592-0.309,1.01-0.609,1.262-0.908l0.371-0.45l1.578,1.579c-0.049,0.06-0.119,0.15-0.221,0.27
				c-0.1,0.121-0.309,0.311-0.639,0.59c-0.332,0.28-0.672,0.51-1.041,0.73c-0.371,0.209-0.838,0.41-1.42,0.59
				c-0.58,0.18-1.18,0.27-1.799,0.27c-1.66,0-3.09-0.609-4.289-1.83c-1.199-1.219-1.799-2.679-1.799-4.379
				c0-1.639,0.59-3.048,1.758-4.219c1.17-1.169,2.57-1.759,4.221-1.759c1.631,0,2.998,0.55,4.088,1.629
				c1.092,1.09,1.629,2.46,1.629,4.099L477.615,13.125z M472.006,8.255c-0.877,0-1.619,0.26-2.219,0.779
				c-0.6,0.521-1,1.189-1.199,2.02h6.768c-0.141-0.82-0.512-1.499-1.109-2.02C473.646,8.515,472.904,8.255,472.006,8.255z"/>
			<path d="M479.195,8.615V6.426h10.467v2.188h-4.021v9.508h-2.428V8.615H479.195z"/>
			<path d="M492.941,16.542c-1.211-1.209-1.82-2.629-1.82-4.268c0-1.641,0.609-3.061,1.82-4.279c1.209-1.22,2.639-1.819,4.277-1.819
				c0.912,0,1.762,0.189,2.551,0.589c0.791,0.391,1.35,0.791,1.689,1.17l0.51,0.561l-1.58,1.578
				c-0.08-0.129-0.199-0.279-0.371-0.469c-0.158-0.189-0.51-0.439-1.059-0.75c-0.551-0.32-1.127-0.48-1.74-0.48
				c-0.988,0-1.848,0.381-2.568,1.13c-0.73,0.751-1.092,1.67-1.092,2.771c0,1.09,0.361,2.009,1.092,2.77
				c0.73,0.749,1.58,1.128,2.568,1.128c0.621,0,1.201-0.149,1.74-0.46c0.549-0.309,0.932-0.609,1.17-0.908l0.369-0.45l1.58,1.579
				c-0.051,0.061-0.121,0.15-0.209,0.271c-0.102,0.12-0.299,0.31-0.621,0.589c-0.32,0.281-0.648,0.511-0.998,0.73
				c-0.352,0.211-0.801,0.41-1.361,0.59c-0.551,0.18-1.109,0.27-1.68,0.27C495.58,18.363,494.15,17.753,492.941,16.542z"/>
			<path d="M508.416,6.426h5.359v11.696h-2.43v-3.659h-2.559l-2.318,3.659h-2.682l2.563-4.019c-0.063-0.011-0.15-0.05-0.262-0.11
				c-0.109-0.06-0.291-0.18-0.551-0.369c-0.26-0.191-0.498-0.421-0.701-0.67c-0.197-0.25-0.387-0.611-0.559-1.061
				c-0.168-0.449-0.262-0.93-0.262-1.449c0-1.17,0.41-2.129,1.213-2.879C506.037,6.805,507.098,6.426,508.416,6.426z M511.346,8.496
				h-2.93c-0.549,0-1.018,0.189-1.389,0.559c-0.369,0.371-0.559,0.84-0.559,1.391c0,0.55,0.189,1.02,0.559,1.39
				c0.371,0.369,0.84,0.56,1.389,0.56h2.93V8.496z"/>
			<path d="M532.41,6.426l-4.508,4.878l4.867,6.818h-2.678l-3.77-5.238l-1.83,1.949v3.279h-2.439V6.426h2.439v5.238l4.998-5.238
				H532.41z"/>
			<path d="M540.916,6.426h9.021v11.696h-2.441V8.615h-4.137v1.221c0,2.229-0.172,3.988-0.531,5.277
				c-0.359,1.29-0.801,2.15-1.359,2.59c-0.561,0.439-1.262,0.66-2.139,0.66c-0.213,0-0.441-0.02-0.682-0.06
				c-0.24-0.041-0.43-0.081-0.57-0.13l-0.207-0.051v-2.319c0.328,0.079,0.607,0.12,0.838,0.13c0.5,0,0.889-0.14,1.18-0.41
				c0.289-0.27,0.529-0.869,0.729-1.789c0.189-0.93,0.291-2.23,0.291-3.898L540.916,6.426L540.916,6.426z"/>
			<path d="M556.145,19.333l0.488-1.22l-4.756-11.696h2.557l3.422,8.537l3.406-8.527h2.561l-5.248,12.906
				c-0.609,1.439-1.199,2.459-1.791,3.038c-0.59,0.58-1.328,0.871-2.217,0.871c-0.332,0-0.631-0.021-0.914-0.061
				c-0.277-0.039-0.498-0.08-0.627-0.13l-0.17-0.05v-2.199c0.41,0.159,0.811,0.24,1.219,0.25
				C555.004,21.042,555.695,20.462,556.145,19.333z"/>
			<path d="M573.08,18.123v-4.389c-0.809,0.569-1.779,0.859-2.93,0.859c-1.42,0-2.539-0.42-3.379-1.279s-1.26-2.01-1.26-3.469V6.426
				h2.43v3.419c0,0.729,0.238,1.339,0.711,1.83c0.469,0.488,1.049,0.729,1.727,0.729c0.502,0,0.971-0.08,1.42-0.24
				c0.449-0.159,0.771-0.329,0.971-0.499l0.299-0.24V6.426h2.43v11.696H573.08z"/>
			<path d="M578.908,18.123V6.426h2.439v9.507h4.26V6.426h2.438v9.507h4.27V6.426h2.43v11.696H578.908z"/>
			<path d="M608.99,13.125h-9.139c0.133,0.819,0.531,1.539,1.221,2.139c0.689,0.609,1.5,0.899,2.449,0.899
				c0.682,0,1.32-0.149,1.912-0.46c0.588-0.309,1.008-0.609,1.258-0.908l0.367-0.45l1.582,1.579c-0.051,0.06-0.121,0.15-0.219,0.27
				c-0.102,0.121-0.311,0.311-0.643,0.59c-0.328,0.28-0.666,0.51-1.037,0.73c-0.371,0.209-0.842,0.41-1.42,0.59
				c-0.59,0.18-1.182,0.27-1.801,0.27c-1.66,0-3.088-0.609-4.287-1.83c-1.201-1.219-1.801-2.679-1.801-4.379
				c0-1.639,0.588-3.048,1.762-4.219c1.168-1.169,2.566-1.759,4.205-1.759c1.641,0,3.012,0.55,4.092,1.629
				c1.088,1.09,1.629,2.46,1.629,4.099L608.99,13.125z M603.383,8.255c-0.883,0-1.621,0.26-2.223,0.779
				c-0.6,0.521-0.998,1.189-1.207,2.02h6.768c-0.139-0.82-0.51-1.499-1.109-2.02C605.031,8.515,604.281,8.255,603.383,8.255z"/>
			<path d="M617.998,11.535l4.27-5.118h1.951v11.696h-2.443v-7.678l-3.777,4.509l-3.77-4.509v7.678h-2.439V6.426h1.949
				L617.998,11.535z"/>
			<path d="M630.434,19.333l0.49-1.22l-4.758-11.696h2.557l3.422,8.537l3.418-8.537h2.561l-5.248,12.906
				c-0.611,1.439-1.203,2.459-1.791,3.038c-0.588,0.58-1.328,0.87-2.219,0.87c-0.332,0-0.631-0.021-0.908-0.06
				c-0.283-0.039-0.504-0.08-0.631-0.13l-0.172-0.05v-2.2c0.41,0.16,0.811,0.241,1.221,0.251
				C629.283,21.042,629.984,20.462,630.434,19.333z"/>
		</g>
	</g>
	<g display="inline">
		<g>
			<path d="M79.331,58.4c-1.56,7.109-7.898,12.438-15.485,12.438c-4.389,0-8.359-1.777-11.228-4.67l5.999-5.107l-10.208-2.488
				c-0.01-0.031-0.01-0.051-0.02-0.078l-8.537-2.09c0.74,12.615,11.197,22.611,23.994,22.611c11.426,0,20.994-7.975,23.433-18.676
				L79.331,58.4z"/>
			<path d="M48.369,51.594c1.549-7.129,7.898-12.466,15.486-12.466c4.438,0,8.447,1.829,11.327,4.769l-6.019,5.139l18.695,4.568
				c-0.71-12.637-11.187-22.655-23.993-22.655c-11.447,0-21.024,7.999-23.444,18.713L48.369,51.594z"/>
		</g>
		
			<linearGradient id="SVGID_1_" gradientUnits="userSpaceOnUse" x1="184.3677" y1="-228.4512" x2="319.5997" y2="-363.6833" gradientTransform="matrix(0.4429 0 0 -0.4429 -56.4289 -81.6584)">
			<stop  offset="0" style="stop-color:#FF8006"/>
			<stop  offset="0.9987" style="stop-color:#FF6817"/>
		</linearGradient>
		<path fill="url(#SVGID_1_)" d="M38.071,70.088c-2.599-4.426-4.099-9.598-4.099-15.104c0-16.498,13.377-29.883,29.883-29.883
			c16.505,0,29.882,13.376,29.882,29.883c0,5.506-1.5,10.666-4.099,15.104h36.52V64.41c0-3.029-2.449-5.479-5.478-5.479h-15.646
			c0.24-1.73,0.339-3.498,0.35-5.299h14.007c-3.61-20.165-17.986-36.6-36.971-43.139v7.629c-1.839-0.971-3.458-1.619-5.298-2.299
			V3.566c-4.199-0.909-8.548-1.389-13.006-1.389c-4.499,0-8.888,0.49-13.117,1.408l-0.01,12.107c-1.8,0.631-3.59,1.36-5.299,2.24
			v-7.398c-18.945,6.578-33.261,22.984-36.86,43.098h13.507c0,1.801,0.101,3.568,0.34,5.299H7.04c-3.03,0-5.479,2.449-5.479,5.479
			v5.678H38.071L38.071,70.088z"/>
	</g>
</g>
<g id="old">
	<g>
		<path d="M370.501,18.29V5.893h4.835c1.65,0,2.916,0.288,3.798,0.865c0.884,0.577,1.324,1.423,1.324,2.538
			c0,0.573-0.172,1.09-0.516,1.552s-0.854,0.816-1.524,1.06c0.749,0.176,1.352,0.52,1.806,1.031
			c0.453,0.511,0.682,1.123,0.682,1.833c0,1.138-0.418,2.009-1.255,2.612c-0.836,0.604-2.02,0.905-3.546,0.905L370.501,18.29
			L370.501,18.29z M372.621,11.15h2.738c1.984,0,2.979-0.58,2.979-1.741c0-1.161-0.938-1.761-2.817-1.799h-2.898L372.621,11.15
			L372.621,11.15z M372.621,12.847v3.735h3.506c0.887,0,1.548-0.164,1.987-0.493c0.439-0.329,0.659-0.791,0.659-1.387
			c0-1.237-0.909-1.856-2.728-1.856L372.621,12.847L372.621,12.847z"/>
		<path d="M388.684,16.789c0.757,0,1.417-0.229,1.981-0.688c0.565-0.458,0.879-1.031,0.939-1.719h2.005
			c-0.038,0.71-0.282,1.387-0.732,2.028c-0.451,0.642-1.053,1.153-1.805,1.535c-0.753,0.382-1.549,0.573-2.39,0.573
			c-1.688,0-3.03-0.563-4.027-1.69c-0.996-1.126-1.495-2.667-1.495-4.623V11.85c0-1.207,0.222-2.28,0.665-3.22
			c0.442-0.939,1.079-1.669,1.907-2.188c0.829-0.519,1.809-0.779,2.938-0.779c1.391,0,2.545,0.416,3.467,1.249
			c0.92,0.833,1.41,1.914,1.472,3.243h-2.005c-0.062-0.802-0.364-1.461-0.91-1.977c-0.547-0.516-1.221-0.773-2.022-0.773
			c-1.077,0-1.912,0.388-2.504,1.163c-0.592,0.775-0.888,1.896-0.888,3.363v0.401c0,1.429,0.294,2.528,0.882,3.3
			C386.752,16.402,387.592,16.789,388.684,16.789z"/>
		<path d="M401.138,18.519c-1.681,0-3.048-0.552-4.103-1.655c-1.054-1.104-1.581-2.58-1.581-4.429v-0.389
			c0-1.23,0.235-2.328,0.705-3.294c0.47-0.966,1.126-1.722,1.971-2.269c0.845-0.546,1.76-0.819,2.744-0.819
			c1.611,0,2.864,0.531,3.758,1.592c0.895,1.062,1.342,2.582,1.342,4.56v0.882h-8.398c0.03,1.222,0.388,2.209,1.071,2.962
			c0.683,0.753,1.552,1.128,2.605,1.128c0.748,0,1.382-0.153,1.901-0.458s0.975-0.71,1.364-1.214l1.294,1.008
			C404.774,17.721,403.216,18.519,401.138,18.519z M397.174,2.576c0-0.345,0.104-0.635,0.315-0.869
			c0.21-0.234,0.521-0.351,0.934-0.351c0.412,0,0.727,0.117,0.939,0.351s0.32,0.524,0.32,0.869c0,0.345-0.106,0.633-0.32,0.863
			s-0.527,0.345-0.939,0.345c-0.413,0-0.724-0.115-0.934-0.345C397.278,3.208,397.174,2.92,397.174,2.576z M400.875,7.404
			c-0.854,0-1.574,0.313-2.153,0.934c-0.581,0.623-0.939,1.495-1.077,2.618h6.21v-0.16c-0.063-1.077-0.353-1.912-0.871-2.503
			C402.464,7.703,401.761,7.404,400.875,7.404z M402.101,2.599c0-0.345,0.104-0.637,0.314-0.875c0.21-0.238,0.521-0.357,0.935-0.357
			c0.411,0,0.726,0.119,0.938,0.357c0.213,0.238,0.32,0.53,0.32,0.875c0,0.345-0.106,0.633-0.32,0.863s-0.527,0.345-0.938,0.345
			c-0.413,0-0.725-0.115-0.935-0.345C402.205,3.23,402.101,2.943,402.101,2.599z"/>
		<path d="M421.372,15.481l4.216-9.59h2.647v12.397h-2.12V9.271l-4.01,9.017h-1.468l-4.09-9.212v9.212h-2.12V5.893h2.75
			L421.372,15.481z"/>
		<path d="M436.782,18.519c-1.68,0-3.047-0.552-4.102-1.655s-1.581-2.58-1.581-4.429v-0.389c0-1.23,0.234-2.328,0.704-3.294
			c0.471-0.966,1.127-1.722,1.972-2.269c0.844-0.546,1.759-0.819,2.744-0.819c1.61,0,2.863,0.531,3.758,1.592
			c0.894,1.062,1.341,2.582,1.341,4.56v0.882h-8.398c0.03,1.222,0.389,2.209,1.071,2.962c0.684,0.753,1.552,1.128,2.606,1.128
			c0.748,0,1.382-0.153,1.9-0.458c0.521-0.305,0.976-0.71,1.364-1.214l1.294,1.008C440.419,17.721,438.86,18.519,436.782,18.519z
			 M436.52,7.404c-0.855,0-1.574,0.313-2.154,0.934c-0.581,0.623-0.939,1.495-1.077,2.618h6.21v-0.16
			c-0.062-1.077-0.352-1.912-0.871-2.503C438.108,7.703,437.405,7.404,436.52,7.404z"/>
		<path d="M454.198,18.29h-2.119v-5.293h-5.694v5.293h-2.132V5.893h2.132v5.374h5.694V5.893h2.119V18.29z"/>
		<path d="M467.076,5.893V18.29h-2.131v-4.824h-3.196l-2.922,4.824h-2.292l3.117-5.145c-0.795-0.29-1.404-0.739-1.828-1.346
			s-0.636-1.315-0.636-2.125c0-1.13,0.424-2.041,1.271-2.732c0.85-0.691,1.982-1.041,3.403-1.048L467.076,5.893L467.076,5.893z
			 M459.319,9.695c0,0.604,0.207,1.09,0.619,1.461c0.412,0.371,0.958,0.56,1.639,0.567h3.368V7.61h-3.048
			c-0.786,0-1.413,0.193-1.879,0.579C459.552,8.576,459.319,9.078,459.319,9.695z"/>
		<path d="M475.623,18.519c-1.68,0-3.047-0.552-4.102-1.655s-1.581-2.58-1.581-4.429v-0.389c0-1.23,0.234-2.328,0.705-3.294
			c0.47-0.966,1.126-1.722,1.971-2.269c0.844-0.546,1.759-0.819,2.744-0.819c1.611,0,2.864,0.531,3.758,1.592
			c0.895,1.062,1.341,2.582,1.341,4.56v0.882h-8.397c0.029,1.222,0.388,2.209,1.07,2.962c0.684,0.753,1.553,1.128,2.606,1.128
			c0.748,0,1.382-0.153,1.901-0.458s0.975-0.71,1.363-1.214l1.294,1.008C479.26,17.721,477.701,18.519,475.623,18.519z
			 M475.36,7.404c-0.855,0-1.574,0.313-2.154,0.934c-0.581,0.623-0.938,1.495-1.077,2.618h6.21v-0.16
			c-0.062-1.077-0.352-1.912-0.871-2.503C476.949,7.703,476.246,7.404,475.36,7.404z"/>
		<path d="M491.996,7.61h-4.158v10.678h-2.12V7.61h-4.078V5.893h10.356V7.61z"/>
		<path d="M498.114,16.789c0.757,0,1.417-0.229,1.982-0.688c0.564-0.458,0.879-1.031,0.938-1.719h2.005
			c-0.038,0.71-0.282,1.387-0.731,2.028c-0.451,0.642-1.054,1.153-1.806,1.535c-0.753,0.382-1.549,0.573-2.39,0.573
			c-1.688,0-3.03-0.563-4.027-1.69c-0.996-1.126-1.495-2.667-1.495-4.623V11.85c0-1.207,0.223-2.28,0.665-3.22
			c0.442-0.939,1.079-1.669,1.907-2.188c0.829-0.519,1.81-0.779,2.939-0.779c1.39,0,2.545,0.416,3.466,1.249
			c0.92,0.833,1.411,1.914,1.472,3.243h-2.005c-0.061-0.802-0.364-1.461-0.91-1.977c-0.547-0.516-1.221-0.773-2.021-0.773
			c-1.077,0-1.912,0.388-2.504,1.163c-0.593,0.775-0.889,1.896-0.889,3.363v0.401c0,1.429,0.294,2.528,0.882,3.3
			C496.183,16.402,497.022,16.789,498.114,16.789z"/>
		<path d="M514.9,5.893V18.29h-2.131v-4.824h-3.196l-2.922,4.824h-2.292l3.117-5.145c-0.795-0.29-1.404-0.739-1.828-1.346
			s-0.636-1.315-0.636-2.125c0-1.13,0.424-2.041,1.271-2.732c0.849-0.691,1.982-1.041,3.403-1.048L514.9,5.893L514.9,5.893z
			 M507.144,9.695c0,0.604,0.207,1.09,0.618,1.461c0.412,0.371,0.958,0.56,1.64,0.567h3.368V7.61h-3.049
			c-0.785,0-1.412,0.193-1.879,0.579C507.376,8.576,507.144,9.078,507.144,9.695z"/>
		<path d="M527.973,13.008h-1.547v5.282h-2.132V5.893h2.132v5.248h1.387l4.171-5.248h2.565l-4.903,5.958l5.315,6.439h-2.691
			L527.973,13.008z"/>
		<path d="M552.756,5.893V18.29h-2.131V7.645h-4.217l-0.252,4.64c-0.137,2.131-0.494,3.655-1.071,4.572
			c-0.576,0.917-1.49,1.394-2.744,1.432h-0.848V16.42l0.607-0.046c0.688-0.076,1.181-0.473,1.479-1.191
			c0.298-0.718,0.488-2.047,0.572-3.987l0.229-5.305L552.756,5.893L552.756,5.893z"/>
		<path d="M560.215,15.185l2.888-9.292h2.269l-4.982,14.311c-0.771,2.062-1.998,3.093-3.679,3.093l-0.4-0.034l-0.79-0.149v-1.719
			l0.571,0.046c0.719,0,1.277-0.145,1.68-0.436c0.4-0.29,0.73-0.821,0.991-1.592l0.47-1.261l-4.423-12.259h2.313L560.215,15.185z"/>
		<path d="M576.622,18.29h-2.131v-4.491c-0.933,0.245-1.887,0.367-2.864,0.367c-1.551,0-2.732-0.397-3.547-1.192
			c-0.813-0.795-1.228-1.925-1.243-3.391V5.88h2.12v3.77c0.038,1.849,0.928,2.773,2.67,2.773c0.979,0,1.933-0.122,2.864-0.367V5.893
			h2.131V18.29z"/>
		<path d="M582.328,5.893V16.56h4.537V5.893h2.119V16.56h4.524V5.893h2.133V18.29h-15.445V5.893H582.328z"/>
		<path d="M604.131,18.519c-1.68,0-3.047-0.552-4.102-1.655c-1.054-1.104-1.581-2.58-1.581-4.429v-0.389
			c0-1.23,0.235-2.328,0.705-3.294c0.47-0.966,1.126-1.722,1.971-2.269c0.844-0.546,1.759-0.819,2.744-0.819
			c1.611,0,2.864,0.531,3.758,1.592c0.895,1.062,1.342,2.582,1.342,4.56v0.882h-8.398c0.03,1.222,0.388,2.209,1.071,2.962
			c0.683,0.753,1.552,1.128,2.605,1.128c0.748,0,1.382-0.153,1.901-0.458s0.975-0.71,1.364-1.214l1.294,1.008
			C607.768,17.721,606.209,18.519,604.131,18.519z M603.868,7.404c-0.854,0-1.574,0.313-2.154,0.934
			c-0.581,0.623-0.938,1.495-1.076,2.618h6.21v-0.16c-0.063-1.077-0.353-1.912-0.871-2.503
			C605.457,7.703,604.754,7.404,603.868,7.404z"/>
		<path d="M618.557,15.481l4.216-9.59h2.646v12.397h-2.12V9.271l-4.01,9.017h-1.467l-4.09-9.212v9.212h-2.12V5.893h2.75
			L618.557,15.481z"/>
		<path d="M632.879,15.185l2.888-9.292h2.269l-4.983,14.311c-0.771,2.062-1.997,3.093-3.678,3.093l-0.4-0.034l-0.79-0.149v-1.719
			l0.571,0.046c0.719,0,1.277-0.145,1.68-0.436c0.4-0.29,0.73-0.821,0.991-1.592l0.47-1.261l-4.423-12.259h2.313L632.879,15.185z"/>
	</g>
	<g>
		<g>
			<path fill="#030303" d="M55.789,57.078l-16.508-4.521c0.28,12.598,10.571,22.727,23.236,22.727
				c11.552,0,21.131-8.426,22.939-19.467l-0.049,0.176l-7.373-2.02c-0.956,7.723-7.537,13.701-15.519,13.701
				c-4.747,0-8.998-2.117-11.864-5.459L55.789,57.078z"/>
			<path fill="#030303" d="M85.767,52.064c0-0.01,0-0.021,0-0.035c0-12.839-10.409-23.247-23.251-23.247
				c-11.673,0-21.336,8.602-22.996,19.815l7.421,2.031c0.709-7.98,7.409-14.241,15.575-14.241c4.906,0,9.28,2.262,12.146,5.793
				l-5.37,5.372L85.767,52.064z"/>
		</g>
		<g>
			<g>
				<g>
					<defs>
						<path id="SVGID_2_" d="M49.837,2.641l-0.021,11.942c-1.77,0.623-3.539,1.341-5.221,2.208V9.5
							C25.935,15.979,11.816,32.153,8.261,51.996h13.321c0.001,1.773,0.098,3.516,0.338,5.223H6.496
							c-2.983,0-5.401,2.42-5.401,5.402v5.938h38.108c-3.219-4.621-5.111-10.238-5.111-16.297c0-15.768,12.782-28.552,28.552-28.552
							c15.769,0,28.552,12.784,28.552,28.552c0,6.059-1.893,11.676-5.112,16.297h37.869v-5.938c0-2.982-2.419-5.402-5.404-5.402
							h-15.425c0.24-1.707,0.339-3.449,0.341-5.223h13.81c-3.562-19.887-17.735-36.085-36.456-42.54v7.523
							c-1.813-0.956-3.409-1.598-5.221-2.267V2.622c-4.135-0.894-8.426-1.368-12.829-1.368C58.329,1.253,54.005,1.735,49.837,2.641"
							/>
					</defs>
					<clipPath id="SVGID_3_">
						<use xlink:href="#SVGID_2_"  overflow="visible"/>
					</clipPath>
					
						<linearGradient id="SVGID_4_" gradientUnits="userSpaceOnUse" x1="174.5728" y1="546.3164" x2="175.5099" y2="546.3164" gradientTransform="matrix(-128.5815 -78.0473 -78.0473 128.5815 65207.6016 -56549.9492)">
						<stop  offset="0" style="stop-color:#E56625"/>
						<stop  offset="1" style="stop-color:#F78C20"/>
					</linearGradient>
					<polygon clip-path="url(#SVGID_3_)" fill="url(#SVGID_4_)" points="90.874,123.055 -28.759,50.439 34.173,-53.244 
						153.807,19.374 					"/>
				</g>
			</g>
		</g>
	</g>
	<g>
		<path fill="#010101" d="M159.477,5.765l16.343,46.142l16.254-46.142h17.216v63.62h-13.15V51.994l1.311-30.02l-17.171,47.41h-9.001
			l-17.128-47.366l1.311,29.976v17.391h-13.107V5.765H159.477z"/>
		<path fill="#010101" d="M234.677,69.385h-13.108V5.765h13.108V69.385z"/>
		<path fill="#010101" d="M298.557,69.385h-13.108l-25.518-41.859v41.859h-13.109V5.765h13.109l25.562,41.946V5.765h13.064V69.385z"
			/>
		<path fill="#010101" d="M348.281,41.813h-25.17v17.04h29.539v10.531h-42.646V5.765h42.56v10.619h-29.452v15.162h25.17V41.813z"/>
	</g>
	<g>
		<path fill="#EA7624" d="M362.933,60.439c-1.182,0-2.21,0.439-3.086,1.316c-0.886,0.883-1.323,1.91-1.323,3.09
			c0,1.178,0.438,2.197,1.323,3.066c0.876,0.871,1.904,1.303,3.086,1.303c1.173,0,2.202-0.432,3.084-1.303
			c0.881-0.869,1.318-1.893,1.318-3.066c0-1.18-0.438-2.207-1.318-3.09C365.138,60.881,364.105,60.439,362.933,60.439z"/>
		<path fill="#EA7624" d="M402.14,51.328c0-4.551-1.512-8.342-4.538-11.366c-3.026-3.025-6.81-4.539-11.354-4.539
			c-4.543,0-8.438,1.622-11.684,4.869c-3.246,3.243-4.867,7.145-4.867,11.698c0,4.73,1.665,8.785,5.001,12.162
			c3.332,3.377,7.297,5.063,11.896,5.063c1.72,0,3.385-0.244,5.004-0.742c1.614-0.494,2.931-1.033,3.941-1.615
			c1.01-0.582,1.969-1.254,2.869-2.014c0.901-0.76,1.494-1.297,1.767-1.615c0.275-0.318,0.478-0.564,0.61-0.742l-4.39-4.389
			l-1.023,1.252c-0.679,0.814-1.841,1.646-3.48,2.508c-1.641,0.855-3.401,1.287-5.298,1.287c-2.615,0-4.878-0.834-6.781-2.508
			c-1.902-1.674-3.028-3.652-3.38-5.939h25.344L402.14,51.328z M376.73,48.955c0.568-2.287,1.686-4.15,3.349-5.596
			c1.66-1.441,3.713-2.161,6.153-2.161c2.486,0,4.552,0.72,6.203,2.161c1.649,1.443,2.676,3.309,3.068,5.596H376.73z"/>
		<polygon fill="#EA7624" points="433.545,36.118 425.757,36.118 418.334,46.578 410.873,36.118 403.118,36.118 414.271,51.658 
			402.094,68.559 409.885,68.559 418.334,56.742 426.78,68.559 434.536,68.559 422.389,51.658 		"/>
		<path fill="#EA7624" d="M459.535,59.35c-0.656,0.816-1.741,1.648-3.249,2.508c-1.506,0.857-3.119,1.289-4.835,1.289
			c-2.751,0-5.129-1.047-7.144-3.135c-2.019-2.092-3.021-4.646-3.021-7.676c0-3.023,1.002-5.578,3.021-7.67
			c2.015-2.09,4.393-3.136,7.144-3.136c1.716,0,3.329,0.438,4.835,1.317c1.508,0.881,2.485,1.58,2.938,2.098
			c0.447,0.52,0.785,0.951,1.007,1.303l4.393-4.388l-1.421-1.553c-0.947-1.076-2.508-2.162-4.687-3.251
			c-2.178-1.086-4.537-1.632-7.063-1.632c-4.555,0-8.51,1.683-11.863,5.05s-5.03,7.322-5.03,11.863s1.677,8.492,5.03,11.852
			c3.354,3.354,7.311,5.029,11.863,5.029c1.563,0,3.114-0.244,4.654-0.742c1.539-0.494,2.793-1.033,3.76-1.617
			c0.971-0.58,1.896-1.254,2.771-2.01c0.885-0.762,1.452-1.299,1.718-1.617c0.268-0.318,0.462-0.566,0.593-0.744l-4.386-4.389
			L459.535,59.35z"/>
		<path fill="#EA7624" d="M485.532,35.423c-1.123,0-2.237,0.15-3.337,0.445c-1.103,0.297-2.012,0.627-2.736,0.992
			c-0.726,0.362-1.407,0.769-2.03,1.22c-0.629,0.452-1.044,0.775-1.253,0.973c-0.212,0.2-0.357,0.341-0.443,0.428V26.866h-6.733
			v41.693h6.733V51.002c0-2.992,0.764-5.318,2.291-6.98c1.526-1.662,3.58-2.489,6.153-2.489c2.223,0,4.074,0.768,5.563,2.311
			c1.485,1.537,2.229,3.477,2.229,5.807v18.91h6.765V49.646c0-4.334-1.223-7.788-3.663-10.361
			C492.622,36.709,489.442,35.423,485.532,35.423z"/>
		<path fill="#EA7624" d="M517.297,35.423c-1.585,0-3.116,0.214-4.604,0.645c-1.484,0.43-2.679,0.919-3.576,1.469
			c-0.904,0.548-1.756,1.17-2.56,1.862c-0.805,0.694-1.323,1.18-1.557,1.452c-0.229,0.278-0.41,0.502-0.542,0.68l4.39,4.388
			l0.892-1.154c0.528-0.727,1.488-1.449,2.888-2.162c1.396-0.713,2.954-1.07,4.671-1.07c1.979,0,3.603,0.582,4.869,1.748
			c1.264,1.166,1.896,2.605,1.896,4.322l-11.847,2.045c-2.926,0.484-5.229,1.629-6.917,3.434c-1.681,1.807-2.522,4.037-2.522,6.701
			c0,2.463,1.091,4.65,3.271,6.564c2.177,1.914,4.918,2.873,8.221,2.873c1.122,0,2.229-0.145,3.331-0.43
			c1.1-0.285,2.013-0.611,2.736-0.975c0.729-0.365,1.407-0.771,2.029-1.223c0.631-0.449,1.043-0.775,1.254-0.977
			c0.209-0.195,0.358-0.336,0.444-0.428v3.367h6.769V47.604c0-3.436-1.267-6.32-3.795-8.666
			C524.501,36.597,521.258,35.423,517.297,35.423z M524.06,53.676c0,3.035-0.771,5.373-2.32,7.014
			c-1.556,1.639-3.705,2.457-6.455,2.457c-1.76,0-3.161-0.404-4.209-1.221c-1.044-0.813-1.57-1.76-1.57-2.842
			c0-1.164,0.377-2.131,1.126-2.9c0.749-0.771,1.729-1.266,2.938-1.484l10.492-1.686L524.06,53.676L524.06,53.676z"/>
		<path fill="#EA7624" d="M553.454,35.423c-1.122,0-2.24,0.148-3.352,0.445c-1.112,0.297-2.023,0.627-2.74,0.989
			c-0.71,0.364-1.393,0.771-2.03,1.223c-0.635,0.452-1.052,0.775-1.253,0.973l-0.426,0.428v-3.364h-6.77v32.439h6.77V51.002
			c0-2.992,0.764-5.318,2.291-6.98c1.528-1.662,3.58-2.493,6.158-2.493c2.195,0,4.042,0.77,5.524,2.312
			c1.485,1.539,2.227,3.477,2.227,5.809v18.91h6.769V49.646c0-4.334-1.218-7.788-3.646-10.361
			C560.546,36.711,557.37,35.423,553.454,35.423z"/>
		<path fill="#EA7624" d="M595.649,39.484l-1.12-0.991c-0.729-0.684-1.903-1.362-3.531-2.045c-1.63-0.681-3.346-1.024-5.149-1.024
			c-4.092,0-7.646,1.579-10.655,4.736c-3.021,3.16-4.523,6.992-4.523,11.501s1.504,8.346,4.523,11.502
			c3.011,3.156,6.563,4.734,10.655,4.734c1.146,0,2.268-0.15,3.366-0.447c1.099-0.293,2.015-0.625,2.737-0.99
			c0.725-0.359,1.402-0.77,2.03-1.221c0.625-0.449,1.039-0.771,1.237-0.973l0.43-0.432v2.771c0,2.971-0.884,5.393-2.657,7.264
			c-1.771,1.867-4.029,2.807-6.781,2.807c-1.229,0-2.418-0.182-3.563-0.547c-1.146-0.361-2.081-0.77-2.811-1.221
			c-0.726-0.453-1.415-0.969-2.06-1.555c-0.65-0.582-1.075-0.988-1.271-1.219c-0.194-0.232-0.34-0.414-0.429-0.545l-4.424,4.389
			l0.56,0.693c0.354,0.482,0.938,1.059,1.753,1.717c0.813,0.658,1.76,1.314,2.837,1.965c1.079,0.648,2.454,1.207,4.128,1.682
			c1.667,0.475,3.432,0.709,5.277,0.709c4.557,0,8.393-1.563,11.521-4.688c3.121-3.123,4.684-6.963,4.684-11.516V36.118h-6.765
			V39.484z M592.927,58.855c-1.814,1.957-3.942,2.936-6.383,2.936c-2.443,0-4.581-0.979-6.403-2.936
			c-1.826-1.959-2.738-4.357-2.738-7.193c0-2.838,0.912-5.236,2.738-7.195c1.822-1.959,3.96-2.938,6.403-2.938
			c2.438,0,4.566,0.979,6.383,2.938c1.815,1.959,2.725,4.357,2.725,7.195C595.649,54.498,594.742,56.896,592.927,58.855z"/>
		<path fill="#EA7624" d="M623.01,35.423c-4.538,0-8.435,1.622-11.684,4.869c-3.242,3.243-4.864,7.145-4.864,11.698
			c0,4.73,1.665,8.785,5.001,12.162c3.33,3.377,7.296,5.063,11.894,5.063c1.72,0,3.384-0.244,5.004-0.742
			c1.617-0.494,2.93-1.033,3.942-1.615c1.014-0.582,1.971-1.254,2.869-2.014c0.904-0.76,1.492-1.297,1.77-1.615
			c0.274-0.318,0.476-0.564,0.604-0.742l-4.388-4.389l-1.021,1.252c-0.683,0.814-1.843,1.646-3.479,2.508
			c-1.645,0.855-3.406,1.287-5.302,1.287c-2.615,0-4.876-0.834-6.779-2.508c-1.904-1.674-3.03-3.652-3.38-5.939h25.342l0.367-3.369
			c0-4.551-1.516-8.342-4.543-11.366C631.338,36.937,627.554,35.423,623.01,35.423z M613.492,48.955
			c0.57-2.287,1.686-4.15,3.348-5.596c1.66-1.441,3.714-2.161,6.154-2.161c2.488,0,4.554,0.72,6.204,2.161
			c1.648,1.443,2.676,3.309,3.068,5.596H613.492z"/>
	</g>
</g>
</svg>
