<?xml version="1.0" encoding="utf-8"?>
<!-- Generator: Adobe Illustrator 24.3.0, SVG Export Plug-In . SVG Version: 6.00 Build 0)  -->
<svg version="1.1" id="Слой_1" xmlns="http://www.w3.org/2000/svg" xmlns:xlink="http://www.w3.org/1999/xlink" x="0px" y="0px"
	 viewBox="0 0 88 31" style="enable-background:new 0 0 88 31;" xml:space="preserve">
<style type="text/css">
	.st0{fill:#325BDB;}
	.st1{clip-path:url(#SVGID_2_);}
	.st2{fill:#FFFFFF;}
	.st3{fill:url(#SVGID_3_);}
	.st4{fill:#3C83C5;}
	.st5{fill:url(#SVGID_4_);}
</style>
<rect class="st0" width="88" height="31"/>
<g>
	<defs>
		<rect id="SVGID_1_" x="0.9" y="3.6" width="85.9" height="22.2"/>
	</defs>
	<clipPath id="SVGID_2_">
		<use xlink:href="#SVGID_1_"  style="overflow:visible;"/>
	</clipPath>
	<g class="st1">
		<path class="st2" d="M39.4,15.1h1.8l-1.8,5.7h-1.6l-0.9-3l-0.9,3h-1.6l-1.8-5.7h1.8l0.8,3l0.9-3h1.6l0.9,3L39.4,15.1z"/>
		<path class="st2" d="M43.1,18.6c0.2,0.5,0.6,0.8,1.3,0.8c0.5,0,0.8-0.1,1.1-0.4l1.3,0.8c-0.6,0.8-1.4,1.2-2.4,1.2
			c-0.9,0-1.7-0.3-2.3-0.8c-0.6-0.6-0.8-1.3-0.8-2.1c0-0.9,0.3-1.6,0.8-2.1c0.6-0.6,1.3-0.9,2.2-0.9c0.8,0,1.5,0.3,2,0.9
			c0.5,0.6,0.8,1.3,0.8,2.1c0,0.2,0,0.5-0.1,0.7L43.1,18.6L43.1,18.6z M43.1,17.4h2.4c-0.2-0.6-0.6-0.9-1.2-0.9
			C43.7,16.5,43.2,16.8,43.1,17.4z"/>
		<path class="st2" d="M48.1,20.8v-8.3h1.7v8.3H48.1z"/>
		<path class="st2" d="M51,20.8v-8.3h1.7v8.3H51z"/>
		<path class="st2" d="M56.7,21c-0.9,0-1.6-0.3-2.1-0.9c-0.6-0.6-0.8-1.3-0.8-2.1s0.3-1.6,0.8-2.1c0.6-0.6,1.3-0.9,2.1-0.9
			c0.5,0,1,0.1,1.5,0.4c0.5,0.3,0.8,0.6,1.1,1.1l-1.5,0.9c-0.2-0.4-0.6-0.6-1.1-0.6c-0.4,0-0.7,0.1-0.9,0.4
			c-0.2,0.2-0.4,0.6-0.4,0.9c0,0.4,0.1,0.7,0.4,0.9c0.2,0.2,0.5,0.4,0.9,0.4c0.5,0,0.9-0.2,1.1-0.6l1.5,0.8c-0.2,0.4-0.6,0.8-1,1.1
			C57.7,20.8,57.2,21,56.7,21z"/>
		<path class="st2" d="M61.6,16.1c0.1-0.4,0.3-0.6,0.6-0.8c0.3-0.2,0.7-0.3,1.1-0.3v1.9c-0.4-0.1-0.8,0-1.2,0.2
			c-0.4,0.2-0.5,0.6-0.5,1.1v2.6h-1.7v-5.7h1.7V16.1z"/>
		<path class="st2" d="M67.7,15.1h1.8l-1.9,5.5c-0.3,0.9-0.7,1.5-1.2,1.9c-0.5,0.4-1.2,0.6-2,0.5v-1.6c0.4,0,0.7-0.1,0.9-0.2
			c0.2-0.1,0.4-0.4,0.5-0.7l-2.2-5.4h1.9l1.2,3.5L67.7,15.1z"/>
		<path class="st2" d="M73.5,15c0.7,0,1.4,0.3,1.9,0.9c0.5,0.6,0.8,1.3,0.8,2.1c0,0.8-0.3,1.5-0.8,2.1c-0.5,0.6-1.2,0.9-1.9,0.9
			c-0.7,0-1.3-0.2-1.7-0.7v2.8h-1.7v-7.9h1.7v0.5C72.2,15.2,72.8,15,73.5,15z M72.2,19c0.3,0.2,0.6,0.4,1,0.4c0.4,0,0.7-0.1,1-0.4
			c0.3-0.2,0.4-0.6,0.4-1s-0.1-0.8-0.4-1c-0.3-0.2-0.6-0.4-1-0.4s-0.7,0.1-1,0.4c-0.3,0.2-0.4,0.6-0.4,1S72,18.7,72.2,19z"/>
		<path class="st2" d="M80.3,16.8h-1.2v2c0,0.2,0.1,0.4,0.3,0.4c0.2,0.1,0.5,0.1,0.9,0.1v1.5c-1.1,0.1-1.8,0-2.2-0.3
			c-0.4-0.3-0.6-0.9-0.6-1.7v-2h-0.9v-1.6h0.9v-1.1l1.7-0.5v1.6h1.2V16.8L80.3,16.8z"/>
		<path class="st2" d="M86,20.1c-0.6,0.6-1.3,0.9-2.1,0.9s-1.5-0.3-2.1-0.9c-0.6-0.6-0.9-1.3-0.9-2.1c0-0.8,0.3-1.5,0.9-2.1
			c0.6-0.6,1.3-0.9,2.1-0.9s1.5,0.3,2.1,0.9c0.6,0.6,0.9,1.3,0.9,2.1C86.8,18.8,86.6,19.5,86,20.1z M82.9,18.9
			c0.2,0.2,0.6,0.4,0.9,0.4s0.7-0.1,0.9-0.4c0.2-0.2,0.4-0.6,0.4-1s-0.1-0.7-0.4-1c-0.2-0.2-0.6-0.4-0.9-0.4s-0.7,0.1-0.9,0.4
			c-0.2,0.2-0.4,0.6-0.4,1C82.6,18.4,82.7,18.7,82.9,18.9z"/>
		
			<linearGradient id="SVGID_3_" gradientUnits="userSpaceOnUse" x1="27.1514" y1="28.4427" x2="27.1514" y2="15.4395" gradientTransform="matrix(1 0 0 -1 0 32)">
			<stop  offset="0" style="stop-color:#FBEC4F"/>
			<stop  offset="1" style="stop-color:#C058F6"/>
		</linearGradient>
		<path class="st3" d="M30.6,4.4c-0.1-0.6-0.7-1-1.3-0.7L24,5.8l-1.2,0.5c-0.5,0.2-0.4,0.9,0.1,1c0.6,0.1,1.3,0.3,2.1,0.5
			c0,0,0,0,0.1,0l0,0.1c0.7,1.7,1.1,3.6,1.1,5.6c0,1.1-0.1,2.1-0.3,3.2l3.6-6.3c0.5,0.4,1,0.9,1.5,1.4c0.3,0.4,1,0.1,0.9-0.4
			L30.6,4.4z"/>
		<path class="st4" d="M26.2,13.4c0-2-0.4-3.9-1.1-5.6L24.4,9c1,1.6,1.6,3.5,1.6,5.5c0,0.7-0.1,1.4-0.2,2.1l0,0
			C26.1,15.5,26.2,14.5,26.2,13.4z"/>
		
			<linearGradient id="SVGID_4_" gradientUnits="userSpaceOnUse" x1="4.2992" y1="22.8086" x2="34.7586" y2="1.39" gradientTransform="matrix(1 0 0 -1 0 32)">
			<stop  offset="0" style="stop-color:#78E4DE"/>
			<stop  offset="1" style="stop-color:#335BDA"/>
		</linearGradient>
		<path class="st5" d="M24.4,9l-4.8,8.5l-3.5-7.7c-0.3-0.7-1-1.2-1.7-1.4c-0.2,0-0.4-0.1-0.5-0.1c-1,0-1.8,0.6-2.2,1.4L11,11.2
			L10.6,12l-2.7,5.9l-0.1-0.2l-2.2-4l-0.2-0.4c-0.3-0.5-0.9-0.7-1.4-0.4l-2.5,1.5c-0.5,0.3-0.7,0.9-0.4,1.4l5,8.8
			c0.4,0.8,1.3,1.3,2.1,1.3c0,0,0.1,0,0.1,0c0.1,0,0.2,0,0.4,0c0.8-0.2,1.4-0.7,1.8-1.4l0.4-0.8l3.1-6.8L14,17l3.2,6.9
			c0.1,0.3,0.3,0.5,0.5,0.7c0.4,0.4,1,0.7,1.6,0.7c0.2,0,0.4,0,0.6,0c0.7-0.1,1.3-0.6,1.7-1.2l0.1-0.3l1-1.7l3.1-5.6
			c0.1-0.7,0.2-1.4,0.2-2.1C26,12.5,25.4,10.6,24.4,9z"/>
	</g>
</g>
</svg>
