<svg xmlns="http://www.w3.org/2000/svg" width="287" height="448.809" viewBox="0 0 75.935 118.747"><path d="M.463 118.459C.04 118.212 0 117.56 0 110.847c0-5.358.086-7.428.318-7.66.461-.462 74.839-.462 75.3 0 .232.232.317 2.303.317 7.663 0 6.993-.024 7.36-.511 7.62-.706.378-74.312.367-74.96-.011zm8.811-41.38c-4.273-1.684-6.272-2.601-6.424-2.946-.162-.366 2.858-8.941 11.274-32.02C26.871 7.156 26.578 7.933 27.82 5.853 30.457 1.437 34.937-.652 39.991.18c4.273.703 6.75 2.713 8.94 7.255C50.192 10.053 73.29 72.998 73.29 73.82c0 .225-.15.53-.331.678-.485.394-12.666 5.088-13.204 5.088-.251 0-.553-.148-.671-.33-.118-.18-1.406-3.603-2.862-7.606l-2.648-7.277-15.513-.069c-14.592-.064-15.524-.04-15.696.397-.1.256-1.306 3.551-2.68 7.323-1.372 3.771-2.628 7.016-2.788 7.21-.161.193-.546.338-.856.322-.31-.017-3.355-1.131-6.767-2.476zm39.145-27.06c0-.11-2.342-7.223-5.204-15.809L38.013 18.6l-5.117 15.346a12593.66 12593.66 0 0 0-5.266 15.808c-.14.436.47.463 10.32.463 5.759 0 10.47-.089 10.47-.198z" fill="#ed3323"/></svg>