<svg width="38" height="38" viewBox="0 0 38 38" fill="none" xmlns="http://www.w3.org/2000/svg">
<path d="M19 35C27.836 35 35 27.8368 35 19C35 10.1632 27.836 3 19 3C10.164 3 3 10.1632 3 19C3 27.8368 10.164 35 19 35Z" fill="#4CC947"/>
<path d="M24.0704 13.2087C23.2541 11.197 21.3194 11.0428 19.0133 11.4505L18.17 8.58969L16.4543 9.1184L17.248 11.8933C16.8086 12.0306 16.3257 12.1948 15.8615 12.2892L15.043 9.47129L13.3025 9.95705L14.1458 12.8179C13.7493 12.9304 13.42 13.0633 13.0686 13.1516L10.6895 13.8324L11.2501 15.7017L12.5259 15.3124C13.2322 15.1356 13.5871 15.4498 13.718 15.7789L14.6755 19.0357C14.7184 19.0109 14.7875 19.0283 14.8733 18.9787C14.8304 19.0035 14.7635 18.9867 14.6763 19.037L15.9788 23.5948C15.993 23.8176 15.9952 24.2209 15.4867 24.3408C15.5115 24.3838 14.2117 24.7314 14.2117 24.7314L14.4753 26.8887L16.7424 26.2153C17.181 26.0766 17.578 25.9619 17.9745 25.8494L18.7743 28.7372L20.5154 28.2493L19.6708 25.3892C20.1792 25.2693 20.6192 25.1299 21.0586 24.9926L21.8771 27.8105L23.6176 27.3247L22.8186 24.4383C25.6907 23.4157 27.5397 22.1172 27.0116 19.3035C26.5622 17.0226 25.2439 16.3408 23.5011 16.4232C24.2925 15.7927 24.6523 14.7184 24.0696 13.2073L24.0704 13.2087ZM23.4297 20.1004C24.0543 22.282 20.294 23.0673 19.104 23.407L18.0029 19.5977C19.1915 19.2588 22.7818 17.8787 23.4305 20.1018L23.4297 20.1004ZM21.0832 14.9334C21.6499 16.9156 18.508 17.5731 17.5166 17.8572L16.5035 14.4016C17.4686 14.0753 20.4647 12.8647 21.0824 14.932L21.0832 14.9334Z" fill="white"/>
</svg>
