<svg width="21" height="20" viewBox="0 0 21 20" fill="none" xmlns="http://www.w3.org/2000/svg">
<g clip-path="url(#clip0)">
<path d="M6.11779 8.4042L10.0018 4.5203L13.8878 8.4062L16.1478 6.1462L10.0018 0L3.85789 6.1442L6.11779 8.4042ZM0.00195312 9.99969L2.26202 7.73962L4.52194 9.99955L2.26189 12.2596L0.00195312 9.99969ZM6.11779 11.5958L10.0018 15.4797L13.8877 11.5939L16.1489 13.8527L16.1478 13.8539L10.0018 20L3.85769 13.856L3.85449 13.8528L6.11779 11.5958ZM15.482 10.0009L17.7421 7.74087L20.002 10.0008L17.742 12.2609L15.482 10.0009Z" fill="#F3BA2F"/>
<path d="M12.2937 9.99871H12.2947L10.0014 7.70544L8.30663 9.40022H8.30653L8.11183 9.59502L7.71023 9.99671L7.70703 9.99981L7.71023 10.0031L10.0014 12.2944L12.2947 10.0011L12.2958 9.99981L12.2937 9.99871Z" fill="#F3BA2F"/>
</g>
<defs>
<clipPath id="clip0">
<rect x="0.00195312" width="20" height="20" fill="white"/>
</clipPath>
</defs>
</svg>
