<svg width="20" height="20" viewBox="0 0 20 20" fill="none" xmlns="http://www.w3.org/2000/svg">
<path d="M10 0C8.02219 0 6.08879 0.58649 4.4443 1.6853C2.79981 2.78412 1.51809 4.3459 0.761209 6.17316C0.00433286 8.00042 -0.1937 10.0111 0.192152 11.9509C0.578004 13.8907 1.53041 15.6725 2.92894 17.0711C4.32746 18.4696 6.10929 19.422 8.0491 19.8078C9.98891 20.1937 11.9996 19.9957 13.8268 19.2388C15.6541 18.4819 17.2159 17.2002 18.3147 15.5557C19.4135 13.9112 20 11.9778 20 10C20 8.68678 19.7413 7.38642 19.2388 6.17316C18.7362 4.95991 17.9997 3.85752 17.0711 2.92893C16.1425 2.00035 15.0401 1.26375 13.8268 0.761205C12.6136 0.258658 11.3132 0 10 0V0ZM14.076 13.8138C13.4572 14.3543 12.716 14.7358 11.9165 14.9252C11.117 15.1146 10.2834 15.1062 9.48793 14.9007C8.69243 14.6953 7.95902 14.2989 7.35125 13.7461C6.74347 13.1932 6.27966 12.5005 6 11.728H5.02889C4.85208 11.728 4.68251 11.6578 4.55749 11.5327C4.43246 11.4077 4.36223 11.2381 4.36223 11.0613C4.36223 10.8845 4.43246 10.7149 4.55749 10.5899C4.68251 10.4649 4.85208 10.3947 5.02889 10.3947H5.71023C5.70045 10.2667 5.68889 10.1333 5.68889 10C5.68889 9.86666 5.69867 9.73333 5.70889 9.60355H5.02889C4.85208 9.60355 4.68251 9.53332 4.55749 9.40829C4.43246 9.28327 4.36223 9.1137 4.36223 8.93689C4.36223 8.76008 4.43246 8.59051 4.55749 8.46548C4.68251 8.34046 4.85208 8.27022 5.02889 8.27022H6C6.35507 7.29582 7.00082 6.45398 7.84991 5.85853C8.69901 5.26308 9.71049 4.94276 10.7476 4.94089C11.8813 4.93682 12.9828 5.31758 13.872 6.02089C13.9434 6.07403 14.0035 6.14094 14.0486 6.21767C14.0938 6.2944 14.1231 6.3794 14.1348 6.46764C14.1466 6.55589 14.1406 6.64559 14.1171 6.73147C14.0936 6.81734 14.0532 6.89765 13.9982 6.96764C13.9432 7.03764 13.8747 7.09591 13.7968 7.13902C13.7189 7.18213 13.6332 7.2092 13.5447 7.21863C13.4562 7.22807 13.3666 7.21968 13.2814 7.19396C13.1962 7.16824 13.117 7.12572 13.0484 7.06889C12.3935 6.55128 11.5823 6.27113 10.7476 6.27422C10.0683 6.27496 9.40219 6.46129 8.82114 6.81307C8.24008 7.16485 7.7662 7.66871 7.45067 8.27022H10.2244C10.4013 8.27022 10.5708 8.34046 10.6959 8.46548C10.8209 8.59051 10.8911 8.76008 10.8911 8.93689C10.8911 9.1137 10.8209 9.28327 10.6959 9.40829C10.5708 9.53332 10.4013 9.60355 10.2244 9.60355H7.04534C7.03066 9.7352 7.02294 9.86753 7.02222 10C7.02244 10.1312 7.02941 10.2624 7.04311 10.3929H10.2244C10.4013 10.3929 10.5708 10.4631 10.6959 10.5881C10.8209 10.7132 10.8911 10.8827 10.8911 11.0596C10.8911 11.2364 10.8209 11.4059 10.6959 11.531C10.5708 11.656 10.4013 11.7262 10.2244 11.7262H7.45111C7.71154 12.2256 8.08188 12.6594 8.53424 12.9949C8.9866 13.3304 9.50919 13.5589 10.0627 13.6632C10.6161 13.7674 11.186 13.7448 11.7295 13.5969C12.2729 13.449 12.7757 13.1797 13.2 12.8093C13.266 12.7518 13.3426 12.7077 13.4256 12.6798C13.5085 12.6518 13.5962 12.6405 13.6835 12.6464C13.7709 12.6523 13.8562 12.6754 13.9347 12.7143C14.0131 12.7532 14.0831 12.8072 14.1407 12.8731C14.1982 12.9391 14.2423 13.0157 14.2702 13.0987C14.2982 13.1816 14.3095 13.2693 14.3036 13.3566C14.2977 13.444 14.2746 13.5293 14.2357 13.6078C14.1968 13.6862 14.1428 13.7562 14.0769 13.8138H14.076Z" fill="#00AF92"/>
</svg>
