<svg width="20" height="20" viewBox="0 0 20 20" fill="none" xmlns="http://www.w3.org/2000/svg">
<path d="M11.2552 6.19263H8.70312V10.0416H11.2552C12.3164 10.0416 13.1797 9.17824 13.1797 8.11707C13.1797 7.04055 12.3071 6.19263 11.2552 6.19263Z" fill="#00AF92"/>
<path d="M10 0C4.48598 0 0 4.48598 0 10C0 15.514 4.48598 20 10 20C15.514 20 20 15.514 20 10C20 4.48598 15.514 0 10 0ZM11.2552 11.2135H8.70313V12.5521H11.2552C11.5788 12.5521 11.8412 12.8144 11.8412 13.138C11.8412 13.4616 11.5788 13.7239 11.2552 13.7239H8.70313V15.0208C8.70313 15.3444 8.44078 15.6068 8.11719 15.6068C7.79359 15.6068 7.53125 15.3444 7.53125 15.0208V13.7239H6.86199C6.5384 13.7239 6.27605 13.4616 6.27605 13.138C6.27605 12.8144 6.5384 12.5521 6.86199 12.5521H7.53125V11.2135H6.86199C6.5384 11.2135 6.27605 10.9512 6.27605 10.6276C6.27605 10.304 6.5384 10.0416 6.86199 10.0416H7.53125V5.60676C7.53125 5.28316 7.79359 5.02082 8.11719 5.02082H11.2552C12.9265 5.02082 14.3516 6.36766 14.3516 8.11719C14.3516 9.82453 12.9626 11.2135 11.2552 11.2135Z" fill="#00AF92"/>
</svg>
