<svg width="20" height="20" viewBox="0 0 20 20" fill="none" xmlns="http://www.w3.org/2000/svg">
<g clip-path="url(#clip0)">
<path d="M10.5293 13.7241H10.9737C11.1767 13.7275 11.3783 13.6905 11.5668 13.6153C11.7553 13.54 11.9269 13.428 12.0716 13.2857C12.2164 13.1434 12.3313 12.9737 12.4098 12.7865C12.4883 12.5993 12.5287 12.3984 12.5287 12.1954C12.5287 11.9924 12.4883 11.7915 12.4098 11.6043C12.3313 11.4171 12.2164 11.2474 12.0716 11.1051C11.9269 10.9628 11.7553 10.8508 11.5668 10.7755C11.3783 10.7002 11.1767 10.6633 10.9737 10.6667H10.5293V13.7241Z" fill="#00AF92"/>
<path d="M10 0C8.02219 0 6.08879 0.58649 4.4443 1.6853C2.79981 2.78412 1.51809 4.3459 0.761209 6.17316C0.00433286 8.00042 -0.1937 10.0111 0.192152 11.9509C0.578004 13.8907 1.53041 15.6725 2.92894 17.0711C4.32746 18.4696 6.10929 19.422 8.0491 19.8078C9.98891 20.1937 11.9996 19.9957 13.8268 19.2388C15.6541 18.4819 17.2159 17.2002 18.3147 15.5557C19.4135 13.9112 20 11.9778 20 10C20 8.68678 19.7413 7.38642 19.2388 6.17316C18.7362 4.95991 17.9997 3.85752 17.0711 2.92893C16.1425 2.00035 15.0401 1.26375 13.8268 0.761205C12.6136 0.258658 11.3132 0 10 0V0ZM10.9742 9.33333C11.3531 9.32861 11.7291 9.39915 12.0805 9.54086C12.4318 9.68257 12.7516 9.89263 13.0211 10.1589C13.2907 10.4251 13.5047 10.7422 13.6508 11.0918C13.7969 11.4414 13.8721 11.8165 13.8721 12.1953C13.8721 12.5742 13.7969 12.9493 13.6508 13.2989C13.5047 13.6485 13.2907 13.9656 13.0211 14.2318C12.7516 14.498 12.4318 14.7081 12.0805 14.8498C11.7291 14.9915 11.3531 15.0621 10.9742 15.0573H10.5298V16.4889C10.5298 16.6657 10.4595 16.8353 10.3345 16.9603C10.2095 17.0853 10.0399 17.1556 9.86311 17.1556C9.6863 17.1556 9.51673 17.0853 9.39171 16.9603C9.26668 16.8353 9.19645 16.6657 9.19645 16.4889V15.0573H8.752C7.99315 15.0565 7.26561 14.7547 6.72902 14.2181C6.19242 13.6815 5.8906 12.954 5.88978 12.1951C5.88978 12.0183 5.96002 11.8487 6.08504 11.7237C6.21007 11.5987 6.37964 11.5284 6.55645 11.5284C6.73326 11.5284 6.90283 11.5987 7.02785 11.7237C7.15288 11.8487 7.22311 12.0183 7.22311 12.1951C7.22358 12.6004 7.38481 12.9891 7.67143 13.2757C7.95805 13.5623 8.34666 13.7235 8.752 13.724H9.19645V10.6667H8.752C8.37316 10.6714 7.99715 10.6008 7.64577 10.4591C7.2944 10.3174 6.97466 10.1074 6.70509 9.84113C6.43552 9.5749 6.22149 9.2578 6.07541 8.90822C5.92934 8.55864 5.85412 8.18354 5.85412 7.80466C5.85412 7.42579 5.92934 7.05069 6.07541 6.70111C6.22149 6.35153 6.43552 6.03443 6.70509 5.7682C6.97466 5.50197 7.2944 5.29191 7.64577 5.1502C7.99715 5.00848 8.37316 4.93794 8.752 4.94267H9.19645V3.51111C9.19645 3.3343 9.26668 3.16473 9.39171 3.03971C9.51673 2.91468 9.6863 2.84444 9.86311 2.84444C10.0399 2.84444 10.2095 2.91468 10.3345 3.03971C10.4595 3.16473 10.5298 3.3343 10.5298 3.51111V4.94267H10.9742C11.7331 4.94349 12.4606 5.24531 12.9972 5.7819C13.5338 6.31849 13.8356 7.04603 13.8364 7.80489C13.8364 7.9817 13.7662 8.15127 13.6412 8.27629C13.5162 8.40132 13.3466 8.47155 13.1698 8.47155C12.993 8.47155 12.8234 8.40132 12.6984 8.27629C12.5734 8.15127 12.5031 7.9817 12.5031 7.80489C12.5026 7.39955 12.3414 7.01094 12.0548 6.72432C11.7682 6.4377 11.3796 6.27647 10.9742 6.276H10.5298V9.33333H10.9742Z" fill="#00AF92"/>
<path d="M7.2207 7.80501C7.22117 8.21031 7.38242 8.59887 7.66905 8.88542C7.95568 9.17196 8.34429 9.33309 8.74959 9.33345H9.19404V6.27612H8.74959C8.34425 6.27659 7.95564 6.43782 7.66902 6.72444C7.3824 7.01106 7.22117 7.39967 7.2207 7.80501V7.80501Z" fill="#00AF92"/>
</g>
<defs>
<clipPath id="clip0">
<rect width="20" height="20" fill="white"/>
</clipPath>
</defs>
</svg>
