<svg width="270" height="268" viewBox="0 0 270 268" fill="none" xmlns="http://www.w3.org/2000/svg">
<circle cx="135" cy="148" r="120" fill="#FF7733" fill-opacity="0.1"/>
<path fill-rule="evenodd" clip-rule="evenodd" d="M19 185C17.2245 185 15.6034 185.661 14.3693 186.75L52.6618 221.092C54.5613 222.795 57.4388 222.795 59.3383 221.092L97.6306 186.751C96.3966 185.661 94.7754 185 92.9998 185H19ZM12 192C12 190.631 12.3932 189.353 13.0728 188.274L51.3265 222.581C53.9858 224.966 58.0143 224.966 60.6736 222.581L98.9271 188.274C99.6066 189.353 99.9998 190.631 99.9998 192V234C99.9998 237.866 96.8658 241 92.9998 241H19C15.134 241 12 237.866 12 234V192ZM10 192C10 187.029 14.0294 183 19 183H92.9998C97.9703 183 102 187.029 102 192V234C102 238.971 97.9703 243 92.9998 243H19C14.0294 243 10 238.971 10 234V192ZM117 195C116.448 195 116 195.448 116 196C116 196.552 116.448 197 117 197H151C151.552 197 152 196.552 152 196C152 195.448 151.552 195 151 195H117ZM117 204C116.448 204 116 204.448 116 205C116 205.552 116.448 206 117 206H139.273C139.825 206 140.273 205.552 140.273 205C140.273 204.448 139.825 204 139.273 204H117ZM117 213C116.448 213 116 213.448 116 214C116 214.552 116.448 215 117 215H129.727C130.28 215 130.727 214.552 130.727 214C130.727 213.448 130.28 213 129.727 213H117Z" fill="#FF7733"/>
<path fill-rule="evenodd" clip-rule="evenodd" d="M184 85C183.446 85 182.916 85.2301 182.538 85.6354L172 96.926V87C172 85.8954 171.105 85 170 85H139C136.791 85 135 83.2091 135 81V6C135 3.79086 136.791 2 139 2H247C249.209 2 251 3.79086 251 6V81C251 83.2091 249.209 85 247 85H184ZM224 87H184L173.462 98.2906C172.224 99.6176 170 98.7412 170 96.926V89V87H168H139C135.686 87 133 84.3137 133 81V40H82C79.7909 40 78 41.7909 78 44V126H100V119C100 116.239 102.239 114 105 114H157C159.761 114 162 116.239 162 119V126H224V87ZM226 87V126V128H224H161H101H78H76V126V44C76 40.6863 78.6863 38 82 38H133V28H81C72.7157 28 66 34.7157 66 43V138H138.323C139.73 138 141.015 138.795 141.644 140.053C142.241 141.246 143.461 142 144.795 142H157.205C158.539 142 159.759 141.246 160.356 140.053C160.985 138.795 162.27 138 163.677 138H236V87H226ZM238 87H247C250.314 87 253 84.3137 253 81V6C253 2.68629 250.314 0 247 0H139C135.686 0 133 2.68629 133 6V26H81C71.6112 26 64 33.6112 64 43V138H43.7647C42.7901 138 42 138.79 42 139.765C42 147.074 47.9256 153 55.2353 153H246.765C254.074 153 260 147.074 260 139.765C260 138.79 259.21 138 258.235 138H238V87ZM193.797 24.6307V18.9969C196.597 19.06 198.848 21.3497 198.848 24.1652V25.4462C198.848 26.2796 198.732 27.1088 198.504 27.9103L196.242 35.8566C196.156 36.1582 196.217 36.4827 196.406 36.733C196.595 36.9832 196.89 37.1304 197.204 37.1304H217.462C218.864 37.1304 220.001 38.2669 220.001 39.6689C220.001 41.0708 218.864 42.2074 217.462 42.2074H216.594H215.712C215.16 42.2074 214.712 42.6551 214.712 43.2074C214.712 43.7596 215.16 44.2074 215.712 44.2074H216.594C217.989 44.2074 219.119 45.338 219.119 46.7328V46.967C219.119 48.4911 217.884 49.7267 216.36 49.7267H215.699H214.831C214.279 49.7267 213.831 50.1744 213.831 50.7267C213.831 51.2789 214.279 51.7267 214.831 51.7267H215.699C217.101 51.7267 218.238 52.8632 218.238 54.2651C218.238 55.6671 217.101 56.8036 215.699 56.8036H213.498H212.187C211.635 56.8036 211.187 57.2513 211.187 57.8036C211.187 58.3559 211.635 58.8036 212.187 58.8036H213.498C214.655 58.8036 215.594 59.7421 215.594 60.8998C215.594 62.0575 214.655 62.996 213.498 62.996H191.369C190.547 62.996 189.818 62.4699 189.559 61.6904C189.292 60.8854 188.539 60.3421 187.691 60.3421H185.865V41.1112H186.627C187.016 41.1112 187.37 40.8856 187.534 40.5328L192.771 29.2684C193.447 27.8156 193.797 26.2329 193.797 24.6307ZM221.119 46.7328C221.119 45.4928 220.621 44.3693 219.813 43.552C221.124 42.7563 222.001 41.3149 222.001 39.6689C222.001 37.1623 219.969 35.1304 217.462 35.1304H198.528L200.428 28.4579C200.706 27.4783 200.848 26.4647 200.848 25.4462V24.1652C200.848 20.2055 197.638 16.9956 193.678 16.9956C192.639 16.9956 191.797 17.8379 191.797 18.877V24.6307C191.797 25.9416 191.511 27.2366 190.958 28.4252L185.989 39.1112H185.865V36.5727C185.865 36.0204 185.417 35.5727 184.865 35.5727H169C168.707 35.5727 168.429 35.7011 168.239 35.9241C168.049 36.1471 167.966 36.4421 168.013 36.7313L172.419 64.1546C172.497 64.6395 172.916 64.996 173.407 64.996H184.865C185.417 64.996 185.865 64.5483 185.865 63.996V62.3421H187.669C188.205 63.9276 189.693 64.996 191.369 64.996H213.498C215.76 64.996 217.594 63.1621 217.594 60.8998C217.594 60.0643 217.344 59.2871 216.914 58.6393C218.831 58.1081 220.238 56.351 220.238 54.2651C220.238 52.9904 219.712 51.8384 218.866 51.014C220.219 50.1745 221.119 48.6759 221.119 46.967V46.7328ZM174.259 62.996L170.174 37.5727H183.865V40.1112V61.3421V62.996H174.259ZM160 126H102V119C102 117.343 103.343 116 105 116H157C158.657 116 160 117.343 160 119V126ZM55.2353 151C49.1088 151 44.1277 146.096 44.0024 140H65H138.323C138.972 140 139.565 140.367 139.856 140.947C140.791 142.818 142.703 144 144.795 144H157.205C159.297 144 161.209 142.818 162.144 140.947C162.435 140.367 163.028 140 163.677 140H237H257.998C257.872 146.096 252.891 151 246.765 151H55.2353ZM149 108C148.448 108 148 108.448 148 109C148 109.552 148.448 110 149 110H159C159.552 110 160 109.552 160 109C160 108.448 159.552 108 159 108H149ZM181.338 59.6885C181.338 60.6658 180.549 61.4581 179.575 61.4581C178.602 61.4581 177.812 60.6658 177.812 59.6885C177.812 58.7112 178.602 57.9189 179.575 57.9189C180.549 57.9189 181.338 58.7112 181.338 59.6885Z" fill="#FF7733"/>
<path fill-rule="evenodd" clip-rule="evenodd" d="M216 191C216 199.837 208.837 207 200 207C191.163 207 184 199.837 184 191C184 182.163 191.163 175 200 175C208.837 175 216 182.163 216 191ZM218 191C218 200.941 209.941 209 200 209C190.059 209 182 200.941 182 191C182 181.059 190.059 173 200 173C209.941 173 218 181.059 218 191ZM199.11 195.517L205.895 187.803L204.393 186.482L198.336 193.368L195.589 190.429L194.128 191.794L197.628 195.54C197.821 195.746 198.092 195.861 198.374 195.857C198.656 195.853 198.923 195.729 199.11 195.517Z" fill="#FF7733"/>
</svg>
