<svg width="38" height="38" viewBox="0 0 38 38" fill="none" xmlns="http://www.w3.org/2000/svg">
<path d="M19 4C27.285 4 34 10.7163 34 19C34 27.285 27.285 34 19 34C10.7163 34 4 27.2844 4 19C4 10.7163 10.7163 4 19 4Z" fill="#F5AC37"/>
<path d="M19.5529 20.0592H25.2526C25.3741 20.0592 25.4315 20.0592 25.4403 19.8999C25.4869 19.3201 25.4869 18.7369 25.4403 18.1564C25.4403 18.0436 25.3842 17.9971 25.2621 17.9971H13.9186C13.7782 17.9971 13.7404 18.0436 13.7404 18.1753V19.8439C13.7404 20.0592 13.7404 20.0592 13.9652 20.0592H19.5529ZM24.8037 16.047C24.8199 16.0044 24.8199 15.9579 24.8037 15.916C24.7086 15.7088 24.5958 15.511 24.4649 15.3254C24.2678 15.0081 24.0356 14.7159 23.771 14.4533C23.6461 14.2947 23.5017 14.1522 23.3397 14.0314C22.5283 13.3409 21.5637 12.8522 20.5269 12.6065C20.0038 12.489 19.4692 12.433 18.9332 12.4377H13.899C13.7586 12.4377 13.7397 12.4937 13.7397 12.6159V15.9437C13.7397 16.0841 13.7397 16.1219 13.9179 16.1219H24.7362C24.7362 16.1219 24.8301 16.103 24.849 16.047H24.8031H24.8037ZM24.8037 22.0093C24.6444 21.9918 24.4838 21.9918 24.3245 22.0093H13.928C13.7876 22.0093 13.7404 22.0093 13.7404 22.197V25.4505C13.7404 25.6003 13.7404 25.6381 13.928 25.6381H18.728C18.9575 25.6557 19.187 25.6395 19.4118 25.5916C20.1084 25.5416 20.7935 25.3904 21.4469 25.1413C21.6845 25.059 21.914 24.9517 22.1307 24.8227H22.1962C23.3214 24.2375 24.2354 23.3181 24.8118 22.1895C24.8118 22.1895 24.8773 22.0478 24.8037 22.0107V22.0093ZM11.8564 27.325V27.269V25.0846V24.3442V22.1409C11.8564 22.0188 11.8564 22.0005 11.7066 22.0005H9.67212C9.55939 22.0005 9.51282 22.0005 9.51282 21.8507V20.0693H11.6877C11.8092 20.0693 11.8564 20.0693 11.8564 19.91V18.1476C11.8564 18.0349 11.8564 18.0072 11.7066 18.0072H9.67212C9.55939 18.0072 9.51282 18.0072 9.51282 17.8573V16.2076C9.51282 16.1043 9.51282 16.0767 9.66267 16.0767H11.6782C11.8186 16.0767 11.8564 16.0767 11.8564 15.8985V10.8454C11.8564 10.6955 11.8564 10.6577 12.0441 10.6577H19.075C19.5853 10.678 20.0922 10.734 20.5937 10.8265C21.6272 11.0175 22.6201 11.3867 23.528 11.9139C24.1301 12.2683 24.6843 12.6962 25.1777 13.189C25.549 13.5744 25.8838 13.9916 26.1808 14.4357C26.4757 14.886 26.7208 15.3672 26.9131 15.8701C26.9368 16.0011 27.0623 16.0895 27.1933 16.0672H28.8713C29.0867 16.0672 29.0867 16.0672 29.0961 16.2738V17.8114C29.0961 17.9613 29.0401 17.9991 28.8896 17.9991H27.5956C27.4646 17.9991 27.4268 17.9991 27.4363 18.1678C27.4876 18.7389 27.4876 19.312 27.4363 19.883C27.4363 20.0423 27.4363 20.0612 27.6151 20.0612H29.0954C29.1609 20.1456 29.0954 20.23 29.0954 20.315C29.1049 20.4237 29.1049 20.5337 29.0954 20.6424V21.7771C29.0954 21.9364 29.0489 21.9837 28.9078 21.9837H27.1359C27.0124 21.96 26.8922 22.039 26.8639 22.1619C26.442 23.2587 25.767 24.2422 24.8949 25.0306C24.5763 25.3175 24.2415 25.5875 23.8918 25.8366C23.5165 26.0526 23.1513 26.2774 22.7666 26.4556C22.0585 26.7742 21.316 27.0091 20.5539 27.1583C19.8303 27.2879 19.0966 27.3466 18.3601 27.3365H11.8537V27.327L11.8564 27.325Z" fill="#FEFEFD"/>
</svg>
