<svg width="20" height="20" viewBox="0 0 20 20" fill="none" xmlns="http://www.w3.org/2000/svg">
<path d="M10.2413 6.59H8.8125V9.4069H11.0604V10.5863H8.8125V13.403H10.3113C10.6964 13.403 13.4729 13.4465 13.4686 10.1258C13.4643 6.8051 10.7757 6.59 10.2413 6.59Z" fill="#C2A633"/>
<path d="M10 0C4.4771 0 0 4.4771 0 10C0 15.5229 4.4771 20 10 20C15.5229 20 20 15.5229 20 10C20 4.4771 15.5229 0 10 0ZM10.3929 15.401H6.7714V10.5864H5.4948V9.407H6.7713V4.5921H9.8795C10.6148 4.5921 15.4851 4.4394 15.4851 10.0869C15.4851 15.8278 10.393 15.401 10.393 15.401H10.3929Z" fill="#C2A633"/>
</svg>
