<svg width="38" height="38" viewBox="0 0 38 38" fill="none" xmlns="http://www.w3.org/2000/svg">
<path d="M19.1478 4C13.0013 4.0255 8.02469 9.1653 8 15.5133C8 16.7846 8.19869 18.0473 8.58784 19.2531C8.87823 20.0739 9.74001 20.5159 10.5489 20.2621C11.3307 19.9525 11.7457 19.0697 11.4965 18.244C11.1661 17.3042 11.0191 16.3074 11.0626 15.3093C11.1967 10.7244 14.9036 7.11934 19.343 7.25776C23.7823 7.39618 27.2729 11.2246 27.1389 15.8095C27.0131 20.1018 23.74 23.5878 19.5887 23.8489C19.5887 23.8489 18.0238 23.9473 17.2455 24.0456C16.9587 24.0881 16.6742 24.1464 16.3932 24.2205C16.3532 24.263 16.2885 24.263 16.2474 24.2217L16.2462 24.2205C16.218 24.1828 16.218 24.1294 16.2462 24.0917L16.4884 22.727L17.958 15.9006C18.1344 15.0482 17.6088 14.2092 16.7835 14.0271C15.9582 13.8449 15.1458 14.3877 14.9694 15.2401C14.9694 15.2401 11.4741 31.949 11.4741 32.1008C11.2743 32.9131 11.7492 33.7387 12.5358 33.9452C12.544 33.9476 12.5534 33.95 12.5616 33.9512H12.6428C13.4281 34.1613 14.2299 33.6732 14.4321 32.8621C14.4357 32.8487 14.4392 32.8354 14.4415 32.8208C14.4392 32.7953 14.4392 32.7698 14.4415 32.7455C14.485 32.5488 14.9259 30.3256 14.9259 30.3256C15.2598 28.6475 16.5695 27.3616 18.2084 27.1018C18.5458 27.0484 19.9637 26.95 19.9637 26.95C26.0866 26.3198 30.5554 20.6822 29.9441 14.3585C29.3868 8.59098 24.7605 4.15056 19.1478 4Z" fill="#1E1E1E"/>
<path d="M20.7801 30.2045C19.7749 29.9911 18.792 30.6491 18.5827 31.6727C18.5804 31.6823 18.5792 31.6919 18.5769 31.7015C18.3594 32.7191 18.9919 33.7246 19.9912 33.9464C19.9924 33.9464 19.9935 33.9464 19.9947 33.9476H20.0464C21.0246 34.1885 22.0086 33.5748 22.2437 32.5788C22.2461 32.5716 22.2473 32.5632 22.2496 32.556V32.4518C22.4224 31.4234 21.7782 30.437 20.7801 30.2045Z" fill="#E6007A"/>
</svg>
