<svg width="38" height="38" viewBox="0 0 38 38" fill="none" xmlns="http://www.w3.org/2000/svg">
<path d="M9.00012 20.8832C12.3486 22.6725 15.8377 24.548 18.5391 25.9981L28.0001 20.8846C24.5746 26.0129 21.7212 30.2786 18.5391 35C15.353 30.2884 11.8325 25.0879 9.00012 20.8832ZM9.36624 19.4704L18.55 14.533L27.6153 19.4346L18.5578 24.3763L9.36624 19.4704Z" fill="#009F42"/>
<path d="M9.00012 20.8831C12.3486 22.6724 15.8377 24.548 18.5391 25.9981L28.0001 20.8845C24.5746 26.0128 21.7212 30.2785 18.5391 34.9999C15.353 30.2884 11.8325 25.0878 9.00012 20.8831ZM9.36624 19.4703L18.55 14.5329L27.6153 19.4345L18.5578 24.3762L9.36624 19.4703ZM18.5372 12.9478L9.00123 18.0067L18.4958 4L27.9965 18.0373L18.5372 12.9478Z" fill="#01C853"/>
<path d="M18.5389 25.9981L27.9999 20.8845C24.5744 26.0128 18.5389 34.9999 18.5389 34.9999L18.5389 25.9981ZM18.5498 14.5329L27.6151 19.4345L18.5576 24.3762L18.5498 14.5329ZM18.5371 12.9478L18.4957 4L27.9964 18.0373L18.5371 12.9478Z" fill="#009F42"/>
<path d="M18.5497 20.2274L27.615 19.4343L18.5576 24.376L18.5497 20.2274H18.5497Z" fill="#007831"/>
<path d="M18.5505 20.2274L9.36676 19.4702L18.5426 24.3761L18.5505 20.2274H18.5505Z" fill="#009F42"/>
<path d="M18.5377 25.9981L27.9987 20.8845C24.5732 26.0128 21.7198 30.2785 18.5377 34.9999L18.5377 25.9981Z" fill="#009F42"/>
</svg>
