<svg width="270" height="268" viewBox="0 0 270 268" fill="none" xmlns="http://www.w3.org/2000/svg">
<g clip-path="url(#clip0_3714_31812)">
<circle cx="135" cy="120" r="120" fill="#FF7733" fill-opacity="0.1"/>
<path fill-rule="evenodd" clip-rule="evenodd" d="M170.219 162.23C166.847 164.219 165 166.822 165 169.5C165 172.178 166.847 174.781 170.219 176.77C173.569 178.746 178.262 180 183.5 180C188.738 180 193.431 178.746 196.781 176.77C200.153 174.782 202 172.178 202 169.501V169.5V169.499C202 166.822 200.153 164.218 196.781 162.23C193.431 160.254 188.738 159 183.5 159C178.262 159 173.569 160.254 170.219 162.23ZM197.797 178.493C199.487 177.496 200.931 176.295 202 174.932V181V181.003C201.999 183.519 200.18 185.999 196.797 187.907C193.444 189.799 188.745 191 183.5 191C178.255 191 173.556 189.799 170.203 187.907C166.819 185.998 165 183.517 165 181V174.932C166.069 176.295 167.513 177.496 169.203 178.493C172.911 180.68 177.968 182 183.5 182C189.032 182 194.089 180.68 197.797 178.493ZM204 181.003V181V169.501V169.5V169.499V169H203.984C203.768 165.541 201.313 162.581 197.797 160.507C194.089 158.32 189.032 157 183.5 157C177.968 157 172.911 158.32 169.203 160.507C165.687 162.581 163.232 165.541 163.016 169H163V169.5V181V192V204V209H124C122.343 209 121 210.343 121 212V254C121 255.657 122.343 257 124 257H131V265C131 266.657 132.343 268 134 268H224C225.657 268 227 266.657 227 265V240.689C230.755 240.161 234.136 238.984 236.813 237.337C240.507 235.064 243 231.79 243 228V216V205V193.5V193H242.984C242.768 189.541 240.313 186.581 236.797 184.507C233.089 182.32 228.032 181 222.5 181C216.968 181 211.911 182.32 208.203 184.507C206.513 185.504 205.069 186.705 204 188.068V181.003ZM227 238.668C230.399 238.156 233.412 237.081 235.764 235.634C239.128 233.564 241 230.837 241 228V221.642C239.937 223.052 238.5 224.299 236.813 225.337C234.136 226.984 230.755 228.161 227 228.689V238.668ZM227 226.668C230.399 226.156 233.412 225.081 235.764 223.634C239.128 221.564 241 218.837 241 216V210.223C239.925 211.539 238.472 212.695 236.78 213.649C233.075 215.739 228.024 217 222.5 217C220.599 217 218.754 216.851 217 216.57V220H224C225.657 220 227 221.343 227 223V226.668ZM217 214.542C218.734 214.839 220.58 215 222.5 215C227.745 215 232.444 213.799 235.797 211.907C239.181 209.998 241 207.517 241 205V198.932C239.931 200.295 238.487 201.496 236.797 202.493C233.089 204.68 228.032 206 222.5 206C216.968 206 211.911 204.68 208.203 202.493C206.513 201.496 205.069 200.295 204 198.932V204V204.006V205C204 206.373 204.541 207.735 205.582 209H214C215.657 209 217 210.343 217 212V214.542ZM199.949 209C201.285 207.463 201.999 205.755 202 204.005V204V197.642C200.937 199.052 199.5 200.299 197.813 201.337C194.102 203.62 189.039 205 183.5 205C177.961 205 172.898 203.62 169.187 201.337C167.5 200.299 166.063 199.052 165 197.642V204C165 205.752 165.714 207.461 167.051 209H199.949ZM204 193.5C204 190.822 205.847 188.219 209.219 186.23C212.569 184.254 217.262 183 222.5 183C227.738 183 232.431 184.254 235.781 186.23C239.153 188.219 241 190.822 241 193.5C241 196.178 239.153 198.781 235.781 200.77C232.431 202.746 227.738 204 222.5 204C217.262 204 212.569 202.746 209.219 200.77C205.847 198.781 204 196.178 204 193.5ZM202 192V192.004C201.998 194.84 200.126 197.565 196.764 199.634C193.417 201.693 188.73 203 183.5 203C178.27 203 173.583 201.693 170.236 199.634C166.872 197.564 165 194.837 165 192V186.223C166.075 187.539 167.528 188.695 169.22 189.649C172.925 191.739 177.976 193 183.5 193C189.024 193 194.075 191.739 197.78 189.649C199.472 188.695 200.925 187.539 202 186.223V192ZM217 254V222H224C224.552 222 225 222.448 225 223V265C225 265.552 224.552 266 224 266H134C133.448 266 133 265.552 133 265V257H214C215.657 257 217 255.657 217 254ZM124 211C123.448 211 123 211.448 123 212V254C123 254.552 123.448 255 124 255H214C214.552 255 215 254.552 215 254V212C215 211.448 214.552 211 214 211H124ZM130 219C130 218.448 130.448 218 131 218H147.378C147.931 218 148.378 217.552 148.378 217C148.378 216.448 147.931 216 147.378 216H131C129.343 216 128 217.343 128 219V247C128 248.657 129.343 250 131 250H147.378C147.931 250 148.378 249.552 148.378 249C148.378 248.448 147.931 248 147.378 248H131C130.448 248 130 247.552 130 247V219ZM190.622 216C190.069 216 189.622 216.448 189.622 217C189.622 217.552 190.069 218 190.622 218H207C207.552 218 208 218.448 208 219V247C208 247.552 207.552 248 207 248H190.622C190.069 248 189.622 248.448 189.622 249C189.622 249.552 190.069 250 190.622 250H207C208.657 250 210 248.657 210 247V219C210 217.343 208.657 216 207 216H190.622ZM169 222C162.925 222 158 226.925 158 233C158 239.075 162.925 244 169 244C175.075 244 180 239.075 180 233C180 226.925 175.075 222 169 222ZM156 233C156 225.82 161.82 220 169 220C176.18 220 182 225.82 182 233C182 240.18 176.18 246 169 246C161.82 246 156 240.18 156 233ZM194 231C192.895 231 192 231.895 192 233C192 234.105 192.895 235 194 235C195.105 235 196 234.105 196 233C196 231.895 195.105 231 194 231ZM142 233C142 231.895 142.895 231 144 231C145.105 231 146 231.895 146 233C146 234.105 145.105 235 144 235C142.895 235 142 234.105 142 233Z" fill="#FF7733"/>
<path fill-rule="evenodd" clip-rule="evenodd" d="M74 51C74 48.2386 76.2386 46 79 46H188C190.761 46 193 48.2386 193 51V122C193 123.657 191.657 125 190 125H87.4709C86.9186 125 86.4709 125.448 86.4709 126C86.4709 126.552 86.9186 127 87.4709 127H91.4062L84.2498 134.156C80.7982 137.608 80.7982 143.204 84.2498 146.656C86.151 148.557 88.7029 149.411 91.1886 149.218L90.2498 150.156C86.7982 153.608 86.7982 159.204 90.2498 162.656C91.1708 163.577 92.2446 164.252 93.3895 164.681C91.2082 167.991 91.5736 172.485 94.4857 175.397C94.9504 175.862 95.4553 176.262 95.9892 176.597L92.0114 180.574C90.0389 182.547 87.5556 183.93 84.8404 184.569L75.8708 186.68C73.3366 187.276 71.0188 188.567 69.1779 190.408L49.2929 210.293C48.9024 210.683 48.9024 211.317 49.2929 211.707C49.6834 212.098 50.3166 212.098 50.7071 211.707L70.5921 191.822C72.17 190.244 74.1567 189.137 76.3289 188.626L85.2984 186.516C88.3757 185.792 91.1902 184.224 93.4256 181.989L97.9217 177.492C100.863 178.429 104.212 177.73 106.545 175.397L119.892 162.05C123.222 158.72 123.222 153.321 119.892 149.991C119.032 149.131 118.034 148.493 116.969 148.077C116.609 148.671 116.173 149.232 115.66 149.745C116.692 150.039 117.665 150.593 118.478 151.405C121.027 153.954 121.027 158.087 118.478 160.636L105.13 173.983C102.581 176.532 98.4489 176.532 95.9 173.983C93.4916 171.575 93.3588 167.752 95.5015 165.188C95.337 165.17 95.173 165.146 95.0096 165.119C97.7382 165.583 100.643 164.762 102.749 162.656L115.656 149.749C119.107 146.297 119.107 140.701 115.656 137.25C113.755 135.348 111.203 134.494 108.717 134.688L109.656 133.749C111.509 131.896 112.367 129.425 112.231 127H190C192.761 127 195 124.761 195 122V51C195 47.134 191.866 44 188 44H79C75.134 44 72 47.134 72 51V83.4615C72 84.0138 72.4477 84.4615 73 84.4615C73.5523 84.4615 74 84.0138 74 83.4615V51ZM110.226 127H94.2346L85.664 135.571C82.9935 138.241 82.9935 142.571 85.664 145.241C88.0243 147.602 91.6809 147.876 94.3424 146.064L103.157 137.25C103.509 136.898 103.883 136.582 104.275 136.301L108.242 132.335C109.704 130.872 110.366 128.912 110.226 127ZM133.5 69.2079L138.194 80.4926C138.77 81.8776 140.072 82.8238 141.567 82.9437L153.75 83.9204L144.468 91.8714C143.329 92.8472 142.831 94.3783 143.179 95.8373L146.015 107.726L135.585 101.355C134.305 100.573 132.695 100.573 131.415 101.355L120.985 107.726L123.821 95.8373C124.169 94.3783 123.671 92.8472 122.532 91.8714L113.25 83.9204L125.433 82.9437C126.928 82.8238 128.23 81.8776 128.806 80.4926L133.5 69.2079ZM131.653 68.4399C132.337 66.7973 134.663 66.7973 135.347 68.4399L140.04 79.7246C140.328 80.417 140.979 80.8902 141.727 80.9501L153.91 81.9268C155.683 82.069 156.402 84.282 155.051 85.4393L145.769 93.3903C145.2 93.8782 144.951 94.6438 145.125 95.3733L147.961 107.262C148.373 108.992 146.491 110.36 144.973 109.432L134.543 103.062C133.902 102.671 133.098 102.671 132.457 103.062L122.027 109.432C120.509 110.36 118.627 108.992 119.039 107.262L121.875 95.3733C122.049 94.6438 121.8 93.8782 121.231 93.3903L111.949 85.4393C110.598 84.282 111.317 82.069 113.09 81.9268L125.273 80.9501C126.021 80.8902 126.672 80.417 126.96 79.7246L131.653 68.4399ZM133.5 55C134.052 55 134.5 55.4477 134.5 56V61.5C134.5 62.0523 134.052 62.5 133.5 62.5C132.948 62.5 132.5 62.0523 132.5 61.5V56C132.5 55.4477 132.948 55 133.5 55ZM108.293 61.7929C108.683 61.4024 109.317 61.4024 109.707 61.7929L114.207 66.2929C114.598 66.6834 114.598 67.3166 114.207 67.7071C113.817 68.0976 113.183 68.0976 112.793 67.7071L108.293 63.2071C107.902 62.8166 107.902 62.1834 108.293 61.7929ZM158.793 61.7929C159.183 61.4024 159.817 61.4024 160.207 61.7929C160.598 62.1834 160.598 62.8166 160.207 63.2071L155.707 67.7071C155.317 68.0976 154.683 68.0976 154.293 67.7071C153.902 67.3166 153.902 66.6834 154.293 66.2929L158.793 61.7929ZM97 86.5C97 85.9477 97.4477 85.5 98 85.5H104C104.552 85.5 105 85.9477 105 86.5C105 87.0523 104.552 87.5 104 87.5H98C97.4477 87.5 97 87.0523 97 86.5ZM161 86.5C161 85.9477 161.448 85.5 162 85.5H168.5C169.052 85.5 169.5 85.9477 169.5 86.5C169.5 87.0523 169.052 87.5 168.5 87.5H162C161.448 87.5 161 87.0523 161 86.5ZM109.344 103.463C109.64 103.929 109.503 104.547 109.037 104.844L103.537 108.344C103.071 108.64 102.453 108.503 102.156 108.037C101.86 107.571 101.997 106.953 102.463 106.656L107.963 103.156C108.429 102.86 109.047 102.997 109.344 103.463ZM157.156 103.463C157.453 102.997 158.071 102.86 158.537 103.156L164.037 106.656C164.503 106.953 164.64 107.571 164.344 108.037C164.047 108.503 163.429 108.64 162.963 108.344L157.463 104.844C156.997 104.547 156.86 103.929 157.156 103.463ZM83.3897 95.0555C83.1289 94.7366 82.6522 94.7063 82.3531 94.9896L40.4372 134.676C38.243 136.753 37 139.642 37 142.664V153.442C37 158.545 34.9472 163.433 31.304 167.006L10.7002 187.214C10.3059 187.601 9.67278 187.594 9.28606 187.2C8.89935 186.806 8.90549 186.173 9.29979 185.786L29.9035 165.578C33.1633 162.381 35 158.007 35 153.442V142.664C35 139.093 36.469 135.679 39.0621 133.224L80.9781 93.5372C82.1206 92.4555 83.9413 92.5712 84.9376 93.789C89.7116 99.6238 89.2875 108.127 83.9566 113.458L67.7611 129.653C67.4484 129.966 67.3782 130.447 67.5885 130.836L69.6201 134.594C74.2343 143.13 73.4922 153.566 67.7164 161.363L66.8036 162.595C66.4748 163.039 65.8486 163.132 65.4048 162.804C64.961 162.475 64.8677 161.849 65.1964 161.405L66.1093 160.172C71.423 152.999 72.1057 143.399 67.8607 135.545L65.8291 131.787C65.1983 130.62 65.4088 129.177 66.3469 128.239L82.5424 112.043C87.1467 107.439 87.513 100.095 83.3897 95.0555ZM95.6308 147.604L91.664 151.571C88.9935 154.241 88.9935 158.571 91.664 161.241C94.3345 163.912 98.6643 163.912 101.335 161.241L114.242 148.335C116.912 145.664 116.912 141.334 114.242 138.664C111.881 136.303 108.225 136.029 105.563 137.841L96.749 146.656C96.397 147.008 96.0228 147.324 95.6308 147.604Z" fill="#FF7733"/>
<path fill-rule="evenodd" clip-rule="evenodd" d="M233.631 56.2454C229.968 58.2516 228 60.8598 228 63.5C228 66.1402 229.968 68.7484 233.631 70.7546C237.258 72.7406 242.336 74 248 74C253.664 74 258.742 72.7406 262.369 70.7546C266.032 68.7484 268 66.1402 268 63.5C268 60.8598 266.032 58.2516 262.369 56.2454C258.742 54.2594 253.664 53 248 53C242.336 53 237.258 54.2594 233.631 56.2454ZM269.983 63C269.75 59.5067 267.088 56.5496 263.33 54.4912C259.356 52.315 253.934 51 248 51C242.066 51 236.644 52.315 232.67 54.4912C228.912 56.5496 226.25 59.5067 226.017 63H226V63.5V75C226 78.596 228.764 81.6091 232.687 83.664C236.657 85.7437 242.073 87 248 87C253.927 87 259.343 85.7437 263.313 83.664C267.236 81.6091 270 78.596 270 75V63.5V63H269.983ZM268 68.7661C266.834 70.2103 265.221 71.4733 263.33 72.5088C259.356 74.685 253.934 76 248 76C242.066 76 236.644 74.685 232.67 72.5088C230.779 71.4733 229.166 70.2103 228 68.7661V75C228 77.4791 229.937 79.966 233.615 81.8923C237.245 83.7939 242.329 85 248 85C253.671 85 258.755 83.7939 262.385 81.8923C266.063 79.966 268 77.4791 268 75V68.7661ZM247.256 58.598L245.242 61.1077C244.981 61.4334 244.595 61.6355 244.179 61.6652L240.075 61.9574L242.102 63.2566C242.671 63.6213 242.926 64.3212 242.725 64.9663L241.987 67.3314L246.721 65.525C247.065 65.3936 247.446 65.3936 247.791 65.525L252.525 67.3314L251.792 64.9825C251.584 64.3149 251.864 63.5919 252.469 63.2397L254.675 61.9541L250.339 61.6646C249.92 61.6366 249.531 61.4342 249.269 61.1066L247.256 58.598ZM246.086 56.8603C246.686 56.1119 247.825 56.1119 248.426 56.8603L250.691 59.6837L256.437 60.0674C257.913 60.1659 258.371 62.1153 257.093 62.86L253.82 64.7672L254.741 67.7189C255.114 68.9144 253.944 70.0136 252.774 69.5671L247.256 67.4616L241.737 69.5671C240.567 70.0136 239.398 68.9144 239.771 67.7189L240.702 64.7346L237.728 62.8285C236.513 62.0496 236.991 60.172 238.431 60.0695L243.819 59.6857L246.086 56.8603Z" fill="#FF7733"/>
<path fill-rule="evenodd" clip-rule="evenodd" d="M10.2024 38.5795C7.44797 40.1687 6.0001 42.2144 6 44.2637V44.2639C6 46.3132 7.44787 48.359 10.2024 49.9483C12.9304 51.5223 16.7655 52.5278 21.0558 52.5278C25.3461 52.5278 29.1812 51.5223 31.9092 49.9483C34.6637 48.359 36.1116 46.3132 36.1116 44.2639C36.1116 42.2146 34.6637 40.1688 31.9092 38.5795C29.1812 37.0055 25.3461 36 21.0558 36C16.7655 36 12.9304 37.0055 10.2024 38.5795ZM6 49.1342C6.86011 50.1045 7.95572 50.961 9.20287 51.6806C12.2859 53.4595 16.4787 54.5278 21.0558 54.5278C25.6329 54.5278 29.8257 53.4595 32.9087 51.6806C34.2725 50.8937 35.455 49.9431 36.3466 48.8591V53.5278H38.3466V43.8611H38.0992C37.9206 40.9705 35.8305 38.533 32.9087 36.8472C29.8257 35.0683 25.6329 34 21.0558 34C16.4787 34 12.2859 35.0683 9.20287 36.8472C6.28109 38.533 4.19102 40.9705 4.01241 43.8611H4V44.2639L4 53.5278H6V49.1342ZM10.1858 58.9181C12.9171 60.4254 16.7583 61.3889 21.0558 61.3889C25.3533 61.3889 29.1945 60.4254 31.9257 58.9181C34.6923 57.3912 36.1116 55.4433 36.1116 53.5278H38.1116C38.1116 56.5062 35.9366 58.9888 32.8921 60.6691C29.8124 62.3688 25.6256 63.3889 21.0558 63.3889C16.4859 63.3889 12.2992 62.3688 9.21944 60.6691C6.17493 58.9888 4 56.5062 4 53.5278H6C6 55.4433 7.41928 57.3912 10.1858 58.9181ZM19.1784 42.3968L20.4869 40.6784L21.7946 42.3957C22.056 42.7389 22.4524 42.953 22.8827 42.9833L25.5218 43.1689L24.3976 43.8591C23.8195 44.2141 23.5516 44.9129 23.7442 45.5634L24.1682 46.9952L21.0464 45.7402C20.6874 45.5959 20.2865 45.5959 19.9274 45.7402L16.8056 46.9952L17.2344 45.5471C17.4202 44.9198 17.1779 44.2443 16.6357 43.8781L15.5901 43.172L18.0972 42.9839C18.525 42.9518 18.9185 42.7381 19.1784 42.3968ZM21.6803 38.9444C21.08 38.1561 19.8938 38.1561 19.2935 38.9444L17.7234 41.0063L14.0057 41.2853C12.5874 41.3917 12.0997 43.2281 13.2784 44.0241L15.2127 45.3305L14.5943 47.4189C14.238 48.6218 15.428 49.7045 16.592 49.2366L20.4869 47.6708L24.3818 49.2366C25.5458 49.7045 26.7358 48.6218 26.3796 47.4189L25.7707 45.363L27.8965 44.0578C29.1397 43.2946 28.6721 41.3856 27.2169 41.2832L23.2487 41.0041L21.6803 38.9444Z" fill="#FF7733"/>
<path fill-rule="evenodd" clip-rule="evenodd" d="M231.001 138C231.001 136.286 232.179 134.558 234.464 133.203C236.728 131.862 239.921 131 243.501 131C247.081 131 250.273 131.862 252.537 133.203C254.822 134.558 256.001 136.286 256.001 138C256.001 139.714 254.822 141.442 252.537 142.797C250.273 144.138 247.081 145 243.501 145C239.921 145 236.728 144.138 234.464 142.797C232.179 141.442 231.001 139.714 231.001 138ZM256.001 142.603C255.315 143.325 254.484 143.968 253.556 144.517C250.934 146.071 247.376 147 243.501 147C239.625 147 236.067 146.071 233.445 144.517C232.517 143.968 231.686 143.325 231.001 142.603L231.001 146L230.001 146H231.001C231.001 147.369 232.091 148.857 234.415 150.062C236.689 151.241 239.899 152 243.501 152C247.102 152 250.312 151.241 252.586 150.062C254.91 148.857 256.001 147.369 256.001 146V142.603ZM257.995 146.223H258.001V146V138C258.001 135.295 256.157 133.024 253.556 131.483C250.934 129.929 247.376 129 243.501 129C239.625 129 236.067 129.929 233.445 131.483C230.844 133.024 229.001 135.295 229.001 138L229.001 138H229L229.001 146H229.001C229.001 148.497 230.932 150.509 233.494 151.838C236.107 153.192 239.646 154 243.501 154C247.355 154 250.895 153.192 253.507 151.838C255.992 150.549 257.884 148.617 257.995 146.223Z" fill="#FF7733"/>
<path d="M235 44V32.5M244 44V39M268 50V31" stroke="#FF7733" stroke-width="2" stroke-linecap="round"/>
<path d="M37 28V2M28 28V23M4 26.5V15" stroke="#FF7733" stroke-width="2" stroke-linecap="round"/>
<path d="M208 5V0M211 8H216M205 8H200M208 16V11" stroke="#FF7733" stroke-width="2" stroke-linecap="round"/>
<path d="M60 245V240M63 248H68M57 248H52M60 256V251" stroke="#FF7733" stroke-width="2" stroke-linecap="round"/>
<path d="M13 128V123M16 131H21M10 131H5M13 139V134" stroke="#FF7733" stroke-width="2" stroke-linecap="round"/>
</g>
<defs>
<clipPath id="clip0_3714_31812">
<rect width="270" height="268" fill="white"/>
</clipPath>
</defs>
</svg>
