<svg width="20" height="20" viewBox="0 0 20 20" fill="none" xmlns="http://www.w3.org/2000/svg">
<g clip-path="url(#clip0)">
<path d="M19.9999 9.99994C19.9999 15.5228 15.5228 20 10 20C4.47712 20 0 15.5228 0 9.99994C0 4.47712 4.47712 -1.52588e-05 10 -1.52588e-05C15.5228 -1.52588e-05 19.9999 4.47712 19.9999 9.99994Z" fill="#BEBEBE"/>
<path d="M17.8769 10C17.8769 14.35 14.3503 17.8769 10.0001 17.8769C5.64987 17.8769 2.12305 14.35 2.12305 10C2.12305 5.6497 5.64987 2.12309 10.0001 2.12309C14.3504 2.12309 17.8769 5.64964 17.8769 10Z" fill="#BEBEBE"/>
<path d="M9.41541 12.6714L10.0649 10.2256L11.6027 9.66379L11.9852 8.22643L11.9721 8.19077L10.4584 8.74378L11.5491 4.63706H8.45598L7.02967 9.99642L5.83881 10.4315L5.44531 11.9133L6.63527 11.4786L5.79465 14.6371H14.0266L14.5543 12.6714H9.41541Z" fill="white"/>
</g>
<defs>
<clipPath id="clip0">
<rect width="20" height="20" fill="white"/>
</clipPath>
</defs>
</svg>
