<svg width="588" height="318" viewBox="0 0 588 318" fill="none" xmlns="http://www.w3.org/2000/svg">
<circle opacity="0.02" cx="292.5" cy="167" r="121" fill="white"/>
<g opacity="0.6">
<path fill-rule="evenodd" clip-rule="evenodd" d="M188.5 260C186.843 260 185.5 261.343 185.5 263V305C185.5 306.657 186.843 308 188.5 308H195.5V315C195.5 316.657 196.843 318 198.5 318H288.5C290.157 318 291.5 316.657 291.5 315V273C291.5 271.343 290.157 270 288.5 270H281.5V263C281.5 261.343 280.157 260 278.5 260H188.5ZM281.5 272V305C281.5 306.657 280.157 308 278.5 308H197.5V315C197.5 315.552 197.948 316 198.5 316H288.5C289.052 316 289.5 315.552 289.5 315V273C289.5 272.448 289.052 272 288.5 272H281.5ZM187.5 263C187.5 262.448 187.948 262 188.5 262H278.5C279.052 262 279.5 262.448 279.5 263V305C279.5 305.552 279.052 306 278.5 306H188.5C187.948 306 187.5 305.552 187.5 305V263ZM195.5 269C194.948 269 194.5 269.448 194.5 270V298C194.5 298.552 194.948 299 195.5 299H211.878C212.431 299 212.878 299.448 212.878 300C212.878 300.552 212.431 301 211.878 301H195.5C193.843 301 192.5 299.657 192.5 298V270C192.5 268.343 193.843 267 195.5 267H211.878C212.431 267 212.878 267.448 212.878 268C212.878 268.552 212.431 269 211.878 269H195.5ZM254.122 268C254.122 267.448 254.569 267 255.122 267H271.5C273.157 267 274.5 268.343 274.5 270V298C274.5 299.657 273.157 301 271.5 301H255.122C254.569 301 254.122 300.552 254.122 300C254.122 299.448 254.569 299 255.122 299H271.5C272.052 299 272.5 298.552 272.5 298V270C272.5 269.448 272.052 269 271.5 269H255.122C254.569 269 254.122 268.552 254.122 268ZM222.5 284C222.5 277.925 227.425 273 233.5 273C239.575 273 244.5 277.925 244.5 284C244.5 290.075 239.575 295 233.5 295C227.425 295 222.5 290.075 222.5 284ZM233.5 271C226.32 271 220.5 276.82 220.5 284C220.5 291.18 226.32 297 233.5 297C240.68 297 246.5 291.18 246.5 284C246.5 276.82 240.68 271 233.5 271ZM256.5 284C256.5 282.895 257.395 282 258.5 282C259.605 282 260.5 282.895 260.5 284C260.5 285.105 259.605 286 258.5 286C257.395 286 256.5 285.105 256.5 284ZM208.5 282C207.395 282 206.5 282.895 206.5 284C206.5 285.105 207.395 286 208.5 286C209.605 286 210.5 285.105 210.5 284C210.5 282.895 209.605 282 208.5 282Z" fill="white"/>
<path fill-rule="evenodd" clip-rule="evenodd" d="M118.672 210.304C116.57 212.451 115.5 214.712 115.5 217C115.5 219.288 116.57 221.549 118.672 223.696C120.779 225.847 123.877 227.83 127.784 229.517C135.594 232.889 146.453 235 158.5 235C170.547 235 181.406 232.889 189.216 229.517C193.123 227.83 196.221 225.847 198.328 223.696C200.43 221.549 201.5 219.288 201.5 217C201.5 214.712 200.43 212.451 198.328 210.304C196.221 208.153 193.123 206.17 189.216 204.483C181.406 201.111 170.547 199 158.5 199C146.453 199 135.594 201.111 127.784 204.483C123.877 206.17 120.779 208.153 118.672 210.304ZM199.757 208.905C201.84 211.032 203.171 213.423 203.447 216H203.5V217V236V254V260H199.48C200.806 258.073 201.5 256.052 201.5 254V241.712C200.995 242.409 200.404 243.08 199.737 243.725C197.389 245.996 194.044 247.996 189.991 249.653C181.882 252.971 170.747 255 158.5 255C146.253 255 135.118 252.971 127.009 249.653C122.956 247.996 119.611 245.996 117.263 243.725C116.596 243.08 116.005 242.409 115.5 241.712V254C115.5 259.192 119.944 264.189 127.818 267.947C135.619 271.67 146.465 274 158.5 274C169.693 274 179.857 271.984 187.5 268.708V270.876C179.662 274.083 169.531 276 158.5 276C146.234 276 135.081 273.629 126.957 269.752C121.825 267.302 117.767 264.178 115.5 260.575V275C115.5 277.288 116.57 279.549 118.672 281.696C120.779 283.847 123.877 285.83 127.784 287.517C135.594 290.889 146.453 293 158.5 293C169.688 293 179.852 291.18 187.5 288.219V290.357C179.667 293.262 169.535 295 158.5 295C146.247 295 135.106 292.857 126.991 289.353C122.935 287.602 119.589 285.491 117.243 283.095C114.893 280.696 113.5 277.959 113.5 275V254V236V218H113.553C113.518 217.67 113.5 217.336 113.5 217C113.5 214.041 114.893 211.304 117.243 208.905C119.589 206.509 122.935 204.398 126.991 202.647C135.106 199.143 146.247 197 158.5 197C170.753 197 181.894 199.143 190.009 202.647C194.065 204.398 197.411 206.509 199.757 208.905ZM199.757 225.095C200.416 224.422 201.001 223.722 201.5 222.997V236C201.5 238.13 200.449 240.255 198.347 242.288C196.242 244.323 193.144 246.203 189.234 247.802C181.419 251 170.553 253 158.5 253C146.447 253 135.581 251 127.766 247.802C123.856 246.203 120.758 244.323 118.653 242.288C116.551 240.255 115.5 238.13 115.5 236V222.997C115.999 223.722 116.584 224.422 117.243 225.095C119.589 227.491 122.935 229.602 126.991 231.353C135.106 234.857 146.247 237 158.5 237C170.753 237 181.894 234.857 190.009 231.353C194.065 229.602 197.411 227.491 199.757 225.095Z" fill="white"/>
</g>
<path d="M344.5 299L406.5 299L406.5 313L439.123 292.851C439.755 292.46 439.755 291.54 439.123 291.149L406.5 271L406.5 285L376.5 285" stroke="#FF7733" stroke-width="2" stroke-linecap="round" stroke-linejoin="round"/>
<path d="M309.5 214.333L262.882 214.333L262.882 226L235.88 209.351C235.247 208.961 235.247 208.039 235.88 207.649L262.882 191L262.882 202.667L285.87 202.667" stroke="#FF7733" stroke-width="2" stroke-linecap="round" stroke-linejoin="round"/>
<path opacity="0.6" fill-rule="evenodd" clip-rule="evenodd" d="M246.5 22H308.5C317.889 22 325.5 29.6112 325.5 39V134H345.735C346.71 134 347.5 134.79 347.5 135.765C347.5 143.074 341.574 149 334.265 149H142.735C135.426 149 129.5 143.074 129.5 135.765C129.5 134.79 130.29 134 131.265 134H151.5V83H153.5V134H225.823C227.23 134 228.515 134.795 229.144 136.053C229.741 137.246 230.961 138 232.295 138H244.705C246.039 138 247.259 137.246 247.856 136.053C248.485 134.795 249.77 134 251.177 134H323.5V39C323.5 30.7157 316.784 24 308.5 24H246.5V22ZM246.5 34H307.5C310.814 34 313.5 36.6863 313.5 40V122V124H311.5H288.5H228.5H165.5H163.5V122V83H165.5V122H227.5V115C227.5 112.239 229.739 110 232.5 110H284.5C287.261 110 289.5 112.239 289.5 115V122H311.5V40C311.5 37.7909 309.709 36 307.5 36H246.5V34ZM229.5 122H287.5V115C287.5 113.343 286.157 112 284.5 112H232.5C230.843 112 229.5 113.343 229.5 115V122ZM131.502 136C131.628 142.096 136.609 147 142.735 147H334.265C340.391 147 345.372 142.096 345.498 136H324.5H251.177C250.528 136 249.935 136.367 249.644 136.947C248.709 138.818 246.797 140 244.705 140H232.295C230.203 140 228.291 138.818 227.356 136.947C227.065 136.367 226.472 136 225.823 136H152.5H131.502ZM240.5 104C241.052 104 241.5 104.448 241.5 105C241.5 105.552 241.052 106 240.5 106H230.5C229.948 106 229.5 105.552 229.5 105C229.5 104.448 229.948 104 230.5 104H240.5Z" fill="white"/>
<path fill-rule="evenodd" clip-rule="evenodd" d="M195.5 81C196.054 81 196.584 81.2301 196.962 81.6354L207.5 92.926V83C207.5 81.8954 208.395 81 209.5 81H240.5C242.709 81 244.5 79.2091 244.5 77V6C244.5 3.79086 242.709 2 240.5 2H136.5C134.291 2 132.5 3.79086 132.5 6V77C132.5 79.2091 134.291 81 136.5 81H195.5ZM136.5 83H195.5L206.038 94.2906C207.276 95.6176 209.5 94.7412 209.5 92.926V85V83H211.5H240.5C243.814 83 246.5 80.3137 246.5 77V6C246.5 2.68629 243.814 0 240.5 0H136.5C133.186 0 130.5 2.68629 130.5 6V77C130.5 80.3137 133.186 83 136.5 83ZM187.178 14.9956C186.139 14.9956 185.296 15.8379 185.296 16.877V22.6307C185.296 23.9416 185.01 25.2366 184.457 26.4252L179.489 37.1112H179.364V34.5727C179.364 34.0204 178.916 33.5727 178.364 33.5727H162.5C162.207 33.5727 161.928 33.7011 161.738 33.9241C161.548 34.1471 161.466 34.4421 161.512 34.7313L165.919 62.1547C165.997 62.6395 166.415 62.996 166.906 62.996H178.364C178.916 62.996 179.364 62.5483 179.364 61.996V60.3421H181.168C181.705 61.9276 183.193 62.996 184.868 62.996H206.997C209.259 62.996 211.093 61.1621 211.093 58.8998C211.093 58.0643 210.843 57.2871 210.414 56.6393C212.33 56.1081 213.737 54.351 213.737 52.2651C213.737 50.9904 213.212 49.8384 212.366 49.014C213.718 48.1745 214.619 46.6759 214.619 44.967V44.7328C214.619 43.4928 214.12 42.3693 213.312 41.552C214.624 40.7563 215.5 39.3149 215.5 37.6689C215.5 35.1623 213.468 33.1304 210.962 33.1304H192.028L193.927 26.4579C194.206 25.4783 194.347 24.4647 194.347 23.4462V22.1652C194.347 18.2055 191.137 14.9956 187.178 14.9956ZM213.5 37.6689C213.5 36.2669 212.364 35.1304 210.962 35.1304H190.703C190.39 35.1304 190.094 34.9832 189.905 34.733C189.716 34.4827 189.656 34.1582 189.741 33.8566L192.003 25.9103C192.232 25.1088 192.347 24.2796 192.347 23.4462V22.1652C192.347 19.3497 190.097 17.06 187.296 16.9969V22.6307C187.296 24.2329 186.946 25.8156 186.271 27.2684L181.034 38.5328C180.87 38.8856 180.516 39.1112 180.127 39.1112H179.364V58.3421H181.19C182.039 58.3421 182.792 58.8854 183.059 59.6904C183.318 60.4699 184.047 60.996 184.868 60.996H206.997C208.155 60.996 209.093 60.0575 209.093 58.8998C209.093 57.7421 208.155 56.8036 206.997 56.8036H205.686C205.134 56.8036 204.686 56.3559 204.686 55.8036C204.686 55.2513 205.134 54.8036 205.686 54.8036H206.997H209.199C210.601 54.8036 211.737 53.6671 211.737 52.2651C211.737 50.8632 210.601 49.7267 209.199 49.7267H208.331C207.778 49.7267 207.331 49.2789 207.331 48.7267C207.331 48.1744 207.778 47.7267 208.331 47.7267H209.199H209.859C211.383 47.7267 212.619 46.4911 212.619 44.967V44.7328C212.619 43.338 211.488 42.2074 210.093 42.2074H209.212C208.66 42.2074 208.212 41.7596 208.212 41.2074C208.212 40.6551 208.66 40.2074 209.212 40.2074H210.093H210.962C212.364 40.2074 213.5 39.0708 213.5 37.6689ZM163.673 35.5727L167.758 60.996H177.364V59.3421V38.1112V35.5727H163.673ZM174.837 57.6885C174.837 58.6658 174.048 59.4581 173.075 59.4581C172.101 59.4581 171.312 58.6658 171.312 57.6885C171.312 56.7112 172.101 55.9189 173.075 55.9189C174.048 55.9189 174.837 56.7112 174.837 57.6885Z" fill="#FF7733"/>
<g opacity="0.6">
<mask id="path-8-inside-1_4893_38340" fill="white">
<path fill-rule="evenodd" clip-rule="evenodd" d="M399.5 144C393.425 144 388.5 148.925 388.5 155V162H354.5C351.186 162 348.5 164.686 348.5 168V244C348.5 247.314 351.186 250 354.5 250H468.5C471.814 250 474.5 247.314 474.5 244V168C474.5 164.686 471.814 162 468.5 162H435.5V155C435.5 148.925 430.575 144 424.5 144H399.5ZM433.5 162V155C433.5 150.029 429.471 146 424.5 146H399.5C394.529 146 390.5 150.029 390.5 155V162H394.5V156C394.5 152.686 397.186 150 400.5 150H422.5C425.814 150 428.5 152.686 428.5 156V162H433.5ZM396.5 156V162H426.5V156C426.5 153.791 424.709 152 422.5 152H400.5C398.291 152 396.5 153.791 396.5 156ZM468.5 164H354.5C352.291 164 350.5 165.791 350.5 168V187.335L401.5 208.756V205C401.5 203.343 402.843 202 404.5 202H419.5C421.157 202 422.5 203.343 422.5 205V208.336L472.5 187.335V168C472.5 165.791 470.709 164 468.5 164ZM350.5 244V237H352.5C357.471 237 361.5 241.029 361.5 246V248H354.5C352.291 248 350.5 246.209 350.5 244ZM352.5 235H350.5V189.505L401.492 210.922L401.5 210.925V214.5C401.5 220.299 406.201 225 412 225C417.799 225 422.5 220.299 422.5 214.5V210.505L472.5 189.505V235H470.5C464.425 235 459.5 239.925 459.5 246V248H363.5V246C363.5 239.925 358.575 235 352.5 235ZM461.5 248H468.5C470.709 248 472.5 246.209 472.5 244V237H470.5C465.529 237 461.5 241.029 461.5 246V248ZM403.5 211V214.5C403.5 219.194 407.306 223 412 223C416.694 223 420.5 219.194 420.5 214.5V211H403.5ZM420.5 209H403.5V205C403.5 204.448 403.948 204 404.5 204H419.5C420.052 204 420.5 204.448 420.5 205V209Z"/>
</mask>
<path fill-rule="evenodd" clip-rule="evenodd" d="M399.5 144C393.425 144 388.5 148.925 388.5 155V162H354.5C351.186 162 348.5 164.686 348.5 168V244C348.5 247.314 351.186 250 354.5 250H468.5C471.814 250 474.5 247.314 474.5 244V168C474.5 164.686 471.814 162 468.5 162H435.5V155C435.5 148.925 430.575 144 424.5 144H399.5ZM433.5 162V155C433.5 150.029 429.471 146 424.5 146H399.5C394.529 146 390.5 150.029 390.5 155V162H394.5V156C394.5 152.686 397.186 150 400.5 150H422.5C425.814 150 428.5 152.686 428.5 156V162H433.5ZM396.5 156V162H426.5V156C426.5 153.791 424.709 152 422.5 152H400.5C398.291 152 396.5 153.791 396.5 156ZM468.5 164H354.5C352.291 164 350.5 165.791 350.5 168V187.335L401.5 208.756V205C401.5 203.343 402.843 202 404.5 202H419.5C421.157 202 422.5 203.343 422.5 205V208.336L472.5 187.335V168C472.5 165.791 470.709 164 468.5 164ZM350.5 244V237H352.5C357.471 237 361.5 241.029 361.5 246V248H354.5C352.291 248 350.5 246.209 350.5 244ZM352.5 235H350.5V189.505L401.492 210.922L401.5 210.925V214.5C401.5 220.299 406.201 225 412 225C417.799 225 422.5 220.299 422.5 214.5V210.505L472.5 189.505V235H470.5C464.425 235 459.5 239.925 459.5 246V248H363.5V246C363.5 239.925 358.575 235 352.5 235ZM461.5 248H468.5C470.709 248 472.5 246.209 472.5 244V237H470.5C465.529 237 461.5 241.029 461.5 246V248ZM403.5 211V214.5C403.5 219.194 407.306 223 412 223C416.694 223 420.5 219.194 420.5 214.5V211H403.5ZM420.5 209H403.5V205C403.5 204.448 403.948 204 404.5 204H419.5C420.052 204 420.5 204.448 420.5 205V209Z" fill="#FF7733"/>
<path d="M388.5 162V163H389.5V162H388.5ZM435.5 162H434.5V163H435.5V162ZM433.5 162V163H434.5V162H433.5ZM390.5 162H389.5V163H390.5V162ZM394.5 162V163H395.5V162H394.5ZM428.5 162H427.5V163H428.5V162ZM396.5 162H395.5V163H396.5V162ZM426.5 162V163H427.5V162H426.5ZM350.5 187.335H349.5V188L350.113 188.257L350.5 187.335ZM401.5 208.756L401.113 209.678L402.5 210.261V208.756H401.5ZM422.5 208.336H421.5V209.841L422.887 209.258L422.5 208.336ZM472.5 187.335L472.887 188.257L473.5 188V187.335H472.5ZM350.5 237V236H349.5V237H350.5ZM361.5 248V249H362.5V248H361.5ZM350.5 235H349.5V236H350.5V235ZM350.5 189.505L350.887 188.583L349.5 188V189.505H350.5ZM401.492 210.922L401.88 210L401.879 210L401.492 210.922ZM401.5 210.925H402.5V210.261L401.888 210.003L401.5 210.925ZM422.5 210.505L422.113 209.583L421.5 209.841V210.505H422.5ZM472.5 189.505H473.5V188L472.113 188.583L472.5 189.505ZM472.5 235V236H473.5V235H472.5ZM459.5 248V249H460.5V248H459.5ZM363.5 248H362.5V249H363.5V248ZM461.5 248H460.5V249H461.5V248ZM472.5 237H473.5V236H472.5V237ZM403.5 211V210H402.5V211H403.5ZM420.5 211H421.5V210H420.5V211ZM403.5 209H402.5V210H403.5V209ZM420.5 209V210H421.5V209H420.5ZM389.5 155C389.5 149.477 393.977 145 399.5 145V143C392.873 143 387.5 148.373 387.5 155H389.5ZM389.5 162V155H387.5V162H389.5ZM354.5 163H388.5V161H354.5V163ZM349.5 168C349.5 165.239 351.739 163 354.5 163V161C350.634 161 347.5 164.134 347.5 168H349.5ZM349.5 244V168H347.5V244H349.5ZM354.5 249C351.739 249 349.5 246.761 349.5 244H347.5C347.5 247.866 350.634 251 354.5 251V249ZM468.5 249H354.5V251H468.5V249ZM473.5 244C473.5 246.761 471.261 249 468.5 249V251C472.366 251 475.5 247.866 475.5 244H473.5ZM473.5 168V244H475.5V168H473.5ZM468.5 163C471.261 163 473.5 165.239 473.5 168H475.5C475.5 164.134 472.366 161 468.5 161V163ZM435.5 163H468.5V161H435.5V163ZM434.5 155V162H436.5V155H434.5ZM424.5 145C430.023 145 434.5 149.477 434.5 155H436.5C436.5 148.373 431.127 143 424.5 143V145ZM399.5 145H424.5V143H399.5V145ZM432.5 155V162H434.5V155H432.5ZM424.5 147C428.918 147 432.5 150.582 432.5 155H434.5C434.5 149.477 430.023 145 424.5 145V147ZM399.5 147H424.5V145H399.5V147ZM391.5 155C391.5 150.582 395.082 147 399.5 147V145C393.977 145 389.5 149.477 389.5 155H391.5ZM391.5 162V155H389.5V162H391.5ZM394.5 161H390.5V163H394.5V161ZM393.5 156V162H395.5V156H393.5ZM400.5 149C396.634 149 393.5 152.134 393.5 156H395.5C395.5 153.239 397.739 151 400.5 151V149ZM422.5 149H400.5V151H422.5V149ZM429.5 156C429.5 152.134 426.366 149 422.5 149V151C425.261 151 427.5 153.239 427.5 156H429.5ZM429.5 162V156H427.5V162H429.5ZM433.5 161H428.5V163H433.5V161ZM397.5 162V156H395.5V162H397.5ZM426.5 161H396.5V163H426.5V161ZM425.5 156V162H427.5V156H425.5ZM422.5 153C424.157 153 425.5 154.343 425.5 156H427.5C427.5 153.239 425.261 151 422.5 151V153ZM400.5 153H422.5V151H400.5V153ZM397.5 156C397.5 154.343 398.843 153 400.5 153V151C397.739 151 395.5 153.239 395.5 156H397.5ZM354.5 165H468.5V163H354.5V165ZM351.5 168C351.5 166.343 352.843 165 354.5 165V163C351.739 163 349.5 165.239 349.5 168H351.5ZM351.5 187.335V168H349.5V187.335H351.5ZM401.887 207.834L350.887 186.413L350.113 188.257L401.113 209.678L401.887 207.834ZM400.5 205V208.756H402.5V205H400.5ZM404.5 201C402.291 201 400.5 202.791 400.5 205H402.5C402.5 203.895 403.395 203 404.5 203V201ZM419.5 201H404.5V203H419.5V201ZM423.5 205C423.5 202.791 421.709 201 419.5 201V203C420.605 203 421.5 203.895 421.5 205H423.5ZM423.5 208.336V205H421.5V208.336H423.5ZM472.113 186.413L422.113 207.414L422.887 209.258L472.887 188.257L472.113 186.413ZM471.5 168V187.335H473.5V168H471.5ZM468.5 165C470.157 165 471.5 166.343 471.5 168H473.5C473.5 165.239 471.261 163 468.5 163V165ZM349.5 237V244H351.5V237H349.5ZM352.5 236H350.5V238H352.5V236ZM362.5 246C362.5 240.477 358.023 236 352.5 236V238C356.918 238 360.5 241.582 360.5 246H362.5ZM362.5 248V246H360.5V248H362.5ZM354.5 249H361.5V247H354.5V249ZM349.5 244C349.5 246.761 351.739 249 354.5 249V247C352.843 247 351.5 245.657 351.5 244H349.5ZM350.5 236H352.5V234H350.5V236ZM349.5 189.505V235H351.5V189.505H349.5ZM401.879 210L350.887 188.583L350.113 190.427L401.105 211.844L401.879 210ZM401.888 210.003L401.88 210L401.105 211.844L401.112 211.847L401.888 210.003ZM402.5 214.5V210.925H400.5V214.5H402.5ZM412 224C406.753 224 402.5 219.747 402.5 214.5H400.5C400.5 220.851 405.649 226 412 226V224ZM421.5 214.5C421.5 219.747 417.247 224 412 224V226C418.351 226 423.5 220.851 423.5 214.5H421.5ZM421.5 210.505V214.5H423.5V210.505H421.5ZM472.113 188.583L422.113 209.583L422.887 211.427L472.887 190.427L472.113 188.583ZM473.5 235V189.505H471.5V235H473.5ZM470.5 236H472.5V234H470.5V236ZM460.5 246C460.5 240.477 464.977 236 470.5 236V234C463.873 234 458.5 239.373 458.5 246H460.5ZM460.5 248V246H458.5V248H460.5ZM363.5 249H459.5V247H363.5V249ZM362.5 246V248H364.5V246H362.5ZM352.5 236C358.023 236 362.5 240.477 362.5 246H364.5C364.5 239.373 359.127 234 352.5 234V236ZM468.5 247H461.5V249H468.5V247ZM471.5 244C471.5 245.657 470.157 247 468.5 247V249C471.261 249 473.5 246.761 473.5 244H471.5ZM471.5 237V244H473.5V237H471.5ZM470.5 238H472.5V236H470.5V238ZM462.5 246C462.5 241.582 466.082 238 470.5 238V236C464.977 236 460.5 240.477 460.5 246H462.5ZM462.5 248V246H460.5V248H462.5ZM404.5 214.5V211H402.5V214.5H404.5ZM412 222C407.858 222 404.5 218.642 404.5 214.5H402.5C402.5 219.747 406.753 224 412 224V222ZM419.5 214.5C419.5 218.642 416.142 222 412 222V224C417.247 224 421.5 219.747 421.5 214.5H419.5ZM419.5 211V214.5H421.5V211H419.5ZM403.5 212H420.5V210H403.5V212ZM403.5 210H420.5V208H403.5V210ZM402.5 205V209H404.5V205H402.5ZM404.5 203C403.395 203 402.5 203.895 402.5 205H404.5V203ZM419.5 203H404.5V205H419.5V203ZM421.5 205C421.5 203.895 420.605 203 419.5 203V205H421.5ZM421.5 209V205H419.5V209H421.5Z" fill="white" mask="url(#path-8-inside-1_4893_38340)"/>
</g>
</svg>
