<svg width="588" height="268" viewBox="0 0 588 268" fill="none" xmlns="http://www.w3.org/2000/svg">
<circle opacity="0.02" cx="294" cy="148" r="120" fill="white"/>
<path fill-rule="evenodd" clip-rule="evenodd" d="M178 185C176.224 185 174.603 185.661 173.369 186.75L211.662 221.092C213.561 222.795 216.439 222.795 218.338 221.092L256.631 186.751C255.397 185.661 253.775 185 252 185H178ZM171 192C171 190.631 171.393 189.353 172.073 188.274L210.326 222.581C212.986 224.966 217.014 224.966 219.674 222.581L257.927 188.274C258.607 189.353 259 190.631 259 192V234C259 237.866 255.866 241 252 241H178C174.134 241 171 237.866 171 234V192ZM169 192C169 187.029 173.029 183 178 183H252C256.97 183 261 187.029 261 192V234C261 238.971 256.97 243 252 243H178C173.029 243 169 238.971 169 234V192ZM276 195C275.448 195 275 195.448 275 196C275 196.552 275.448 197 276 197H310C310.552 197 311 196.552 311 196C311 195.448 310.552 195 310 195H276ZM276 204C275.448 204 275 204.448 275 205C275 205.552 275.448 206 276 206H298.273C298.825 206 299.273 205.552 299.273 205C299.273 204.448 298.825 204 298.273 204H276ZM276 213C275.448 213 275 213.448 275 214C275 214.552 275.448 215 276 215H288.727C289.28 215 289.727 214.552 289.727 214C289.727 213.448 289.28 213 288.727 213H276Z" fill="#FF7733"/>
<path fill-rule="evenodd" clip-rule="evenodd" d="M293 26H240C230.611 26 223 33.6112 223 43V138H202.765C201.79 138 201 138.79 201 139.765C201 147.074 206.926 153 214.235 153H405.765C413.074 153 419 147.074 419 139.765C419 138.79 418.21 138 417.235 138H397V85.837C396.353 86.0988 395.686 86.3195 395 86.4959V138H322.677C321.27 138 319.985 138.795 319.356 140.053C318.759 141.246 317.539 142 316.205 142H303.795C302.461 142 301.241 141.246 300.644 140.053C300.015 138.795 298.73 138 297.323 138H225V43C225 34.7157 231.716 28 240 28H293V26ZM293 38H241C237.686 38 235 40.6863 235 44V126V128H237H383H385V126V87H383V126H237V44C237 41.7909 238.791 40 241 40H293V38ZM416.998 140C416.872 146.096 411.891 151 405.765 151H214.235C208.109 151 203.128 146.096 203.002 140H224H297.323C297.972 140 298.565 140.367 298.856 140.947C299.791 142.818 301.703 144 303.795 144H316.205C318.297 144 320.209 142.818 321.144 140.947C321.435 140.367 322.028 140 322.677 140H396H416.998Z" fill="white"/>
<path d="M343.865 40.1112V36.5727H328L332.407 63.996H343.865V61.3421M343.865 40.1112H345.627L350.865 28.8468C351.479 27.5261 351.797 26.0872 351.797 24.6307V18.877C351.797 18.3902 352.191 17.9956 352.678 17.9956V17.9956C356.086 17.9956 358.848 20.7578 358.848 24.1652V25.4462C358.848 26.3721 358.719 27.2936 358.466 28.1841L356.204 36.1304H376.462C378.416 36.1304 380.001 37.7146 380.001 39.6689V39.6689C380.001 41.6231 378.416 43.2074 376.462 43.2074H374.712M343.865 40.1112V61.3421M343.865 61.3421H346.691C347.108 61.3421 347.479 61.6095 347.61 62.0056V62.0056C348.005 63.194 349.117 63.996 350.369 63.996H372.498C374.208 63.996 375.594 62.6098 375.594 60.8998V60.8998C375.594 59.1898 374.208 57.8036 372.498 57.8036H371.187H374.699C376.654 57.8036 378.238 56.2194 378.238 54.2651V54.2651C378.238 52.3109 376.654 50.7267 374.699 50.7267H373.831H375.36C377.436 50.7267 379.119 49.0434 379.119 46.967V46.7328C379.119 44.7858 377.541 43.2074 375.594 43.2074V43.2074" stroke="#FF7733" stroke-width="2" stroke-linecap="round" stroke-linejoin="round"/>
<path d="M320 127V119C320 116.791 318.209 115 316 115H264C261.791 115 260 116.791 260 119V127" stroke="white" stroke-width="2" stroke-linecap="round" stroke-linejoin="round"/>
<path d="M308 109H318" stroke="white" stroke-width="2" stroke-linecap="round" stroke-linejoin="round"/>
<ellipse cx="338.575" cy="59.6885" rx="1.76273" ry="1.76959" fill="#FF7733"/>
<path d="M343 86C342.723 86 342.458 86.115 342.269 86.3177L331.731 97.6083C331.112 98.2718 330 97.8336 330 96.926V87C330 86.4477 329.552 86 329 86H298C295.239 86 293 83.7614 293 81V6C293 3.23857 295.239 1 298 1H406C408.761 1 411 3.23858 411 6V81C411 83.7614 408.761 86 406 86H343Z" stroke="#FF7733" stroke-width="2" stroke-linecap="round" stroke-linejoin="round"/>
<path fill-rule="evenodd" clip-rule="evenodd" d="M375 191C375 199.837 367.837 207 359 207C350.163 207 343 199.837 343 191C343 182.163 350.163 175 359 175C367.837 175 375 182.163 375 191ZM377 191C377 200.941 368.941 209 359 209C349.059 209 341 200.941 341 191C341 181.059 349.059 173 359 173C368.941 173 377 181.059 377 191ZM358.11 195.517L364.895 187.803L363.393 186.482L357.336 193.368L354.589 190.429L353.128 191.794L356.628 195.54C356.821 195.746 357.092 195.861 357.374 195.857C357.656 195.853 357.923 195.729 358.11 195.517Z" fill="white"/>
</svg>
