<svg width="38" height="38" viewBox="0 0 38 38" fill="none" xmlns="http://www.w3.org/2000/svg">
<path d="M26.6562 13.9164C26.1094 13.6059 25.4063 13.6059 24.7813 13.9164L20.4062 16.4776L17.4375 18.1074L13.1406 20.6686C12.5937 20.9791 11.8906 20.9791 11.2656 20.6686L7.90625 18.6507C7.35938 18.3403 6.96875 17.7194 6.96875 17.0209V13.1403C6.96875 12.5194 7.28125 11.8985 7.90625 11.5104L11.2656 9.57012C11.8125 9.25968 12.5156 9.25968 13.1406 9.57012L16.5 11.588C17.0469 11.8985 17.4375 12.5194 17.4375 13.2179V15.7791L20.4062 14.0716V11.4328C20.4062 10.8119 20.0937 10.191 19.4687 9.80296L13.2188 6.1552C12.6719 5.84475 11.9687 5.84475 11.3437 6.1552L4.9375 9.88057C4.3125 10.191 4 10.8119 4 11.4328V18.7283C4 19.3492 4.3125 19.9701 4.9375 20.3582L11.2656 24.0059C11.8125 24.3164 12.5156 24.3164 13.1406 24.0059L17.4375 21.5224L20.4062 19.8149L24.7031 17.3313C25.25 17.0209 25.9531 17.0209 26.5781 17.3313L29.9375 19.2716C30.4844 19.5821 30.875 20.203 30.875 20.9015V24.7821C30.875 25.403 30.5625 26.0239 29.9375 26.4119L26.6562 28.3522C26.1094 28.6627 25.4063 28.6627 24.7813 28.3522L21.4219 26.4119C20.875 26.1015 20.4844 25.4806 20.4844 24.7821V22.2985L17.5156 24.0059V26.5671C17.5156 27.188 17.8281 27.8089 18.4531 28.197L24.7813 31.8447C25.3281 32.1552 26.0312 32.1552 26.6562 31.8447L32.9844 28.197C33.5312 27.8865 33.9219 27.2656 33.9219 26.5671V19.194C33.9219 18.5731 33.6094 17.9522 32.9844 17.5642L26.6562 13.9164Z" fill="#8247E5"/>
</svg>
