<svg xmlns="http://www.w3.org/2000/svg" width="222.36" height="222.513" viewBox="0 0 58.833 58.873"><path d="M25.223 58.706C9.99 56.335-.749 43.137.041 27.761.677 15.378 9.208 4.668 21.206 1.191c10.559-3.06 21.569-.14 29.285 7.765 3.97 4.067 6.47 8.626 7.728 14.096.863 3.755.809 9.986-.119 13.46-1.465 5.488-3.992 9.926-7.84 13.77-5.462 5.456-12.185 8.355-19.878 8.571-1.964.056-4.286-.01-5.159-.147zm-1.124-10.863c.492-.597.615-2.234.215-2.866-.131-.207-1.05-.922-2.042-1.587-2.226-1.494-3.643-3.32-4.343-5.597-.492-1.6-.53-2.331-.457-8.996l.078-7.254.835-1.762c.936-1.976 2.455-3.596 4.327-4.615 1.979-1.077 2.403-2.653 1.104-4.106-1.013-1.134-2.32-1.133-4.452.003-4.637 2.471-8.014 6.946-9.386 12.437-.488 1.951-.541 2.788-.442 6.879.103 4.214.183 4.859.838 6.774 1.378 4.027 3.805 7.333 6.967 9.488 3.26 2.223 5.577 2.635 6.758 1.202zm15.477-.13c3.542-1.703 6.813-5.336 8.447-9.38 1.229-3.042 1.432-4.758 1.164-9.821-.271-5.11-.696-6.943-2.353-10.144-1.364-2.637-4.816-6.058-7.425-7.36-2.753-1.373-4.157-1.243-4.97.46-.6 1.262-.238 2.465.98 3.245 3.263 2.09 4.985 4.192 5.553 6.782.198.9.271 3.866.214 8.647-.083 6.906-.118 7.342-.688 8.578-.79 1.714-2.246 3.461-3.6 4.323-2.068 1.316-2.547 1.905-2.547 3.132 0 .923.142 1.237.814 1.803 1.103.928 2.05.871 4.41-.264z" fill="#00b1df"/></svg>