<svg width="274" height="384" viewBox="0 0 274 384" fill="none" xmlns="http://www.w3.org/2000/svg">
<circle cx="134" cy="223" r="113" fill="#FF7733" fill-opacity="0.1"/>
<path d="M53.6097 96.6772C53.1034 97.2683 53.4372 98.1893 54.1996 98.3456C61.6184 99.8664 67.3716 102.935 71.4593 107.552C75.8616 112.433 78.0627 118.51 78.0627 125.785C78.0627 131.401 76.6252 136.604 73.7503 141.392C70.8754 146.088 66.4731 149.864 60.5436 152.718C54.7039 155.573 47.5165 157 38.9816 157C32.3333 157 25.7749 156.125 19.3063 154.376C15.4151 153.252 11.8751 151.855 8.68601 150.183C5.25011 148.382 4.25541 144.108 5.97836 140.633L7.16589 138.237C9.40479 133.72 15.2454 132.41 19.8565 134.447C21.1525 135.02 22.4964 135.539 23.8882 136.006C28.6498 137.479 33.5012 138.215 38.4425 138.215C43.9229 138.215 48.2353 137.157 51.3797 135.039C54.5242 132.829 56.0964 129.744 56.0964 125.785C56.0964 117.866 50.2118 113.906 38.4425 113.906H36.4701C32.0518 113.906 28.4701 110.324 28.4701 105.906V102.099C28.4701 100.182 29.1587 98.3282 30.4105 96.8759L46.4512 78.2661C47.0098 77.618 46.5494 76.6133 45.6937 76.6133H15.7167C11.2984 76.6133 7.71669 73.0315 7.71669 68.6133V66.6574C7.71669 62.2392 11.2984 58.6575 15.7167 58.6575H65.7503C70.1686 58.6575 73.7503 62.2392 73.7503 66.6575V69.4633C73.7503 71.849 72.8974 74.1561 71.3455 75.9681L53.6097 96.6772Z" stroke="#FF7733" stroke-width="2"/>
<path d="M128.571 157C120.755 157 113.792 155.02 107.683 151.061C101.574 147.101 96.7673 141.392 93.2635 133.934C89.8495 126.383 88.1425 117.405 88.1425 107C88.1425 96.5948 89.8495 87.663 93.2635 80.2044C96.7673 72.6538 101.574 66.8987 107.683 62.9392C113.792 58.9797 120.755 57 128.571 57C136.387 57 143.35 58.9797 149.459 62.9392C155.569 66.8987 160.33 72.6538 163.744 80.2044C167.248 87.663 169 96.5948 169 107C169 117.405 167.248 126.383 163.744 133.934C160.33 141.392 155.569 147.101 149.459 151.061C143.35 155.02 136.387 157 128.571 157ZM128.571 138.077C134.321 138.077 138.813 135.545 142.048 130.481C145.372 125.416 147.034 117.589 147.034 107C147.034 96.4107 145.372 88.5838 142.048 83.5193C138.813 78.4549 134.321 75.9226 128.571 75.9226C122.911 75.9226 118.419 78.4549 115.095 83.5193C111.861 88.5838 110.244 96.4107 110.244 107C110.244 117.589 111.861 125.416 115.095 130.481C118.419 135.545 122.911 138.077 128.571 138.077Z" stroke="#FF7733" stroke-width="2"/>
<path fill-rule="evenodd" clip-rule="evenodd" d="M145 153.51L145 205C145 208.314 147.686 211 151 211H265C268.314 211 271 208.314 271 205V129C271 125.686 268.314 123 265 123H232V116C232 109.925 227.075 105 221 105H196C189.925 105 185 109.925 185 116V123H167.379C167.23 123.675 167.071 124.342 166.902 125H265C267.209 125 269 126.791 269 129V148.335L219 169.336V166C219 164.343 217.657 163 216 163H201C199.343 163 198 164.343 198 166V169.756L150.97 150.003C150.465 150.368 149.95 150.721 149.425 151.061C149.28 151.155 149.134 151.248 148.988 151.339L197.992 171.922L198 171.925V175.5C198 181.299 202.701 186 208.5 186C214.299 186 219 181.299 219 175.5V171.505L269 150.505V196H267C260.925 196 256 200.925 256 207V209H160V207C160 200.925 155.075 196 149 196H147V152.502C146.343 152.859 145.676 153.195 145 153.51ZM230 123V116C230 111.029 225.971 107 221 107H196C191.029 107 187 111.029 187 116V123H191V117C191 113.686 193.686 111 197 111H219C222.314 111 225 113.686 225 117V123H230ZM193 117V123H223V117C223 114.791 221.209 113 219 113H197C194.791 113 193 114.791 193 117ZM147 205V198H149C153.971 198 158 202.029 158 207V209H151C148.791 209 147 207.209 147 205ZM258 209H265C267.209 209 269 207.209 269 205V198H267C262.029 198 258 202.029 258 207V209ZM200 172V175.5C200 180.194 203.806 184 208.5 184C213.194 184 217 180.194 217 175.5V172H200ZM217 170H200V166C200 165.448 200.448 165 201 165H216C216.552 165 217 165.448 217 166V170Z" fill="#FF7733"/>
<path fill-rule="evenodd" clip-rule="evenodd" d="M83 242C81.3431 242 80 243.343 80 245V287C80 288.657 81.3431 290 83 290H90V297C90 298.657 91.3431 300 93 300H183C184.657 300 186 298.657 186 297V255C186 253.343 184.657 252 183 252H176V245C176 243.343 174.657 242 173 242H83ZM176 254V287C176 288.657 174.657 290 173 290H92V297C92 297.552 92.4477 298 93 298H183C183.552 298 184 297.552 184 297V255C184 254.448 183.552 254 183 254H176ZM82 245C82 244.448 82.4477 244 83 244H173C173.552 244 174 244.448 174 245V287C174 287.552 173.552 288 173 288H83C82.4477 288 82 287.552 82 287V245ZM90 251C89.4477 251 89 251.448 89 252V280C89 280.552 89.4477 281 90 281H106.378C106.931 281 107.378 281.448 107.378 282C107.378 282.552 106.931 283 106.378 283H90C88.3431 283 87 281.657 87 280V252C87 250.343 88.3431 249 90 249H106.378C106.931 249 107.378 249.448 107.378 250C107.378 250.552 106.931 251 106.378 251H90ZM148.622 250C148.622 249.448 149.069 249 149.622 249H166C167.657 249 169 250.343 169 252V280C169 281.657 167.657 283 166 283H149.622C149.069 283 148.622 282.552 148.622 282C148.622 281.448 149.069 281 149.622 281H166C166.552 281 167 280.552 167 280V252C167 251.448 166.552 251 166 251H149.622C149.069 251 148.622 250.552 148.622 250ZM117 266C117 259.925 121.925 255 128 255C134.075 255 139 259.925 139 266C139 272.075 134.075 277 128 277C121.925 277 117 272.075 117 266ZM128 253C120.82 253 115 258.82 115 266C115 273.18 120.82 279 128 279C135.18 279 141 273.18 141 266C141 258.82 135.18 253 128 253ZM151 266C151 264.895 151.895 264 153 264C154.105 264 155 264.895 155 266C155 267.105 154.105 268 153 268C151.895 268 151 267.105 151 266ZM103 264C101.895 264 101 264.895 101 266C101 267.105 101.895 268 103 268C104.105 268 105 267.105 105 266C105 264.895 104.105 264 103 264Z" fill="#FF7733"/>
<path fill-rule="evenodd" clip-rule="evenodd" d="M15.1721 195.304C13.0695 197.451 12 199.712 12 202C12 204.288 13.0695 206.549 15.1721 208.696C17.2791 210.847 20.3771 212.83 24.2837 214.517C32.0937 217.889 42.9528 220 55 220C67.0472 220 77.9063 217.889 85.7163 214.517C89.6229 212.83 92.7209 210.847 94.8279 208.696C96.9305 206.549 98 204.288 98 202C98 199.712 96.9305 197.451 94.8279 195.304C92.7209 193.153 89.6229 191.17 85.7163 189.483C77.9063 186.111 67.0472 184 55 184C42.9528 184 32.0937 186.111 24.2837 189.483C20.3771 191.17 17.2791 193.153 15.1721 195.304ZM96.2567 193.905C98.34 196.032 99.671 198.423 99.9467 201H100V202V221V239V243H97.1129C97.6983 241.692 98 240.353 98 239V226.712C97.4952 227.409 96.9041 228.08 96.2375 228.725C93.8893 230.996 90.5437 232.996 86.4913 234.653C78.3817 237.971 67.2473 240 55 240C42.7527 240 31.6183 237.971 23.5087 234.653C19.4563 232.996 16.1107 230.996 13.7625 228.725C13.0959 228.08 12.5048 227.409 12 226.712V239C12 244.192 16.4437 249.189 24.318 252.947C32.1185 256.67 42.9651 259 55 259C64.7851 259 73.7846 257.46 81 254.883V257.002C73.6513 259.526 64.6713 261 55 261C42.7344 261 31.581 258.629 23.4566 254.752C18.3246 252.302 14.2673 249.178 12 245.575V260C12 262.288 13.0695 264.549 15.1721 266.696C17.2791 268.847 20.3771 270.83 24.2837 272.517C32.0937 275.889 42.9528 278 55 278C64.7821 278 73.7809 276.608 81 274.28V276.378C73.6545 278.664 64.6739 280 55 280C42.7467 280 31.6058 277.857 23.4909 274.353C19.4351 272.602 16.0894 270.491 13.7433 268.095C11.3929 265.696 10 262.959 10 260V239V221V202C10 199.041 11.3929 196.304 13.7433 193.905C16.0894 191.509 19.4351 189.398 23.4909 187.647C31.6058 184.143 42.7467 182 55 182C67.2533 182 78.3942 184.143 86.5091 187.647C90.5649 189.398 93.9106 191.509 96.2567 193.905ZM96.2567 210.095C96.9164 209.422 97.5008 208.722 98 207.997V221C98 223.13 96.9489 225.255 94.847 227.288C92.7422 229.323 89.6441 231.203 85.7341 232.802C77.9189 236 67.0532 238 55 238C42.9468 238 32.0812 236 24.2659 232.802C20.3559 231.203 17.2578 229.323 15.153 227.288C13.0511 225.255 12 223.13 12 221V207.997C12.4992 208.722 13.0836 209.422 13.7433 210.095C16.0894 212.491 19.4351 214.602 23.4909 216.353C31.6058 219.857 42.7467 222 55 222C67.2533 222 78.3942 219.857 86.5091 216.353C90.5649 214.602 93.9106 212.491 96.2567 210.095Z" fill="#FF7733"/>
<path d="M237 257L237 319H251L230.851 351.623C230.46 352.255 229.54 352.255 229.149 351.623L209 319H223V289" stroke="#FF7733" stroke-width="2" stroke-linecap="round" stroke-linejoin="round"/>
<path fill-rule="evenodd" clip-rule="evenodd" d="M184.5 51C186.985 51 189 48.9853 189 46.5C189 44.0147 186.985 42 184.5 42C182.015 42 180 44.0147 180 46.5C180 48.9853 182.015 51 184.5 51ZM184.5 53C188.09 53 191 50.0899 191 46.5C191 42.9101 188.09 40 184.5 40C180.91 40 178 42.9101 178 46.5C178 50.0899 180.91 53 184.5 53ZM203.569 40.1779C204.023 40.4923 204.137 41.1152 203.822 41.5693L185.822 67.5693C185.508 68.0234 184.885 68.1367 184.431 67.8223C183.977 67.5079 183.863 66.885 184.178 66.4309L202.178 40.4309C202.492 39.9768 203.115 39.8635 203.569 40.1779ZM208 61.5001C208 63.9854 205.985 66.0001 203.5 66.0001C201.015 66.0001 199 63.9854 199 61.5001C199 59.0148 201.015 57.0001 203.5 57.0001C205.985 57.0001 208 59.0148 208 61.5001ZM210 61.5001C210 65.09 207.09 68.0001 203.5 68.0001C199.91 68.0001 197 65.09 197 61.5001C197 57.9103 199.91 55.0001 203.5 55.0001C207.09 55.0001 210 57.9103 210 61.5001Z" fill="#FF7733"/>
</svg>
