<svg width="246" height="180" viewBox="0 0 246 180" fill="none" xmlns="http://www.w3.org/2000/svg">
<path fill-rule="evenodd" clip-rule="evenodd" d="M81 59C81 50.1634 88.1634 43 97 43H189C197.837 43 205 50.1634 205 59V61C205 64.2042 204.058 67.1885 202.436 69.691C201.602 68.0918 199.928 67 198 67V63C198 57.4772 193.523 53 188 53C182.477 53 178 57.4772 178 63V67C175.239 67 173 69.2386 173 72V77H97C88.1634 77 81 69.8366 81 61V59ZM0 168.5C0 166.566 4.73123 164.744 13.0896 163.145C14.8703 164.317 17.0025 165 19.2941 165H208.706C210.998 165 213.13 164.317 214.91 163.145C223.269 164.744 228 166.566 228 168.5C228 174.851 210 180 114 180C18 180 0 174.851 0 168.5Z" fill="#FF7733" fill-opacity="0.2"/>
<path fill-rule="evenodd" clip-rule="evenodd" d="M218 1C218 0.447715 217.552 0 217 0C216.448 0 216 0.447715 216 1V13C216 13.5523 216.448 14 217 14C217.552 14 218 13.5523 218 13V1ZM245 30C245.552 30 246 29.5523 246 29C246 28.4477 245.552 28 245 28H233C232.448 28 232 28.4477 232 29C232 29.5523 232.448 30 233 30H245ZM237.607 9.29289C237.997 9.68342 237.997 10.3166 237.607 10.7071L229.121 19.1924C228.731 19.5829 228.098 19.5829 227.707 19.1924C227.316 18.8019 227.316 18.1687 227.707 17.7782L236.192 9.29289C236.583 8.90237 237.216 8.90237 237.607 9.29289ZM209 23H77C69.268 23 63 29.268 63 37V87C63 94.732 69.268 101 77 101H110C111.657 101 113 102.343 113 104V113.302L123.218 101.989C123.787 101.359 124.596 101 125.444 101H209C216.732 101 223 94.732 223 87V37C223 29.268 216.732 23 209 23ZM77 21C68.1634 21 61 28.1634 61 37V42H44C34.6112 42 27 49.6112 27 59V152H8.70588C7.76375 152 7 152.764 7 153.706C7 160.496 12.5043 166 19.2941 166H208.706C215.496 166 221 160.496 221 153.706C221 152.764 220.236 152 219.294 152H201V103H209C217.837 103 225 95.8366 225 87V37C225 28.1634 217.837 21 209 21H77ZM44 44H61V54H45C41.6863 54 39 56.6863 39 60V140V142H41H187H189V140V103H199V152H123H105H29V59C29 50.7157 35.7157 44 44 44ZM45 56H61V87C61 95.8366 68.1634 103 77 103H110C110.552 103 111 103.448 111 104V115.901C111 116.817 112.128 117.251 112.742 116.571L124.702 103.33C124.892 103.12 125.161 103 125.444 103H187V140H41V60C41 57.7909 42.7909 56 45 56ZM9.00412 154C9.15981 159.549 13.7072 164 19.2941 164H208.706C214.293 164 218.84 159.549 218.996 154H200H123.9C123.437 156.282 121.419 158 119 158H109C106.581 158 104.563 156.282 104.1 154H28H9.00412ZM106.171 154C106.583 155.165 107.694 156 109 156H119C120.306 156 121.417 155.165 121.829 154H106.171ZM182 63C182 59.6863 184.686 57 188 57C191.314 57 194 59.6863 194 63V69H182V63ZM196 63V69H198C199.657 69 201 70.3431 201 72V86C201 87.6569 199.657 89 198 89H178C176.343 89 175 87.6569 175 86V72C175 70.3431 176.343 69 178 69H180V63C180 58.5817 183.582 55 188 55C192.418 55 196 58.5817 196 63ZM177 72C177 71.4477 177.448 71 178 71H181H195H198C198.552 71 199 71.4477 199 72V86C199 86.5523 198.552 87 198 87H178C177.448 87 177 86.5523 177 86V72ZM187 77C187 76.4477 187.448 76 188 76C188.552 76 189 76.4477 189 77C189 77.5523 188.552 78 188 78C187.448 78 187 77.5523 187 77ZM188 74C186.343 74 185 75.3431 185 77C185 78.3062 185.835 79.4175 187 79.8293V83C187 83.5523 187.448 84 188 84C188.552 84 189 83.5523 189 83V79.8293C190.165 79.4175 191 78.3062 191 77C191 75.3431 189.657 74 188 74ZM112.116 58.5196C112.603 58.2507 112.777 57.6364 112.503 57.1523L112.284 56.7651C112.008 56.2767 111.385 56.1109 110.903 56.3977L108.156 58.0312L108.18 55.0078C108.184 54.4525 107.735 54 107.18 54H106.82C106.265 54 105.816 54.4525 105.82 55.0078L105.844 58L103.118 56.3884C102.64 56.1056 102.023 56.2669 101.744 56.7476L101.514 57.1449C101.232 57.6309 101.406 58.2536 101.898 58.5235L104.594 60L101.904 61.4734C101.409 61.7445 101.237 62.3711 101.523 62.8574L101.745 63.2354C102.024 63.71 102.635 63.8696 103.11 63.5924L105.844 62L105.82 64.9922C105.816 65.5475 106.265 66 106.82 66H107.18C107.735 66 108.184 65.5475 108.18 64.9922L108.156 61.9688L110.91 63.5832C111.39 63.8644 112.007 63.7003 112.284 63.218L112.495 62.8501C112.772 62.3656 112.6 61.7475 112.111 61.4773L109.438 60L112.116 58.5196ZM138.503 57.1523C138.777 57.6364 138.603 58.2507 138.116 58.5196L135.438 60L138.111 61.4773C138.6 61.7475 138.772 62.3656 138.495 62.8501L138.284 63.218C138.007 63.7003 137.39 63.8644 136.91 63.5832L134.156 61.9688L134.18 64.9922C134.184 65.5475 133.735 66 133.18 66H132.82C132.265 66 131.816 65.5475 131.82 64.9922L131.844 62L129.11 63.5924C128.635 63.8696 128.024 63.71 127.745 63.2354L127.523 62.8574C127.237 62.3711 127.409 61.7445 127.904 61.4734L130.594 60L127.898 58.5235C127.406 58.2536 127.232 57.6309 127.514 57.1449L127.744 56.7476C128.023 56.2669 128.64 56.1056 129.118 56.3884L131.844 58L131.82 55.0078C131.816 54.4525 132.265 54 132.82 54H133.18C133.735 54 134.184 54.4525 134.18 55.0078L134.156 58.0312L136.903 56.3977C137.385 56.1109 138.008 56.2767 138.284 56.7651L138.503 57.1523ZM164.116 58.5196C164.603 58.2507 164.777 57.6364 164.503 57.1523L164.284 56.7651C164.008 56.2767 163.385 56.1109 162.903 56.3977L160.156 58.0312L160.18 55.0078C160.184 54.4525 159.735 54 159.18 54H158.82C158.265 54 157.816 54.4525 157.82 55.0078L157.844 58L155.118 56.3884C154.64 56.1056 154.023 56.2669 153.744 56.7476L153.514 57.1449C153.232 57.6309 153.406 58.2536 153.898 58.5235L156.594 60L153.904 61.4734C153.409 61.7445 153.237 62.3711 153.523 62.8574L153.745 63.2354C154.024 63.71 154.635 63.8696 155.11 63.5924L157.844 62L157.82 64.9922C157.816 65.5475 158.265 66 158.82 66H159.18C159.735 66 160.184 65.5475 160.18 64.9922L160.156 61.9688L162.91 63.5832C163.39 63.8644 164.007 63.7003 164.284 63.218L164.495 62.8501C164.772 62.3656 164.6 61.7475 164.111 61.4773L161.438 60L164.116 58.5196Z" fill="#FF7733"/>
</svg>
