<svg width="20" height="20" viewBox="0 0 20 20" fill="none" xmlns="http://www.w3.org/2000/svg">
<path fill-rule="evenodd" clip-rule="evenodd" d="M10 0C15.5242 0 20 4.47705 20 10C20 15.523 15.5242 20 10 20C4.4758 20 0 15.5242 0 10C0 4.4758 4.47705 0 10 0Z" fill="#F01010"/>
<path d="M9.7231 6.75777H8.87739C8.73879 6.74237 8.5694 6.74237 8.40042 6.72697C8.35423 6.74237 8.33841 6.78898 8.32301 6.85183C8.31606 6.87817 8.31526 6.90576 8.32068 6.93246C8.32609 6.95917 8.33757 6.98427 8.35423 7.00582L8.53902 7.02122C8.71244 7.05053 8.88262 7.09653 9.0472 7.15857C9.10278 7.19195 9.1507 7.23667 9.18785 7.2898C9.22499 7.34294 9.25053 7.40331 9.26279 7.46697C9.29881 7.64943 9.30917 7.83602 9.29359 8.02135C9.27777 8.34488 9.26237 8.72986 9.24739 9.1763C9.23157 9.6233 9.20077 10.0853 9.16997 10.5631C9.13959 11.3018 9.073 13.1019 8.87239 13.6342C8.83522 13.7415 8.75775 13.8302 8.65639 13.8814C8.53415 13.9368 8.40419 13.9731 8.27099 13.9892L8.02376 14.02C7.97757 14.0504 7.96217 14.097 7.97757 14.174C7.97767 14.2002 7.9832 14.2261 7.9938 14.25C8.0044 14.2739 8.01985 14.2954 8.03916 14.313C8.23977 14.2976 8.42498 14.2818 8.62559 14.2664H9.84422C10.0756 14.2818 10.2762 14.2976 10.461 14.313C10.4848 14.2985 10.5044 14.278 10.5179 14.2537C10.5315 14.2293 10.5385 14.2019 10.5384 14.174C10.54 14.1454 10.5352 14.1167 10.5245 14.0901C10.5138 14.0635 10.4974 14.0396 10.4764 14.02L10.0448 13.9892C9.90581 13.973 9.79802 13.9426 9.72102 13.8814C9.68065 13.8476 9.64873 13.8049 9.62779 13.7566C9.53706 13.5377 9.53498 13.1672 9.53998 12.9371C9.54955 12.4597 9.55537 11.9823 9.57077 11.5049C9.58617 11.0276 9.60157 10.6109 9.61656 10.2563C9.63154 9.93295 9.66317 9.59375 9.67815 9.25496C9.69314 8.91618 9.70895 8.57365 9.7231 8.23653H9.75348C9.87834 8.49831 10.0007 8.76052 10.1081 9.05311C10.2329 9.3303 10.3549 9.6079 10.4777 9.87011L11.5128 12.0722C11.6054 12.2576 11.7132 12.4887 11.8361 12.7656C11.9752 13.0569 12.1133 13.3354 12.2369 13.6126C12.3019 13.7596 12.3583 13.8975 12.4063 14.0263C12.4184 14.0263 12.505 14.3101 12.5145 14.3434C12.5433 14.3719 12.5821 14.3878 12.6225 14.3878C12.663 14.3878 12.7018 14.3719 12.7306 14.3434C12.8263 14.1137 12.9262 13.8814 13.0377 13.6592C13.329 13.0045 13.6337 12.379 13.9775 11.7492L14.9789 9.7619C15.0563 9.59209 15.1328 9.40729 15.2406 9.2071C15.3484 8.99151 15.4562 8.7909 15.549 8.62193C15.5966 8.49979 15.6529 8.38128 15.7176 8.26732H15.7334L15.7634 13.027C15.7752 13.2167 15.7701 13.4071 15.748 13.5959C15.7355 13.7062 15.7064 13.8107 15.5986 13.8644C15.5366 13.9414 15.4134 13.9718 15.2128 13.9892L14.8736 14.02C14.8423 14.0504 14.8274 14.097 14.8423 14.174C14.8426 14.2003 14.8482 14.2262 14.859 14.2501C14.8697 14.274 14.8853 14.2955 14.9048 14.313L15.6123 14.2664H16.9396L17.6338 14.313C17.6555 14.2974 17.6726 14.2763 17.6835 14.2519C17.6943 14.2275 17.6984 14.2006 17.6954 14.174C17.7023 14.1477 17.7031 14.1202 17.6978 14.0935C17.6924 14.0668 17.6811 14.0417 17.6646 14.02L17.2942 13.9892C17.1244 13.9731 17.0009 13.9267 16.9238 13.8498C16.8409 13.7729 16.7866 13.6702 16.7698 13.5585C16.7502 13.3946 16.7398 13.2298 16.7385 13.0649C16.7069 12.4917 16.6857 11.9095 16.6707 11.3351C16.6553 10.7183 16.6241 10.1331 16.6091 9.57918V8.11333C16.6046 7.907 16.6201 7.70071 16.6553 7.49736C16.6837 7.36202 16.7603 7.24162 16.8709 7.15857C16.9791 7.09739 17.1622 7.05077 17.412 7.01997L17.6434 7.00458C17.6746 6.97378 17.6896 6.92758 17.6746 6.85058C17.676 6.80453 17.6594 6.75974 17.6284 6.72572C17.4432 6.74112 17.2584 6.74112 17.0873 6.75652H16.2574C16.1184 6.74112 15.9661 6.74112 15.7646 6.72572C15.7492 6.98751 15.6568 7.28052 15.5178 7.6193C15.3484 7.97307 15.1487 8.40509 14.9023 8.91327L13.8235 11.085C13.5438 11.6764 13.2891 12.2391 12.9466 12.8001H12.9158C12.6432 12.2853 12.3918 11.7517 12.1445 11.2244L10.8352 8.60528C10.6658 8.23528 10.5118 7.88151 10.3886 7.5577C10.2804 7.23418 10.2342 6.95671 10.25 6.72531C10.0652 6.74071 9.89541 6.74071 9.72602 6.7561L9.7231 6.75777ZM3.40396 12.6137C3.40897 12.9129 3.39269 13.2121 3.35527 13.5089C3.32447 13.9052 3.06393 14.035 2.69434 14.0604L2.45836 14.0916C2.38219 14.1678 2.38802 14.333 2.47459 14.3904C2.96154 14.3601 3.40146 14.343 3.88967 14.343C4.41033 14.343 4.89562 14.3659 5.41503 14.3904C5.44813 14.3496 5.46994 14.3008 5.47829 14.2489C5.47829 14.1707 5.46248 14.1241 5.43085 14.0916L5.1162 14.0604C4.86426 14.0443 4.69126 13.9969 4.5972 13.9181C4.59179 13.9143 4.58597 13.9102 4.58055 13.9056C4.48525 13.8265 4.41741 13.7058 4.38869 13.5189C4.35088 13.2225 4.34043 12.9233 4.35747 12.6249V11.5249C4.04245 11.5423 3.72647 11.5264 3.41478 11.4775L3.40188 12.6137H3.40396ZM2.39801 6.8768C2.38219 6.93923 2.41383 6.98626 2.46086 7.03371L2.86956 7.08032C3.04187 7.09656 3.16756 7.14317 3.24414 7.22183C3.32239 7.28468 3.369 7.39497 3.38523 7.56769C3.40146 7.74042 3.41645 7.9918 3.41645 8.32101V10.6451C3.73047 10.6613 4.04512 10.6613 4.35914 10.6451V7.44034C4.34341 7.33984 4.35417 7.23699 4.39035 7.14192C4.40584 7.11246 4.42818 7.08714 4.45548 7.06809C4.48278 7.04904 4.51426 7.03683 4.54726 7.03246C4.69865 7.01706 4.8509 7.01177 5.003 7.01665C5.59941 7.03246 6.05473 7.18895 6.38477 7.519C6.69859 7.84863 6.8555 8.30437 6.8555 8.86998C6.87214 9.37219 6.74728 9.79602 6.48092 10.1415C6.24535 10.4403 5.89824 10.6601 5.42835 10.7695C4.97345 10.8798 4.32959 10.9268 3.46556 10.911C2.71141 10.896 1.89524 10.8486 1 10.7545C1.98972 10.9585 2.72722 11.0996 3.19878 11.1466C3.93985 11.2391 4.69016 11.2286 5.42835 11.1154C5.76653 11.0692 6.09849 10.9855 6.41807 10.8657C6.71998 10.7244 7.0086 10.5562 7.28043 10.3633C7.45316 10.2384 7.61006 10.0328 7.75157 9.76647C7.86186 9.51675 7.92429 9.21667 7.93969 8.85541C7.93232 8.49201 7.83539 8.13605 7.65751 7.81908C7.48479 7.52066 7.28043 7.28509 7.01323 7.11154C6.71056 6.93885 6.38175 6.81669 6.03975 6.74986C5.61921 6.68252 5.19371 6.65106 4.76784 6.6558C4.29629 6.6558 3.8726 6.6558 3.49553 6.6712C3.11845 6.6866 2.77342 6.70283 2.47459 6.73405C2.45073 6.74935 2.43117 6.7705 2.41777 6.79548C2.40436 6.82046 2.39756 6.84846 2.39801 6.8768V6.8768Z" fill="white" stroke="white" stroke-width="0.6"/>
</svg>
