<svg width="20" height="20" viewBox="0 0 20 20" fill="none" xmlns="http://www.w3.org/2000/svg">
<path d="M10 20C15.5228 20 20 15.5228 20 10C20 4.47715 15.5228 0 10 0C4.47715 0 0 4.47715 0 10C0 15.5228 4.47715 20 10 20Z" fill="#CC003D"/>
<path fill-rule="evenodd" clip-rule="evenodd" d="M4.45703 6.00317V15.0032H5.99981V7.4999H7.91176V15.0032H9.45703V6.00317H4.45703Z" fill="white"/>
<path fill-rule="evenodd" clip-rule="evenodd" d="M13.5541 13.6099C13.4053 13.6099 13.0311 13.5727 13.0311 13.5727V11.8156V11.6314V10.4041C13.0311 10.4041 13.1514 10.3736 13.283 10.3736C14.0597 10.3736 14.9777 10.3245 14.9777 11.9901C14.9777 13.5172 13.969 13.6099 13.5541 13.6099ZM13.7396 8.94556C13.4758 8.94556 13.2414 8.95235 13.0311 8.96279V7.49668H15.7789V6H11.5V7.49668V15H11.6037H13.824C16.141 15 16.5 12.7735 16.5 11.9494C16.5 10.974 16.1431 8.94556 13.7396 8.94556Z" fill="white"/>
</svg>
