<svg width="166" height="40" viewBox="0 0 166 40" fill="none" xmlns="http://www.w3.org/2000/svg">
<path d="M28.732 11.1916L21.6398 4.04959C21.2402 3.64767 20.6946 3.41577 20.126 3.41577H8.40035C6.35639 3.41577 4.70435 5.07762 4.70435 7.13366V32.7259C4.70435 34.7821 6.35639 36.4439 8.40035 36.4439H10.2214V32.9578C10.2214 30.6467 12.0809 28.7684 14.3861 28.7684H14.5782V31.8448H14.3861C13.7714 31.8448 13.2873 32.3394 13.2873 32.9501V36.4359H20.7791V32.9501C20.7791 32.3317 20.2797 31.8448 19.665 31.8448H19.4806V28.7684H19.665C21.9625 28.7684 23.8374 30.639 23.8374 32.9578V36.4439H25.6585C27.7024 36.4439 29.3544 34.7821 29.3544 32.7259V12.7143C29.3544 12.1424 29.1316 11.5936 28.732 11.1916ZM18.5585 32.1926C18.5585 33.0428 17.8746 33.7308 17.0294 33.7308C16.1842 33.7308 15.5003 33.0428 15.5003 32.1926V23.6747C15.5003 22.8245 16.1842 22.1366 17.0294 22.1366C17.8746 22.1366 18.5585 22.8245 18.5585 23.6747V32.1926ZM23.8374 23.2264C23.8374 25.5375 21.9625 27.4235 19.665 27.4235H19.4806V24.3472H19.665C20.2797 24.3472 20.7791 23.8448 20.7791 23.2264V21.1085C20.7791 20.2583 21.463 19.5704 22.3083 19.5704C23.1535 19.5704 23.8374 20.2583 23.8374 21.1085V23.2264ZM23.8374 14.7317C23.8374 15.5897 23.1535 16.2699 22.3083 16.2699C21.463 16.2699 20.7791 15.5897 20.7791 14.7317V12.6139C20.7791 11.9955 20.2797 11.5085 19.665 11.5085H14.3861C13.7714 11.5085 13.2873 12.0032 13.2873 12.6139V23.2264C13.2873 23.8448 13.7791 24.3472 14.3861 24.3472H14.5782V27.4235H14.3861C12.0886 27.4235 10.2214 25.5375 10.2214 23.2264V12.6216C10.2214 10.3104 12.0809 8.4322 14.3861 8.4322H19.665C21.9625 8.4322 23.8374 10.3027 23.8374 12.6216V14.7394V14.7317Z" fill="url(#paint0_linear_4664_33086)"/>
<path d="M49.6601 30.8159C49.6817 31.0146 49.5677 31.2063 49.3755 31.2772C48.6787 31.5185 47.9531 31.6959 47.199 31.8095C46.3312 31.9372 45.3282 32.0011 44.1831 32.0011C42.6683 32.0011 41.4234 31.8379 40.4559 31.5185C39.503 31.1708 38.7558 30.6101 38.2154 29.8366C37.6747 29.0418 37.2979 27.9631 37.0773 26.6005C36.8639 25.2166 36.7502 23.4921 36.7502 21.4199C36.7502 19.3477 36.8569 17.5664 37.0773 16.2109C37.3119 14.827 37.7174 13.7483 38.2794 12.9748C38.8413 12.18 39.6166 11.6122 40.6123 11.2929C41.6295 10.9664 42.9241 10.8103 44.5032 10.8103C44.9585 10.8103 45.4777 10.8458 46.0612 10.9096C46.6655 10.9522 47.249 11.0303 47.8109 11.1368C48.2235 11.2006 48.5932 11.2787 48.9063 11.3709C49.1124 11.4348 49.2476 11.6335 49.2122 11.8464L48.9206 13.6987C48.8848 13.94 48.6502 14.0961 48.4083 14.0464C47.9885 13.9612 47.5406 13.8832 47.0641 13.8193C46.4167 13.7341 45.7977 13.6703 45.2146 13.6277C44.6314 13.5851 44.1546 13.5638 43.7849 13.5638C42.5331 13.5638 41.6226 13.7128 41.0606 14.018C40.4987 14.3019 40.214 14.969 40.214 16.0264V28.4953C40.214 28.694 40.3423 28.8644 40.5341 28.914C41.0036 29.0276 41.5016 29.1198 42.0278 29.1908C42.6964 29.276 43.3793 29.3185 44.0695 29.3185C44.98 29.3185 45.8759 29.2405 46.758 29.0914C47.4978 28.9708 48.2019 28.8147 48.8848 28.6372C49.134 28.5734 49.3828 28.7366 49.4183 28.9921L49.6389 30.8159H49.6601Z" fill="black"/>
<path d="M52.7329 31.0854V10.6468C52.7329 10.4268 52.9035 10.2423 53.1242 10.221L55.4502 10.0294C55.699 10.0081 55.9124 10.2068 55.9124 10.4552V15.6287C55.9124 15.9551 56.261 16.1539 56.5456 15.9977C57.0575 15.7068 57.6052 15.4868 58.1814 15.3378C59.028 15.1248 60.0094 15.0113 61.1333 15.0113C62.6485 15.0113 63.7936 15.2455 64.5689 15.721C65.3443 16.1751 65.7356 16.8564 65.7356 17.7577V31.0854C65.7356 31.3195 65.5434 31.5112 65.3088 31.5112H62.9189C62.684 31.5112 62.4918 31.3195 62.4918 31.0854V18.0913C62.4918 17.8571 62.2999 17.6655 62.065 17.6655H58.7291C57.6692 17.6655 56.9439 17.7932 56.5599 18.0558C56.1685 18.3113 55.9764 18.808 55.9764 19.5461V31.0925C55.9764 31.3267 55.7845 31.5183 55.5496 31.5183H53.1597C52.9251 31.5183 52.7329 31.3267 52.7329 31.0925V31.0854Z" fill="black"/>
<path d="M82.124 16.8848C81.7542 16.2177 81.1283 15.7422 80.2463 15.4583C79.3785 15.1532 78.2119 15.0042 76.7467 15.0042C76.0138 15.0042 75.2457 15.0467 74.4419 15.1319C73.6454 15.1958 72.8843 15.3022 72.1729 15.4583C71.604 15.579 71.0917 15.7138 70.6365 15.8558C70.4374 15.9196 70.3164 16.1254 70.3519 16.3312L70.6292 17.8854C70.6719 18.1267 70.9138 18.2757 71.1557 18.219C71.9522 18.0202 72.7491 17.8641 73.5314 17.7506C74.4634 17.6228 75.3451 17.559 76.1917 17.559C77.4011 17.559 78.3898 17.6512 79.1509 17.8286C79.3427 17.8712 79.4636 18.0486 79.4636 18.2402V21.8241H78.9799C76.9243 21.8241 75.2742 21.888 74.0151 22.0157C72.7633 22.1222 71.8101 22.3635 71.163 22.7254C70.5368 23.0731 70.1173 23.5912 69.8966 24.2796C69.6832 24.9467 69.5696 25.8408 69.5696 26.9621C69.5696 28.7079 69.9466 29.964 70.7077 30.7163C71.4831 31.4473 72.7633 31.8163 74.5343 31.8163C75.7437 31.8163 76.8176 31.6673 77.7423 31.3621C78.5319 31.0924 79.2645 30.7021 79.9404 30.1911C80.1538 30.0279 80.4524 30.0847 80.5806 30.3189L81.0925 31.2627C81.1637 31.3976 81.3132 31.4827 81.4696 31.4827H82.2803C82.5153 31.4827 82.7071 31.2911 82.7071 31.0569V19.539C82.7071 18.4177 82.5153 17.5306 82.124 16.8848ZM78.9159 28.9563C78.5674 29.2118 77.8918 29.3466 76.8746 29.3466H72.9552C72.7206 29.3466 72.5284 29.155 72.5284 28.9208V25.8196C72.5284 25.0886 72.7133 24.5918 73.0834 24.3292C73.4532 24.0738 74.143 23.9389 75.1602 23.9389H79.0442C79.2788 23.9389 79.4709 24.1305 79.4709 24.3647V27.466C79.4709 28.1969 79.286 28.6937 78.9159 28.9563Z" fill="black"/>
<path d="M88.0349 15.5088L90.4249 15.154C90.6807 15.1185 90.9156 15.3172 90.9156 15.5727V31.0932C90.9156 31.3274 90.7234 31.519 90.4888 31.519H88.0989C87.864 31.519 87.6721 31.3274 87.6721 31.0932V15.9275C87.6721 15.7146 87.8285 15.5372 88.0349 15.5088Z" fill="black"/>
<path d="M89.3222 12.5205C88.5257 12.5205 87.9853 12.3927 87.7006 12.1301C87.4445 11.8463 87.3093 11.3353 87.3093 10.576C87.3093 9.81662 87.4515 9.27018 87.7291 8.99342C88.0134 8.70955 88.5399 8.57471 89.3152 8.57471C90.0906 8.57471 90.5813 8.71662 90.8374 8.99342C91.122 9.27729 91.2572 9.80244 91.2572 10.576C91.2572 11.3495 91.129 11.8463 90.8659 12.1301C90.6098 12.3856 90.0906 12.5205 89.3083 12.5205H89.3222Z" fill="black"/>
<path d="M96.0513 31.0858V15.7569C96.0513 15.5227 96.2434 15.3311 96.478 15.3311H97.2888C97.4455 15.3311 97.5877 15.4162 97.6659 15.5511L98.1851 16.5091C98.306 16.7362 98.6049 16.793 98.8183 16.644C99.5296 16.133 100.298 15.7427 101.116 15.4943C102.09 15.1678 103.2 15.0117 104.459 15.0117C105.974 15.0117 107.119 15.2459 107.894 15.7214C108.67 16.1756 109.061 16.8568 109.061 17.7581V31.0858C109.061 31.32 108.869 31.5116 108.634 31.5116H106.244C106.009 31.5116 105.817 31.32 105.817 31.0858V18.0917C105.817 17.8575 105.625 17.6659 105.391 17.6659H102.055C100.995 17.6659 100.269 17.7936 99.8852 18.0562C99.5011 18.3188 99.302 18.8084 99.302 19.5465V31.0929C99.302 31.3271 99.1098 31.5187 98.8753 31.5187H96.485C96.2504 31.5187 96.0582 31.3271 96.0582 31.0929L96.0513 31.0858Z" fill="black"/>
<path d="M113.379 31.0862V11.7122C113.379 11.478 113.571 11.2864 113.805 11.2864H117.781C118.016 11.2864 118.208 11.478 118.208 11.7122V27.105C118.208 27.3391 118.4 27.5308 118.635 27.5308H124.624C124.859 27.5308 125.051 27.7224 125.051 27.9566V31.0862C125.051 31.3204 124.859 31.512 124.624 31.512H113.805C113.571 31.512 113.379 31.3204 113.379 31.0862Z" fill="black"/>
<path d="M127.904 15.799L131.88 15.2668C132.136 15.2313 132.363 15.43 132.363 15.6855V31.0783C132.363 31.3125 132.171 31.5041 131.937 31.5041H127.96C127.726 31.5041 127.533 31.3125 127.533 31.0783V16.2249C127.533 16.012 127.69 15.8345 127.904 15.8062V15.799Z" fill="black"/>
<path d="M129.966 13.2306C128.928 13.2306 128.216 13.0461 127.825 12.6771C127.455 12.3081 127.27 11.6125 127.27 10.5764C127.27 9.54032 127.455 8.80934 127.825 8.44032C128.216 8.05 128.942 7.8584 129.995 7.8584C131.047 7.8584 131.702 8.05 132.071 8.44032C132.463 8.80934 132.655 9.51903 132.655 10.5764C132.655 11.6338 132.47 12.3151 132.1 12.6771C131.73 13.0461 131.019 13.2306 129.959 13.2306H129.966Z" fill="black"/>
<path d="M136.097 19.994C136.097 18.2269 136.638 16.9282 137.719 16.1121C138.8 15.2676 140.486 14.8489 142.776 14.8489C143.879 14.8489 144.939 14.9127 145.956 15.0405C146.852 15.1327 147.713 15.2747 148.545 15.4663C148.766 15.516 148.908 15.736 148.872 15.956L148.431 18.5037C148.389 18.745 148.154 18.9011 147.912 18.8443C147.492 18.745 147.03 18.6669 146.539 18.603C145.87 18.5179 145.174 18.4753 144.462 18.4753C143.879 18.4753 143.296 18.5108 142.712 18.5746C142.293 18.6101 141.916 18.6598 141.582 18.7237C141.382 18.7663 141.254 18.9437 141.254 19.1424V20.9521C141.254 21.1649 141.418 21.3495 141.638 21.3708C143.154 21.5553 144.42 21.7753 145.444 22.0378C146.546 22.2933 147.414 22.634 148.04 23.0385C148.666 23.4501 149.107 23.954 149.37 24.5572C149.626 25.1391 149.761 25.863 149.761 26.7217C149.761 27.9494 149.513 28.9642 149.015 29.7662C148.517 30.5397 147.72 31.1145 146.618 31.4836C145.515 31.8313 144.078 32.0016 142.307 32.0016C141.205 32.0016 140.088 31.9165 138.964 31.7462C137.997 31.5971 137.065 31.3842 136.183 31.1145C135.976 31.0507 135.849 30.8378 135.891 30.6249L136.41 27.8784C136.46 27.6159 136.731 27.4739 136.979 27.5662C138.452 28.1126 140.045 28.3823 141.759 28.3823C142.214 28.3823 142.656 28.361 143.09 28.3184C143.452 28.2687 143.858 28.1978 144.306 28.0984C144.505 28.0559 144.647 27.8784 144.647 27.6797V25.8133C144.647 25.6004 144.483 25.4159 144.27 25.3875C142.649 25.1888 141.318 24.9759 140.273 24.7559C139.17 24.5004 138.317 24.174 137.712 23.7836C137.107 23.372 136.688 22.8681 136.446 22.2649C136.233 21.6617 136.119 20.9024 136.119 20.0011L136.097 19.994Z" fill="black"/>
<path d="M161.427 18.0775V15.7569C161.427 15.5227 161.235 15.3311 161 15.3311H159.258C159.023 15.3311 158.831 15.1395 158.831 14.9053V11.6408C158.831 11.364 158.567 11.1582 158.297 11.2292L154.35 12.2157C154.157 12.2653 154.029 12.4357 154.029 12.6273V14.9124C154.029 15.1466 153.837 15.3382 153.603 15.3382H152.479C152.244 15.3382 152.052 15.5298 152.052 15.764V18.0846C152.052 18.3188 152.244 18.5104 152.479 18.5104H153.603C153.837 18.5104 154.029 18.702 154.029 18.9362V28.9639C154.029 29.9787 154.286 30.7239 154.805 31.1994C155.345 31.6748 156.171 31.909 157.273 31.909C157.728 31.909 158.233 31.8735 158.795 31.8097C159.286 31.7529 159.819 31.6678 160.388 31.5542C160.573 31.5187 160.715 31.3555 160.73 31.1639L160.929 28.6517C160.95 28.4104 160.766 28.2045 160.524 28.1904C160.282 28.1761 160.047 28.162 159.841 28.1478H159.812C159.613 28.1194 159.407 28.091 159.193 28.0626C158.98 28.0342 158.817 27.8568 158.817 27.6368V18.9291C158.817 18.695 159.008 18.5033 159.243 18.5033H160.986C161.221 18.5033 161.413 18.3117 161.413 18.0775H161.427Z" fill="black"/>
<defs>
<linearGradient id="paint0_linear_4664_33086" x1="17.0294" y1="3.41577" x2="17.0294" y2="36.4439" gradientUnits="userSpaceOnUse">
<stop stop-color="#2F80ED"/>
<stop offset="1" stop-color="#2F80ED"/>
</linearGradient>
</defs>
</svg>
