<svg width="100" height="40" viewBox="0 0 100 40" fill="none" xmlns="http://www.w3.org/2000/svg">
<path d="M71.2739 29.8319V3.5293H76.4393V29.8319H71.2739Z" fill="#F7A600"/>
<path d="M11.0736 37.6451H0V11.3425H10.6283C15.7938 11.3425 18.8036 14.2239 18.8036 18.7311C18.8036 21.6486 16.8706 23.534 15.5326 24.1618C17.1297 24.9003 19.1739 26.5623 19.1739 30.0735C19.1739 34.9851 15.7938 37.6451 11.0736 37.6451ZM10.2195 15.9242H5.1654V21.9826H10.2195C12.4116 21.9826 13.6382 20.7633 13.6382 18.9524C13.6382 17.1435 12.4116 15.9242 10.2195 15.9242ZM10.5535 26.6005H5.1654V33.0655H10.5535C12.8953 33.0655 14.0085 31.5886 14.0085 29.8139C14.0085 28.0412 12.8932 26.6005 10.5535 26.6005Z" fill="#2E4057"/>
<path d="M34.9289 26.858V37.6451H29.7999V26.858L21.8474 11.3425H27.4581L32.4009 21.9444L37.2688 11.3425H42.8795L34.9289 26.858Z" fill="#2E4057"/>
<path d="M57.5239 37.6451H46.4502V11.3425H57.0786C62.244 11.3425 65.2538 14.2239 65.2538 18.7311C65.2538 21.6486 63.3208 23.534 61.9828 24.1618C63.5799 24.9003 65.6242 26.5623 65.6242 30.0735C65.6242 34.9851 62.244 37.6451 57.5239 37.6451ZM56.6697 15.9242H51.6156V21.9826H56.6697C58.8618 21.9826 60.0884 20.7633 60.0884 18.9524C60.0884 17.1435 58.8618 15.9242 56.6697 15.9242ZM57.0036 26.6005H51.6156V33.0655H57.0036C59.3455 33.0655 60.4587 31.5886 60.4587 29.8139C60.4587 28.0412 59.3455 26.6005 57.0036 26.6005Z" fill="#2E4057"/>
<path d="M93.0874 15.9242V37.6471H87.922V15.9242H81.0098V11.3425H99.9995V15.9242H93.0874Z" fill="#2E4057"/>
</svg>
