<svg width="200" height="40" viewBox="0 0 200 40" fill="none" xmlns="http://www.w3.org/2000/svg">
<path d="M9.02333 20L4.53333 24.4917L0 20L4.53167 15.4683L9.02333 20ZM20 9.02333L27.7333 16.7567L32.2667 12.2267L20 0L7.73333 12.2667L12.2667 16.7967L20 9.02333ZM35.4683 15.4683L30.9767 20L35.5083 24.5317L40.0383 20L35.4683 15.4683ZM20 30.9767L12.2667 23.2033L7.73333 27.735L20 40L32.2667 27.7333L27.7333 23.2033L20 30.9767ZM20 24.4933L24.5317 19.96L20 15.47L15.4683 20L20 24.4917V24.4933ZM67.6567 24.96V24.8833C67.6567 21.9533 66.0933 20.4683 63.555 19.4917C65.1167 18.6333 66.445 17.225 66.445 14.765V14.6883C66.445 11.25 63.6717 9.02333 59.2183 9.02333H49.0233V30.9383H59.4533C64.4133 30.9767 67.6567 28.945 67.6567 24.9617V24.96ZM61.64 15.5867C61.64 17.2267 60.3117 17.89 58.1633 17.89H53.7117V13.2417H58.4767C60.5083 13.2417 61.64 14.0617 61.64 15.5083V15.5867ZM62.8517 24.3367C62.8517 25.9767 61.5633 26.72 59.4517 26.72H53.7117V21.9133H59.2967C61.7583 21.9133 62.8517 22.8133 62.8517 24.2967V24.3367ZM77.7733 30.9767V9.02333H72.93V30.9383H77.7733V30.9767ZM103.712 30.9767V9.02333H98.945V22.54L88.6717 9.02333H84.2183V30.9383H88.985V17.0317L99.61 30.9767H103.71H103.712ZM130.428 30.9767L121.017 8.90667H116.565L107.15 30.9767H112.112L114.103 26.055H123.362L125.353 30.9767H130.432H130.428ZM121.64 21.7967H115.82L118.75 14.6883L121.64 21.7967ZM153.438 30.9767V9.02333H148.672V22.54L138.398 9.02333H133.945V30.9383H138.712V17.0317L149.337 30.9767H153.437H153.438ZM178.32 27.4217L175.235 24.3367C173.515 25.8983 171.992 26.9133 169.453 26.9133C165.703 26.9133 163.087 23.7883 163.087 20.0383V19.9217C163.087 16.1717 165.742 13.0867 169.453 13.0867C171.64 13.0867 173.36 14.0233 175.078 15.5467L178.163 11.9917C176.133 10 173.672 8.59333 169.532 8.59333C162.813 8.59333 158.087 13.71 158.087 19.9217V20C158.087 26.2883 162.89 31.2883 169.337 31.2883C173.555 31.3283 176.055 29.8433 178.32 27.4217ZM198.907 30.9767V26.68H186.992V22.07H197.343V17.7733H186.992V13.32H198.75V9.02333H182.227V30.9383H198.907V30.9767Z" fill="#F0B90B"/>
</svg>
