<svg width="133" height="40" viewBox="0 0 133 40" fill="none" xmlns="http://www.w3.org/2000/svg">
<g clip-path="url(#clip0_4662_33017)">
<path d="M7.78483 31.0992C7.88536 21.8901 17.7604 19.9435 16.6547 9.88132C16.336 6.98449 14.9259 3.55109 12.0645 0.803747C11.915 0.66004 11.6664 0.779721 11.6852 0.985273C12.5483 10.2288 5.97037 14.6108 3.01287 18.4628C-3.54527 27.0047 1.27516 37.9576 10.9968 39.4075C11.2118 39.4395 11.3433 39.1812 11.1889 39.0295C9.19312 37.0683 7.78437 34.5789 7.78437 31.0992H7.78483Z" fill="#2E4057"/>
<path d="M20.5046 16.3581C20.3736 16.2477 20.1721 16.3185 20.1394 16.4858C19.9038 17.68 19.1539 19.6518 16.7475 23.1083C10.516 32.0578 13.5269 36.0348 16.2475 39.0256C16.8474 39.7333 16.548 38.8684 17.8234 37.9924C19.5363 36.8161 20.263 36.6675 21.8865 35.2363C23.7382 33.3969 25.2408 30.501 25.3862 27.5681C25.7026 21.1935 21.9201 17.5492 20.5046 16.3581Z" fill="#008CD6"/>
<path fill-rule="evenodd" clip-rule="evenodd" d="M48.5874 20.0109V8.75879H52.2644C53.0496 8.75879 53.6862 9.40685 53.6862 10.2066V37.0211H50.0087C49.2235 37.0211 48.5874 36.3727 48.5874 35.5734V24.5496H37.6914V37.0211H34.0138C33.2291 37.0211 32.5925 36.3727 32.5925 35.5734V8.75879H36.2699C37.0551 8.75879 37.6914 9.40685 37.6914 10.2066V20.0109H48.5874ZM70.4112 28.8208V15.4128V15.4124H74.1788C74.9795 15.4124 75.6286 16.0613 75.6286 16.8619V29.0557C75.6286 33.4454 72.0351 37.0368 67.6428 37.0368H65.507C61.1152 37.0368 57.5212 33.4454 57.5212 29.056V15.4124H57.5217H61.2891C62.0903 15.4124 62.7394 16.0613 62.7394 16.8619V28.5777C62.7394 31.38 65.7877 33.5048 68.734 31.8035C69.789 31.1942 70.4112 30.0394 70.4112 28.8208ZM128.301 37.0206H131.989V18.0041C131.989 17.2023 131.351 16.5526 130.564 16.5526H126.876V35.5686C126.876 36.3703 127.514 37.0206 128.301 37.0206ZM132.308 11.5787C132.308 13.1362 131.035 14.3986 129.464 14.3986C127.893 14.3986 126.619 13.1362 126.619 11.5787C126.619 10.0212 127.893 8.75879 129.464 8.75879C131.035 8.75879 132.308 10.0212 132.308 11.5787ZM93.9462 28.0549C93.9462 30.6311 91.8512 32.346 89.2906 32.346C86.7298 32.346 84.6348 30.6311 84.6348 28.0549V24.3786C84.6348 21.8025 86.7298 20.0874 89.2906 20.0874C91.8512 20.0874 93.9462 21.8025 93.9462 24.3786V28.0549ZM89.2906 15.4124C83.8767 15.4124 79.4466 19.3087 79.4466 24.7552V27.7011C79.4466 33.148 83.8767 37.0211 89.2906 37.0211C94.7047 37.0211 99.1341 33.148 99.1341 27.7011V24.7552C99.1341 19.3087 94.7047 15.4124 89.2906 15.4124ZM112.875 32.3493C115.452 32.3493 117.561 30.6354 117.561 28.061V24.3872C117.561 21.8127 115.452 20.0989 112.875 20.0989C110.298 20.0989 108.189 21.8127 108.189 24.3872V28.061C108.189 30.6354 110.298 32.3493 112.875 32.3493ZM108.162 16.4964C109.566 15.8072 111.172 15.4271 112.875 15.4271C118.324 15.4271 122.782 19.3207 122.782 24.7635V27.7075C122.782 33.1506 118.324 37.0211 112.875 37.0211C107.426 37.0211 102.967 33.1506 102.967 27.7075V8.75879H106.714C107.513 8.75879 108.162 9.40629 108.162 10.2049V16.4964Z" fill="#2E4057"/>
</g>
<defs>
<clipPath id="clip0_4662_33017">
<rect width="133" height="40" fill="white"/>
</clipPath>
</defs>
</svg>
