<svg width="200" height="40" viewBox="0 0 200 40" fill="none" xmlns="http://www.w3.org/2000/svg">
<path d="M175.884 20.1697C174.849 19.4666 173.721 18.9576 172.651 18.3273C171.953 17.9273 171.209 17.5636 170.605 17.0424C169.581 16.1697 169.791 14.4363 170.86 13.6848C172.407 12.6182 174.953 13.2121 175.233 15.3939C175.233 15.4424 175.279 15.4788 175.326 15.4788H177.651C177.709 15.4788 177.756 15.4303 177.733 15.3576C177.712 14.6713 177.55 13.9976 177.257 13.3827C176.964 12.7677 176.547 12.2258 176.035 11.7939C175.089 11.0331 173.928 10.6198 172.733 10.6182C166.593 10.6182 166.023 17.3939 169.337 19.5273C169.721 19.7697 172.965 21.4666 174.105 22.206C175.267 22.9454 175.616 24.303 175.128 25.3576C174.663 26.3394 173.5 27.0182 172.314 26.9333C171.035 26.8606 170.035 26.1333 169.686 25.006C169.628 24.8 169.593 24.4 169.593 24.2424C169.59 24.2176 169.58 24.1944 169.563 24.1768C169.546 24.1591 169.524 24.1481 169.5 24.1454H166.977C166.942 24.1454 166.895 24.1939 166.895 24.2424C166.895 26.1333 167.349 27.1879 168.581 28.1454C169.744 29.0545 171.023 29.4424 172.326 29.4424C175.779 29.4424 177.558 27.406 177.907 25.3091C178.233 23.2485 177.651 21.3939 175.884 20.1697ZM66.3488 10.9697H64C63.9826 10.9719 63.9661 10.9786 63.9519 10.9892C63.9377 10.9998 63.9262 11.0139 63.9186 11.0303L61.8488 18.1333C61.8488 18.159 61.839 18.1837 61.8216 18.2019C61.8041 18.2201 61.7805 18.2303 61.7558 18.2303C61.7311 18.2303 61.7074 18.2201 61.69 18.2019C61.6726 18.1837 61.6628 18.159 61.6628 18.1333L59.593 11.0303C59.5814 10.9818 59.5465 10.9697 59.5 10.9697H55.6511C55.6046 10.9697 55.5581 11.0182 55.5581 11.0545V29.1879C55.5581 29.2363 55.6046 29.2848 55.6511 29.2848H58.1744C58.2209 29.2848 58.2674 29.2363 58.2674 29.1879V15.3939C58.2674 15.2848 58.4186 15.2727 58.4418 15.3697L60.5349 22.5212L60.686 23.006C60.686 23.0666 60.7209 23.0788 60.7674 23.0788H62.7093C62.7558 23.0788 62.779 23.0424 62.7907 23.0182L62.9418 22.5091L65.0349 15.3576C65.0581 15.2606 65.2093 15.2848 65.2093 15.3939V29.1757C65.2093 29.2242 65.2558 29.2727 65.3023 29.2727H67.8256C67.8721 29.2727 67.9186 29.2242 67.9186 29.1757V11.0545C67.9186 11.0182 67.8721 10.9697 67.8256 10.9697H66.3488ZM137.256 10.9697C137.236 10.9698 137.217 10.9756 137.201 10.9863C137.185 10.997 137.171 11.0122 137.163 11.0303L135.093 18.1333C135.093 18.159 135.083 18.1837 135.066 18.2019C135.048 18.2201 135.025 18.2303 135 18.2303C134.975 18.2303 134.952 18.2201 134.934 18.2019C134.917 18.1837 134.907 18.159 134.907 18.1333L132.837 11.0303C132.837 10.9818 132.802 10.9697 132.756 10.9697H128.919C128.872 10.9697 128.826 11.0182 128.826 11.0545V29.1879C128.826 29.2363 128.872 29.2848 128.919 29.2848H131.442C131.477 29.2848 131.523 29.2363 131.523 29.1879V15.3939C131.523 15.2848 131.674 15.2727 131.709 15.3697L133.802 22.5212L133.942 23.006C133.965 23.0666 133.988 23.0788 134.035 23.0788H135.965C135.984 23.0774 136.003 23.0712 136.019 23.0606C136.035 23.05 136.049 23.0355 136.058 23.0182L136.209 22.5091L138.302 15.3576C138.326 15.2606 138.477 15.2848 138.477 15.3939V29.1757C138.477 29.2242 138.523 29.2727 138.57 29.2727H141.093C141.139 29.2727 141.186 29.2242 141.186 29.1757V11.0545C141.186 11.0182 141.139 10.9697 141.093 10.9697H137.256ZM104.709 10.9697H92.7907C92.7558 10.9697 92.7093 11.0182 92.7093 11.0545V13.3333C92.7093 13.3818 92.7558 13.4303 92.7907 13.4303H97.4069V29.1879C97.4069 29.2485 97.4534 29.297 97.4883 29.297H100.012C100.058 29.297 100.105 29.2485 100.105 29.2V13.4182H104.709C104.756 13.4182 104.802 13.3697 104.802 13.3212V11.0545C104.802 11.0182 104.779 10.9697 104.709 10.9697ZM119.593 29.2848H121.895C121.953 29.2848 122 29.2121 121.977 29.1636L117.233 10.9697C117.233 10.9212 117.198 10.897 117.151 10.897H113.837C113.819 10.9003 113.801 10.9088 113.787 10.9216C113.773 10.9344 113.762 10.951 113.756 10.9697L109.012 29.1515C108.988 29.2121 109.035 29.2727 109.093 29.2727H111.395C111.442 29.2727 111.465 29.2485 111.488 29.2121L112.86 23.9273C112.872 23.8788 112.907 23.8666 112.953 23.8666H118.023C118.07 23.8666 118.105 23.8909 118.116 23.9273L119.488 29.2121C119.512 29.2485 119.558 29.2848 119.581 29.2848H119.593ZM113.57 21.2727L115.407 14.1818C115.407 14.1561 115.417 14.1314 115.434 14.1132C115.452 14.095 115.475 14.0848 115.5 14.0848C115.525 14.0848 115.548 14.095 115.566 14.1132C115.583 14.1314 115.593 14.1561 115.593 14.1818L117.43 21.2727C117.453 21.3333 117.407 21.3939 117.349 21.3939H113.663C113.593 21.3939 113.546 21.3333 113.57 21.2727ZM158.744 29.2848H161.046C161.105 29.2848 161.151 29.2121 161.14 29.1636L156.395 10.9576C156.372 10.9091 156.349 10.8848 156.302 10.8848H153.012C152.991 10.886 152.971 10.8935 152.954 10.9065C152.938 10.9194 152.925 10.9372 152.919 10.9576L148.174 29.1394C148.163 29.2 148.209 29.2606 148.267 29.2606H150.558C150.605 29.2606 150.639 29.2363 150.651 29.2L152.023 23.9151C152.046 23.8666 152.07 23.8545 152.116 23.8545H157.198C157.233 23.8545 157.267 23.8788 157.279 23.9151L158.663 29.2C158.663 29.2363 158.709 29.2727 158.744 29.2727V29.2848ZM152.721 21.2727L154.57 14.1818C154.576 14.1632 154.588 14.1472 154.604 14.1359C154.619 14.1246 154.638 14.1186 154.657 14.1186C154.676 14.1186 154.694 14.1246 154.71 14.1359C154.726 14.1472 154.738 14.1632 154.744 14.1818L156.593 21.2727C156.593 21.3333 156.558 21.3939 156.5 21.3939H152.814C152.756 21.3939 152.698 21.3333 152.721 21.2727ZM78.1628 26.5939V20.9697C78.1628 20.9212 78.1976 20.8727 78.2442 20.8727H84.9651C85.0116 20.8727 85.0581 20.8242 85.0581 20.7879V18.5212C85.0556 18.4964 85.045 18.4732 85.028 18.4556C85.0111 18.4379 84.9889 18.4269 84.9651 18.4242H78.2558C78.2093 18.4242 78.1744 18.3757 78.1744 18.3273V13.5273C78.1744 13.4788 78.2093 13.4303 78.2558 13.4303H85.9069C85.9535 13.4303 86 13.3818 86 13.3333V11.0788C85.9974 11.054 85.9868 11.0308 85.9699 11.0131C85.953 10.9955 85.9307 10.9844 85.9069 10.9818H75.5581C75.5343 10.9844 75.5121 10.9955 75.4951 11.0131C75.4782 11.0308 75.4676 11.054 75.4651 11.0788V29.1879C75.4651 29.2363 75.5116 29.2848 75.5581 29.2848H86.2209C86.2674 29.2848 86.3139 29.2363 86.3139 29.1879V26.7879C86.3114 26.763 86.3008 26.7399 86.2838 26.7222C86.2669 26.7046 86.2447 26.6935 86.2209 26.6909H78.2442C78.1976 26.6788 78.1744 26.6424 78.1744 26.5818L78.1628 26.5939ZM198.93 29.1273L190.209 19.7454C190.196 19.7282 190.189 19.7069 190.189 19.6848C190.189 19.6628 190.196 19.6414 190.209 19.6242L198.058 11.1394C198.078 11.1297 198.094 11.1122 198.101 11.0906C198.109 11.069 198.108 11.0451 198.099 11.0242C198.09 11.0033 198.073 10.9871 198.052 10.9792C198.031 10.9712 198.008 10.9722 197.988 10.9818H194.779C194.744 10.9818 194.733 10.9939 194.721 11.0182L188.058 18.206C188.045 18.217 188.03 18.2242 188.014 18.2269C187.998 18.2297 187.981 18.2279 187.966 18.2217C187.95 18.2155 187.937 18.2052 187.926 18.1918C187.916 18.1784 187.909 18.1624 187.907 18.1454V11.0788C187.904 11.054 187.894 11.0308 187.877 11.0131C187.86 10.9955 187.838 10.9844 187.814 10.9818H185.291C185.267 10.9844 185.245 10.9955 185.228 11.0131C185.211 11.0308 185.2 11.054 185.198 11.0788V29.2C185.198 29.2485 185.244 29.297 185.291 29.297H187.814C187.86 29.297 187.907 29.2485 187.907 29.2V21.2242C187.907 21.1394 188.012 21.103 188.058 21.1636L195.616 29.2606C195.629 29.2766 195.645 29.2891 195.663 29.297H198.884C198.942 29.2848 199 29.1757 198.93 29.1273Z" fill="#161616"/>
<path d="M38.3257 1.21216L23.0466 12.994L25.8955 6.04852L38.3257 1.21216Z" fill="#E17726" stroke="#E17726" stroke-width="0.25" stroke-linecap="round" stroke-linejoin="round"/>
<path d="M3.09309 1.21216L18.2326 13.0909L15.5233 6.06064L3.09309 1.21216ZM32.8256 28.5212L28.7559 34.994L37.4652 37.4909L39.9536 28.6667L32.8256 28.5212ZM1.47681 28.6667L3.95355 37.4909L12.6396 34.994L8.59309 28.5212L1.47681 28.6667Z" fill="#E27625" stroke="#E27625" stroke-width="0.25" stroke-linecap="round" stroke-linejoin="round"/>
<path d="M12.1745 17.5878L9.75586 21.3939L18.3605 21.806L18.0814 12.1454L12.1745 17.5999V17.5878ZM29.2442 17.5999L23.2442 12.0242L23.0466 21.806L31.6512 21.3939L29.2442 17.5999ZM12.6396 34.9939L17.8605 32.3757L13.3721 28.7393L12.6396 34.9939ZM23.5698 32.3636L28.7559 34.9939L28.0582 28.7272L23.5698 32.3636Z" fill="#E27625" stroke="#E27625" stroke-width="0.25" stroke-linecap="round" stroke-linejoin="round"/>
<path d="M28.7559 34.9939L23.5699 32.3757L23.9885 35.8909L23.942 37.3818L28.7559 34.9939ZM12.6396 34.9939L17.4769 37.3818L17.442 35.8909L17.8606 32.3757L12.6396 34.9939Z" fill="#D5BFB2" stroke="#D5BFB2" stroke-width="0.25" stroke-linecap="round" stroke-linejoin="round"/>
<path d="M17.5582 26.4L13.2559 25.0909L16.3024 23.6364L17.5698 26.4H17.5582ZM23.8489 26.4L25.128 23.6243L28.1861 25.0788L23.8489 26.4121V26.4Z" fill="#233447" stroke="#233447" stroke-width="0.25" stroke-linecap="round" stroke-linejoin="round"/>
<path d="M12.6395 34.994L13.3953 28.5213L8.59302 28.6668L12.6395 34.994ZM28.0233 28.5213L28.7558 34.994L32.8256 28.6668L28.0233 28.5213ZM31.6628 21.394L23.0581 21.8062L23.8488 26.4122L25.1279 23.6243L28.186 25.0789L31.6628 21.394ZM13.2558 25.091L16.3023 23.6365L17.5698 26.4001L18.3721 21.794L9.76744 21.394L13.2558 25.091Z" fill="#CC6228" stroke="#CC6228" stroke-width="0.25" stroke-linecap="round" stroke-linejoin="round"/>
<path d="M9.76733 21.394L13.372 28.7274L13.2557 25.091L9.76733 21.394ZM28.1859 25.091L28.0464 28.7274L31.6511 21.394L28.1859 25.091ZM18.372 21.8062L17.558 26.4122L18.5813 31.8425L18.8138 24.6789L18.372 21.8062ZM23.0464 21.8062L22.6278 24.6668L22.8371 31.8425L23.8487 26.4001L23.0464 21.794V21.8062Z" fill="#E27525" stroke="#E27525" stroke-width="0.25" stroke-linecap="round" stroke-linejoin="round"/>
<path d="M23.8488 26.3999L22.8372 31.8423L23.5697 32.3757L28.0465 28.7393L28.186 25.0908L23.8488 26.3999ZM13.2558 25.0908L13.372 28.7272L17.8604 32.3635L18.5813 31.8423L17.5697 26.3999L13.2441 25.0908H13.2558Z" fill="#F5841F" stroke="#F5841F" stroke-width="0.25" stroke-linecap="round" stroke-linejoin="round"/>
<path d="M23.9536 37.3818L23.9885 35.8909L23.5931 35.5515H17.8257L17.442 35.8909L17.4769 37.3818L12.6396 34.9939L14.3373 36.4484L17.7676 38.909H23.6396L27.0815 36.4363L28.7559 34.9939L23.942 37.3818H23.9536Z" fill="#C0AC9D" stroke="#C0AC9D" stroke-width="0.25" stroke-linecap="round" stroke-linejoin="round"/>
<path d="M23.5698 32.3637L22.8372 31.8425H18.5814L17.8605 32.3759L17.4419 35.891L17.8256 35.5516H23.5931L23.9884 35.891L23.5698 32.3759V32.3637Z" fill="#161616" stroke="#161616" stroke-width="0.25" stroke-linecap="round" stroke-linejoin="round"/>
<path d="M38.9768 13.7576L40.2559 7.27276L38.3256 1.21216L23.5582 12.6061L29.2442 17.5879L37.2675 20.0243L39.0349 17.8788L38.2675 17.297L39.4884 16.1334L38.5582 15.3819L39.7791 14.4122L38.9652 13.7576H38.9768ZM1.16284 7.26064L2.46517 13.7576L1.62796 14.4L2.87214 15.3697L1.94191 16.1334L3.15121 17.297L2.38377 17.8788L4.15121 20.0243L12.1745 17.6L17.8605 12.594L3.09307 1.21216L1.16284 7.26064Z" fill="#763E1A" stroke="#763E1A" stroke-width="0.25" stroke-linecap="round" stroke-linejoin="round"/>
<path d="M37.2675 20.0243L29.2442 17.6001L31.6629 21.394L28.0582 28.7274L32.8256 28.6668H39.9536L37.2675 20.0243ZM12.1745 17.588L4.15123 20.0243L1.47681 28.6668H8.60471L13.3722 28.7274L9.7675 21.394L12.1861 17.588H12.1745ZM23.0466 21.8062L23.5698 12.594L25.8954 6.04858H15.5233L17.8489 12.594L18.3722 21.8062L18.5698 24.691V31.8425H22.8373L22.8605 24.691L23.0466 21.8062Z" fill="#F5841F" stroke="#F5841F" stroke-width="0.25" stroke-linecap="round" stroke-linejoin="round"/>
</svg>
