<svg width="178" height="40" viewBox="0 0 178 40" fill="none" xmlns="http://www.w3.org/2000/svg">
<path d="M12.0964 16.2251L15.2989 21.3826L15.3364 21.4414C17.0564 24.0351 17.0989 25.6164 15.8364 26.9126C15.4069 27.359 15.167 27.9544 15.167 28.5739C15.167 29.1933 15.4069 29.7887 15.8364 30.2351C16.7289 31.1526 18.1739 31.1526 19.0664 30.2351C22.0614 27.1551 21.9589 23.1101 19.1301 18.8251L13.8951 10.3964C13.6888 10.0561 13.3959 9.77665 13.0464 9.58641C12.6969 9.39618 12.3033 9.30198 11.9055 9.31341C11.5077 9.32485 11.1201 9.4415 10.7821 9.6515C10.4441 9.8615 10.1678 10.1573 9.98137 10.5089L5.87012 18.0264C4.46944 20.5312 3.73921 23.3553 3.75012 26.2251C3.75012 32.2464 8.34637 37.5001 15.6251 37.5001C22.8889 37.5001 27.5001 31.8789 27.5001 25.7551C27.5001 22.5139 26.7039 19.5126 25.1189 16.7951L17.3501 3.63011C17.1997 3.36834 16.9981 3.13956 16.7573 2.95743C16.5165 2.77531 16.2414 2.64356 15.9486 2.57006C15.6558 2.49656 15.3511 2.48281 15.0529 2.52964C14.7546 2.57647 14.4688 2.68291 14.2126 2.84261C13.1351 3.51511 12.7914 4.96011 13.4464 6.06761L21.2101 19.2226C22.3601 21.1939 22.9351 23.3601 22.9351 25.7551C22.9351 29.4451 20.1801 32.8026 15.6264 32.8026C10.9839 32.8026 8.31887 29.7564 8.31887 26.2251C8.31887 24.1289 8.82387 22.1814 9.84387 20.3439L12.0976 16.2251H12.0964Z" fill="url(#paint0_linear_4664_33040)"/>
<g clip-path="url(#clip0_4664_33040)">
<path fill-rule="evenodd" clip-rule="evenodd" d="M40.8 10C40.0574 10 39.3452 10.295 38.8201 10.8201C38.295 11.3452 38 12.0574 38 12.8V31.345C38 32.0876 38.295 32.7998 38.8201 33.3249C39.3452 33.85 40.0574 34.145 40.8 34.145H46.925C53.9375 34.145 58.0687 29.6437 58.0687 21.98C58.0687 14.3175 53.9387 10 46.925 10H40.8ZM44.1425 14.1663H46.3425C50.6512 14.1663 53.08 16.9437 53.08 21.9975C53.08 27.2175 50.7162 29.9613 46.3425 29.9613H44.1425C43.811 29.9613 43.493 29.8296 43.2586 29.5951C43.0242 29.3607 42.8925 29.0428 42.8925 28.7113V15.4163C42.8925 15.0847 43.0242 14.7668 43.2586 14.5324C43.493 14.2979 43.811 14.1663 44.1425 14.1663ZM61.8412 34.1438C61.4699 34.1438 61.1138 33.9963 60.8513 33.7337C60.5887 33.4711 60.4412 33.1151 60.4412 32.7437V17.6062C60.4412 16.8338 61.0675 16.2063 61.8412 16.2063H63.61C64.3825 16.2063 65.01 16.8338 65.01 17.6062V19.3813C65.0106 19.3942 65.0157 19.4065 65.0245 19.416C65.0333 19.4256 65.0451 19.4317 65.058 19.4333C65.0708 19.435 65.0838 19.432 65.0947 19.425C65.1056 19.418 65.1137 19.4074 65.1175 19.395C65.74 17.145 67.2075 15.9225 69.2362 15.9225C69.39 15.9225 69.5362 15.9288 69.6762 15.94C70.2225 15.9862 70.5812 16.48 70.5812 17.0275V18.6562C70.5812 19.4838 69.6925 20.1225 68.8637 20.1225C66.5312 20.1225 65.1712 21.595 65.1712 24.1213V32.7437C65.1712 33.1151 65.0237 33.4711 64.7612 33.7337C64.4986 33.9963 64.1426 34.1438 63.7712 34.1438H61.8412ZM79.5312 34.5287C84.7787 34.5287 88.1312 31.0662 88.1312 25.1588C88.1312 19.3363 84.7312 15.8225 79.5312 15.8225C74.3312 15.8225 70.93 19.3538 70.93 25.16C70.93 31.0487 74.2825 34.5287 79.53 34.5287H79.5312ZM75.725 25.175C75.725 28.7725 77.1987 30.7975 79.5312 30.7975C81.8475 30.7975 83.3212 28.7725 83.3212 25.175C83.3212 21.6125 81.8312 19.5537 79.5312 19.5537C77.2312 19.5537 75.725 21.6112 75.725 25.175ZM94.965 19.3C94.9595 19.3124 94.9499 19.3226 94.9378 19.3287C94.9256 19.3349 94.9118 19.3366 94.8985 19.3337C94.8852 19.3307 94.8734 19.3233 94.865 19.3126C94.8566 19.3019 94.8522 19.2886 94.8525 19.275V17.6062C94.8525 17.2349 94.705 16.8789 94.4424 16.6163C94.1799 16.3537 93.8238 16.2063 93.4525 16.2063H91.5875C91.2162 16.2063 90.8601 16.3537 90.5975 16.6163C90.335 16.8789 90.1875 17.2349 90.1875 17.6062V38.6C90.1875 39.3725 90.8137 40 91.5875 40H93.5175C93.8888 40 94.2449 39.8525 94.5074 39.5899C94.77 39.3274 94.9175 38.9713 94.9175 38.6V31.1912C94.9172 31.1777 94.9216 31.1644 94.93 31.1537C94.9384 31.143 94.9502 31.1355 94.9635 31.1326C94.9768 31.1296 94.9906 31.1314 95.0028 31.1375C95.0149 31.1437 95.0245 31.1538 95.03 31.1663C95.96 33.1713 97.8962 34.4287 100.409 34.4287C104.749 34.4287 107.437 30.9475 107.437 25.175C107.437 19.3862 104.734 15.9225 100.327 15.9225C97.83 15.9225 95.91 17.2137 94.965 19.3013V19.3ZM94.915 25.1763C94.915 28.4225 96.4362 30.4975 98.7525 30.4975C101.117 30.4975 102.607 28.44 102.607 25.1763C102.607 21.9313 101.117 19.8388 98.7525 19.8388C96.4362 19.8388 94.915 21.9638 94.915 25.1763ZM109.199 21.4788C109.199 18.065 112.049 15.8225 116.472 15.8225C120.364 15.8225 122.957 17.6237 123.615 20.4225C123.776 21.1075 123.196 21.695 122.492 21.695H120.55C119.907 21.695 119.405 21.1825 119.1 20.6175C118.645 19.7737 117.741 19.2525 116.471 19.2525C114.834 19.2525 113.749 20.0225 113.749 21.21C113.749 22.13 114.397 22.75 116.146 23.135L119.111 23.7875C122.739 24.5738 124.229 26.0462 124.229 28.6725C124.229 32.2038 121.104 34.5287 116.632 34.5287C112.474 34.5287 109.839 32.7913 109.012 30.0288C108.801 29.325 109.391 28.69 110.125 28.69H112.337C112.94 28.69 113.425 29.14 113.711 29.67C114.219 30.6075 115.192 31.0987 116.632 31.0987C118.414 31.0987 119.516 30.3463 119.516 29.1738C119.516 28.2213 118.916 27.6862 117.216 27.2837L114.251 26.6488C110.899 25.9113 109.197 24.1725 109.197 21.4788H109.199ZM138.112 32.7437C138.112 33.1151 137.965 33.4711 137.702 33.7337C137.44 33.9963 137.084 34.1438 136.712 34.1438H134.621C134.25 34.1438 133.894 33.9963 133.631 33.7337C133.369 33.4711 133.221 33.1151 133.221 32.7437V14.7913C133.221 14.6255 133.155 14.4665 133.038 14.3493C132.921 14.2321 132.762 14.1663 132.596 14.1663H127.866C127.495 14.1663 127.139 14.0188 126.876 13.7562C126.614 13.4936 126.466 13.1376 126.466 12.7663V11.4C126.466 10.6262 127.094 10 127.866 10H143.484C144.257 10 144.884 10.6262 144.884 11.4V12.7663C144.884 13.1376 144.736 13.4936 144.474 13.7562C144.211 14.0188 143.855 14.1663 143.484 14.1663H138.737C138.572 14.1663 138.413 14.2321 138.296 14.3493C138.178 14.4665 138.112 14.6255 138.112 14.7913V32.7437ZM153.275 31.4325C152.295 33.32 150.152 34.4287 147.995 34.4287C144.69 34.4287 142.18 32.22 142.18 28.9913C142.18 25.7288 144.61 23.8375 148.934 23.57L152.721 23.3375C152.88 23.3276 153.029 23.2576 153.138 23.1417C153.247 23.0259 153.307 22.8728 153.307 22.7137V22.1138C153.307 20.4412 152.174 19.47 150.392 19.47C148.862 19.47 147.82 20.1475 147.42 21.1875C147.311 21.4725 147.06 21.6963 146.755 21.6963H143.615C143.257 21.6963 142.969 21.395 143.024 21.0413C143.509 17.9188 146.296 15.8225 150.602 15.8225C155.057 15.8225 157.956 18.1975 157.956 21.8125V32.745C157.956 33.1163 157.809 33.4724 157.546 33.7349C157.284 33.9975 156.928 34.145 156.556 34.145H154.787C154.416 34.145 154.06 33.9975 153.798 33.7349C153.535 33.4724 153.387 33.1163 153.387 32.745V31.46C153.387 31.4468 153.382 31.4341 153.374 31.4239C153.366 31.4136 153.355 31.4064 153.342 31.4032C153.329 31.4001 153.315 31.4013 153.303 31.4066C153.291 31.4119 153.281 31.421 153.275 31.4325ZM149.55 30.8975C147.946 30.8975 146.877 30.0613 146.877 28.7225C146.877 27.4513 147.881 26.6313 149.646 26.4975L152.642 26.3062C152.728 26.3008 152.813 26.3129 152.894 26.3417C152.974 26.3706 153.048 26.4157 153.11 26.4741C153.172 26.5326 153.222 26.6032 153.256 26.6816C153.29 26.76 153.307 26.8446 153.307 26.93V27.5675C153.307 29.51 151.607 30.8988 149.55 30.8988V30.8975ZM177.995 25.1763C177.995 30.9488 175.322 34.4287 170.949 34.4287C168.42 34.4287 166.484 33.1712 165.522 31.1C165.518 31.0897 165.51 31.0809 165.501 31.0747C165.491 31.0685 165.48 31.0651 165.469 31.065C165.461 31.0648 165.453 31.0663 165.446 31.0692C165.438 31.0722 165.432 31.0766 165.426 31.0822C165.42 31.0878 165.416 31.0945 165.413 31.1018C165.41 31.1092 165.409 31.1171 165.409 31.125V32.745C165.409 33.1161 165.261 33.472 164.999 33.7345C164.737 33.997 164.381 34.1447 164.01 34.145H162.144C161.772 34.145 161.416 33.9975 161.154 33.7349C160.891 33.4724 160.744 33.1163 160.744 32.745V11.4C160.744 10.6262 161.371 10 162.144 10H164.074C164.847 10 165.474 10.6262 165.474 11.4V19.2613C165.474 19.2938 165.5 19.32 165.532 19.32C165.544 19.3199 165.555 19.3166 165.565 19.3104C165.575 19.3042 165.583 19.2954 165.587 19.285C166.547 17.1813 168.467 15.9225 170.932 15.9225C175.306 15.9225 177.995 19.3863 177.995 25.1763ZM169.326 19.8388C171.675 19.8388 173.165 21.9138 173.165 25.1763C173.165 28.4563 171.691 30.4975 169.326 30.4975C167.026 30.4975 165.471 28.4225 165.471 25.1763C165.471 21.9638 167.042 19.8388 169.326 19.8388Z" fill="#111827"/>
</g>
<defs>
<linearGradient id="paint0_linear_4664_33040" x1="27.5001" y1="5.51261" x2="3.29137" y2="38.8164" gradientUnits="userSpaceOnUse">
<stop stop-color="#67E8F9"/>
<stop offset="1" stop-color="#2563EB"/>
</linearGradient>
<clipPath id="clip0_4664_33040">
<rect width="140" height="40" fill="white" transform="translate(38)"/>
</clipPath>
</defs>
</svg>
