<svg width="233" height="40" viewBox="0 0 233 40" fill="none" xmlns="http://www.w3.org/2000/svg">
<g clip-path="url(#clip0_4664_33044)">
<path fill-rule="evenodd" clip-rule="evenodd" d="M34.2422 23.9024C33.5452 24.3434 32.7243 24.398 32.1004 24.0459C31.3078 23.598 30.872 22.5493 30.872 21.0907V16.7268C30.872 14.6195 30.0395 13.12 28.6473 12.7151C26.2881 12.0273 24.5137 14.9161 23.8469 16.001L19.6861 22.7522V14.5005C19.6393 12.602 19.0231 11.4663 17.8533 11.1239C17.0792 10.8976 15.921 10.9883 14.796 12.7112L5.47404 27.6907C4.22605 25.3198 3.57548 22.6798 3.57884 20C3.57884 10.9766 10.8048 3.6361 19.6861 3.6361C28.5674 3.6361 35.7923 10.9766 35.7923 20C35.7923 20.0156 35.7962 20.0293 35.7972 20.0439C35.7972 20.0595 35.7943 20.0732 35.7952 20.0888C35.8791 21.8361 35.3136 23.2263 34.2422 23.9034V23.9024ZM39.3712 20.001V20V19.9551L39.3702 19.9102C39.3205 8.92098 30.5103 0 19.6851 0C8.83158 0 0 8.97171 0 20C0 31.0273 8.83158 40 19.6861 40C24.6668 40 29.4204 38.1054 33.0694 34.6663C33.7948 33.9834 33.8376 32.8332 33.165 32.0976C33.0066 31.9228 32.8151 31.7815 32.6015 31.6818C32.3879 31.5821 32.1565 31.5261 31.921 31.517C31.6855 31.5079 31.4505 31.546 31.2299 31.6289C31.0093 31.7118 30.8074 31.838 30.6361 32C27.6783 34.8029 23.7595 36.3647 19.6861 36.3639C14.9305 36.3639 10.6517 34.2576 7.7007 30.9171L16.1072 17.4088V23.6361C16.1072 26.6273 17.2664 27.5941 18.2383 27.8771C19.2113 28.16 20.698 27.9668 22.2588 25.4302L26.8827 17.9288C27.0309 17.6868 27.1674 17.478 27.2922 17.2976V21.0907C27.2922 23.8868 28.4114 26.1229 30.3621 27.2244C32.1209 28.2176 34.3319 28.1278 36.1335 26.9902C38.3173 25.6098 39.494 23.0663 39.3712 20.001ZM66.7784 13.1678C67.2512 13.4556 67.6607 14.0956 67.6607 14.6722C67.6607 15.6 66.873 16.3678 65.9907 16.3678C65.7703 16.3678 65.55 16.3044 65.3609 16.24C64.3207 15.4722 62.9977 14.96 61.6114 14.96C58.3358 14.96 56.0672 17.6478 56.0672 20.9756C56.0672 24.3044 58.3358 26.96 61.6114 26.96C63.2493 26.96 64.6989 26.2878 65.8015 25.2644C66.0864 25.0595 66.4276 24.9477 66.7784 24.9444C67.6607 24.9444 68.3538 25.6478 68.3538 26.5444C68.3538 27.12 68.0068 27.6322 67.5661 27.92C65.9907 29.2644 63.8488 30.16 61.6436 30.16C56.6034 30.16 52.5069 26 52.5069 20.88C52.5069 15.76 56.6024 11.6 61.6436 11.6C63.5339 11.6 65.3287 12.1756 66.7784 13.1678ZM75.995 17.04C79.4286 17.04 82.327 19.9522 82.327 23.5356C82.327 27.12 79.4286 30.16 75.995 30.16C72.4035 30.16 69.4106 27.12 69.4106 23.5356C69.4106 19.9522 72.4035 17.04 75.995 17.04ZM75.9629 26.96C77.4759 26.96 78.7667 25.52 78.7667 23.5678C78.7667 21.6166 77.4759 20.4 75.9629 20.4C74.3251 20.4 72.9699 21.5844 72.9699 23.5678C72.9699 25.52 74.3251 26.96 75.9629 26.96ZM84.4864 28.1756V19.0244C84.4864 18.0322 85.2741 17.2 86.2509 17.2C87.2278 17.2 88.0467 18.0322 88.0467 19.0244V28.1756C88.0467 29.1678 87.2278 30 86.2509 30C85.2741 30 84.4864 29.1678 84.4864 28.1756ZM84.2037 13.7444C84.2037 12.56 85.1162 11.6 86.2509 11.6C87.4159 11.6 88.3616 12.56 88.3616 13.7444C88.3616 14.8956 87.4159 15.8244 86.2509 15.8244C85.1162 15.8244 84.2037 14.8956 84.2037 13.7444ZM94.869 23.2156V28.1756C94.869 29.1678 94.0501 30 93.0723 30C92.0964 30 91.3077 29.1678 91.3077 28.1756V18.6078C91.3077 17.84 91.9385 17.2 92.695 17.2C93.4506 17.2 94.0501 17.84 94.0501 18.6078C95.4988 17.2644 96.7584 17.04 97.9555 17.04C101.516 17.04 103.091 19.7278 103.091 22.7678V28.1756C103.091 29.1678 102.272 30 101.296 30C100.319 30 99.531 29.1678 99.531 28.1756V23.2156C99.531 21.6478 99.3418 20.3356 97.1054 20.3356C95.53 20.3356 94.868 21.6478 94.868 23.2156H94.869ZM114.67 25.1044C114.261 25.1044 113.978 24.9122 113.757 24.6556L109.598 20.1444V28.1756C109.598 29.1678 108.779 30 107.802 30C106.825 30 106.037 29.1678 106.037 28.1756V12.2732C106.088 12.1392 106.179 12.0242 106.298 11.9439C106.417 11.8636 106.557 11.8218 106.7 11.8244C107.014 11.8244 107.266 12.081 107.456 12.2732L114.072 19.7288C114.261 19.9532 114.512 20.081 114.639 20.081C114.765 20.081 115.016 19.9532 115.205 19.7298L121.822 12.2732C122.011 12.081 122.263 11.8244 122.577 11.8244C122.892 11.8244 123.145 12.0166 123.239 12.2732V28.1756C123.239 29.1678 122.452 30 121.475 30C120.498 30 119.679 29.1678 119.679 28.1756V20.1444L115.521 24.6556C115.3 24.9122 115.016 25.1044 114.67 25.1044ZM131.794 26.96C133.401 26.96 134.755 25.52 134.755 23.5678C134.755 21.6166 133.37 20.3356 131.794 20.3356C130.219 20.3356 128.958 21.6478 128.958 23.5678C128.958 25.4556 130.219 26.96 131.794 26.96ZM135.575 28.5922L135.51 28.1756C134.818 29.5512 132.612 30.16 131.195 30.16C127.855 30.16 125.398 27.12 125.398 23.5356C125.398 19.9522 127.918 17.04 131.384 17.04C131.982 17.04 133.967 17.2 135.51 19.0244L135.574 18.6078C135.574 17.84 136.172 17.2 136.929 17.2C137.684 17.2 138.314 17.84 138.314 18.6078V28.5922C138.314 29.36 137.684 30 136.928 30C136.172 30 135.573 29.36 135.573 28.5922H135.575ZM148.193 20.3356H147.816C145.578 20.4644 145.138 21.7444 145.138 23.2156V28.1756C145.138 29.1678 144.319 30 143.342 30C142.365 30 141.577 29.1678 141.577 28.1756V18.6078C141.577 17.84 142.207 17.2 142.964 17.2C143.72 17.2 144.319 17.84 144.319 18.6078C145.642 17.36 146.713 17.1044 147.816 17.04H148.162C149.013 17.04 149.799 17.7756 149.799 18.7044C149.799 19.5678 149.044 20.3356 148.193 20.3356ZM161.915 27.3444C162.072 27.6 162.167 27.8878 162.167 28.2078C162.167 29.1356 161.316 30 160.402 30C159.773 30 159.236 29.52 158.827 29.0078L154.732 24.24V28.1756C154.732 29.1678 153.913 30 152.936 30C151.959 30 151.171 29.1678 151.171 28.1756V13.6488C151.171 12.6556 151.959 11.8244 152.936 11.8244C153.913 11.8244 154.732 12.6556 154.732 13.6488V22.7044L158.827 18.16C159.236 17.68 159.741 17.2 160.371 17.2C161.254 17.2 162.072 18.0322 162.072 18.96C162.072 19.2478 162.009 19.5356 161.851 19.7922L158.607 23.3434L161.915 27.3434V27.3444ZM168.895 20.4C167.918 20.4 166.343 20.9122 166.343 22.4156H171.477C171.477 20.88 169.839 20.4 168.894 20.4H168.895ZM173.557 24.6878H166.343C166.343 26.8322 168.39 27.1522 169.303 27.1522C169.966 27.1522 170.911 27.0244 171.635 26.7034C171.856 26.5444 172.234 26.4156 172.549 26.4156C173.336 26.4156 173.997 27.0888 173.997 27.8888C173.997 28.4322 173.651 28.9122 173.211 29.1678C172.108 29.9678 170.69 30.16 169.335 30.16C165.744 30.16 162.751 28.2088 162.751 23.6956C162.751 20.1444 164.578 17.04 168.831 17.04C172.265 17.04 174.88 19.28 174.943 23.28C174.943 24.0478 174.313 24.6878 173.557 24.6878ZM183.467 30.16H182.49C179.779 30.16 178.205 28.9756 178.205 24.72V20.3356H177.292C176.44 20.3356 175.685 19.5678 175.685 18.7044C175.685 17.7756 176.44 17.04 177.292 17.04H178.205V13.6478C178.205 12.6556 178.993 11.8234 179.97 11.8234C180.945 11.8234 181.765 12.6556 181.765 13.6478V17.04H183.245C184.096 17.04 184.853 17.7756 184.853 18.7044C184.853 19.5678 184.096 20.3356 183.245 20.3356H181.765V24.0156C181.765 26.4478 181.891 26.96 182.963 26.96H183.467C184.317 26.96 185.041 27.6644 185.041 28.56C185.041 29.4244 184.317 30.16 183.467 30.16ZM200.716 13.1678C201.188 13.4556 201.599 14.0956 201.599 14.6722C201.599 15.6 200.811 16.3678 199.929 16.3678C199.708 16.3678 199.487 16.3044 199.299 16.24C198.259 15.4722 196.936 14.96 195.549 14.96C192.274 14.96 190.004 17.6478 190.004 20.9756C190.004 24.3044 192.273 26.96 195.549 26.96C197.187 26.96 198.637 26.2878 199.739 25.2644C200.024 25.0595 200.366 24.9477 200.716 24.9444C201.599 24.9444 202.291 25.6478 202.291 26.5444C202.291 27.12 201.945 27.6322 201.504 27.92C199.929 29.2644 197.786 30.16 195.581 30.16C190.54 30.16 186.445 26 186.445 20.88C186.445 15.76 190.539 11.6 195.581 11.6C197.472 11.6 199.267 12.1756 200.716 13.1678ZM209.744 26.96C211.351 26.96 212.705 25.52 212.705 23.5678C212.705 21.6166 211.318 20.3356 209.743 20.3356C208.168 20.3356 206.908 21.6478 206.908 23.5678C206.908 25.4556 208.168 26.96 209.743 26.96H209.744ZM213.524 28.5922L213.461 28.1756C212.768 29.5512 210.563 30.16 209.144 30.16C205.805 30.16 203.348 27.12 203.348 23.5356C203.348 19.9522 205.869 17.04 209.333 17.04C209.932 17.04 211.917 17.2 213.461 19.0244L213.524 18.6078C213.524 17.84 214.122 17.2 214.879 17.2C215.634 17.2 216.265 17.84 216.265 18.6078V28.5922C216.265 29.36 215.634 30 214.879 30C214.122 30 213.524 29.36 213.524 28.5922ZM226.048 26.96C227.623 26.96 228.883 25.4556 228.883 23.5678C228.883 21.6478 227.623 20.3356 226.048 20.3356C224.473 20.3356 223.086 21.6156 223.086 23.5678C223.086 25.52 224.441 26.96 226.048 26.96ZM223.086 29.1044V33.6478C223.086 34.64 222.267 35.4722 221.291 35.4722C220.315 35.4722 219.526 34.64 219.526 33.6478V18.6078C219.526 17.84 220.157 17.2 220.913 17.2C221.669 17.2 222.268 17.84 222.268 18.7356C223.59 17.36 225.229 17.04 226.457 17.04C229.923 17.04 232.443 19.9522 232.443 23.5356C232.443 27.12 229.987 30.16 226.647 30.16C225.607 30.16 224.063 29.84 223.086 29.1044Z" fill="#17181B"/>
</g>
<defs>
<clipPath id="clip0_4664_33044">
<rect width="233" height="40" fill="white"/>
</clipPath>
</defs>
</svg>
