<svg width="155" height="50" viewBox="0 0 155 50" fill="none" xmlns="http://www.w3.org/2000/svg">
<path fill-rule="evenodd" clip-rule="evenodd" d="M37.738 17.6694C39.3278 17.7718 40.9153 17.4377 42.3293 16.7036C43.7432 15.9696 44.9299 14.8632 45.7613 13.5039C46.8449 11.9664 47.3605 10.1001 47.2201 8.22431C47.1038 7.15871 46.756 6.7887 46.1769 7.11431C44.7204 7.92514 43.1063 8.41249 41.4445 8.54319C39.6722 8.7749 37.8835 8.85592 36.0976 8.78537C34.5507 8.70464 32.1654 8.51897 28.9418 8.22835C25.7183 7.93773 23.4847 7.76013 22.2411 7.69555C21.3493 7.62827 20.5177 7.58791 19.7462 7.57446C18.9749 7.561 17.6737 7.60944 15.843 7.71976C14.196 7.80801 12.5586 8.02666 10.9461 8.37366C9.35835 8.75186 7.81971 9.31261 6.36089 10.0447C4.8725 10.7331 3.54775 11.7307 2.47481 12.9711C0.998775 14.6058 0.138352 16.7039 0.0414876 18.9046C-0.0783817 19.9193 0.0625256 20.9478 0.4509 21.8929C0.839274 22.8379 1.46227 23.6682 2.26094 24.3052C3.53873 25.3021 5.1189 25.832 6.7392 25.8068C8.2388 25.8448 9.72942 25.5642 11.1125 24.9834C12.165 24.5448 13.1305 23.9214 13.9635 23.1428C14.3915 22.7494 14.7446 22.2817 15.0057 21.7623C15.0729 21.6531 15.1087 21.5274 15.1087 21.399C15.1087 21.2708 15.0729 21.145 15.0057 21.0358C14.7866 20.8156 14.5505 20.6132 14.2995 20.4303C13.9866 20.2002 13.73 19.9022 13.5489 19.5585C13.2348 19.08 13.1214 18.4972 13.2331 17.9358C13.3277 17.1533 13.5734 16.3966 13.9565 15.7078C14.4467 14.8682 15.1758 14.1936 16.0508 13.7703C17.1472 13.2142 18.3753 12.9699 19.6009 13.0639H19.6494L13.7285 31.6171C12.5811 35.2015 12.6934 38.2453 14.0654 40.7485C15.4374 43.2517 18.0736 44.5999 21.9737 44.7929C23.8893 44.8944 25.8075 44.6482 27.6354 44.0664C29.2869 43.5727 30.8393 42.7941 32.2226 41.7656C33.3151 40.9415 34.3284 40.0172 35.2491 39.0047C35.9166 38.2875 36.4806 37.4805 36.9248 36.6071C37.0573 36.4336 37.1497 36.2328 37.1952 36.0191C37.2407 35.8056 37.2384 35.5845 37.1881 35.372C37.057 35.1298 36.7207 35.154 36.1793 35.4446C34.3886 36.3897 32.4393 36.9972 30.4289 37.2368C28.6963 37.5504 26.9087 37.2778 25.3483 36.4618C24.0295 35.6868 23.6424 34.3952 24.1872 32.5869C24.1932 32.5546 24.5632 31.3921 25.2969 29.0995H33.2879C33.3646 29.1115 33.443 29.0928 33.5061 29.0475C33.5691 29.0022 33.6118 28.9339 33.6249 28.8573L35.1937 24.0136L35.2128 23.9127L34.9989 23.7674H27.0079C27.2177 23.1862 27.6296 21.9349 28.2437 20.0136C28.8578 18.0922 29.2889 16.7441 29.5371 15.9691C32.1843 16.8934 34.9416 17.4651 37.738 17.6694ZM55.6672 29.6827C55.6716 29.6595 55.6709 29.6357 55.6651 29.6128C55.6594 29.5899 55.6488 29.5685 55.6341 29.5501C55.6193 29.5317 55.6008 29.5167 55.5796 29.5061C55.5585 29.4956 55.5354 29.4898 55.5118 29.489H41.1236C41.0487 29.4864 40.9749 29.5088 40.914 29.5527C40.853 29.5965 40.8083 29.6593 40.7867 29.7311L39.4459 33.8967L39.6477 34.0904H54.0792C54.1279 34.0998 54.1782 34.0898 54.2197 34.0627C54.261 34.0356 54.2903 33.9935 54.3012 33.9451L55.6672 29.6827ZM95.6174 34.1873L98.0023 26.6302C98.7818 24.2757 98.759 22.3544 97.9337 20.8662C97.5428 20.1467 96.9536 19.5544 96.2362 19.1598C95.5187 18.7652 94.7031 18.5849 93.8862 18.6402C92.1952 18.7071 90.5466 19.1895 89.0861 20.0448C87.1564 21.1404 85.4752 22.6248 84.1489 24.4041C84.2758 23.6707 84.2527 22.9191 84.081 22.1948C83.9093 21.4706 83.5927 20.7886 83.1501 20.1901C82.711 19.6711 82.1574 19.261 81.533 18.9921C80.9087 18.7231 80.2304 18.6026 79.5516 18.6402C77.8926 18.706 76.274 19.1713 74.8332 19.9964C72.9325 21.05 71.2695 22.4846 69.9484 24.2104C70.0894 23.4982 70.0754 22.7639 69.9072 22.0577C69.739 21.3514 69.4206 20.6897 68.9738 20.1175C68.4799 19.6026 67.8784 19.2031 67.2122 18.9476C66.5459 18.6922 65.8316 18.5873 65.12 18.6402C63.7067 18.6727 62.3223 19.0465 61.0846 19.73C59.9353 20.2456 58.9427 21.0561 58.2074 22.0792C58.1638 22.121 58.1299 22.1718 58.1084 22.2282C58.0868 22.2845 58.0779 22.3451 58.0824 22.4052C58.087 22.4655 58.1047 22.5239 58.1346 22.5764C58.1643 22.6289 58.2055 22.6741 58.2548 22.7089C58.4654 22.8703 58.73 23.0883 59.0488 23.3627C59.245 23.6277 59.3869 23.9289 59.4662 24.249C59.5455 24.569 59.5606 24.9016 59.5109 25.2276C59.4125 26.6626 59.1297 28.0789 58.6695 29.4415C57.9794 31.6696 56.3555 36.4652 53.7978 43.8282L53.7796 43.9291L53.8896 44.0694H63.6209C63.6906 44.038 63.7558 43.9972 63.8146 43.9483C63.867 43.9053 63.9028 43.8454 63.9155 43.7788L68.0305 30.7968C68.4624 29.4435 69.1339 28.1789 70.0129 27.0631C71.0964 25.8037 72.0424 25.2548 72.8508 25.4163C73.7554 25.5777 73.929 26.5142 73.3714 28.2256C72.8905 29.8724 72.5391 31.0188 72.3171 31.6646C71.619 33.7635 70.3489 37.8164 68.5067 43.8232C68.4976 43.8274 68.4896 43.8338 68.4834 43.8417C68.4773 43.8497 68.4731 43.859 68.4714 43.8689C68.4696 43.8788 68.4702 43.889 68.4732 43.8987C68.4763 43.9082 68.4815 43.9169 68.4886 43.9241L68.6116 44.0694H78.35C78.4194 44.038 78.4843 43.9972 78.5427 43.9483C78.5947 43.905 78.6303 43.8452 78.6436 43.7788L82.1049 31.6696L82.3703 30.7978C82.7664 29.4297 83.4414 28.1586 84.3526 27.0641C85.4361 25.8048 86.3821 25.2558 87.1905 25.4173C88.0952 25.5787 88.2687 26.5152 87.7111 28.2266L84.7269 37.6243C84.0369 39.8524 84.1674 41.6351 85.1184 42.9725C85.6283 43.6527 86.3014 44.1935 87.0755 44.5448C87.8495 44.8961 88.6997 45.0467 89.5472 44.9826C90.9605 44.9501 92.345 44.5763 93.5826 43.8928C94.7194 43.3839 95.7066 42.5918 96.4497 41.5921C96.5278 41.5253 96.5774 41.4311 96.5885 41.3289C96.5995 41.2267 96.5712 41.1241 96.5092 41.0421C96.323 40.8599 96.1057 40.7122 95.8676 40.6062C95.5259 40.4088 95.261 40.1014 95.116 39.7343C94.8811 39.1171 94.7859 38.4554 94.8376 37.7969C94.9359 36.5647 95.1967 35.351 95.6134 34.1873H95.6174ZM125.883 32.8311C127.042 29.1822 126.754 26.0012 125.02 23.2881C123.286 20.575 120.508 19.0735 116.686 18.7835C112.842 18.5395 109.036 19.6538 105.93 21.9318C102.719 24.0673 100.323 27.2254 99.1322 30.8936C97.9721 34.5425 98.2673 37.7236 100.018 40.4366C101.768 43.1498 104.553 44.6513 108.37 44.9412C112.227 45.2083 116.053 44.1 119.171 41.813C122.348 39.6532 124.709 36.4909 125.879 32.8311H125.883ZM108.547 31.5717C109.131 29.6136 110.061 27.7762 111.294 26.1468C111.691 25.5393 112.236 25.0427 112.878 24.7037C113.519 24.3648 114.237 24.1946 114.962 24.2094C115.573 24.2368 116.151 24.4987 116.575 24.9405C116.999 25.3823 117.237 25.9705 117.239 26.5828C117.4 28.4737 117.139 30.3769 116.473 32.154C115.9 34.1284 114.975 35.9828 113.741 37.6273C113.346 38.2245 112.805 38.7112 112.169 39.0417C111.534 39.3722 110.826 39.5355 110.109 39.5163C109.495 39.4863 108.916 39.2202 108.492 38.7735C108.069 38.3268 107.834 37.7341 107.837 37.1187C107.67 35.2405 107.91 33.3483 108.543 31.5717H108.547ZM152.034 34.1873C152.453 32.8634 152.919 31.417 153.431 29.8482C153.944 28.2795 154.289 27.2058 154.467 26.6272C155.215 24.2726 155.175 22.3513 154.35 20.8632C153.96 20.1431 153.371 19.5503 152.653 19.1553C151.936 18.7603 151.12 18.5797 150.303 18.6351C148.587 18.7064 146.911 19.1792 145.41 20.0156C143.438 21.0721 141.71 22.5328 140.341 24.3022C140.495 23.5841 140.488 22.8409 140.321 22.1258C140.155 21.4107 139.832 20.7411 139.377 20.1649C138.882 19.638 138.275 19.2277 137.601 18.9638C136.928 18.6999 136.204 18.5891 135.483 18.6392C134.069 18.6714 132.685 19.0453 131.447 19.729C130.298 20.2443 129.306 21.0548 128.57 22.0782C128.504 22.1491 128.463 22.2415 128.458 22.339C128.452 22.4366 128.481 22.5329 128.54 22.611C128.703 22.773 128.888 22.9116 129.09 23.0227C129.388 23.2374 129.609 23.5434 129.719 23.8945C129.915 24.5206 129.984 25.1792 129.921 25.832C129.805 27.0631 129.538 28.2751 129.124 29.4405C128.402 31.6686 126.746 36.4641 124.157 43.8272C124.147 43.8527 124.144 43.8799 124.147 43.9068C124.15 43.9337 124.159 43.9596 124.173 43.9827C124.187 44.0058 124.206 44.0256 124.228 44.0406C124.25 44.0556 124.277 44.0655 124.303 44.0694H133.988C134.063 44.0611 134.134 44.0281 134.188 43.9755C134.243 43.9231 134.279 43.8538 134.29 43.7788L138.405 30.7968C138.838 29.4417 139.541 28.1891 140.475 27.1156C141.629 25.8239 142.659 25.2588 143.564 25.4203C144.501 25.5817 144.707 26.5182 144.181 28.2296L141.198 37.6273C140.475 39.8554 140.589 41.6382 141.54 42.9755C142.05 43.6557 142.723 44.1963 143.497 44.5477C144.271 44.899 145.121 45.0496 145.969 44.9856C147.382 44.9532 148.766 44.5793 150.004 43.8958C151.148 43.3772 152.149 42.5875 152.92 41.5951C152.987 41.5191 153.025 41.4216 153.027 41.3203C153.028 41.2189 152.993 41.1203 152.929 41.0421C152.742 40.8599 152.525 40.7122 152.287 40.6062C151.946 40.4086 151.682 40.1013 151.537 39.7343C151.3 39.1174 151.206 38.4554 151.258 37.7969C151.355 36.5648 151.614 35.351 152.03 34.1873H152.034Z" fill="#1B1B1B"/>
</svg>
