<svg width="147" height="40" viewBox="0 0 147 40" fill="none" xmlns="http://www.w3.org/2000/svg">
<path fill-rule="evenodd" clip-rule="evenodd" d="M34.6207 2.51387C23.3219 -0.837957 11.2988 -0.837957 0 2.51387V20.65V21.8639C0 29.5097 6.60907 36.4308 17.3103 40C27.9935 36.4308 34.6207 29.401 34.6207 21.8639V20.65V2.51387ZM24.7342 26.4477C23.5133 27.3405 22.1976 27.5292 21.4657 27.6342C21.351 27.6506 21.2506 27.665 21.1671 27.6798C21.0493 27.6798 20.8774 27.6948 20.6736 27.7125L20.6736 27.7126C20.3764 27.7385 20.0113 27.7704 19.6461 27.7704V31.6476H17.3103V27.8791H15.4815V31.6476H13.1276V27.8791H8.54652L9.05352 25.0345H10.484C10.991 25.0345 11.1901 25.0345 11.4074 24.8171C11.6066 24.6178 11.6066 24.3098 11.6066 24.1105V14.3268C11.6066 13.7289 11.6066 13.5115 11.2988 13.2216C10.991 12.9136 10.3934 12.9136 9.97698 12.9136H8.54652V10.4677H13.1276V6.69913H15.4815V10.4677H17.3103V6.69913H19.6461V10.5583C21.3844 10.667 22.7062 10.975 23.8289 11.8809C25.2412 13.0042 25.2412 14.8341 25.1507 15.3595C25.1507 15.7581 24.9334 16.6821 24.535 17.1894C24.1186 17.7873 23.2132 18.3128 23.2132 18.3128C23.2132 18.3128 24.3359 18.5121 25.1507 19.1281C25.9655 19.726 26.563 20.7587 26.4725 22.3712C26.4725 23.9112 26.1647 25.5418 24.7342 26.4477ZM43.2213 28.8727C42.8048 28.8727 42.4246 28.8545 42.0625 28.8364C41.5917 28.8002 41.1571 28.7458 40.7225 28.6552C40.3966 28.5828 40.0526 28.4922 39.6904 28.3653C39.3283 28.2566 38.948 28.1117 38.5316 27.9486L42.4065 11.5518L45.8649 11.0445L44.4345 16.8423C44.8691 16.6974 45.2855 16.5887 45.702 16.5162C46.1909 16.4256 46.6798 16.3894 47.1324 16.4256C47.5489 16.4618 47.9291 16.5524 48.2732 16.6792C48.7077 16.8423 49.0699 17.0778 49.3777 17.3677C49.6312 17.6214 49.8485 17.9113 50.0296 18.2193C50.2468 18.6541 50.4098 19.1252 50.5366 19.6144C50.5841 19.8525 50.6178 20.0906 50.6498 20.3165L50.6633 20.4115C50.7176 20.8826 50.7176 21.3537 50.6814 21.8248C50.6452 22.3502 50.5547 22.8575 50.4098 23.3467C50.265 23.8721 50.0658 24.3975 49.8123 24.8686C49.6674 25.1766 49.4864 25.4665 49.2872 25.7564C49.0699 26.0644 48.8164 26.3724 48.5448 26.6441C48.237 26.9703 47.8929 27.2601 47.5308 27.5138C47.1143 27.8037 46.6798 28.0573 46.209 28.2566C45.7744 28.4378 45.3398 28.5828 44.8691 28.6734C44.3439 28.8002 43.7826 28.8727 43.2213 28.8727ZM44.0361 19.7049L42.497 25.9194L42.5874 25.9316C42.8218 25.9634 43.0326 25.9919 43.2575 25.9919C43.4205 25.9919 43.6016 25.9919 43.7645 25.9738C44.0542 25.9557 44.3077 25.9013 44.5612 25.8107C44.7966 25.7382 45.0139 25.6476 45.2131 25.5389C45.4485 25.4121 45.6658 25.2491 45.883 25.086C46.0822 24.9048 46.2814 24.7055 46.4444 24.5062C46.6254 24.2707 46.7884 24.017 46.9333 23.7453C47.0781 23.4735 47.2049 23.1836 47.2954 22.9118C47.3535 22.7228 47.4 22.5338 47.4441 22.3542L47.4442 22.3541C47.455 22.3099 47.4657 22.2663 47.4765 22.2233C47.5079 22.0187 47.5257 21.8005 47.5417 21.6041V21.6041L47.5417 21.604L47.5489 21.5167C47.5489 21.1906 47.5127 20.9189 47.4584 20.6652C47.3678 20.321 47.2411 20.0492 47.0781 19.8137C46.9514 19.6506 46.8246 19.5056 46.6617 19.3969C46.4263 19.2339 46.1728 19.1071 45.883 19.0527C45.5752 18.9983 45.2674 19.0346 44.9415 19.1252C44.6337 19.2339 44.3077 19.4151 44.0361 19.7049ZM51.1521 28.4559H54.52L57.3629 16.5343H54.013L51.1521 28.4559ZM54.3209 13.3818C54.3209 14.4688 55.0995 15.1211 56.1497 15.1211C57.3991 15.1211 58.4855 14.0159 58.4855 12.7658C58.4855 11.6787 57.7069 11.0445 56.6567 11.0445C55.4073 11.0445 54.3209 12.1316 54.3209 13.3818ZM60.6226 13.581L64.081 13.0737L63.2662 16.5343H67.0324L66.3263 19.2882H62.6687L61.6366 23.4735C61.546 23.872 61.3468 24.9048 61.546 25.3034C61.8176 25.865 62.4876 26.01 63.067 26.01C63.8289 26.01 64.3092 25.8609 65.0148 25.6419L65.1131 25.6114L65.3123 28.1479C64.5518 28.5284 62.8859 28.7639 62.053 28.7639C60.7674 28.7639 58.9205 28.3834 58.3773 27.0246C57.9065 25.8469 58.1057 24.2706 58.3773 23.0567L60.6226 13.581ZM71.3995 23.414C72.2545 23.8452 73.3515 24.3984 73.3515 25.104C73.3515 26.028 72.41 26.2273 71.3054 26.2273C70.0379 26.2454 68.5532 25.72 67.9556 25.3939L66.833 27.9485C68.3178 28.6914 69.549 28.9631 71.2149 28.9631C73.6593 28.9631 76.5021 27.9848 76.5021 25.104C76.5021 22.9609 74.8562 22.0904 73.5818 21.4165C72.7769 20.9908 72.1202 20.6435 72.1202 20.1034C72.1202 19.1794 73.3153 19.1794 73.9672 19.1794C74.6733 19.1794 76.0133 19.5055 76.6108 19.9041L77.7334 17.3495C76.5384 16.7697 75.3976 16.4436 74.0577 16.4436C71.4865 16.4436 68.8791 17.2951 68.8791 20.3027C68.8791 21.6435 69.6215 22.3138 70.6717 23.0204C70.8535 23.1387 71.1129 23.2695 71.3995 23.414ZM17.9619 18.2735C19.501 18.2011 21.4384 17.6575 21.4384 15.8276C21.4384 13.889 18.994 13.6897 17.5635 13.6897C16.8573 13.6897 16.0425 13.7803 16.0425 13.7803V18.3641C16.0425 18.3054 16.5065 18.3 17.0549 18.2935H17.055C17.3527 18.2901 17.6752 18.2863 17.9619 18.2735ZM16.1336 20.6108C16.1336 20.6108 17.6727 20.5202 18.7772 20.6108C20.4068 20.7557 22.5797 21.1906 22.6521 23.1654C22.7426 25.2309 20.3887 25.6114 18.7772 25.702C17.6727 25.7744 16.1336 25.702 16.1336 25.702V20.6108Z" fill="#F89C1C"/>
<path fill-rule="evenodd" clip-rule="evenodd" d="M118.964 28.7639C117.787 28.7639 116.429 28.3109 115.705 27.3326C114.455 25.6657 114.528 22.8574 115.288 21.0275C116.483 18.1649 118.982 16.4437 122.115 16.4437C122.381 16.4437 122.647 16.4686 122.9 16.4923C123.129 16.5138 123.347 16.5343 123.545 16.5343L124.758 11.4431L128.217 10.9358L125.265 23.3647C124.849 25.1765 125.066 26.481 125.573 28.2566L122.622 28.6552C122.463 28.3369 122.401 28.1254 122.322 27.8572C122.293 27.759 122.262 27.6532 122.223 27.5319C121.264 28.2566 120.159 28.7639 118.964 28.7639ZM122.93 19.2882H121.807C119.598 19.2882 118.24 21.7885 118.24 23.7633C118.24 24.9954 118.53 26.1187 119.978 26.1187C120.775 26.1187 121.282 25.7382 121.807 25.1947C121.807 24.7417 122.024 23.2741 122.115 22.8574L122.93 19.2882ZM86.8189 17.1034L86.6787 17.1502L83.8359 27.9486H87.2038L89.3404 18.7809C89.4917 18.7809 89.6702 18.7574 89.8616 18.7323C90.0826 18.7034 90.3207 18.6721 90.5536 18.6721C91.8754 18.6721 92.1289 20.0672 91.8754 21.1181L90.2458 28.1479H93.6137L95.1347 21.7341C95.3157 20.955 95.4425 20.1941 95.4425 19.3969C95.5723 19.3521 95.7099 19.2984 95.8519 19.243L95.8519 19.243C96.2844 19.0744 96.7582 18.8896 97.1808 18.8896C98.4845 18.8896 98.738 20.2484 98.5026 21.3355L96.8729 28.3472H100.223C100.336 27.8815 100.493 27.2863 100.668 26.6227L100.668 26.6225L100.668 26.6213L100.668 26.6212C101.222 24.5222 101.955 21.7399 102.052 20.2122C102.215 17.6394 100.694 16.2262 98.0861 16.2262C96.6557 16.2262 95.7322 16.6248 94.519 17.3495C93.7042 16.5342 92.491 16.2262 91.3684 16.2262C89.4468 16.2262 88.5208 16.5353 86.8189 17.1034ZM110.399 16.2262C106.252 16.2262 103.283 19.7773 103.283 23.7633C103.283 25.6113 104.478 27.3688 106.126 28.1479C107.429 28.7639 110.96 28.5827 112.246 27.9486L112.028 25.3033C111.051 25.7019 110.236 25.8106 109.186 25.8106C107.81 25.8106 106.995 25.5389 106.741 24.0713C107.755 24.0713 108.769 24.0713 109.693 23.872C112.01 23.3647 114.165 22.187 114.165 19.4875C114.165 17.3677 112.373 16.2262 110.399 16.2262ZM106.741 21.9334C107.14 20.339 108.099 18.9802 109.892 18.9802C110.707 18.9802 111.123 19.2882 111.123 19.9948C111.123 20.9913 109.783 21.5891 108.987 21.7341C108.48 21.8247 107.665 21.9334 106.741 21.9334ZM127.202 28.4558H130.57L133.413 16.5342H130.063L127.202 28.4558ZM130.353 13.3816C130.353 14.4687 131.15 15.121 132.2 15.121C133.449 15.121 134.536 14.0158 134.536 12.7656C134.536 11.6785 133.739 11.0444 132.707 11.0444C131.457 11.0444 130.353 12.1315 130.353 13.3816ZM144.513 23.3647C144.061 25.2128 144.314 26.481 144.821 28.2566L141.87 28.6552C141.697 28.3247 141.627 28.0968 141.534 27.7906L141.534 27.7903C141.509 27.7105 141.483 27.6254 141.453 27.5319C140.493 28.2747 139.534 28.6552 138.302 28.6552C133.993 28.6552 133.377 24.0351 134.645 20.8101C135.985 17.3677 138.447 16.1356 142.069 16.1356C143.445 16.1356 144.767 16.5342 146.034 17.0415L144.513 23.3647ZM142.177 19.1795C142.046 19.1795 141.888 19.1607 141.715 19.1403L141.715 19.1403C141.509 19.1158 141.282 19.0889 141.055 19.0889C138.846 19.0889 137.379 21.6798 137.379 23.6727C137.379 24.9048 137.669 26.01 139.117 26.01C139.914 26.01 140.421 25.6295 140.946 25.1041C140.946 24.633 141.109 23.1654 141.254 22.7487L142.177 19.1795ZM78.4404 26.7347C78.4404 27.8218 79.2371 28.4559 80.2692 28.4559C81.5186 28.4559 82.6232 27.3507 82.6232 26.1187C82.6232 25.0316 81.8264 24.3793 80.7762 24.3793C79.545 24.3793 78.4404 25.4845 78.4404 26.7347Z" fill="#2A609F"/>
<path fill-rule="evenodd" clip-rule="evenodd" d="M16.9478 0.644842C18.686 0.84414 34.9643 3.70678 34.9643 24.1801C35.0729 23.6728 35.0729 23.0568 35.0729 22.5495V21.3356V3.19948C29.2605 1.36956 23.0679 0.554252 16.9478 0.644842Z" fill="white" fill-opacity="0.301961"/>
</svg>
