<svg width="196" height="40" viewBox="0 0 196 40" fill="none" xmlns="http://www.w3.org/2000/svg">
<path fill-rule="evenodd" clip-rule="evenodd" d="M36.0583 20C36.0583 28.8311 28.8873 36 20.0292 36C11.171 36 4 28.8311 4 20C4 11.1689 11.171 4 20.0292 4C28.8873 4 36.0583 11.1689 36.0583 20ZM40.0583 20C40.0583 31.0457 31.091 40 20.0292 40C8.96736 40 0 31.0457 0 20C0 8.9543 8.96736 0 20.0292 0C31.091 0 40.0583 8.9543 40.0583 20ZM13.2367 8.62009C13.4466 8.97723 13.3271 9.43684 12.97 9.64666C10.4978 11.0991 8.76027 12.9513 8.07945 15.25H17.0266C17.9082 15.25 18.6375 15.9019 18.7589 16.75H21.3001C21.4214 15.9019 22.1508 15.25 23.0324 15.25H31.9795C31.2987 12.9513 29.5612 11.0991 27.089 9.64666C26.7318 9.43684 26.6124 8.97723 26.8222 8.62009C27.0321 8.26295 27.4917 8.14352 27.8488 8.35334C31.1104 10.2695 33.4444 12.9939 33.7616 16.6408C33.7857 16.7568 33.7985 16.8769 33.7985 17V17.5V21C33.7985 22.5188 32.5672 23.75 31.0485 23.75H26.0324C23.4091 23.75 21.2824 21.6234 21.2824 19V18.25H18.7766V19C18.7766 21.6234 16.6499 23.75 14.0266 23.75H9.01054C7.49175 23.75 6.26054 22.5188 6.26054 21V17.5V17C6.26054 16.8769 6.27325 16.7568 6.29742 16.6408C6.61457 12.9939 8.9486 10.2695 12.2102 8.35334C12.5673 8.14352 13.0269 8.26295 13.2367 8.62009ZM7.78195 16.8986C7.76773 17.0962 7.76054 17.2967 7.76054 17.5V21C7.76054 21.6904 8.32018 22.25 9.01054 22.25H14.0266C15.8215 22.25 17.2766 20.7949 17.2766 19V17.5V17C17.2766 16.8619 17.1646 16.75 17.0266 16.75H8.01053C7.90856 16.75 7.82084 16.8111 7.78195 16.8986ZM32.0485 16.75C32.1504 16.75 32.2381 16.8111 32.277 16.8986C32.2913 17.0962 32.2985 17.2967 32.2985 17.5V17.5017V21C32.2985 21.6904 31.7388 22.25 31.0485 22.25H26.0324C24.2375 22.25 22.7824 20.7949 22.7824 19V17C22.7824 16.8619 22.8943 16.75 23.0324 16.75H32.0485Z" fill="black"/>
<path d="M65.8931 22.0001H61.0923L56.7973 15.544H55.7856V22.0001H51.7598V6.005H55.7856V12.5255C56.4171 12.4968 56.8871 12.3572 57.1957 12.1065C57.5114 11.8559 57.8846 11.3045 58.3151 10.4522C58.4371 10.2016 58.5771 9.90442 58.7349 9.56067C58.8999 9.21692 59.0435 8.91614 59.1655 8.65832C59.6319 7.69153 60.1989 7.00403 60.8662 6.59582C61.5408 6.18046 62.427 5.97278 63.525 5.97278C63.8838 5.97278 64.1816 5.97994 64.4184 5.99426C64.6552 6.00142 64.8382 6.005 64.9674 6.005V9.43176H64.0416C63.5824 9.43176 63.1806 9.57499 62.8361 9.86145C62.4988 10.1407 62.1544 10.7029 61.8027 11.548C61.5229 12.2211 61.2573 12.7332 61.0061 13.0841C60.7621 13.4278 60.5326 13.6606 60.3172 13.7823L65.8931 22.0001ZM78.2611 9.93664L72.1578 26.4259H68.1105L69.9404 21.7101L65.5056 9.93664H69.4668L72.0072 17.4991L74.386 9.93664H78.2611ZM91.5333 15.8019C91.5333 17.7283 91.0417 19.2823 90.0586 20.464C89.0826 21.6456 87.877 22.2364 86.4418 22.2364C85.8391 22.2364 85.3152 22.1684 84.8703 22.0323C84.4254 21.8963 83.9517 21.685 83.4494 21.3985V26.4259H79.6819V9.93664H83.4494V11.1935C84.0019 10.7208 84.5653 10.3377 85.1393 10.044C85.7134 9.75045 86.3773 9.60364 87.1307 9.60364C88.5301 9.60364 89.6137 10.1586 90.3815 11.2687C91.1493 12.3787 91.5333 13.8897 91.5333 15.8019ZM87.6797 15.8771C87.6797 14.7026 87.4967 13.8504 87.1307 13.3204C86.772 12.7905 86.2086 12.5255 85.4408 12.5255C85.1035 12.5255 84.7662 12.5792 84.4289 12.6866C84.0988 12.794 83.7724 12.9552 83.4494 13.17V19.2394C83.6503 19.3253 83.8692 19.3862 84.106 19.422C84.35 19.4578 84.637 19.4757 84.9671 19.4757C85.8857 19.4757 86.5675 19.1785 87.0124 18.5841C87.4573 17.9825 87.6797 17.0802 87.6797 15.8771ZM99.4987 22.3224C98.5013 22.3224 97.5863 22.197 96.7538 21.9464C95.9286 21.6957 95.211 21.309 94.601 20.7862C93.9982 20.2634 93.5282 19.6082 93.191 18.8204C92.8537 18.0255 92.685 17.0909 92.685 16.0167C92.685 14.8637 92.868 13.8826 93.2339 13.0733C93.6 12.2641 94.0951 11.5981 94.7195 11.0753C95.3222 10.574 96.029 10.2052 96.84 9.96887C97.6581 9.72538 98.5084 9.60364 99.3911 9.60364C100.058 9.60364 100.726 9.68241 101.394 9.83996C102.061 9.99035 102.731 10.2338 103.406 10.5704V13.7931H102.922C102.771 13.6498 102.584 13.4923 102.362 13.3204C102.146 13.1485 101.91 12.991 101.651 12.8478C101.379 12.6974 101.07 12.572 100.726 12.4718C100.382 12.3644 99.9974 12.3106 99.5741 12.3106C98.6125 12.3106 97.8662 12.6472 97.3351 13.3204C96.8112 13.9864 96.5493 14.8852 96.5493 16.0167C96.5493 17.227 96.8292 18.1293 97.3889 18.7237C97.9559 19.3181 98.7058 19.6153 99.6386 19.6153C100.112 19.6153 100.529 19.5616 100.888 19.4542C101.246 19.3468 101.555 19.2179 101.813 19.0675C102.064 18.9171 102.279 18.7631 102.459 18.6056C102.638 18.4409 102.793 18.294 102.922 18.1651H103.406V21.3878C103.19 21.4809 102.94 21.5883 102.652 21.7101C102.373 21.8318 102.086 21.9321 101.792 22.0108C101.426 22.1111 101.081 22.1863 100.758 22.2364C100.443 22.2937 100.023 22.3224 99.4987 22.3224Z" fill="#0078D7"/>
<path d="M117.745 13.7715C117.745 16.4642 117.023 18.5625 115.581 20.0664C114.145 21.5632 112.201 22.3115 109.746 22.3115C108.599 22.3115 107.533 22.1647 106.55 21.8711C105.574 21.5775 104.842 21.3125 104.354 21.0762V17.4561H104.731C104.868 17.5778 105.097 17.7676 105.42 18.0254C105.75 18.276 106.073 18.4837 106.389 18.6484C106.804 18.8633 107.249 19.0387 107.723 19.1748C108.204 19.3109 108.731 19.3789 109.306 19.3789C109.758 19.3789 110.231 19.3145 110.726 19.1855C111.221 19.0566 111.677 18.8311 112.093 18.5088C112.524 18.1722 112.887 17.7425 113.18 17.2197C113.482 16.6969 113.672 16.013 113.752 15.168H107.368V12.1172H113.665C113.557 11.487 113.371 10.9535 113.105 10.5166C112.84 10.0726 112.51 9.70736 112.115 9.4209C111.728 9.1416 111.312 8.94108 110.867 8.81934C110.429 8.69043 109.98 8.62598 109.521 8.62598C108.968 8.62598 108.459 8.69759 107.992 8.84082C107.533 8.97689 107.099 9.15234 106.69 9.36719C106.295 9.58203 105.955 9.80762 105.667 10.0439C105.381 10.2731 105.154 10.4557 104.989 10.5918H104.569V6.93945C105.258 6.60286 106.062 6.31283 106.981 6.06934C107.899 5.81868 108.915 5.69336 110.027 5.69336C112.381 5.69336 114.254 6.42025 115.646 7.87402C117.045 9.32064 117.745 11.2865 117.745 13.7715ZM131.857 22H127.519L124.655 17.2197H123.687V22H119.919V9.93652H123.687V14.7812C124.218 14.7741 124.612 14.6989 124.87 14.5557C125.136 14.4053 125.423 14.015 125.732 13.3848C125.832 13.1699 125.94 12.9336 126.055 12.6758C126.169 12.418 126.273 12.1888 126.366 11.9883C126.747 11.1934 127.213 10.6491 127.766 10.3555C128.325 10.0618 129.004 9.91504 129.8 9.91504C130.08 9.91504 130.345 9.91862 130.597 9.92578C130.849 9.93294 131.028 9.93652 131.135 9.93652V13.1592H130.404C130.174 13.1592 129.966 13.2057 129.779 13.2988C129.6 13.3848 129.442 13.4958 129.305 13.6318C129.169 13.7751 129.065 13.9183 128.993 14.0615C128.929 14.2048 128.864 14.3444 128.799 14.4805C128.634 14.8672 128.513 15.1429 128.434 15.3076C128.354 15.4723 128.214 15.6335 128.014 15.791L131.857 22ZM139.154 22.3223C138.157 22.3223 137.243 22.1969 136.41 21.9463C135.584 21.6956 134.867 21.3089 134.256 20.7861C133.654 20.2633 133.184 19.6081 132.847 18.8203C132.51 18.0254 132.341 17.0908 132.341 16.0166C132.341 14.8636 132.524 13.8825 132.89 13.0732C133.255 12.264 133.751 11.598 134.376 11.0752C134.978 10.5739 135.685 10.2051 136.496 9.96875C137.314 9.72526 138.164 9.60352 139.047 9.60352C139.715 9.60352 140.382 9.68229 141.049 9.83984C141.717 9.99023 142.387 10.2337 143.062 10.5703V13.793H142.577C142.427 13.6497 142.241 13.4922 142.018 13.3203C141.803 13.1484 141.565 12.9909 141.308 12.8477C141.034 12.6973 140.726 12.5719 140.382 12.4717C140.037 12.3643 139.653 12.3105 139.23 12.3105C138.269 12.3105 137.522 12.6471 136.991 13.3203C136.467 13.9863 136.205 14.8851 136.205 16.0166C136.205 17.2269 136.485 18.1292 137.045 18.7236C137.611 19.318 138.362 19.6152 139.295 19.6152C139.768 19.6152 140.185 19.5615 140.543 19.4541C140.902 19.3467 141.211 19.2178 141.469 19.0674C141.72 18.917 141.935 18.763 142.114 18.6055C142.294 18.4408 142.448 18.2939 142.577 18.165H143.062V21.3877C142.847 21.4808 142.595 21.5882 142.309 21.71C142.028 21.8317 141.742 21.932 141.447 22.0107C141.081 22.111 140.737 22.1862 140.414 22.2363C140.098 22.2936 139.679 22.3223 139.154 22.3223ZM156.215 22H152.449V12.6006H148.616V22H144.849V9.93652H156.215V22ZM165.29 22.3223C163.008 22.3223 161.257 21.778 160.037 20.6895C158.825 19.6009 158.218 18.0505 158.218 16.0381C158.218 14.0687 158.784 12.4967 159.919 11.3223C161.052 10.1478 162.638 9.56055 164.676 9.56055C166.528 9.56055 167.92 10.0583 168.853 11.0537C169.786 12.0492 170.252 13.4743 170.252 15.3291V16.6826H161.996C162.032 17.2412 162.15 17.7103 162.352 18.0898C162.552 18.4622 162.818 18.7594 163.147 18.9814C163.471 19.2035 163.848 19.3646 164.278 19.4648C164.709 19.5579 165.179 19.6045 165.689 19.6045C166.125 19.6045 166.556 19.5579 166.98 19.4648C167.403 19.3646 167.791 19.2357 168.143 19.0781C168.451 18.9421 168.735 18.7952 168.992 18.6377C169.258 18.4801 169.473 18.3405 169.639 18.2188H170.036V21.3232C169.729 21.445 169.445 21.5596 169.187 21.667C168.935 21.7673 168.587 21.8711 168.143 21.9785C167.734 22.0859 167.31 22.1683 166.872 22.2256C166.442 22.29 165.914 22.3223 165.29 22.3223ZM166.538 14.416C166.517 13.6211 166.331 13.016 165.979 12.6006C165.634 12.1852 165.103 11.9775 164.386 11.9775C163.653 11.9775 163.079 12.196 162.663 12.6328C162.255 13.0697 162.028 13.6641 161.985 14.416H166.538ZM184.041 15.8018C184.041 17.7282 183.549 19.2822 182.566 20.4639C181.59 21.6455 180.385 22.2363 178.95 22.2363C178.346 22.2363 177.823 22.1683 177.378 22.0322C176.933 21.8962 176.46 21.6849 175.958 21.3984V26.4258H172.19V9.93652H175.958V11.1934C176.51 10.7207 177.073 10.3376 177.647 10.0439C178.221 9.75033 178.885 9.60352 179.638 9.60352C181.038 9.60352 182.121 10.1585 182.89 11.2686C183.657 12.3786 184.041 13.8896 184.041 15.8018ZM180.187 15.877C180.187 14.7025 180.005 13.8503 179.638 13.3203C179.279 12.7904 178.716 12.5254 177.949 12.5254C177.611 12.5254 177.274 12.5791 176.936 12.6865C176.607 12.7939 176.28 12.9551 175.958 13.1699V19.2393C176.158 19.3252 176.377 19.3861 176.614 19.4219C176.857 19.4577 177.145 19.4756 177.475 19.4756C178.393 19.4756 179.075 19.1784 179.52 18.584C179.965 17.9824 180.187 17.0801 180.187 15.877ZM196 12.5576H192.254V22H188.487V12.5576H184.74V9.93652H196V12.5576Z" fill="#404040"/>
<path d="M58.3862 38.0001H56.1903V34.1329H53.2018V38.0001H51.0059V29.2755H53.2018V32.4689H56.1903V29.2755H58.3862V38.0001ZM63.7174 36.2833V34.9122C63.369 34.9474 63.0872 34.9786 62.8719 35.006C62.6566 35.0294 62.4453 35.0782 62.2378 35.1524C62.0577 35.2149 61.9168 35.3106 61.8151 35.4396C61.7172 35.5646 61.6683 35.7325 61.6683 35.9435C61.6683 36.2521 61.7505 36.4649 61.9149 36.5821C62.0832 36.6954 62.3298 36.7521 62.6546 36.7521C62.8347 36.7521 63.0187 36.711 63.2065 36.629C63.3944 36.547 63.5647 36.4317 63.7174 36.2833ZM63.7174 37.3028C63.5765 37.42 63.4492 37.5255 63.3357 37.6192C63.2262 37.713 63.0774 37.8067 62.8895 37.9005C62.7055 37.9903 62.5255 38.0587 62.3494 38.1056C62.1771 38.1524 61.9345 38.1759 61.6213 38.1759C61.0381 38.1759 60.5527 37.9806 60.1652 37.5899C59.7817 37.1993 59.5899 36.7071 59.5899 36.1134C59.5899 35.6251 59.6877 35.2306 59.8834 34.9298C60.0791 34.629 60.3609 34.3907 60.7289 34.2149C61.1007 34.0353 61.545 33.9103 62.0616 33.8399C62.5784 33.7696 63.1342 33.7149 63.7291 33.6759V33.6407C63.7291 33.2774 63.594 33.0274 63.324 32.8907C63.0578 32.7501 62.6566 32.6798 62.1203 32.6798C61.8777 32.6798 61.594 32.7247 61.269 32.8146C60.9441 32.9005 60.6271 33.0118 60.3179 33.1485H60.1417V31.5606C60.3453 31.5021 60.6741 31.4337 61.1281 31.3556C61.5821 31.2735 62.0402 31.2325 62.502 31.2325C63.6371 31.2325 64.463 31.422 64.9798 31.8009C65.5003 32.1759 65.7607 32.7501 65.7607 33.5235V38.0001H63.7174V37.3028ZM74.0157 39.629H72.1898V37.9767H68.3734V39.629H66.5474V36.5235H67.0229C67.3204 35.9063 67.5572 35.1524 67.7334 34.2618C67.9134 33.3712 68.0034 32.4239 68.0034 31.42H73.364V36.5235H74.0157V39.629ZM71.3208 36.5235V32.8673H69.8705C69.804 33.5978 69.6905 34.2755 69.53 34.9005C69.3734 35.5216 69.1836 36.0626 68.9605 36.5235H71.3208ZM78.4427 38.1759C77.198 38.1759 76.2429 37.879 75.5775 37.2853C74.916 36.6915 74.5853 35.8458 74.5853 34.7481C74.5853 33.6739 74.8945 32.8165 75.5129 32.1759C76.1314 31.5353 76.9964 31.2149 78.108 31.2149C79.1179 31.2149 79.8772 31.4864 80.3862 32.0294C80.895 32.5724 81.1494 33.3497 81.1494 34.3614V35.0997H76.6461C76.6657 35.4044 76.7302 35.6603 76.8399 35.8673C76.9495 36.0704 77.0943 36.2325 77.2743 36.3536C77.4505 36.4747 77.6559 36.5626 77.8908 36.6173C78.1257 36.6681 78.3821 36.6935 78.66 36.6935C78.8988 36.6935 79.1336 36.6681 79.3645 36.6173C79.5955 36.5626 79.8068 36.4923 79.9986 36.4063C80.1669 36.3321 80.3216 36.2521 80.4624 36.1661C80.6073 36.0802 80.7247 36.004 80.8148 35.9376H81.032V37.631C80.8637 37.6974 80.709 37.7599 80.5682 37.8185C80.4312 37.8731 80.2413 37.9298 79.9986 37.9884C79.7755 38.047 79.5446 38.0919 79.3058 38.1231C79.071 38.1583 78.7832 38.1759 78.4427 38.1759ZM79.1238 33.8634C79.1121 33.4298 79.0103 33.0997 78.8185 32.8731C78.6306 32.6466 78.3409 32.5333 77.9495 32.5333C77.5503 32.5333 77.2372 32.6524 77.0101 32.8907C76.787 33.129 76.6637 33.4532 76.6402 33.8634H79.1238ZM92.0349 38.0001H89.7216L88.2655 35.4161H87.7664V38.0001H85.7232V35.4161H85.2241L83.7387 38.0001H81.4782L83.4217 34.6778C83.3355 34.6192 83.2591 34.5333 83.1926 34.42C83.13 34.3028 83.0634 34.1505 82.993 33.963C82.8952 33.6974 82.7836 33.504 82.6583 33.3829C82.5331 33.2618 82.3745 33.2013 82.1828 33.2013H81.7425V31.42C81.8129 31.42 81.9264 31.4181 82.0829 31.4142C82.2396 31.4103 82.4 31.4083 82.5644 31.4083C83.0067 31.4083 83.3766 31.4903 83.6741 31.6544C83.9716 31.8146 84.2123 32.1036 84.3963 32.5216C84.4354 32.6114 84.4843 32.7325 84.5431 32.8849C84.6057 33.0333 84.6624 33.1681 84.7133 33.2892C84.8621 33.6173 84.9932 33.8341 85.1067 33.9396C85.2242 34.045 85.4297 34.0978 85.7232 34.0978V31.42H87.7664V34.0978C88.06 34.0939 88.2636 34.0431 88.3771 33.9454C88.4905 33.8439 88.6237 33.6251 88.7763 33.2892C88.8155 33.1954 88.8663 33.0704 88.9289 32.9142C88.9955 32.754 89.0503 32.6231 89.0933 32.5216C89.2773 32.1075 89.52 31.8185 89.8214 31.6544C90.1228 31.4903 90.4907 31.4083 90.9252 31.4083C91.074 31.4083 91.2325 31.4103 91.4007 31.4142C91.573 31.4181 91.6885 31.42 91.7472 31.42V33.1778H91.3069C91.1307 33.1778 90.9781 33.2306 90.8489 33.336C90.7237 33.4415 90.6101 33.6192 90.5083 33.8692C90.4457 34.0372 90.3812 34.1876 90.3146 34.3204C90.252 34.4532 90.1697 34.5606 90.068 34.6427L92.0349 38.0001ZM99.0922 38.0001H97.0372V35.1817H94.9119V38.0001H92.8569V31.42H94.9119V33.6993H97.0372V31.42H99.0922V38.0001ZM106.531 35.7911C106.531 36.1271 106.465 36.4376 106.331 36.7228C106.198 37.004 106.025 37.2345 105.809 37.4142C105.543 37.629 105.267 37.7813 104.982 37.8712C104.699 37.9571 104.317 38.0001 103.836 38.0001H100.666V31.42H102.715V33.6407H103.842C104.316 33.6407 104.697 33.6739 104.987 33.7403C105.28 33.8067 105.559 33.9376 105.82 34.1329C106.052 34.3048 106.228 34.5372 106.349 34.8302C106.471 35.1231 106.531 35.4435 106.531 35.7911ZM104.271 36.3595C104.337 36.2735 104.382 36.1856 104.405 36.0958C104.43 36.0021 104.442 35.9063 104.442 35.8087C104.442 35.5274 104.357 35.3185 104.189 35.1817C104.021 35.045 103.777 34.9767 103.461 34.9767H102.715V36.67H103.461C103.672 36.67 103.844 36.6407 103.978 36.5821C104.11 36.5196 104.208 36.4454 104.271 36.3595ZM109.255 38.0001H107.2V31.42H109.255V38.0001ZM114.211 38.1759C112.966 38.1759 112.011 37.879 111.346 37.2853C110.684 36.6915 110.354 35.8458 110.354 34.7481C110.354 33.6739 110.663 32.8165 111.282 32.1759C111.9 31.5353 112.765 31.2149 113.877 31.2149C114.886 31.2149 115.645 31.4864 116.154 32.0294C116.663 32.5724 116.918 33.3497 116.918 34.3614V35.0997H112.415C112.434 35.4044 112.499 35.6603 112.608 35.8673C112.717 36.0704 112.863 36.2325 113.042 36.3536C113.218 36.4747 113.424 36.5626 113.659 36.6173C113.894 36.6681 114.15 36.6935 114.428 36.6935C114.667 36.6935 114.902 36.6681 115.132 36.6173C115.364 36.5626 115.575 36.4923 115.767 36.4063C115.935 36.3321 116.09 36.2521 116.231 36.1661C116.376 36.0802 116.493 36.004 116.583 35.9376H116.8V37.631C116.632 37.6974 116.477 37.7599 116.337 37.8185C116.2 37.8731 116.009 37.9298 115.767 37.9884C115.544 38.047 115.313 38.0919 115.074 38.1231C114.839 38.1583 114.551 38.1759 114.211 38.1759ZM114.892 33.8634C114.88 33.4298 114.779 33.0997 114.587 32.8731C114.399 32.6466 114.109 32.5333 113.717 32.5333C113.319 32.5333 113.005 32.6524 112.779 32.8907C112.555 33.129 112.432 33.4532 112.409 33.8634H114.892ZM127.826 34.713C127.826 35.795 127.53 36.6485 126.934 37.2735C126.343 37.8946 125.506 38.2052 124.421 38.2052C123.345 38.2052 122.507 37.8946 121.908 37.2735C121.313 36.6485 121.016 35.795 121.016 34.713C121.016 33.6192 121.313 32.7638 121.908 32.1466C122.507 31.5255 123.345 31.2149 124.421 31.2149C125.502 31.2149 126.339 31.5274 126.934 32.1524C127.53 32.7735 127.826 33.6271 127.826 34.713ZM125.719 34.7247C125.719 34.3341 125.686 34.0099 125.619 33.7521C125.557 33.4903 125.468 33.2813 125.355 33.1251C125.234 32.961 125.097 32.8478 124.943 32.7853C124.791 32.7189 124.617 32.6856 124.421 32.6856C124.237 32.6856 124.071 32.7149 123.922 32.7735C123.773 32.8282 123.637 32.9356 123.511 33.0958C123.394 33.2481 123.3 33.4571 123.23 33.7228C123.159 33.9884 123.124 34.3224 123.124 34.7247C123.124 35.1271 123.157 35.4532 123.224 35.7032C123.29 35.9493 123.376 36.1466 123.481 36.295C123.592 36.4474 123.729 36.5587 123.893 36.629C124.058 36.6993 124.239 36.7345 124.439 36.7345C124.604 36.7345 124.77 36.6993 124.938 36.629C125.11 36.5587 125.247 36.4532 125.349 36.3126C125.47 36.1446 125.563 35.9435 125.625 35.7091C125.688 35.4708 125.719 35.1427 125.719 34.7247ZM134.567 32.463C134.818 32.7169 135.015 33.0313 135.16 33.4063C135.304 33.7774 135.378 34.2403 135.378 34.795C135.378 35.8224 135.07 36.6485 134.456 37.2735C133.845 37.8946 133.019 38.2052 131.978 38.2052C130.834 38.2052 129.986 37.836 129.43 37.0978C128.873 36.3595 128.596 35.254 128.596 33.7813C128.596 33.5001 128.61 33.2149 128.637 32.9259C128.664 32.6329 128.727 32.2794 128.824 31.8653C128.907 31.5216 129.025 31.1798 129.177 30.8399C129.333 30.4962 129.52 30.2149 129.735 29.9962C129.978 29.7462 130.308 29.5313 130.727 29.3517C131.146 29.1681 131.733 29.0392 132.489 28.9649C132.844 28.9298 133.267 28.9005 133.756 28.8771C134.246 28.8536 134.635 28.838 134.925 28.8302V30.3712C134.678 30.3829 134.452 30.3946 134.244 30.4063C134.041 30.4142 133.805 30.4278 133.54 30.4474C133.376 30.4591 133.16 30.4786 132.894 30.506C132.627 30.5294 132.401 30.5587 132.212 30.5939C131.986 30.6407 131.774 30.713 131.579 30.8106C131.387 30.9083 131.228 31.0372 131.103 31.1974C131.009 31.3185 130.931 31.4806 130.868 31.6837C130.809 31.8829 130.766 32.129 130.739 32.422C131.029 32.2149 131.333 32.0489 131.655 31.9239C131.976 31.7989 132.322 31.7364 132.694 31.7364C133.062 31.7364 133.407 31.797 133.727 31.9181C134.048 32.0392 134.329 32.2208 134.567 32.463ZM132.846 36.3653C132.972 36.213 133.072 36.0274 133.146 35.8087C133.224 35.586 133.263 35.2716 133.263 34.8653C133.263 34.3927 133.142 34.0138 132.9 33.7286C132.657 33.4396 132.335 33.295 131.937 33.295C131.752 33.295 131.559 33.3185 131.355 33.3653C131.152 33.4122 130.939 33.4981 130.715 33.6231C130.715 33.6622 130.713 33.7189 130.709 33.7931C130.709 33.8634 130.709 33.9278 130.709 33.9864C130.709 34.5528 130.727 34.9825 130.762 35.2755C130.797 35.5685 130.875 35.8399 130.997 36.0899C131.099 36.3009 131.236 36.461 131.409 36.5704C131.58 36.6798 131.78 36.7345 132.007 36.7345C132.136 36.7345 132.279 36.7052 132.436 36.6466C132.596 36.588 132.733 36.4942 132.846 36.3653ZM143.996 38.0001H141.977V33.8692L140.638 36.6114H139.769L138.43 33.8692V38.0001H136.469V31.42H138.706L140.233 34.4669L141.76 31.42H143.996V38.0001ZM148.946 38.1759C147.701 38.1759 146.746 37.879 146.08 37.2853C145.419 36.6915 145.088 35.8458 145.088 34.7481C145.088 33.6739 145.398 32.8165 146.016 32.1759C146.635 31.5353 147.499 31.2149 148.612 31.2149C149.621 31.2149 150.38 31.4864 150.889 32.0294C151.398 32.5724 151.653 33.3497 151.653 34.3614V35.0997H147.15C147.169 35.4044 147.234 35.6603 147.343 35.8673C147.452 36.0704 147.598 36.2325 147.778 36.3536C147.953 36.4747 148.159 36.5626 148.394 36.6173C148.629 36.6681 148.885 36.6935 149.163 36.6935C149.402 36.6935 149.637 36.6681 149.867 36.6173C150.099 36.5626 150.31 36.4923 150.502 36.4063C150.67 36.3321 150.825 36.2521 150.965 36.1661C151.111 36.0802 151.228 36.004 151.318 35.9376H151.536V37.631C151.367 37.6974 151.212 37.7599 151.072 37.8185C150.934 37.8731 150.745 37.9298 150.502 37.9884C150.279 38.047 150.048 38.0919 149.809 38.1231C149.575 38.1583 149.286 38.1759 148.946 38.1759ZM149.627 33.8634C149.616 33.4298 149.513 33.0997 149.322 32.8731C149.134 32.6466 148.844 32.5333 148.452 32.5333C148.053 32.5333 147.74 32.6524 147.513 32.8907C147.29 33.129 147.167 33.4532 147.144 33.8634H149.627ZM158.945 38.0001H156.89V35.1817H154.764V38.0001H152.709V31.42H154.764V33.6993H156.89V31.42H158.945V38.0001ZM166.754 38.0001H164.698V35.1817H162.573V38.0001H160.518V31.42H162.573V33.6993H164.698V31.42H166.754V38.0001ZM174.592 38.0001H172.573V34.004L170.047 38.0001H168.327V31.42H170.347V34.9942L172.661 31.42H174.592V38.0001ZM182.683 38.0001H180.316L178.755 35.3927H178.226V38.0001H176.171V31.42H178.226V34.0626C178.516 34.0587 178.731 34.0177 178.872 33.9396C179.017 33.8575 179.174 33.6446 179.342 33.3009C179.396 33.1837 179.456 33.0548 179.518 32.9142C179.581 32.7735 179.637 32.6485 179.688 32.5392C179.895 32.1056 180.15 31.8087 180.452 31.6485C180.757 31.4884 181.127 31.4083 181.561 31.4083C181.714 31.4083 181.858 31.4103 181.996 31.4142C182.133 31.4181 182.23 31.42 182.289 31.42V33.1778H181.891C181.765 33.1778 181.651 33.2032 181.55 33.254C181.452 33.3009 181.365 33.3614 181.291 33.4356C181.217 33.5138 181.16 33.5919 181.121 33.67C181.086 33.7481 181.051 33.8243 181.015 33.8985C180.926 34.1095 180.858 34.2599 180.815 34.3497C180.772 34.4396 180.696 34.5274 180.587 34.6134L182.683 38.0001ZM189.693 38.0001H187.673V34.004L185.148 38.0001H183.429V31.42H185.448V34.9942L187.761 31.42H189.693V38.0001Z" fill="#0078D7"/>
</svg>
