<svg width="177" height="40" viewBox="0 0 177 40" fill="none" xmlns="http://www.w3.org/2000/svg">
<path d="M72.216 40H4.30464C1.92576 40 0 37.9157 0 35.341V4.659C0 2.08429 1.92576 0 4.30464 0H72.216V40Z" fill="url(#paint0_linear)"/>
<path d="M172.695 40H72.2158V0H172.695C175.074 0 177 2.08429 177 4.659V35.3563C177 37.9157 175.074 40 172.695 40Z" fill="url(#paint1_linear)"/>
<path d="M22.0614 24.2606C22.0614 25.7778 21.8631 26.9886 21.4808 27.8928C21.0985 28.797 20.5887 29.4866 19.9799 29.9464C19.371 30.4215 18.6913 30.728 17.9408 30.8813C17.1903 31.0345 16.454 31.1112 15.7319 31.1112H8.55273V9.05752H16.454C17.4735 9.05752 18.2948 9.24143 18.9462 9.60925C19.5975 9.97707 20.1073 10.4522 20.4896 11.0499C20.8719 11.6476 21.1268 12.3066 21.2684 13.0269C21.41 13.7472 21.4667 14.4675 21.4525 15.1571C21.4242 17.1648 20.9569 18.5288 20.0507 19.2491C20.6454 19.5556 21.1268 20.1073 21.5091 20.9043C21.8773 21.7165 22.0614 22.8353 22.0614 24.2606ZM17.6435 15.2338C17.6435 14.5441 17.5727 14.023 17.4169 13.6859C17.2611 13.3487 16.9638 13.1801 16.5107 13.1801H12.4184V17.5786H16.1425C16.7231 17.5786 17.1054 17.364 17.3178 16.9502C17.5302 16.5211 17.6435 15.9388 17.6435 15.2338ZM18.1815 24.2912C18.1815 23.6782 18.1391 23.1878 18.0399 22.8353C17.955 22.4828 17.8275 22.1916 17.6859 21.9924C17.5443 21.7932 17.3886 21.6552 17.2045 21.5939C17.0346 21.5326 16.8647 21.502 16.6947 21.502H12.4184V26.7893H16.3691C17.0487 26.7893 17.5302 26.5901 17.7851 26.207C18.0541 25.8085 18.1815 25.1801 18.1815 24.2912ZM37.5524 31.1112H24.6102V9.05752H37.3259V13.3334H28.4617V17.3947H36.6179V21.6706H28.4617V26.8047H37.5524V31.1112ZM52.5337 24.5978C52.5337 29.2414 50.2256 31.5709 45.6095 31.5709C43.3722 31.5709 41.6588 30.8813 40.4835 29.5173C39.3083 28.138 38.7277 26.023 38.7277 23.1571H42.4801C42.5084 23.7855 42.5792 24.3832 42.6783 24.9043C42.7775 25.4407 42.9615 25.8851 43.2164 26.2683C43.4713 26.6514 43.797 26.9426 44.2076 27.1571C44.6183 27.3717 45.1422 27.479 45.7794 27.479C46.8272 27.479 47.5777 27.2644 48.045 26.8506C48.5123 26.4368 48.753 25.6093 48.753 24.4138C48.753 23.7855 48.6539 23.3257 48.4698 23.0499C48.2857 22.774 47.9883 22.5594 47.5919 22.3909C47.1387 22.207 46.5865 22.069 45.9493 21.9617C45.3121 21.8545 44.5758 21.6859 43.7545 21.4407C43.1173 21.2414 42.5226 21.0115 41.9845 20.751C41.4464 20.4905 40.965 20.138 40.5543 19.6629C40.1437 19.1878 39.8322 18.5748 39.6056 17.8238C39.3791 17.0729 39.2658 16.0767 39.2658 14.8506C39.2658 13.9464 39.3649 13.1648 39.5773 12.5058C39.7755 11.8468 40.0587 11.2797 40.3986 10.82C40.7384 10.3602 41.1349 9.99239 41.5739 9.7012C42.027 9.41002 42.4801 9.19546 42.9474 9.0422C43.4147 8.88894 43.8819 8.78166 44.3492 8.73569C44.8165 8.68971 45.2555 8.65906 45.6378 8.65906C46.9688 8.65906 48.0591 8.88894 48.8804 9.33339C49.7159 9.77783 50.3531 10.3755 50.8203 11.0805C51.2876 11.8008 51.5991 12.6131 51.7549 13.502C51.9107 14.4062 51.9956 15.2951 51.9956 16.1686H48.314C48.2574 15.8008 48.2149 15.387 48.1724 14.9426C48.1441 14.4981 48.045 14.0997 47.9034 13.7778C47.7759 13.4866 47.5635 13.2261 47.2379 12.9962C46.9122 12.7663 46.4024 12.6437 45.7086 12.6437C45.1705 12.6437 44.7174 12.6897 44.3634 12.797C44.0094 12.9043 43.7403 13.0575 43.5421 13.2568C43.3439 13.456 43.2023 13.7319 43.1315 14.0537C43.0607 14.3755 43.0182 14.774 43.0182 15.2184C43.0182 15.7548 43.1315 16.138 43.3439 16.3679C43.5563 16.5978 43.9669 16.797 44.5616 16.9656C45.1847 17.1495 45.8077 17.3027 46.4449 17.4253C47.0821 17.5479 47.691 17.7012 48.2857 17.8698C48.8804 18.0384 49.4327 18.2683 49.9424 18.5594C50.4522 18.8506 50.9053 19.2338 51.2876 19.7395C51.6699 20.2453 51.9815 20.8889 52.1939 21.6706C52.4346 22.4522 52.5337 23.433 52.5337 24.5978ZM66.5946 13.3181H61.9359V31.1112H58.0703V13.3181H53.4116V9.05752H66.5804V13.3181H66.5946Z" fill="white"/>
<path d="M91.5731 23.0037C91.4881 24.1531 91.304 25.2413 91.0208 26.2834C90.7376 27.3256 90.327 28.2298 89.7889 28.9961C89.2508 29.7777 88.5428 30.3907 87.6791 30.8505C86.8153 31.3102 85.7675 31.5401 84.5356 31.5401C83.1196 31.5401 81.916 31.2796 80.9248 30.7585C79.9336 30.2374 79.1406 29.4712 78.5176 28.4903C77.9087 27.4941 77.4556 26.2681 77.1865 24.8121C76.9033 23.3562 76.7617 21.701 76.7617 19.8313C76.7617 18.1148 76.9175 16.5516 77.2148 15.1723C77.5122 13.793 77.9795 12.6129 78.6167 11.6321C79.2539 10.6666 80.061 9.9156 81.0239 9.39452C82.0009 8.87345 83.162 8.61292 84.5072 8.61292C85.8666 8.61292 86.9711 8.8428 87.8348 9.30257C88.6986 9.76234 89.3783 10.36 89.9022 11.0957C90.412 11.8313 90.7801 12.6742 91.0067 13.6091C91.2332 14.5439 91.389 15.4941 91.4881 16.429H87.8348C87.7499 15.9386 87.6508 15.4635 87.5375 15.019C87.4384 14.5746 87.2684 14.1761 87.056 13.8543C86.8436 13.5325 86.5463 13.2719 86.1781 13.0727C85.81 12.8735 85.3144 12.7815 84.6913 12.7815C83.9408 12.7815 83.3036 12.9194 82.7939 13.18C82.2841 13.4405 81.8593 13.8696 81.5478 14.4673C81.2363 15.065 81.0097 15.8466 80.8681 16.8121C80.7265 17.7777 80.6699 18.9731 80.6699 20.3984C80.6699 21.839 80.769 22.9884 80.9531 23.8926C81.1372 24.7815 81.4062 25.4865 81.746 25.9769C82.0859 26.4826 82.4965 26.8198 82.9921 27.0037C83.4877 27.1876 84.0258 27.2796 84.6347 27.2796C85.2577 27.2796 85.7392 27.1723 86.1073 26.9731C86.4755 26.7738 86.7587 26.4826 86.9711 26.0995C87.1835 25.7164 87.3534 25.2719 87.4667 24.7508C87.5941 24.2298 87.7074 23.6474 87.8348 22.9884H91.5731V23.0037ZM107.078 31.111H103.227V21.5938H97.4212V31.111H93.5696V9.05736H97.4212V17.2872H103.227V9.05736H107.078V31.111ZM123.32 31.111H119.284L118.222 26.5593H113.096L112.048 31.111H108.154L113.733 9.05736H117.557L123.32 31.111ZM117.259 22.452L115.673 15.3562L114.045 22.452H117.259ZM134.634 31.111L128.743 17.6857V31.111H124.892V9.05736H128.672L134.605 22.3907V9.05736H138.429V31.111H134.634ZM155.803 31.111H152.673V28.8734C152.447 29.4098 152.164 29.839 151.824 30.1761C151.484 30.5133 151.116 30.7738 150.719 30.9731C150.323 31.1723 149.898 31.2949 149.473 31.3715C149.049 31.4482 148.624 31.4788 148.213 31.4788C146.797 31.4788 145.608 31.1876 144.659 30.5899C143.71 29.9922 142.946 29.18 142.365 28.1378C141.784 27.0957 141.374 25.8543 141.133 24.429C140.892 23.0037 140.765 21.4712 140.765 19.8313C140.765 12.3524 143.356 8.61292 148.553 8.61292C149.841 8.61292 150.918 8.8428 151.81 9.28724C152.702 9.73169 153.424 10.3447 153.976 11.0803C154.528 11.8313 154.925 12.6895 155.166 13.6397C155.406 14.6053 155.534 15.6014 155.534 16.6129H151.597C151.597 16.1685 151.569 15.7087 151.512 15.2336C151.456 14.7585 151.328 14.3447 151.13 13.9769C150.932 13.6091 150.62 13.3026 150.21 13.0727C149.799 12.8428 149.247 12.7202 148.539 12.7202C147.831 12.7202 147.222 12.8428 146.74 13.1033C146.245 13.3639 145.848 13.7623 145.537 14.3141C145.225 14.8658 144.999 15.5861 144.857 16.4597C144.716 17.3332 144.645 18.3907 144.645 19.6167C144.645 20.9654 144.701 22.1302 144.829 23.0957C144.956 24.0612 145.169 24.8428 145.48 25.4252C145.792 26.0229 146.202 26.452 146.712 26.7279C147.222 27.0037 147.873 27.1417 148.666 27.1417C149.119 27.1417 149.544 27.065 149.955 26.9118C150.365 26.7585 150.719 26.5133 151.017 26.1915C151.314 25.8696 151.555 25.4405 151.725 24.9348C151.895 24.429 151.965 23.816 151.951 23.0957H148.326V19.0344H155.831V31.111H155.803ZM171.138 31.111H158.224V9.05736H170.912V13.3332H162.076V17.3945H170.204V21.6704H162.076V26.8045H171.138V31.111Z" fill="#363636"/>
<defs>
<linearGradient id="paint0_linear" x1="36.1084" y1="40" x2="36.1084" y2="0" gradientUnits="userSpaceOnUse">
<stop stop-color="#1C1C1C"/>
<stop offset="1" stop-color="#4B4B4B"/>
</linearGradient>
<linearGradient id="paint1_linear" x1="124.608" y1="40" x2="124.608" y2="0" gradientUnits="userSpaceOnUse">
<stop stop-color="#BCBCBC"/>
<stop offset="1" stop-color="#F3F3F3"/>
</linearGradient>
</defs>
</svg>
