<svg width="111" height="70" fill="none" xmlns="http://www.w3.org/2000/svg"><path d="M101.536 70H0l9.297-30.503h101.597L101.536 70z" fill="#00ABC8"/><path d="M43.567 28.012V8.932h8.386v6.32h3.828v-6.32h8.385v19.08h-8.385v-6.32h-3.828v6.32h-8.386zM85.008 17.44l3.22-8.508h-8.202l-2.552 6.32h-1.459v-6.32H67.63v19.08h8.385v-6.32h2.005l2.553 6.32h8.324L85.008 17.44zm18.23-6.381c-2.552 0-4.253.972-5.469 2.248.061-1.64 1.216-3.342 2.856-4.01 2.796-1.215 6.077-.365 8.386-2.37V0s-1.945.79-5.59 1.215c-2.188.243-5.287.972-8.021 2.674-3.403 2.127-5.834 5.65-5.834 12.821 0 9.297 5.408 11.91 10.938 11.91 5.469 0 10.33-2.795 10.33-8.872.061-5.833-3.464-8.689-7.596-8.689zm-2.977 11.18c-2.005 0-2.492-1.58-2.492-2.795 0-1.215.487-2.795 2.492-2.795s2.43 1.52 2.43 2.795c0 1.216-.486 2.796-2.43 2.796zm-59.124-3.767c0-4.679-2.127-9.114-6.927-10.026-.121 0-.243-.06-.304-.06-.303-.061-.547-.061-.85-.061H31.9c-1.519.121-2.856.547-3.889 1.276-.729.486-1.337 1.033-1.762 1.64l-.73-2.309h-6.683v26.676h8.385v-8.75c.608.547 1.337.972 2.249 1.276.85.364 1.762.486 2.977.486 6.016.06 8.69-4.861 8.69-10.148zm-11.484 3.464c-1.155 0-2.127-.669-2.491-1.337v-4.193c.425-.668 1.336-1.336 2.49-1.336 2.006 0 2.918 1.762 2.918 3.463 0 .243 0 .425-.061.668-.182 1.398-1.094 2.735-2.856 2.735z" fill="#000"/></svg>