<svg width="20" height="20" viewBox="0 0 20 20" fill="none" xmlns="http://www.w3.org/2000/svg">
<g clip-path="url(#clip0)">
<path d="M10 20C15.5228 20 20 15.5228 20 10C20 4.47715 15.5228 0 10 0C4.47715 0 0 4.47715 0 10C0 15.5228 4.47715 20 10 20Z" fill="#245F34"/>
<path fill-rule="evenodd" clip-rule="evenodd" d="M9.01681 8.53459L9.38833 8.92169V4H9.81292V11.189L7 8.31339V4H7.42459V6.93089L7.79611 7.31799V4H8.2207V7.76039L8.59222 8.09219V4H9.01681V8.53459ZM13 10.7469L10.1871 13.6225V11.7423L13 8.92198V10.7469ZM10.1871 16L13 13.1244V11.2995L10.1871 14.1751V16ZM12.5754 6.93089L12.2039 7.31799V4H11.7793V7.76039L11.4078 8.09219V4H10.9832V8.53459L10.6117 8.92169V4H10.1871V11.189L13 8.31339V4H12.5754V6.93089ZM9.81292 13.6225L7 10.7469V8.92198L9.81292 11.7423V13.6225ZM7 13.1244L9.81292 16V14.1751L7 11.2995V13.1244Z" fill="#FFCB05"/>
</g>
<defs>
<clipPath id="clip0">
<rect width="20" height="20" fill="white"/>
</clipPath>
</defs>
</svg>
