<svg width="38" height="38" viewBox="0 0 38 38" fill="none" xmlns="http://www.w3.org/2000/svg">
<path d="M7.44775 10.9535L10.8991 17.1226V20.8855L7.45179 27.0425L7.44775 10.9535Z" fill="#5B57A2"/>
<path d="M20.6997 14.8779L23.9337 12.8957L30.5524 12.8896L20.6997 18.9254V14.8779Z" fill="#D90751"/>
<path d="M20.6814 10.9172L20.6997 19.0848L17.2402 16.9592V4.75L20.6814 10.9172Z" fill="#FAB718"/>
<path d="M30.5523 12.8894L23.9335 12.8955L20.6814 10.9172L17.2402 4.75L30.5523 12.8894Z" fill="#ED6F26"/>
<path d="M20.6997 27.0766V23.1139L17.2402 21.0287L17.2421 33.25L20.6997 27.0766Z" fill="#63B22F"/>
<path d="M23.9255 25.1125L10.8989 17.1226L7.44775 10.9535L30.5382 25.1045L23.9255 25.1125Z" fill="#1487C9"/>
<path d="M17.2422 33.2499L20.6992 27.0765L23.9252 25.1124L30.5379 25.1043L17.2422 33.2499Z" fill="#017F36"/>
<path d="M7.45166 27.0423L17.2682 21.0288L13.9679 19.0039L10.899 20.8854L7.45166 27.0423Z" fill="#984995"/>
</svg>
