<svg width="154" height="40" viewBox="0 0 154 40" fill="none" xmlns="http://www.w3.org/2000/svg">
<rect width="154" height="40" rx="4" fill="#2A609F"/>
<path fill-rule="evenodd" clip-rule="evenodd" d="M30.1131 31.4831L26.683 25.9188C26.5641 25.7251 26.4147 25.5621 26.2476 25.4316C25.779 25.0622 25.1636 24.948 24.5983 25.1331L23.8335 23.8919L23.5831 23.4859L23.2673 22.9749L22.9031 22.3836C23.1866 22.1389 23.454 21.8813 23.7062 21.6101C26.8995 18.1765 27.5344 12.7896 24.9472 8.59349C24.5812 7.99976 24.167 7.45806 23.7138 6.96845C22.9524 6.14526 22.0807 5.47391 21.1393 4.95953C20.0154 4.34618 18.7931 3.95891 17.5394 3.81476C17.1565 3.77122 16.772 3.74991 16.3867 3.75076C14.5285 3.7576 12.6501 4.29756 10.9702 5.42103C7.95938 7.43502 6.31775 10.8336 6.32032 14.3037C6.32116 16.2504 6.84062 18.2192 7.92544 19.9782C10.0705 23.4603 13.8554 25.1817 17.553 24.7568C18.5843 24.6393 19.608 24.3542 20.5892 23.8936L20.9865 24.5384L22.3004 26.6694C21.7624 27.2913 21.6639 28.2339 22.1197 28.9717L26.0676 35.3755C26.4174 35.9429 27.0072 36.2516 27.6091 36.2507C27.9478 36.2507 28.289 36.1535 28.5954 35.9497L28.7227 35.8626L30.0801 34.9542C30.9306 34.3868 31.1768 33.2071 30.631 32.3225L30.1131 31.4831ZM9.15201 19.1584C6.64965 15.1004 7.66485 9.7408 11.3861 6.96245C11.5067 6.87291 11.6315 6.78333 11.758 6.69887C13.5422 5.50544 15.5878 5.08148 17.5377 5.34337C17.5725 5.34794 17.6069 5.3534 17.6415 5.35887C17.6651 5.36262 17.6888 5.36636 17.7126 5.36983C19.8966 5.71018 21.9448 6.91383 23.3513 8.86645C23.4728 9.03448 23.5907 9.20596 23.7019 9.38511C23.7078 9.39448 23.7146 9.40388 23.7206 9.41326C24.0423 9.93529 24.3046 10.4787 24.5125 11.034C24.9981 12.3366 25.1712 13.7118 25.06 15.0544C24.8367 17.7449 23.4643 20.3014 21.1147 21.8744C20.0001 22.6183 18.7846 23.0628 17.5538 23.2283C17.463 23.241 17.3721 23.2505 17.2804 23.2598C15.1974 23.4705 13.0906 22.8871 11.3776 21.604C10.5186 20.96 9.7581 20.1428 9.15201 19.1584ZM19.0561 7.30534L19.0562 7.3054L19.0563 7.30546C19.9171 7.84442 20.7779 8.38341 21.6357 8.92861C21.7647 9.01133 21.7986 9.13761 21.7164 9.2681C20.8081 10.7106 19.8642 12.1659 18.9142 13.5802C18.8499 13.6766 18.7691 13.756 18.641 13.7313C18.5273 13.7099 18.4661 13.6348 18.4373 13.4949C18.3986 13.3101 18.3543 13.1178 18.3093 12.9229C18.2149 12.5138 18.1177 12.0929 18.0654 11.7053C18.051 11.6055 17.9942 11.5645 17.9059 11.5705C14.5369 11.7607 10.6398 13.6827 10.3716 17.6099C10.3657 17.7047 10.3258 17.7823 10.2681 17.8378C10.1934 17.9102 10.0873 17.9418 9.98031 17.9069C9.83261 17.8582 9.79359 17.7167 9.7596 17.5852C8.4575 12.5225 12.3443 8.24445 17.1487 7.97491C17.2574 7.96895 17.2718 7.91691 17.2532 7.82648C17.2112 7.62499 17.1674 7.42387 17.1235 7.22286L17.1234 7.22267L17.1234 7.22247L17.1234 7.22237L17.1234 7.22227C17.0722 6.98775 17.021 6.75338 16.9731 6.51875C16.9485 6.40103 16.9637 6.27991 17.0672 6.21252C17.1607 6.15195 17.2591 6.17757 17.3566 6.23895C17.9221 6.59529 18.4884 6.94988 19.0547 7.30449L19.0549 7.30459L19.0561 7.30534ZM13.7409 21.4948C12.8623 20.9447 11.9839 20.3947 11.1084 19.8382C10.9794 19.7562 10.9455 19.63 11.0278 19.4986C11.936 18.0562 12.8799 16.6008 13.8306 15.1874C13.8951 15.0901 13.975 15.0108 14.1031 15.0355C14.2169 15.0568 14.2771 15.1319 14.3069 15.2718C14.3458 15.4579 14.3905 15.6516 14.4358 15.8481L14.4358 15.8481C14.53 16.2559 14.6268 16.6752 14.6795 17.0615C14.6931 17.1621 14.7491 17.2023 14.8382 17.1971C18.2072 17.006 22.1033 15.0841 22.3724 11.1568C22.3784 11.0621 22.4183 10.9844 22.476 10.929C22.5507 10.8565 22.656 10.8249 22.7638 10.8608C22.9115 10.9085 22.9505 11.0501 22.9844 11.1815C24.2866 16.2444 20.3998 20.5222 15.5962 20.7918C15.4867 20.7978 15.4723 20.8507 15.4909 20.9411C15.5321 21.1387 15.5752 21.3361 15.6183 21.5335C15.6704 21.7716 15.7224 22.0097 15.7711 22.248C15.7949 22.3656 15.7804 22.4869 15.6769 22.555C15.5843 22.6148 15.4841 22.5892 15.3874 22.5277C14.839 22.1823 14.2899 21.8385 13.7409 21.4948ZM98.6419 12.1107H92.3189V26.4784H98.6419V23.7955H95.0154V20.5327H98.1858V17.8499H95.0154V14.7943H98.6419V12.1107ZM37.2025 12.1107H30.8804V26.4784H37.2025V23.7955H33.5754V20.5327H36.7459V17.8499H33.5754V14.7943H37.2025V12.1107ZM41.0867 12.1107H37.9358L40.591 18.9852L37.7373 26.4784H40.8686L42.0782 22.2677H42.1571L43.3658 26.4784H46.5371L43.6044 18.9852L46.3385 12.1107H43.1672L42.2166 15.6609H42.0978L41.0867 12.1107ZM48.3706 13.0191C47.7824 13.7075 47.4887 14.6228 47.4887 15.765V22.969C47.4887 24.1812 47.7722 25.0888 48.3401 25.6944C48.9087 26.3001 49.8137 26.6029 51.0564 26.6029C52.1785 26.6029 53.0384 26.2557 53.6317 25.5605C54.2267 24.8652 54.5306 23.9465 54.5442 22.8043L51.8806 22.4324C51.8678 22.928 51.7787 23.3 51.614 23.5473C51.4502 23.7955 51.2363 23.9192 50.9731 23.9192C50.6311 23.9192 50.4138 23.8297 50.3221 23.6505C50.2296 23.4713 50.1837 23.2863 50.1837 23.0935V15.765C50.1837 15.6686 50.1965 15.5552 50.2227 15.4238C50.2491 15.2933 50.295 15.173 50.3602 15.063C50.4256 14.9529 50.514 14.86 50.6251 14.784C50.7355 14.709 50.8824 14.6706 51.0665 14.6706C51.3407 14.6706 51.5597 14.8121 51.7226 15.0937C51.8856 15.3761 51.9748 15.731 51.9875 16.1566L54.5841 15.6823C54.5968 15.6132 54.6036 15.5484 54.6036 15.4861V15.2898C54.6036 14.3132 54.3159 13.5182 53.7412 12.9057C53.1666 12.2931 52.2779 11.9869 51.0759 11.9869C49.8595 11.9869 48.958 12.3307 48.3706 13.0191ZM58.7655 12.1107H56.0704V26.4784H58.7655V20.5327H60.4895V26.4784H63.1854V12.1107H60.4895V17.8081H58.7655V12.1107ZM70.2417 12.1107H66.9517L64.3346 26.4784H67.1884L67.6044 23.6719H69.6262L70.0422 26.4784H72.8774L70.2417 12.1107ZM68.6748 15.8264L68.9727 18.7379L69.2299 21.0283H67.9813L68.2597 18.7379L68.556 15.8264H68.6748ZM76.3644 12.1107H74.0063V26.4784H76.7022V19.5636H76.8015L77.748 22.2882L79.3675 26.4784H81.6569V12.1107H79.0203V18.9025H78.9219L77.9907 16.2811L76.3644 12.1107ZM84.5403 13.0191C83.9259 13.7075 83.6185 14.6228 83.6185 15.765V22.969C83.6185 24.1812 83.9029 25.0888 84.4708 25.6944C85.0383 26.3001 85.9436 26.6029 87.1865 26.6029C88.2967 26.6029 89.1542 26.2966 89.7624 25.6841C90.3705 25.0717 90.6746 24.1743 90.6746 22.9902V18.4692H87.0674V20.9259H87.9797V23.1344C87.9797 23.369 87.8952 23.5576 87.7279 23.7026C87.5582 23.8467 87.3466 23.9192 87.0892 23.9192C86.7521 23.9192 86.5399 23.8297 86.4495 23.6505C86.359 23.4713 86.3141 23.2863 86.3141 23.0935V15.765C86.3141 15.6686 86.3259 15.5552 86.3527 15.4238C86.3779 15.2933 86.4243 15.173 86.4888 15.063C86.5532 14.9529 86.6413 14.86 86.7505 14.784C86.8599 14.709 87.0055 14.6706 87.1865 14.6706C87.4576 14.6706 87.674 14.8121 87.8365 15.0937C87.9974 15.3761 88.0851 15.731 88.0979 16.1566L90.714 15.6823C90.7534 15.1594 90.71 14.6706 90.5861 14.2168C90.459 13.7621 90.2483 13.3696 89.9514 13.0396C89.6538 12.7095 89.2781 12.451 88.8212 12.265C88.3658 12.0799 87.8268 11.9869 87.205 11.9869C86.0435 11.9869 85.1547 12.3307 84.5403 13.0191ZM102.917 7.27734H143.563C145.898 7.27734 147.79 9.24788 147.79 11.6799V26.9092C147.79 29.3412 145.898 31.3126 143.563 31.3126H102.917V7.27734Z" fill="white"/>
<path d="M109.58 16.5702C109.606 16.7213 109.67 16.8655 109.776 17.0037C109.882 17.141 110.037 17.275 110.24 17.4063C110.443 17.5368 110.73 17.6776 111.098 17.8294C111.73 18.0904 112.231 18.366 112.598 18.6543C112.966 18.9443 113.246 19.2608 113.437 19.6046C113.627 19.9483 113.752 20.3373 113.811 20.7707C113.871 21.2041 113.901 21.6962 113.901 22.2473C113.901 22.9076 113.845 23.5063 113.732 24.0429C113.619 24.5795 113.427 25.0368 113.157 25.4155C112.886 25.795 112.519 26.0867 112.058 26.2933C111.595 26.4997 111.014 26.6029 110.312 26.6029C109.679 26.6029 109.134 26.5057 108.678 26.3112C108.222 26.1166 107.85 25.8505 107.568 25.5102C107.284 25.1715 107.076 24.7757 106.944 24.3261C106.812 23.8757 106.745 23.3963 106.745 22.8871L109.461 22.3496C109.487 22.8734 109.562 23.265 109.687 23.5268C109.81 23.7888 110.043 23.9184 110.381 23.9184C110.578 23.9184 110.731 23.8714 110.843 23.7751C110.953 23.6787 111.038 23.5549 111.097 23.404C111.156 23.253 111.195 23.0747 111.215 22.8683C111.234 22.6628 111.244 22.4554 111.244 22.2498C111.244 21.9615 111.224 21.721 111.185 21.5282C111.145 21.3362 111.076 21.1717 110.977 21.0343C110.879 20.8969 110.742 20.7766 110.57 20.6734C110.398 20.5702 110.186 20.4636 109.936 20.3543C109.262 20.0652 108.722 19.7658 108.311 19.457C107.902 19.1482 107.588 18.819 107.37 18.4683C107.151 18.1177 107.009 17.7467 106.944 17.3551C106.878 16.9644 106.845 16.5344 106.845 16.067C106.845 15.4767 106.91 14.9308 107.042 14.4292C107.175 13.9276 107.383 13.4985 107.667 13.1411C107.952 12.7837 108.321 12.503 108.777 12.2965C109.232 12.0901 109.785 11.9869 110.431 11.9869C111.119 11.9869 111.687 12.1004 112.135 12.3273C112.586 12.5542 112.939 12.8443 113.196 13.1948C113.454 13.5454 113.636 13.9344 113.742 14.3609C113.848 14.7874 113.901 15.2003 113.901 15.5995L111.244 16.1984C111.244 15.9911 111.234 15.7991 111.215 15.62C111.195 15.4418 111.153 15.2797 111.088 15.1355C111.022 14.9905 110.934 14.877 110.823 14.7952C110.713 14.7115 110.558 14.6706 110.363 14.6706C110.18 14.6706 110.035 14.7158 109.933 14.8045C109.828 14.8941 109.746 15.0041 109.687 15.1355C109.627 15.266 109.589 15.4135 109.57 15.5783C109.549 15.7437 109.54 15.9024 109.54 16.0534C109.54 16.2461 109.553 16.4185 109.58 16.5702ZM142.777 22.9697C142.777 24.2084 142.48 25.1237 141.884 25.7158C141.291 26.3069 140.412 26.6029 139.249 26.6029C136.91 26.6029 135.741 25.3924 135.741 22.9697V15.5995C135.741 14.3609 136.051 13.449 136.672 12.8638C137.293 12.2786 138.152 11.9869 139.249 11.9869C140.45 11.9869 141.34 12.2786 141.915 12.8638C142.489 13.449 142.777 14.3609 142.777 15.5995V22.9697ZM139.249 14.6083C139.025 14.6083 138.832 14.6774 138.674 14.8156C138.516 14.9529 138.437 15.179 138.437 15.4964V23.0935C138.437 23.4236 138.516 23.654 138.674 23.7854C138.832 23.9158 139.025 23.9815 139.249 23.9815C139.473 23.9815 139.662 23.9158 139.813 23.7854C139.965 23.654 140.041 23.4236 140.041 23.0935V15.4964C140.041 15.179 139.965 14.9529 139.813 14.8156C139.662 14.6774 139.473 14.6083 139.249 14.6083ZM133.958 26.4784H131.262V19.7691H131.183L130.532 21.999L129.999 23.6719H128.203L127.633 21.8336L127 19.7078H126.902V26.4784H124.206V12.1107H126.724L128.091 15.9501L129.023 18.7994H129.142L130.092 15.8887L131.441 12.1107H133.958V26.4784ZM122.442 22.9697C122.442 24.2084 122.146 25.1237 121.549 25.7158C120.957 26.3069 120.078 26.6029 118.915 26.6029C116.575 26.6029 115.407 25.3924 115.407 22.9697V12.1319H118.102V23.0321C118.102 23.3623 118.182 23.5926 118.341 23.7231C118.498 23.8536 118.69 23.9184 118.915 23.9184C119.139 23.9184 119.328 23.8536 119.48 23.7231C119.632 23.5926 119.706 23.3623 119.706 23.0321V12.1319H122.442V22.9697Z" fill="#2A609F"/>
</svg>
