<svg width="96" height="96" viewBox="0 0 96 96" fill="none" xmlns="http://www.w3.org/2000/svg">
<rect width="96" height="96" fill="#F4F5F8"/>
<path d="M55.6483 10.9615V30.3595H48.0334C38.3878 30.3595 30.6125 38.0279 30.6125 47.5131C30.6125 56.9984 38.3878 64.6667 48.0334 64.6667H55.6483V84.0648C73.0424 80.7783 86.0545 65.7355 86.0545 47.5131C86.0545 29.4511 73.0424 14.4083 55.6483 10.9615Z" fill="#00358E"/>
<path d="M48.0331 70.7588C35.021 70.7588 24.4669 60.3383 24.4669 47.5399C24.4669 34.7415 35.0477 24.3211 48.0331 24.3211H49.5027V10.1867H48.0598C27.1656 10.1867 10.1455 26.9396 10.1455 47.5132C10.1188 68.2472 27.1388 85 48.0331 85H49.5027V70.7588H48.0331Z" fill="#FF5E66"/>
</svg>
