<svg xmlns="http://www.w3.org/2000/svg" width="110mm" height="98mm" viewBox="0 0 110 98"><g stroke-width=".265"><path d="M-63.924 150.81a52.01 52.01 0 0 1 3.97.001c1.048.05.12.09-2.063.09-2.183 0-3.041-.041-1.907-.09zm116.008 0c1.055-.05 2.782-.05 3.837 0 1.055.05.191.092-1.919.092s-2.973-.041-1.918-.091zm17.714 0a69.114 69.114 0 0 1 4.498 0c1.28.049.304.089-2.17.089-2.473 0-3.521-.04-2.328-.088zm-117.294-36.845c0-1.819.043-2.563.094-1.653.052.91.052 2.398 0 3.307-.051.91-.094.165-.094-1.654zm102.304-30.81c-.645-.776-2.549-1.204-6.362-1.43-4.589-.27-5.966-.745-7.78-2.686-2.098-2.242-2.111-2.307-2.217-10.913l-.093-7.606h33.932l-.08 7.606c-.092 8.571-.18 9.01-2.208 11.039-.885.885-3.705 2.467-3.954 2.217-.052-.05.014-.688.145-1.416.46-2.545.443-2.513 1.272-2.348.871.174 2.265-.45 2.663-1.194.216-.403-.066-.976-1.523-3.097-2.504-3.646-2.448-3.622-8.398-3.663-4.64-.032-5.694-.175-4.902-.664.86-.532-.86-3.282-2.742-4.385-.638-.374-1.35-.972-1.585-1.33-.521-.795-1.024-.827-1.51-.094-.369.554-.373.554-2.954-.52-1.421-.592-2.498-.931-2.392-.754.106.177.84 1.128 1.63 2.112l1.439 1.79-.694 1.049c-.382.577-.695 1.276-.695 1.553 0 .746 1.193 1.43 2.134 1.223.668-.147.777-.092.777.389 0 .516-.1.546-1.297.387-1.114-.148-1.491-.066-2.67.575-1.755.955-2.383 1.758-2.383 3.045 0 1.336.756 2.931 1.306 2.758.324-.103.416.088.425.883.008.742.252 1.317.912 2.15l.901 1.138.769-.898c.966-1.129 1.535-2.399 1.236-2.76-.125-.15-.134-.423-.02-.607.164-.267.602-.245 2.152.107 1.9.433 1.954.43 2.374-.087.389-.48.574-.506 2-.275.864.14 2.248.188 3.075.106 1.5-.148 1.505-.147 2.336.903l.834 1.052-.562 1.688c-.552 1.66-.581 1.692-1.676 1.865-.612.096-1.557.468-2.1.825-1.16.765-1.11.756-1.515.267zm25.124-11.358c0-.055.208-.264.463-.463.42-.33.429-.32.1.1-.346.44-.563.58-.563.363zM38.389 51.325c-.003-6.332-.09-8.458-.394-9.59-.215-.801-.392-1.545-.394-1.654-.002-.11 2.6-.199 5.782-.199h5.784l1.029.82c.565.45 1.34.981 1.721 1.18.536.277.665.508.569 1.012-.2 1.041.411 2.449 1.464 3.373.536.47 1.168 1.288 1.405 1.818.237.53.862 1.318 1.39 1.752l.957.79-1.038 1.014-1.039 1.014-3.92-.19c-2.156-.105-4.04-.315-4.185-.467-.182-.19-.038-.236.461-.148.957.17 1.511-.437.764-.837-.29-.156-.775-.283-1.075-.283-.3 0-.545-.03-.542-.066.002-.036.358-1.257.789-2.712.431-1.455.787-2.918.79-3.25.003-.49-1.086-3.04-1.486-3.478-.057-.062-.692.533-1.412 1.323l-1.308 1.436-.012 3.125-.012 3.125-1.19-.178c-1.092-.164-1.19-.132-1.19.38 0 .308.167.56.373.56.303 0 .319.146.083.77-.341.904.04 2.508.795 3.34.26.286.619.85.798 1.255.416.937 1.015 1.166 1.619.62.632-.572.674-.569 6.692.504l5.234.934 2.541-1.85c3.002-2.183 3.445-2.173 3.45.077.002.868.177 1.625.484 2.089l.48.727H38.392l-.003-8.136zm13.43 2.14c.183-.073.48-.073.662 0 .182.074.033.134-.33.134-.364 0-.513-.06-.331-.134zm46.94-4.587c0-.364.06-.513.133-.33.074.181.074.479 0 .66-.073.183-.133.034-.133-.33zm-80.74-14.387c0-.055.208-.264.463-.463.42-.33.43-.32.1.1-.346.44-.563.58-.563.363zm5.556 0c0-.055.209-.264.463-.463.42-.33.43-.32.1.1-.345.44-.563.58-.563.363z" fill="#fae316"/><path d="M51.649 97.523c-2.232-.233-4.81-.788-6.198-1.335-.636-.25-.72-.396-.564-.982.34-1.282.273-1.372-1.468-1.99-.946-.337-2.952-1.186-4.458-1.888l-2.74-1.276 2.012-.766c1.106-.42 2.011-.907 2.011-1.08 0-.172-.222-1.115-.494-2.094-.271-.979-.465-1.78-.43-1.78.036 0 .95.404 2.032.897 2.043.93 7.577 2.807 8.28 2.807.268 0 .402.259.402.778 0 .723.087.791 1.256.974 1.66.26 6.487.264 8.07.007 1.168-.19 1.257-.259 1.257-.981 0-.52.134-.778.402-.778.716 0 6.291-1.885 8.3-2.807 1.076-.493 1.99-.897 2.03-.897.042 0-.168.898-.467 1.995-.298 1.097-.497 2.04-.443 2.094.055.054.971.444 2.036.867l1.937.768-2.68 1.26c-1.475.694-3.477 1.542-4.45 1.886-1.564.553-1.759.697-1.673 1.236.264 1.665.301 1.623-2.037 2.241-2.182.577-6.93 1.18-8.756 1.111-.52-.019-1.946-.14-3.167-.267zm8.703-1.303c3.31-.491 4.284-.794 4.093-1.269-.096-.238-.53-1.395-.962-2.57l-.788-2.14-1.899.386c-2.49.506-8.73.489-11.027-.03-.946-.213-1.742-.369-1.768-.345-.027.023-.464 1.19-.972 2.591l-.922 2.55 1.103.271c1.129.279 4.499.768 6.396.93 1.41.12 4.623-.059 6.746-.374zm-13.894-5.418c.4-1.099.65-2.076.553-2.173-.097-.096-1.034-.494-2.082-.884a78.59 78.59 0 0 1-2.899-1.139c-1.118-.483-1.134-.45-.623 1.251l.37 1.228-1.428.45c-.785.247-1.428.533-1.428.634 0 .31 5.68 2.548 6.645 2.618.09.007.491-.887.892-1.985zm19.998 1.575c1.929-.567 5.274-1.962 5.274-2.2 0-.106-.649-.396-1.44-.646l-1.441-.454.382-1.083c.612-1.735.545-1.888-.61-1.388a78.59 78.59 0 0 1-2.899 1.139c-1.049.39-1.973.775-2.054.856-.115.115 1.165 4.198 1.315 4.198.02 0 .683-.19 1.473-.422zm-11.91-7.104c-1.05-1.116-2.07-1.395-5.74-1.57-6.448-.305-9.623-2-11.544-6.163-.586-1.27-.59-1.389-.722-18.343l-.132-17.066-.75-1.72a403.24 403.24 0 0 1-.887-2.05c-.11-.26 1.268-.331 6.388-.331h6.527l-1.072-1.521c-1.39-1.972-2.582-2.773-4.336-2.914-1.65-.132-2.896.571-3.77 2.13-.636 1.134-.91 1.035-.91-.329 0-1.491 1.013-2.383 5.887-5.186 2.93-1.684 4.432-2.696 4.431-2.986 0-.241-.417-2.76-.925-5.598s-.924-5.517-.923-5.953c.001-1.573 1.585-3.126 4.216-4.138 2.063-.792 6.402-.981 8.748-.38 3.34.855 5.554 2.646 5.554 4.491 0 .452-.416 3.203-.925 6.113-.508 2.91-.925 5.424-.926 5.588 0 .163 1.933 1.413 4.297 2.778 2.364 1.364 4.628 2.779 5.032 3.142.893.806 1.275 2.012.92 2.913l-.258.66-.343-.794c-1.176-2.725-4.475-3.337-6.777-1.257-.586.529-1.418 1.475-1.85 2.101l-.783 1.14h6.523c6.112 0 6.511.03 6.326.463-.109.255-.508 1.237-.888 2.183l-.69 1.72-.133 16.933-.133 16.933-.697 1.487c-.901 1.923-2.24 3.387-3.945 4.315-1.948 1.06-3.664 1.45-7.131 1.619-4.24.206-4.54.275-5.754 1.314-.593.508-1.127.923-1.188.923-.06 0-.383-.291-.717-.647zm1.777-2.385c.543-.357 1.488-.729 2.1-.825 1.095-.173 1.124-.205 1.676-1.865l.562-1.688-.834-1.052c-.831-1.05-.835-1.051-2.336-.903-.827.082-2.211.034-3.075-.106-1.426-.23-1.611-.205-2 .275-.42.518-.473.52-2.374.087-1.55-.352-1.988-.374-2.152-.107-.114.184-.105.457.02.608.299.36-.27 1.63-1.236 2.759l-.769.898-.9-1.138c-.66-.833-.905-1.408-.913-2.15-.009-.795-.1-.986-.425-.883-.55.173-1.306-1.422-1.306-2.758 0-1.287.628-2.09 2.383-3.045 1.179-.641 1.556-.723 2.67-.575 1.198.159 1.297.13 1.297-.387 0-.481-.109-.536-.777-.389-.94.207-2.134-.477-2.134-1.223 0-.277.313-.976.695-1.553l.694-1.05-1.438-1.789c-.791-.984-1.525-1.935-1.63-2.112-.107-.177.97.162 2.391.754 2.581 1.074 2.585 1.074 2.953.52.487-.733.99-.701 1.511.095.234.357.947.955 1.585 1.329 1.883 1.103 3.602 3.853 2.742 4.385-.792.49.262.632 4.902.664 5.95.041 5.894.017 8.398 3.663 1.457 2.121 1.739 2.694 1.523 3.097-.398.743-1.792 1.368-2.663 1.194-.829-.165-.812-.197-1.272 2.348-.131.728-.197 1.365-.145 1.416.249.25 3.069-1.332 3.954-2.217 2.028-2.028 2.116-2.468 2.207-11.039l.081-7.606H38.356l.093 7.606c.106 8.606.12 8.671 2.217 10.913 1.814 1.94 3.191 2.416 7.78 2.687 3.813.225 5.717.653 6.362 1.43.405.488.355.497 1.515-.268zm6.264-2.723c.264-.837.527-1.645.584-1.796.058-.151-.463-.551-1.158-.888-1.131-.55-1.215-.56-.8-.102.586.649.58.973-.053 2.81l-.514 1.497h.73c.659 0 .78-.152 1.211-1.521zm2.662-.872c.458-2.358.458-2.401-.066-2.976-.773-.85-1.051-1.487-1.263-2.899-.16-1.065-.122-1.257.246-1.257.282 0 .747.69 1.337 1.983 1.021 2.241 1.766 2.824 2.93 2.294.792-.36.732-.527-1.144-3.17-1.418-1.997-2.051-2.454-3.403-2.457a823.48 823.48 0 0 1-5.027-.054c-4.602-.059-4.945-.2-5.239-2.162-.213-1.42-1.395-3.108-2.497-3.565-.454-.188-.831-.535-.839-.772-.01-.336-.103-.302-.423.155l-.41.587-1.296-.657c-.713-.362-1.296-.6-1.296-.53 0 .07.364.543.81 1.05.876.999.834 1.395-.257 2.381-.658.596-.7 1.026-.145 1.487.309.256.482.264.714.032.169-.168.761-.306 1.317-.306.975 0 1.003.025.807.728-.27.962-.251 3.781.028 4.364.2.417.097.445-1.064.288a37.46 37.46 0 0 0-1.666-.197c-.453-.028-2.399 3.182-2.39 3.944.003.292.223.814.49 1.16l.484.63.429-.612c.247-.354.365-.864.279-1.21-.203-.806.654-2.217 1.345-2.213.296.002 1.178.174 1.96.382 1.315.35 1.472.341 2.116-.118.612-.436.888-.464 2.283-.227 1.913.324 4.183.141 5.016-.405.565-.37.653-.351 1.23.263.342.364 1.263 1.029 2.048 1.477l1.425.816-.159 1.087a97.119 97.119 0 0 1-.33 2.08c-.16.928-.128.992.492.992.625 0 .69-.138 1.128-2.393zM48.975 66.488c0-.227.12-.412.265-.412.145 0 .265.112.265.249s-.12.322-.265.412c-.146.09-.265-.022-.265-.249zm-3.89 7.732c-.085-.448.096-.765.69-1.204.691-.512.956-.562 1.87-.357.957.215 1.066.188 1.066-.268 0-.57-.938-1.023-2.114-1.023-.97 0-3.016 1.536-3.134 2.353-.048.336-.016.898.072 1.249.154.61.194.621.914.249.573-.297.725-.535.637-.999zm19.08-15.486c-.306-.464-.481-1.22-.483-2.089-.005-2.25-.448-2.26-3.45-.076l-2.541 1.849-5.234-.934c-6.018-1.073-6.06-1.076-6.692-.504-.604.546-1.203.316-1.619-.62-.18-.404-.538-.97-.798-1.255-.754-.832-1.136-2.436-.795-3.34.236-.625.22-.77-.083-.77-.206 0-.374-.252-.374-.56 0-.512.099-.544 1.19-.38l1.191.178.012-3.125.012-3.125 1.308-1.436c.72-.79 1.355-1.385 1.412-1.323.4.439 1.489 2.987 1.485 3.478-.002.332-.358 1.795-.789 3.25a145.45 145.45 0 0 0-.79 2.712c-.002.036.242.066.543.066.3 0 .784.127 1.075.283.747.4.193 1.007-.764.837-.5-.088-.643-.042-.46.148.145.152 2.028.362 4.184.467l3.92.19 1.039-1.014 1.038-1.014-.958-.79c-.527-.434-1.152-1.223-1.389-1.752-.237-.53-.87-1.348-1.405-1.818-1.053-.925-1.664-2.332-1.464-3.373.096-.504-.033-.735-.569-1.013-.38-.198-1.156-.729-1.721-1.18l-1.029-.819h-5.784c-3.182 0-5.783.09-5.782.198.002.11.18.854.394 1.654.304 1.133.391 3.259.394 9.591l.003 8.136h26.255zm8.094-1.528c0-2.218-.013-2.26-.728-2.531-.942-.357-1.8-1.171-2.166-2.053-.16-.387-.73-.94-1.267-1.231-1.308-.709-2.029-1.969-1.776-3.104l.192-.864.456 1.058c.538 1.248 1.247 1.94 2.269 2.213.508.136.803.433.94.946.231.861 1.215 2 1.729 2 .28 0 .35-1.041.35-5.103 0-3.683.111-5.528.398-6.628.218-.838.396-1.637.396-1.775 0-.152-2.278-.252-5.719-.252h-5.72l-1.263.928c-1.839 1.35-2.914 1.718-5.016 1.718-1.854 0-1.86.003-1.86.728.002 1.034.854 2.299 1.82 2.699.52.215.825.53.825.851 0 .869.764 2.043 1.616 2.484.752.388.852.386 1.319-.037.356-.322.506-.816.509-1.673.005-1.672.4-2.233.645-.92.269 1.43.82 2.383 1.67 2.885.64.378.72.565.634 1.479-.137 1.435.369 2.504 1.51 3.19.528.317.994.599 1.034.626.04.028-.057.393-.216.812-.397 1.045-.112 2.292.714 3.118.664.664.81.691 3.698.691h3.007zm-12.41-1.645c1.727-1.245 2.084-1.62 1.95-2.053-.09-.29-.228-1.09-.308-1.774-.087-.744-.35-1.43-.652-1.704-.488-.442-.582-.383-2.568 1.591l-2.061 2.05-3.948-.082-3.948-.08-.079 1.072-.079 1.074 4.445.817c2.444.449 4.6.77 4.79.715.19-.056 1.296-.788 2.459-1.626zm-12.781-1.26c.061-.846-.076-1.24-.69-1.973-.73-.872-.816-.904-1.797-.662-1.25.309-1.459 1.114-.637 2.447.592.958 1.376 1.387 2.386 1.302.57-.047.671-.199.738-1.113zm-.141-6.72c.736-2.603.775-3.385.213-4.252-.214-.33-.358-.292-.929.244-.65.612-.675.75-.675 3.786 0 3.93.328 3.981 1.391.221zm10.737-7.07c1.551-.627 2.968-1.979 4.48-4.275 1.373-2.085 2.872-3.527 4.056-3.903.276-.088.5-.24.497-.34-.003-.1-1.131-.816-2.506-1.592l-2.5-1.412-3.17 1.743-3.168 1.742-3.189-1.734-3.188-1.734-2.508 1.403c-1.38.772-2.51 1.463-2.51 1.536-.001.072.592.46 1.318.86.9.496 1.695 1.253 2.5 2.381.65.91 1.525 2.131 1.945 2.715.977 1.357 2.642 2.51 4.226 2.923 1.326.345 2.29.264 3.717-.313zm-3.18-3.303l.115-2.41-.629.197a23.83 23.83 0 0 0-.96.321c-.22.083-.33-.15-.33-.697v-.822h5.556v.822c0 .547-.11.78-.331.697a23.767 23.767 0 0 0-.96-.32l-.629-.198.115 2.41.116 2.41h-2.178zm.312-12.476v-5.36l-3.316-1.157c-1.824-.637-3.366-1.108-3.426-1.047-.152.152 1.565 9.823 1.817 10.23.15.242 4.402 2.589 4.859 2.681.036.007.066-2.399.066-5.347zm-2.857-1.775c-1.047-.758-1.82-1.77-1.556-2.034.07-.07.735.133 1.477.452 1.241.534 1.349.652 1.349 1.474 0 .491-.042.894-.093.894-.05 0-.58-.354-1.177-.786zm8.91 4.602c.163-.15 1.881-10.258 1.763-10.376-.06-.06-1.603.41-3.43 1.043l-3.324 1.15-.002 5.361-.001 5.36 2.447-1.223c1.346-.673 2.492-1.265 2.547-1.315zm-3.407-4.704c0-.948-.073-.893 2.58-1.948.182-.072.33.036.33.242 0 .427-1.43 1.852-2.315 2.306-.56.289-.595.254-.595-.6zm1.786-6.252c1.928-.754 3.506-1.47 3.506-1.59 0-.453-1.622-1.559-2.969-2.023-1.93-.666-6.621-.677-8.745-.02-1.44.445-3.413 1.82-3.084 2.148.294.294 7.262 3.013 7.522 2.935.145-.044 1.842-.696 3.77-1.45zM31.574 84.558c-3.977-.57-6.777-2.446-8.436-5.65-.376-.727-.724-1.366-.771-1.42-.048-.052-.615.16-1.26.473-1.56.754-3.5.958-5.242.549-.78-.183-1.506-.383-1.614-.445-.108-.061.053-.601.359-1.2.972-1.906.972-4.558.002-8.165-.454-1.686-.826-3.323-.826-3.638 0-.675-.07-.684-1.455-.184-3.246 1.169-7.225-.177-8.799-2.977l-.595-1.059 1.12-.448c3.353-1.342 5.602-4.6 6.196-8.974l.176-1.293-.93.174c-.512.096-1.537.045-2.277-.114-2.476-.531-4.4-2.47-5.564-5.609l-.564-1.52 1.782-.004c3.16-.006 6.347-1.19 8.645-3.213.684-.602 2.182-2.253 3.33-3.67 2.603-3.215 4.394-4.806 6.644-5.903l1.755-.856-1.592-1.43c-.995-.893-1.827-1.933-2.216-2.768-1.2-2.578-.63-5.89 1.445-8.4l1.025-1.238.703 1.523c1.154 2.5 2.985 3.998 4.887 3.998.725 0 .778-.077.948-1.36.375-2.826 2.437-5.42 5.398-6.791 1.262-.584 1.881-.697 3.883-.704 1.31-.005 2.716.085 3.125.199l.743.207-.943 1.286c-1.613 2.197-2.129 4.08-1.46 5.33.151.282 1.014.882 1.918 1.333 2.942 1.468 3.926 2.91 3.378 4.945-.34 1.263-1.811 2.666-5.321 5.074-2.965 2.034-7.167 6.171-8.419 8.288-2.1 3.553-2.897 7.649-2.052 10.555.675 2.32 3.077 5.084 5.693 6.551.371.209.323.35-.366 1.076-1.72 1.812-4.436 2.576-7.6 2.138-1.05-.145-1.945-.228-1.99-.183-.045.045.463.688 1.128 1.429 1.595 1.773 3.48 2.676 6.413 3.07l2.313.312-.032 1.32c-.04 1.614-.796 3.177-2.086 4.31l-.96.842.692.822c1.451 1.724 2.091 3.531 2.533 7.148.334 2.739.652 3.755 1.611 5.16.416.608.756 1.174.756 1.257 0 .22-3.305.123-5.23-.153zm2.444-1.747c-.286-.674-.833-3.35-1.132-5.538-.445-3.258-2.243-6.2-4.324-7.075l-.759-.32 1.524-.48c1.8-.566 3.05-1.75 3.43-3.248l.26-1.026-2.009-.32c-2.542-.404-4.464-1.341-6.094-2.971-1.266-1.266-2.926-4.129-2.926-5.045 0-.428.144-.407 1.516.222 1.076.492 2.107.728 3.553.812 2.426.14 3.494-.031 4.67-.749l.877-.534-1.344-1.062c-1.78-1.407-3.047-3.182-3.74-5.237-.466-1.384-.545-2.106-.445-4.1.319-6.378 4.168-11.821 12.29-17.38 3.018-2.066 3.79-2.882 3.79-4.012 0-1.231-.413-1.709-2.354-2.729-2.55-1.34-3.012-1.902-3.152-3.835-.095-1.317.002-1.82.579-3 .381-.779.693-1.51.693-1.626 0-.399-3.267.134-4.62.753-2.895 1.326-4.424 3.496-4.478 6.357l-.03 1.62h-2.137c-1.898 0-2.262-.084-3.256-.742-.616-.408-1.493-1.271-1.95-1.918-.455-.648-.903-1.177-.993-1.177-.37 0-1.124 2.079-1.25 3.442-.174 1.9.6 3.614 2.245 4.97 3.32 2.737 3.445 3.155 1.19 3.978-3.005 1.097-4.904 2.686-8.423 7.054-1.056 1.311-2.495 2.817-3.198 3.345-2.387 1.796-5.73 3.14-7.808 3.14-1.235 0-1.284.337-.256 1.756 1.071 1.478 2.287 2.428 3.37 2.631.959.18 2.939.031 4.036-.304.62-.189.62-.188.443 1.634-.244 2.503-.812 4.725-1.65 6.454-.799 1.649-2.958 3.945-4.242 4.512-.473.209-.86.447-.86.53 0 .35 1.53 1.575 2.44 1.955 1.83.765 4.655.323 6.391-1.001l.87-.663.312 2.346c.172 1.29.556 3.097.854 4.014.687 2.112.952 5.844.534 7.504-.171.682-.262 1.29-.2 1.352.06.06.517.177 1.013.257 1.892.307 4.169-.837 5.27-2.648l.476-.783.158.771c.662 3.236 1.693 5.04 3.798 6.645 1.388 1.06 3.936 1.897 5.828 1.917 1.251.013 1.394-.04 1.22-.448zm-6.24-8.224c-.38-.68-1.74-2.545-3.02-4.146-4.986-6.228-7.013-10.411-7.943-16.389l-.162-1.043-.874 1.634c-.906 1.696-2.133 3.244-3.295 4.157-.522.41-.447.232.336-.794 2.05-2.688 2.896-4.987 4.512-12.277.529-2.382 2.121-5.856 3.692-8.054 2.416-3.38 7.001-7.284 11.118-9.463l1.82-.964-2.482-.112c-1.964-.088-2.798-.257-4.002-.812-.837-.385-1.521-.748-1.521-.806 0-.058.684.127 1.52.412 1.925.654 6.032.697 8.616.089.992-.234 1.879-.424 1.972-.424.093 0-1.552 1.027-3.655 2.284-4.718 2.818-7.185 4.657-9.201 6.858-4.211 4.595-5.096 9.82-2.55 15.045.608 1.245.615 1.296.087.683-.314-.363-.94-1.435-1.392-2.38-.76-1.593-.821-1.93-.821-4.552 0-1.557-.082-2.747-.182-2.645-.518.527-1.843 4.516-2.224 6.694-.536 3.07-.372 6.866.428 9.895 1.031 3.908 3.828 9.048 7.126 13.097 1.255 1.54 3.137 4.9 2.886 5.15-.054.055-.41-.457-.79-1.137zm46.333 10.044c0-.17.304-.792.676-1.381.723-1.145 1.23-3.072 1.688-6.423.32-2.348.993-4.07 2.157-5.524l.793-.99-.953-.837a6.695 6.695 0 0 1-2.115-3.72c-.322-1.715-.082-1.972 2.039-2.18 2.914-.288 4.592-1.029 6.407-2.83.861-.853 1.512-1.604 1.447-1.669-.064-.065-.976.001-2.026.147-2.311.32-4.422-.007-5.986-.927-1.07-.629-2.47-1.93-2.254-2.092.061-.046.894-.634 1.852-1.305 4.617-3.24 5.71-8.293 3.051-14.102-1.64-3.584-5.18-7.35-9.998-10.64-3.117-2.13-3.986-2.96-4.577-4.375-.844-2.02.181-3.667 3.225-5.186.904-.452 1.767-1.052 1.918-1.334.672-1.255.014-3.565-1.592-5.593l-.81-1.022.743-.208c.409-.114 1.814-.203 3.124-.198 2.048.007 2.614.114 4.044.767 3.014 1.377 5.349 4.581 5.349 7.342 0 .682.082.746.969.746 1.957 0 3.943-1.766 5-4.447l.45-1.139.754.875c.415.48 1.114 1.578 1.553 2.438.659 1.29.799 1.881.799 3.376 0 2.41-.67 3.793-2.76 5.698l-1.634 1.488 1.734.872c2.262 1.138 4.017 2.708 6.782 6.07 2.615 3.18 3.78 4.24 5.761 5.243 1.967.995 3.944 1.48 6.054 1.483l1.781.003-.623 1.716c-.729 2.008-1.661 3.317-3.113 4.368-1.203.872-3.335 1.41-4.626 1.168-1.09-.205-1.114-.013-.36 2.935.885 3.462 2.561 5.625 5.41 6.983l1.5.715-.875 1.302c-1.255 1.867-2.91 2.81-5.224 2.975-1.317.094-2.235.004-3.209-.314-.75-.246-1.39-.41-1.422-.366-.03.045-.193.796-.36 1.669-.166.873-.552 2.48-.857 3.572-.688 2.456-.604 5.096.221 6.956l.562 1.267-.668.254c-2.062.784-5.474.497-6.837-.575l-.652-.513-.689 1.456c-1.28 2.704-3.834 4.771-6.876 5.564-2.145.559-6.747.86-6.747.442zm7.461-2.134c2.914-1.11 5.082-3.777 5.788-7.12l.3-1.414.464.764c1.097 1.804 3.526 2.969 5.44 2.61.922-.173.948-.208.739-1.024-.119-.464-.209-2.035-.2-3.49.014-2.06.171-3.151.709-4.922.38-1.252.774-3.122.875-4.156l.186-1.879.88.672c1.818 1.386 4.71 1.79 6.594.921.987-.455 2.479-1.771 2.228-1.965a36.808 36.808 0 0 0-1.346-.793c-3.058-1.75-5.233-6.196-5.243-10.716-.004-1.622.013-1.665.59-1.456.328.12 1.439.217 2.468.217 2.224 0 3.364-.615 4.621-2.493 1.05-1.568 1.013-1.873-.227-1.873-2.07 0-5.43-1.347-7.773-3.117-.683-.516-2.382-2.335-3.775-4.042-3.2-3.92-5.329-5.588-8.41-6.584-1.695-.548-1.394-1.207 1.728-3.782 2.234-1.843 2.878-4.464 1.745-7.098-.309-.719-.663-1.306-.787-1.306s-.404.345-.622.767c-.546 1.056-2.44 2.626-3.573 2.961-.516.153-1.653.24-2.526.193l-1.587-.085.076-.926c.273-3.305-2.125-6.435-5.754-7.513-1.293-.384-3.45-.583-3.45-.318 0 .058.296.743.658 1.521.457.98.66 1.877.662 2.917.003 1.919-.695 2.807-3.198 4.068-1.892.952-2.356 1.473-2.356 2.64 0 1.132.915 2.117 3.787 4.076 6.585 4.491 10.025 8.498 11.69 13.619.64 1.963.714 2.541.621 4.84-.087 2.163-.227 2.86-.816 4.065-.842 1.72-2.282 3.467-3.715 4.505l-1.032.748.884.54c1.185.722 2.249.893 4.678.753 1.46-.085 2.477-.32 3.586-.827.851-.39 1.588-.709 1.636-.709.05 0-.073.458-.27 1.018-1.5 4.249-4.569 6.854-8.86 7.518-2.125.329-2.246.537-1.344 2.305.647 1.27 1.316 1.758 3.136 2.29 1.347.395 1.384.43.793.736-1.415.735-2.1 1.33-2.87 2.491-.984 1.487-1.479 3.14-1.846 6.18-.153 1.262-.455 2.796-.671 3.408l-.393 1.113 1.787-.137c.983-.075 2.466-.395 3.295-.711zm.622-7.16c.354-1.255 1.259-2.785 2.892-4.896 2.516-3.25 3.748-5.187 5.177-8.14 1.985-4.103 2.459-6.17 2.473-10.777.014-4.176-.419-6.355-1.91-9.622l-.708-1.552v3.007c0 2.818-.052 3.115-.821 4.727-.452.946-1.07 2.018-1.375 2.381-.487.583-.474.501.107-.685 1.427-2.913 1.77-5.828 1.022-8.696-1.295-4.974-5.53-9.166-14.195-14.052-1.264-.713-2.264-1.33-2.222-1.372.042-.042.897.117 1.9.354 2.608.613 6.706.573 8.639-.084.836-.285 1.521-.47 1.521-.412 0 .058-.682.418-1.516.8-1.127.516-2.123.733-3.884.845l-2.369.151 1.437.77c5.892 3.157 10.669 7.81 13.219 12.874 1.116 2.218 1.575 3.665 2.343 7.39.869 4.213 2.192 7.402 4.17 10.055.38.51-.023.196-.894-.696-.872-.892-1.944-2.34-2.383-3.218l-.797-1.596-.32 2.027c-.826 5.226-2.952 9.475-7.684 15.358-1.137 1.414-2.505 3.28-3.039 4.145-.533.866-.886 1.277-.783.913zM7.434 36.46c-1.094-.333-2.213-.988-2.813-1.646-.484-.531-1.683-2.636-1.683-2.954 0-.058.638-.172 1.419-.252 1.8-.186 3.669-1.132 5.634-2.854 1.838-1.61 2.906-2.102 4.555-2.098 1.251.003 3.284.813 4.504 1.795l.633.511-1.646.878c-1.188.633-2.309 1.595-4.023 3.453-2.934 3.179-4.33 3.851-6.58 3.167zm2.976-1.654c.399-.153 1.544-1.246 2.545-2.43 1-1.183 2.308-2.449 2.905-2.813.598-.363 1.09-.735 1.094-.825.014-.338-2.388-.819-3.267-.654-.567.107-1.647.787-2.85 1.795-1.712 1.433-2.746 2.033-5.253 3.045l-.662.268.86.805c1.349 1.264 2.786 1.515 4.628.81zm89.498 1.399c-.633-.294-1.978-1.494-3.343-2.984-1.65-1.8-2.745-2.738-3.941-3.376l-1.657-.883.634-.491c1.373-1.066 3.248-1.818 4.53-1.818 1.717 0 2.764.481 4.533 2.082 1.87 1.695 3.811 2.685 5.63 2.873.78.08 1.419.193 1.419.25 0 .057-.294.683-.653 1.392-.803 1.586-2.22 2.789-3.73 3.17-1.57.394-2.192.355-3.422-.215zm4.477-1.839c1.385-.937 1.43-1.251.233-1.638-1.733-.56-2.905-1.26-4.854-2.892-1.18-.988-2.235-1.646-2.816-1.754-.942-.177-2.993.27-2.993.653 0 .115.53.59 1.178 1.056.649.466 1.915 1.736 2.814 2.823.9 1.087 1.649 1.978 1.665 1.98.017.002.507.171 1.09.375 1.324.464 2.355.296 3.683-.603zm-58.3-24.281c-.17-.673-.655-1.988-1.08-2.923l-.77-1.7 1.56.177 1.558.176.8-1.762.798-1.762 1.636.826 1.636.826 1.551-1.535L55.325.873l1.552 1.535 1.551 1.535 1.624-.82 1.624-.82.86 1.75.86 1.749 1.548-.174c.852-.096 1.5-.078 1.442.04-.866 1.739-1.583 3.478-1.817 4.407l-.291 1.154-1.79-.893c-4.558-2.273-11.13-2.129-14.896.327-.543.354-1.035.644-1.093.644-.059 0-.245-.55-.415-1.223zm3.498-1.683c3.524-1.261 7.96-1.261 11.485 0 .843.301 1.72.61 1.949.687.297.099.537-.17.839-.938l.423-1.077h-.86c-.774 0-.922-.134-1.487-1.34-.345-.738-.719-1.397-.83-1.465-.11-.069-.816.187-1.569.569l-1.368.693-1.42-1.402-1.42-1.403-1.433 1.415-1.432 1.415-1.247-.696c-.685-.383-1.357-.697-1.492-.697s-.546.655-.912 1.456c-.614 1.34-.736 1.455-1.552 1.455h-.885l.423 1.077c.302.768.542 1.037.839.938a159.34 159.34 0 0 0 1.949-.687z" fill="#252122"/></g></svg>