<svg width="296" height="268" viewBox="0 0 296 268" fill="none" xmlns="http://www.w3.org/2000/svg">
<circle cx="137" cy="138" r="130" fill="#FF7733" fill-opacity="0.1"/>
<path fill-rule="evenodd" clip-rule="evenodd" d="M236 83C235.446 83 234.916 83.2301 234.538 83.6354L224 94.926L224 85C224 83.8954 223.105 83 222 83H213V85H220H222V87V94.926C222 96.7412 224.224 97.6176 225.462 96.2906L236 85H290C293.314 85 296 82.3137 296 79V6C296 2.68629 293.314 0 290 0H188C184.686 0 182 2.68629 182 6V50H184V6C184 3.79086 185.791 2 188 2H290C292.209 2 294 3.79086 294 6V79C294 81.2091 292.209 83 290 83H236Z" fill="#FF7733"/>
<path fill-rule="evenodd" clip-rule="evenodd" d="M243.797 23.6305V17.9967C246.597 18.0598 248.848 20.3495 248.848 23.165V24.446C248.848 25.2793 248.732 26.1086 248.504 26.9101L246.242 34.8564C246.156 35.158 246.217 35.4825 246.406 35.7327C246.595 35.983 246.89 36.1302 247.204 36.1302H267.462C268.864 36.1302 270.001 37.2667 270.001 38.6687C270.001 40.0706 268.864 41.2071 267.462 41.2071H266.594H265.712C265.16 41.2071 264.712 41.6549 264.712 42.2071C264.712 42.7594 265.16 43.2071 265.712 43.2071H266.594C267.989 43.2071 269.119 44.3378 269.119 45.7326V45.9668C269.119 47.4909 267.884 48.7264 266.36 48.7264H265.699H264.831C264.279 48.7264 263.831 49.1742 263.831 49.7264C263.831 50.2787 264.279 50.7264 264.831 50.7264H265.699C267.101 50.7264 268.238 51.863 268.238 53.2649C268.238 54.6669 267.101 55.8034 265.699 55.8034H263.498H262.187C261.635 55.8034 261.187 56.2511 261.187 56.8034C261.187 57.3557 261.635 57.8034 262.187 57.8034H263.498C264.655 57.8034 265.594 58.7419 265.594 59.8996C265.594 61.0573 264.655 61.9958 263.498 61.9958H241.436C240.575 61.9958 239.81 61.4439 239.538 60.6261L239.339 60.0267C239.203 59.6179 238.821 59.3419 238.39 59.3419H235.865V40.111H236.627C237.016 40.111 237.37 39.8853 237.534 39.5326L242.771 28.2682C243.447 26.8154 243.797 25.2326 243.797 23.6305ZM271.119 45.7326C271.119 44.4926 270.621 43.3691 269.813 42.5517C271.124 41.7561 272.001 40.3147 272.001 38.6687C272.001 36.1621 269.969 34.1302 267.462 34.1302H248.528L250.428 27.4577C250.706 26.4781 250.848 25.4645 250.848 24.446V23.165C250.848 19.2053 247.638 15.9954 243.678 15.9954C242.639 15.9954 241.797 16.8377 241.797 17.8768V23.6305C241.797 24.9414 241.511 26.2364 240.958 27.425L235.989 38.111H235.865V35.5725C235.865 35.0202 235.417 34.5725 234.865 34.5725H219C218.707 34.5725 218.429 34.7009 218.239 34.9239C218.049 35.1468 217.966 35.4419 218.013 35.7311L222.42 63.1544C222.497 63.6393 222.916 63.9958 223.407 63.9958H234.865C235.417 63.9958 235.865 63.5481 235.865 62.9958V61.3419H237.67C238.237 62.9303 239.743 63.9958 241.436 63.9958H263.498C265.76 63.9958 267.594 62.1619 267.594 59.8996C267.594 59.064 267.344 58.2869 266.914 57.639C268.831 57.1079 270.238 55.3507 270.238 53.2649C270.238 51.9902 269.712 50.8382 268.866 50.0138C270.219 49.1743 271.119 47.6757 271.119 45.9668V45.7326ZM224.259 61.9958L220.174 36.5725H233.865V39.111V60.3419V61.9958H224.259ZM229.575 59.4578C230.549 59.4578 231.338 58.6655 231.338 57.6882C231.338 56.7109 230.549 55.9186 229.575 55.9186C228.602 55.9186 227.812 56.7109 227.812 57.6882C227.812 58.6655 228.602 59.4578 229.575 59.4578Z" fill="#FF7733"/>
<path fill-rule="evenodd" clip-rule="evenodd" d="M4.98112 165.81C2.98013 167.669 2 169.592 2 171.5C2 173.408 2.98013 175.331 4.98112 177.19C6.98343 179.05 9.93549 180.77 13.6672 182.237C21.1245 185.166 31.4948 187 43 187C54.5052 187 64.8755 185.166 72.3328 182.237C76.0645 180.77 79.0166 179.05 81.0189 177.19C83.0199 175.331 84 173.408 84 171.5C84 169.592 83.0199 167.669 81.0189 165.81C79.0166 163.95 76.0645 162.23 72.3328 160.763C64.8755 157.834 54.5052 156 43 156C31.4948 156 21.1245 157.834 13.6672 160.763C9.93549 162.23 6.98343 163.95 4.98112 165.81ZM85.9837 171C85.8231 168.547 84.4873 166.302 82.38 164.345C80.1317 162.256 76.933 160.422 73.0641 158.902C65.3204 155.86 54.6908 154 43 154C31.3092 154 20.6796 155.86 12.9359 158.902C9.06704 160.422 5.86833 162.256 3.62002 164.345C1.38254 166.423 0.0148512 168.825 0.000120215 171.457H0V171.5V188V204V222V239C0 241.592 1.38246 243.945 3.63133 245.971C5.88043 247.997 9.07866 249.775 12.9455 251.248C20.6862 254.197 31.3123 256 43 256C54.6877 256 65.3138 254.197 73.0545 251.248C76.9213 249.775 80.1196 247.997 82.3687 245.971C84.6175 243.945 86 241.592 86 239V222V204V188V171.5V171H85.9837ZM84 176.893C83.5305 177.503 82.9873 178.091 82.38 178.655C80.1317 180.744 76.933 182.578 73.0641 184.098C65.3204 187.14 54.6908 189 43 189C31.3092 189 20.6796 187.14 12.9359 184.098C9.06704 182.578 5.86833 180.744 3.62002 178.655C3.01271 178.091 2.46949 177.503 2 176.893V188C2 189.827 2.96804 191.682 4.96981 193.485C6.97134 195.288 9.92387 196.957 13.6575 198.379C21.1179 201.221 31.4917 203 43 203C54.5083 203 64.8821 201.221 72.3425 198.379C76.0761 196.957 79.0287 195.288 81.0302 193.485C83.032 191.682 84 189.827 84 188V176.893ZM84 193.248C83.5271 193.846 82.9799 194.42 82.3687 194.971C80.1196 196.997 76.9213 198.775 73.0545 200.248C65.3138 203.197 54.6877 205 43 205C31.3123 205 20.6862 203.197 12.9455 200.248C9.07866 198.775 5.88043 196.997 3.63133 194.971C3.02009 194.42 2.47286 193.846 2 193.248V204C2 206.147 3.0111 208.276 5.01232 210.304C7.01777 212.336 9.96929 214.212 13.6954 215.809C21.1442 219.001 31.5042 221 43 221C54.4958 221 64.8558 219.001 72.3046 215.809C76.0307 214.212 78.9822 212.336 80.9877 210.304C82.9889 208.276 84 206.147 84 204V193.248ZM84 209.83C83.5396 210.478 83.0074 211.105 82.4112 211.709C80.166 213.984 76.9668 215.987 73.0924 217.647C65.3401 220.969 54.7002 223 43 223C31.2998 223 20.6599 220.969 12.9076 217.647C9.03324 215.987 5.834 213.984 3.58882 211.709C2.99262 211.105 2.46035 210.478 2 209.83V222C2 223.988 2.99128 225.98 4.99196 227.895C6.9952 229.812 9.94694 231.584 13.6767 233.094C21.131 236.111 31.4979 238 43 238C54.5021 238 64.869 236.111 72.3233 233.094C76.0531 231.584 79.0048 229.812 81.008 227.895C83.0087 225.98 84 223.988 84 222V209.83ZM84 227.538C83.5337 228.161 82.9943 228.762 82.3908 229.34C80.1434 231.49 76.9444 233.381 73.0737 234.948C65.327 238.083 54.6939 240 43 240C31.3061 240 20.673 238.083 12.9263 234.948C9.05559 233.381 5.85657 231.49 3.60918 229.34C3.00569 228.762 2.46628 228.161 2 227.538V239C2 240.827 2.96804 242.682 4.96981 244.485C6.97134 246.288 9.92387 247.957 13.6575 249.379C21.1179 252.221 31.4917 254 43 254C54.5083 254 64.8821 252.221 72.3425 249.379C76.0761 247.957 79.0287 246.288 81.0302 244.485C83.032 242.682 84 240.827 84 239V227.538Z" fill="#FF7733"/>
<path d="M110.46 194.13C109.541 194.13 108.709 193.931 107.964 193.532C107.227 193.125 106.647 192.566 106.222 191.855C105.806 191.144 105.598 190.343 105.598 189.45C105.598 188.557 105.81 187.756 106.235 187.045C106.66 186.334 107.24 185.78 107.977 185.381C108.722 184.974 109.554 184.77 110.473 184.77C111.218 184.77 111.899 184.9 112.514 185.16C113.129 185.42 113.649 185.797 114.074 186.291L112.982 187.318C112.323 186.607 111.513 186.252 110.551 186.252C109.927 186.252 109.368 186.391 108.874 186.668C108.38 186.937 107.994 187.314 107.717 187.799C107.44 188.284 107.301 188.835 107.301 189.45C107.301 190.065 107.44 190.616 107.717 191.101C107.994 191.586 108.38 191.968 108.874 192.245C109.368 192.514 109.927 192.648 110.551 192.648C111.513 192.648 112.323 192.288 112.982 191.569L114.074 192.609C113.649 193.103 113.125 193.48 112.501 193.74C111.886 194 111.205 194.13 110.46 194.13ZM122.117 187.058V194H120.505V188.436H117.086V194H115.461V187.058H122.117ZM126.897 186.98C127.919 186.98 128.699 187.227 129.237 187.721C129.783 188.206 130.056 188.943 130.056 189.931V194H128.522V193.155C128.322 193.458 128.036 193.692 127.664 193.857C127.3 194.013 126.858 194.091 126.338 194.091C125.818 194.091 125.363 194.004 124.973 193.831C124.583 193.649 124.279 193.402 124.063 193.09C123.855 192.769 123.751 192.41 123.751 192.011C123.751 191.387 123.98 190.889 124.44 190.516C124.908 190.135 125.64 189.944 126.637 189.944H128.431V189.84C128.431 189.355 128.283 188.982 127.989 188.722C127.703 188.462 127.274 188.332 126.702 188.332C126.312 188.332 125.926 188.393 125.545 188.514C125.172 188.635 124.856 188.804 124.596 189.021L123.959 187.838C124.323 187.561 124.76 187.348 125.272 187.201C125.783 187.054 126.325 186.98 126.897 186.98ZM126.676 192.908C127.083 192.908 127.443 192.817 127.755 192.635C128.075 192.444 128.301 192.176 128.431 191.829V191.023H126.754C125.818 191.023 125.35 191.331 125.35 191.946C125.35 192.241 125.467 192.475 125.701 192.648C125.935 192.821 126.26 192.908 126.676 192.908ZM135.226 194.091C134.506 194.091 133.861 193.939 133.289 193.636C132.717 193.333 132.27 192.912 131.95 192.375C131.629 191.829 131.469 191.214 131.469 190.529C131.469 189.844 131.629 189.233 131.95 188.696C132.27 188.159 132.712 187.738 133.276 187.435C133.848 187.132 134.498 186.98 135.226 186.98C135.91 186.98 136.508 187.119 137.02 187.396C137.54 187.673 137.93 188.072 138.19 188.592L136.942 189.32C136.742 188.999 136.491 188.761 136.188 188.605C135.893 188.44 135.568 188.358 135.213 188.358C134.606 188.358 134.103 188.557 133.705 188.956C133.306 189.346 133.107 189.87 133.107 190.529C133.107 191.188 133.302 191.716 133.692 192.115C134.09 192.505 134.597 192.7 135.213 192.7C135.568 192.7 135.893 192.622 136.188 192.466C136.491 192.301 136.742 192.059 136.942 191.738L138.19 192.466C137.921 192.986 137.527 193.389 137.007 193.675C136.495 193.952 135.902 194.091 135.226 194.091ZM139.62 187.058H141.245V191.634L145.08 187.058H146.562V194H144.937V189.424L141.115 194H139.62V187.058ZM152.505 187.396C153.164 187.396 153.745 187.539 154.247 187.825C154.75 188.102 155.14 188.492 155.417 188.995C155.703 189.498 155.846 190.074 155.846 190.724C155.846 191.391 155.69 191.985 155.378 192.505C155.066 193.016 154.629 193.415 154.065 193.701C153.502 193.987 152.861 194.13 152.141 194.13C150.937 194.13 150.005 193.731 149.346 192.934C148.688 192.137 148.358 190.988 148.358 189.489C148.358 188.094 148.657 186.989 149.255 186.174C149.853 185.359 150.768 184.822 151.998 184.562L155.222 183.873L155.456 185.329L152.531 185.927C151.691 186.1 151.062 186.395 150.646 186.811C150.23 187.227 149.988 187.812 149.918 188.566C150.23 188.193 150.607 187.907 151.049 187.708C151.491 187.5 151.977 187.396 152.505 187.396ZM152.18 192.817C152.778 192.817 153.259 192.626 153.623 192.245C153.996 191.855 154.182 191.361 154.182 190.763C154.182 190.165 153.996 189.684 153.623 189.32C153.259 188.956 152.778 188.774 152.18 188.774C151.574 188.774 151.084 188.956 150.711 189.32C150.339 189.684 150.152 190.165 150.152 190.763C150.152 191.37 150.339 191.864 150.711 192.245C151.093 192.626 151.582 192.817 152.18 192.817ZM160.513 194.091C159.811 194.091 159.178 193.939 158.615 193.636C158.052 193.333 157.61 192.912 157.289 192.375C156.977 191.829 156.821 191.214 156.821 190.529C156.821 189.844 156.977 189.233 157.289 188.696C157.61 188.159 158.052 187.738 158.615 187.435C159.178 187.132 159.811 186.98 160.513 186.98C161.224 186.98 161.861 187.132 162.424 187.435C162.987 187.738 163.425 188.159 163.737 188.696C164.058 189.233 164.218 189.844 164.218 190.529C164.218 191.214 164.058 191.829 163.737 192.375C163.425 192.912 162.987 193.333 162.424 193.636C161.861 193.939 161.224 194.091 160.513 194.091ZM160.513 192.7C161.111 192.7 161.605 192.501 161.995 192.102C162.385 191.703 162.58 191.179 162.58 190.529C162.58 189.879 162.385 189.355 161.995 188.956C161.605 188.557 161.111 188.358 160.513 188.358C159.915 188.358 159.421 188.557 159.031 188.956C158.65 189.355 158.459 189.879 158.459 190.529C158.459 191.179 158.65 191.703 159.031 192.102C159.421 192.501 159.915 192.7 160.513 192.7ZM165.589 184.9H167.513L167.188 190.984H165.901L165.589 184.9ZM166.551 194.091C166.248 194.091 165.997 193.996 165.797 193.805C165.598 193.606 165.498 193.363 165.498 193.077C165.498 192.791 165.598 192.553 165.797 192.362C165.997 192.171 166.248 192.076 166.551 192.076C166.846 192.076 167.089 192.171 167.279 192.362C167.479 192.553 167.578 192.791 167.578 193.077C167.578 193.363 167.479 193.606 167.279 193.805C167.089 193.996 166.846 194.091 166.551 194.091Z" fill="#FF7733"/>
<path d="M67 157.5V59C67 54.5817 70.5817 51 75 51H199C203.418 51 207 54.5817 207 59V140V227.33C207 228.086 206.194 228.568 205.528 228.211L198.139 224.253C197.844 224.095 197.489 224.095 197.194 224.253L188.806 228.747C188.511 228.905 188.156 228.905 187.861 228.747L179.472 224.253C179.177 224.095 178.823 224.095 178.528 224.253L170.139 228.747C169.844 228.905 169.489 228.905 169.194 228.747L160.806 224.253C160.511 224.095 160.156 224.095 159.861 224.253L151.472 228.747C151.177 228.905 150.823 228.905 150.528 228.747L142.139 224.253C141.844 224.095 141.489 224.095 141.194 224.253L132.806 228.747C132.511 228.905 132.156 228.905 131.861 228.747L123.472 224.253C123.177 224.095 122.823 224.095 122.528 224.253L114.139 228.747C113.844 228.905 113.489 228.905 113.194 228.747L104.806 224.253C104.511 224.095 104.156 224.095 103.861 224.253L95.4722 228.747C95.1772 228.905 94.8228 228.905 94.5278 228.747L85.6667 224" stroke="#FF7733" stroke-width="2" stroke-linecap="round" stroke-linejoin="round"/>
<path fill-rule="evenodd" clip-rule="evenodd" d="M153 91C153 98.732 146.732 105 139 105C131.268 105 125 98.732 125 91C125 83.268 131.268 77 139 77C146.732 77 153 83.268 153 91ZM155 91C155 99.8366 147.837 107 139 107C130.163 107 123 99.8366 123 91C123 82.1634 130.163 75 139 75C147.837 75 155 82.1634 155 91ZM138.292 95.089L144.323 88.2318L142.821 86.911L137.519 92.94L135.16 90.4165L133.699 91.7822L136.811 95.1114C137.003 95.3176 137.274 95.4327 137.556 95.4284C137.839 95.4242 138.106 95.3009 138.292 95.089Z" fill="#FF7733"/>
<path fill-rule="evenodd" clip-rule="evenodd" d="M92 122C92 121.448 92.4477 121 93 121H181.003C181.555 121 182.003 121.448 182.003 122V128C182.003 128.552 181.555 129 181.003 129H93C92.4477 129 92 128.552 92 128V122ZM94 123V127H180.003V123H94ZM92 142C92 141.448 92.4477 141 93 141H181.003C181.555 141 182.003 141.448 182.003 142C182.003 142.552 181.555 143 181.003 143H93C92.4477 143 92 142.552 92 142ZM109.852 155C109.299 155 108.852 155.448 108.852 156C108.852 156.552 109.299 157 109.852 157H164.151C164.703 157 165.151 156.552 165.151 156C165.151 155.448 164.703 155 164.151 155H109.852Z" fill="#FF7733"/>
</svg>
