<svg width="20" height="20" viewBox="0 0 20 20" fill="none" xmlns="http://www.w3.org/2000/svg">
<path d="M10 20C15.5417 20 20 15.5417 20 10C20 4.4583 15.5417 0 10 0C4.4583 0 0 4.4583 0 10C0 15.5417 4.4583 20 10 20Z" fill="#2775CA"/>
<path d="M12.7493 11.5833C12.7493 10.125 11.8743 9.62501 10.1243 9.41671C8.8743 9.25001 8.6243 8.91671 8.6243 8.33331C8.6243 7.74991 9.041 7.375 9.87429 7.375C10.6243 7.375 11.041 7.62501 11.2493 8.25001C11.291 8.37501 11.416 8.45831 11.541 8.45831H12.2076C12.3743 8.45831 12.4993 8.33331 12.4993 8.16671V8.12501C12.3326 7.2083 11.5826 6.5 10.6243 6.4167V5.4167C10.6243 5.25 10.4993 5.125 10.291 5.0833H9.66599C9.49929 5.0833 9.37429 5.2083 9.33259 5.4167V6.375C8.08261 6.5417 7.29101 7.375 7.29101 8.41671C7.29101 9.79171 8.12431 10.3333 9.87429 10.5417C11.041 10.75 11.416 11 11.416 11.6667C11.416 12.3334 10.8326 12.7917 10.041 12.7917C8.9576 12.7917 8.5826 12.3333 8.4576 11.7083C8.416 11.5417 8.291 11.4583 8.166 11.4583H7.45761C7.29101 11.4583 7.16602 11.5833 7.16602 11.75V11.7917C7.33261 12.8333 7.99931 13.5833 9.37429 13.7917V14.7917C9.37429 14.9583 9.49929 15.0833 9.70759 15.125H10.3326C10.4993 15.125 10.6243 15 10.666 14.7917V13.7917C11.916 13.5833 12.7493 12.7083 12.7493 11.5833Z" fill="white"/>
<path d="M7.87581 15.9584C4.62581 14.7918 2.95911 11.1668 4.16751 7.95833C4.79251 6.20832 6.16751 4.87501 7.87581 4.25001C8.04251 4.16671 8.12581 4.04171 8.12581 3.83331V3.25C8.12581 3.0833 8.04251 2.9583 7.87581 2.9167C7.83411 2.9167 7.75081 2.9167 7.70911 2.9583C3.75081 4.20831 1.58411 8.41674 2.83411 12.3751C3.58411 14.7084 5.37581 16.5001 7.70911 17.2501C7.87581 17.3334 8.04251 17.2501 8.08411 17.0834C8.12581 17.0418 8.12581 17.0001 8.12581 16.9168V16.3334C8.12581 16.2084 8.00081 16.0418 7.87581 15.9584ZM12.2925 2.9583C12.1258 2.875 11.9591 2.9583 11.9175 3.125C11.8758 3.1667 11.8758 3.2083 11.8758 3.2917V3.87501C11.8758 4.04171 12.0008 4.20831 12.1258 4.29171C15.3758 5.45832 17.0425 9.08334 15.8341 12.2918C15.2091 14.0418 13.8341 15.3751 12.1258 16.0001C11.9591 16.0834 11.8758 16.2084 11.8758 16.4168V17.0001C11.8758 17.1668 11.9591 17.2918 12.1258 17.3334C12.1675 17.3334 12.2508 17.3334 12.2925 17.2918C16.2508 16.0418 18.4175 11.8334 17.1675 7.87503C16.4175 5.50002 14.5841 3.70831 12.2925 2.9583Z" fill="white"/>
</svg>
