<svg width="20" height="20" viewBox="0 0 20 20" fill="none" xmlns="http://www.w3.org/2000/svg">
<path d="M10 0C15.5226 0 20 4.4774 20 10C20 15.5226 15.5224 20 10 20C4.4776 20 0 15.5238 0 10C0 4.4762 4.4768 0 10 0Z" fill="#53AE94"/>
<path d="M11.2348 8.6676V7.18H14.6366V4.9134H5.37344V7.18H8.77564V8.6664C6.01064 8.7934 3.93164 9.341 3.93164 9.99701C3.93164 10.653 6.01164 11.2006 8.77564 11.3284V16.0934H11.2356V11.328C13.9956 11.2006 16.0704 10.6534 16.0704 9.99801C16.0704 9.3426 13.9956 8.7954 11.2356 8.668L11.2348 8.6676ZM11.2356 10.9244V10.9232C11.1662 10.9276 10.8096 10.949 10.0156 10.949C9.38084 10.949 8.93424 10.931 8.77684 10.9228V10.9248C6.33404 10.8166 4.51064 10.3912 4.51064 9.88221C4.51064 9.3732 6.33424 8.9484 8.77684 8.84V10.501C8.93684 10.512 9.39444 10.539 10.026 10.539C10.7846 10.539 11.166 10.5074 11.236 10.501V8.84C13.674 8.9486 15.4932 9.3744 15.4932 9.88161C15.4932 10.3888 13.6732 10.8148 11.236 10.9234" fill="white"/>
</svg>
