<svg width="20" height="20" viewBox="0 0 20 20" fill="none" xmlns="http://www.w3.org/2000/svg">
<g clip-path="url(#clip0)">
<path d="M19.9993 9.99902C19.9993 15.5211 15.5231 19.998 10.0006 19.998C4.47815 19.998 0.00195312 15.5211 0.00195312 9.99902C0.00195312 4.47689 4.47826 0 10.0006 0C15.523 0 19.9993 4.47647 19.9993 9.99902Z" fill="white"/>
<path d="M9.99959 0C4.47907 0 -0.00506646 4.48323 0.00196137 9.9987C0.00334565 11.1022 0.179308 12.1636 0.509563 13.1565H3.50108V4.74512L9.99959 11.2436L16.4978 4.74512V13.1567H19.4899C19.8207 12.1639 19.9957 11.1024 19.9977 9.99886C20.0071 4.47764 15.5207 0.00133103 9.99959 0.00133103V0Z" fill="#F26822"/>
<path d="M8.50338 12.7375L5.66738 9.90137V15.1942H3.49913L1.45312 15.1945C3.20811 18.0737 6.3798 19.9998 9.99786 19.9998C13.6159 19.9998 16.7878 18.0733 18.5431 15.1941H14.3277V9.90137L11.4915 12.7375L9.99754 14.2314L8.50348 12.7375H8.50338Z" fill="#4D4D4D"/>
</g>
<defs>
<clipPath id="clip0">
<rect width="19.9979" height="20" fill="white"/>
</clipPath>
</defs>
</svg>
