<svg width="21" height="20" viewBox="0 0 21 20" fill="none" xmlns="http://www.w3.org/2000/svg">
<g clip-path="url(#clip0)">
<path d="M13.9773 0.538092C12.6632 1.3101 11.8851 2.7042 11.8851 4.17431C11.8851 4.94631 12.1951 5.72431 12.5832 6.41842C12.8932 7.03842 13.0452 8.12053 11.9632 8.66253C11.1911 9.12453 10.181 8.81653 9.71905 8.04252C9.25695 7.42252 8.71495 6.80252 8.01685 6.34042C6.70275 5.56841 5.15255 5.56841 3.83835 6.34042C2.52415 7.11242 1.74805 8.51003 1.74805 9.98053C1.74805 11.451 2.52015 12.8446 3.83805 13.6188C5.15215 14.3908 6.70235 14.3908 8.01655 13.6188C8.71465 13.2307 9.25655 12.6147 9.64075 11.9166C9.95075 11.3746 10.8028 10.6766 11.8849 11.2966C12.657 11.7586 12.889 12.7687 12.5049 13.5407C12.1169 14.2388 11.8849 15.0129 11.8849 15.7849C11.8849 17.257 12.657 18.649 13.9771 19.4211C15.2912 20.1931 16.8414 20.1931 18.1556 19.4211C19.4698 18.6491 20.248 17.255 20.248 15.7849C20.248 14.3148 19.4739 12.9207 18.1558 12.1466C17.4577 11.7586 16.6836 11.6046 15.8335 11.6046C15.1354 11.6046 14.2093 11.1426 14.2093 9.98053C14.2093 9.05053 14.9074 8.35643 15.8335 8.35643C16.6056 8.35643 17.4577 8.20243 18.1558 7.81442C19.4699 7.04242 20.248 5.64831 20.248 4.17831C20.248 2.7083 19.4739 1.3142 18.1558 0.542092C17.5358 0.15409 16.7636 8.92132e-05 16.0658 8.92132e-05C15.3717 -0.0039108 14.5936 0.15409 13.9776 0.538092" fill="url(#paint0_linear)"/>
</g>
<defs>
<linearGradient id="paint0_linear" x1="1.74805" y1="-1.12058e-05" x2="20.248" y2="-1.12058e-05" gradientUnits="userSpaceOnUse">
<stop stop-color="#11AAE2"/>
<stop offset="0.59" stop-color="#0880B7"/>
<stop offset="1" stop-color="#016197"/>
</linearGradient>
<clipPath id="clip0">
<rect x="0.998047" width="20" height="20" fill="white"/>
</clipPath>
</defs>
</svg>
