<svg width="38" height="38" viewBox="0 0 38 38" fill="none" xmlns="http://www.w3.org/2000/svg">
<path fill-rule="evenodd" clip-rule="evenodd" d="M11.9863 18.9726C12.001 12.9281 16.8718 8 22.9928 8C29.0533 8 34.0689 12.943 33.9993 19C33.9993 25.057 29.0533 30 22.9928 30C16.9413 30 12.0011 25.1412 11.9863 19.0276V27.2154H8.01561L3 11.2027H11.9863V18.9726ZM18.8827 19C18.8827 21.2279 20.7636 23.1076 22.9928 23.1076C25.2916 23.1076 27.1028 21.2279 27.1028 19C27.1028 16.7721 25.2219 14.8924 22.9928 14.8924C20.7636 14.8924 18.8827 16.7721 18.8827 19Z" fill="#8B3FFD"/>
</svg>
