<svg width="20" height="20" viewBox="0 0 20 20" fill="none" xmlns="http://www.w3.org/2000/svg">
<path d="M9.93716 0C4.45717 0 0 4.48536 0 10C0 15.5146 4.45717 20 9.93716 20C15.4171 20 19.8743 15.5146 19.8743 10C19.8743 4.48536 15.4171 0 9.93716 0ZM9.93716 18.3496C5.36095 18.3496 1.64003 14.6051 1.64003 10C1.64003 5.39485 5.36095 1.6504 9.93716 1.6504C14.5134 1.6504 18.2343 5.39485 18.2343 10C18.2343 14.6051 14.5134 18.3496 9.93716 18.3496Z" fill="#231F20"/>
<path d="M9.93703 18C14.3275 18 17.8868 14.4183 17.8868 10C17.8868 5.58172 14.3275 2 9.93703 2C5.54652 2 1.9873 5.58172 1.9873 10C1.9873 14.4183 5.54652 18 9.93703 18Z" fill="#F4B728"/>
<path d="M5.96191 12.7066V14.2779H9.00239V16H10.8712V14.2779H13.9116V12.1996H9.1952L13.9116 6.28883V4.7175H10.8712V3H9.00239V4.7175H5.96191V6.80042H10.6784L5.96191 12.7066Z" fill="#231F20"/>
</svg>
