<svg version="1.1" xmlns="http://www.w3.org/2000/svg" x="0" y="0" viewBox="0 0 12.8 12.6" style="enable-background:new 0 0 12.8 12.6" xml:space="preserve"><style>.st3{fill:#fff}.st4{opacity:.64}</style><linearGradient id="SVGID_1_" gradientUnits="userSpaceOnUse" x1="6.4" y1="22.327" x2="6.4" y2="10.524" gradientTransform="translate(0 -10.15)"><stop offset="0" style="stop-color:#cfe0ad"/><stop offset="1" style="stop-color:#fff"/></linearGradient><path d="M12.4 6.3c0 1.6-.6 3-1.6 4-1.1 1.2-2.6 1.9-4.4 1.9-1.7 0-3.3-.7-4.4-1.9-1-1-1.6-2.5-1.6-4C.4 3 3.1.4 6.3.4 9.7.3 12.4 3 12.4 6.3z" style="fill:url(#SVGID_1_)"/><path d="M6.4 12.6c-1.8 0-3.5-.7-4.7-2C.6 9.5 0 7.9 0 6.3 0 2.8 2.8 0 6.3 0 8 0 9.6.6 10.8 1.8s1.9 2.8 1.9 4.5c0 1.6-.6 3.2-1.7 4.3-1.2 1.3-2.8 2-4.6 2zM6.5.7h-.2C3.2.7.8 3.2.8 6.2c0 1.4.6 2.8 1.5 3.7 1 1.1 2.6 1.8 4.1 1.8 1.6 0 3.1-.6 4.1-1.8 1-1 1.5-2.3 1.5-3.7 0-1.5-.6-2.9-1.7-4C9.3 1.3 7.9.7 6.5.7z" style="fill:#86bb56"/><g><path d="M10.4 8.9h-8c-.2 0-.4-.2-.4-.4V4c0-.2.2-.4.4-.4h8c.2 0 .4.2.4.4v4.5c0 .2-.2.4-.4.4z" style="fill:#7a7c7a"/><path class="st3" d="M2.6 4.4h7.5v1H2.6z"/><g class="st4"><path class="st3" d="M8.9 7.3h1.2v.8H8.9z"/></g><g class="st4"><path class="st3" d="M2.6 7.3h3v.8h-3z"/></g></g></svg>