<svg viewBox="0 0 13 13" fill="none" xmlns="http://www.w3.org/2000/svg">
<g clip-path="url(#clip0_2220_842)">
<path d="M6.49976 0.424683C9.85492 0.424683 12.5749 3.14473 12.575 6.49988C12.575 9.8551 9.85498 12.5751 6.49976 12.5751C3.14461 12.575 0.424561 9.85504 0.424561 6.49988C0.424652 3.14479 3.14467 0.424774 6.49976 0.424683Z" fill="#D9D9D9"/>
<path d="M6.49976 0.424683C9.85492 0.424683 12.5749 3.14473 12.575 6.49988C12.575 9.8551 9.85498 12.5751 6.49976 12.5751C3.14461 12.575 0.424561 9.85504 0.424561 6.49988C0.424652 3.14479 3.14467 0.424774 6.49976 0.424683Z" fill="url(#paint0_linear_2220_842)"/>
<path d="M6.49976 0.424683C9.85492 0.424683 12.5749 3.14473 12.575 6.49988C12.575 9.8551 9.85498 12.5751 6.49976 12.5751C3.14461 12.575 0.424561 9.85504 0.424561 6.49988C0.424652 3.14479 3.14467 0.424774 6.49976 0.424683Z" stroke="#85BB56" stroke-width="0.85"/>
<path d="M7.72867 9.4117C7.72867 10.0902 7.17867 10.6402 6.5002 10.6402C5.82173 10.6402 5.27173 10.0902 5.27173 9.4117C5.27173 8.73323 5.82173 8.18323 6.5002 8.18323C7.17867 8.18323 7.72867 8.73323 7.72867 9.4117Z" fill="#848484"/>
<path d="M7.87955 3.43347C7.97459 3.06746 7.91246 2.71645 7.65207 2.45764C7.39485 2.19883 6.96056 2.05344 6.49951 2.05344C6.03846 2.05344 5.60417 2.19883 5.34696 2.45764C5.08656 2.71645 5.02443 3.06746 5.11948 3.43347C5.13385 3.4896 5.14823 3.54573 5.1626 3.60186C5.42136 4.61219 5.68012 5.62252 5.93887 6.63285C5.95325 6.68898 5.96762 6.74511 5.982 6.80124C6.00966 6.90777 6.08842 7.00994 6.18501 7.08527C6.28253 7.16059 6.38992 7.20291 6.49951 7.20291C6.6091 7.20291 6.7165 7.16059 6.81401 7.08527C6.9106 7.00994 6.98936 6.90777 7.01703 6.80124C7.0314 6.74511 7.04578 6.68898 7.06015 6.63285C7.31891 5.62252 7.57766 4.61219 7.83642 3.60186C7.8508 3.54573 7.86517 3.4896 7.87955 3.43347Z" fill="#848484"/>
</g>
<defs>
<linearGradient id="paint0_linear_2220_842" x1="6.49993" y1="-0.00012207" x2="6.49993" y2="13.0002" gradientUnits="userSpaceOnUse">
<stop stop-color="#FDFEFB"/>
<stop offset="1" stop-color="#D2E3B2"/>
</linearGradient>
<clipPath id="clip0_2220_842">
<rect width="13" height="13" rx="3.64011" fill="white"/>
</clipPath>
</defs>
</svg>
