<svg version="1.1" xmlns="http://www.w3.org/2000/svg" x="0" y="0" viewBox="0 0 12.8 12.6" style="enable-background:new 0 0 12.8 12.6" xml:space="preserve"><style>.st2{fill:#7a7c7a}.st4,.st6{fill:#fff}.st6{opacity:.64;enable-background:new}</style><linearGradient id="SVGID_1_" gradientUnits="userSpaceOnUse" x1="6.4" y1="24.346" x2="6.4" y2="12.543" gradientTransform="translate(0 -12.167)"><stop offset="0" style="stop-color:#cfe0ad"/><stop offset="1" style="stop-color:#fff"/></linearGradient><path d="M12.4 6.3c0 1.6-.6 3-1.6 4-1.1 1.2-2.6 1.9-4.4 1.9-1.7 0-3.3-.7-4.4-1.9-1-1-1.6-2.5-1.6-4C.4 3 3.1.4 6.3.4 9.7.3 12.4 3 12.4 6.3z" style="fill:url(#SVGID_1_)"/><path d="M6.4 12.6c-1.8 0-3.5-.7-4.7-2C.6 9.5 0 7.9 0 6.3 0 2.8 2.8 0 6.3 0 8-.1 9.6.6 10.8 1.8s1.9 2.8 1.9 4.5c0 1.6-.6 3.2-1.7 4.3-1.2 1.3-2.8 2-4.6 2zM6.5.8h-.2C3.2.8.8 3.3.8 6.3c0 1.4.6 2.8 1.5 3.7 1 1.1 2.5 1.8 4.1 1.8s3.1-.6 4.1-1.8c1-1 1.5-2.3 1.5-3.7 0-1.5-.6-2.9-1.7-4-1-1-2.4-1.5-3.8-1.5z" style="fill:#86bb56"/><g><path class="st2" d="M2.4 5.3h7.9v3.3H2.4z"/><path class="st4" d="M6 7h.8v.8H6z" style="opacity:.5"/><path class="st2" d="M3.3 8.2h1.1v1.5H3.3zM8.5 8.2h1.1v1.5H8.5z"/><path class="st4" d="M3.6 5.3h5.6V6H3.6z" style="opacity:.64"/><path class="st2" d="M10 6.5H2.8l.1-.3C3 5 3.5 3.8 4.3 2.5l.1-.1h4l.1.1c.7 1.2 1.2 2.4 1.4 3.6l.1.4zm-6.5-.6h5.8C9 4.9 8.6 4 8.1 3H4.7c-.6 1-1 1.9-1.2 2.9z"/><path class="st6" d="M3.8 7.2v-.9h-.9v1.8h1.8v-.9zM9 7.2v-.9h.9v1.8H8.1v-.9z"/></g></svg>