<svg xmlns="http://www.w3.org/2000/svg" viewBox="0 0 12.8 12.6" style="enable-background:new 0 0 12.8 12.6" xml:space="preserve"><linearGradient id="a" gradientUnits="userSpaceOnUse" x1="6.4" y1="17.699" x2="6.4" y2="5.896" gradientTransform="translate(0 -5.521)"><stop offset="0" style="stop-color:#cfe0ad"/><stop offset="1" style="stop-color:#fff"/></linearGradient><path d="M12.4 6.3c0 1.6-.6 3-1.6 4-1.1 1.2-2.6 1.9-4.4 1.9-1.7 0-3.3-.7-4.4-1.9-1-1-1.6-2.5-1.6-4C.4 3 3.1.4 6.3.4 9.7.3 12.4 3 12.4 6.3z" style="fill:url(#a)"/><path d="M6.4 12.6c-1.8 0-3.5-.7-4.7-2C.6 9.5 0 7.9 0 6.3 0 2.8 2.8 0 6.3 0 8 0 9.6.6 10.8 1.8s1.9 2.8 1.9 4.5c0 1.6-.6 3.2-1.7 4.3-1.2 1.3-2.8 2-4.6 2zM6.5.7h-.2C3.2.7.8 3.2.8 6.2c0 1.4.6 2.8 1.5 3.7 1 1.1 2.5 1.8 4.1 1.8s3.1-.6 4.1-1.8c1-1 1.5-2.3 1.5-3.7 0-1.5-.6-2.9-1.7-4C9.3 1.3 7.9.7 6.5.7z" style="fill:#86bb56"/><path d="M6.8 10.1v.5h-.9v-.5c-1.5-.1-2.3-.8-2.7-2l1.7-.5c.2.7.7 1.1 1.5 1.1.2 0 .4 0 .6-.1.4-.1.5-.3.6-.4.1-.1.1-.2.1-.3 0-.3-.1-.4-.3-.5-.1-.1-.5-.2-1-.3-1.2-.3-1.9-.5-2.2-1-.4-.4-.6-.9-.6-1.4 0-.7.2-1.2.6-1.7.5-.4 1-.6 1.7-.7v-.4h.9v.5c1.3 0 2.1.6 2.5 1.7l-1.5.5c-.2-.7-.6-.9-1.3-.9s-1.1.2-1.1.7c0 .2.1.4.2.4.1.1.4.3.9.4.8.2 1.3.4 1.7.5.4.2.7.4 1 .8.2.4.4.7.4 1.2 0 .6-.2 1.2-.6 1.6-.6.5-1.3.8-2.2.8z" style="fill:#7a7c7a"/></svg>