<?xml version="1.0" encoding="utf-8"?>
<svg version="1.1" id="instagram-icon" xmlns="http://www.w3.org/2000/svg" xmlns:xlink="http://www.w3.org/1999/xlink" x="0px"
	 y="0px" viewBox="0 0 16 16" style="enable-background:new 0 0 16 16;" xml:space="preserve">
<style type="text/css">
	.st0{fill-rule:evenodd;clip-rule:evenodd;fill:#999999;}
</style>
<g>
	<path id="instagram-icon_Fill-1" class="st0" d="M12.3,4.7c-0.5,0-1-0.4-1-1s0.4-1,1-1c0.5,0,1,0.4,1,1S12.8,4.7,12.3,4.7 M8,12.1
		c-2.3,0-4.1-1.8-4.1-4.1S5.7,3.9,8,3.9s4.1,1.8,4.1,4.1S10.3,12.1,8,12.1 M16,4.7c-0.1-2.9-1.7-4.5-4.7-4.7C10.4,0,10.2,0,8,0
		S5.6,0,4.7,0C1.8,0.2,0.2,1.8,0,4.7C0,5.6,0,5.8,0,8s0,2.4,0,3.3c0.1,2.9,1.7,4.5,4.7,4.7c0.9,0,1.1,0,3.3,0s2.4,0,3.3,0
		c2.9-0.1,4.5-1.7,4.7-4.7c0-0.9,0-1.1,0-3.3S16,5.6,16,4.7 M8,5.3C6.5,5.3,5.3,6.5,5.3,8s1.2,2.7,2.7,2.7s2.7-1.2,2.7-2.7
		S9.5,5.3,8,5.3"/>
</g>
</svg>
