<svg xmlns="http://www.w3.org/2000/svg" viewBox="0 0 12.7 12.6" style="enable-background:new 0 0 12.7 12.6" xml:space="preserve"><linearGradient id="a" gradientUnits="userSpaceOnUse" x1="6.375" y1="2.654" x2="6.375" y2="14.457" gradientTransform="matrix(1 0 0 -1 0 14.832)"><stop offset="0" style="stop-color:#cfe0ad"/><stop offset="1" style="stop-color:#fff"/></linearGradient><path d="M12.4 6.3c0 1.6-.6 3-1.6 4-1.1 1.2-2.6 1.9-4.4 1.9-1.7 0-3.3-.7-4.4-1.9-1-1-1.6-2.5-1.6-4C.4 3 3.1.4 6.3.4 9.7.3 12.4 3 12.4 6.3z" style="fill:url(#a)"/><path d="M6.4 12.6c-1.8 0-3.5-.7-4.7-2C.6 9.5 0 7.9 0 6.3 0 2.8 2.8 0 6.3 0 8-.1 9.6.6 10.8 1.8 12 3 12.7 4.6 12.7 6.3c0 1.6-.6 3.2-1.7 4.3-1.2 1.3-2.8 2-4.6 2zM6.5.8h-.2C3.2.8.8 3.3.8 6.3c0 1.4.6 2.8 1.5 3.7 1 1.1 2.6 1.8 4.1 1.8 1.6 0 3.1-.6 4.1-1.8 1-1 1.5-2.3 1.5-3.7 0-1.5-.6-2.9-1.7-4-1-1-2.4-1.5-3.8-1.5z" style="fill:#86bb56"/><path d="M6.4 2.7c2 0 3.5 1.6 3.5 3.5 0 2-1.6 3.5-3.5 3.5-2 0-3.5-1.6-3.5-3.5-.1-1.9 1.5-3.5 3.5-3.5zm.8 3.2c-.1-.8-.4-1.5-.8-2.1-.5.6-.8 1.3-.8 2.1h1.6zm-1.6.8c0 .4.1.8.3 1.1.1.4.3.7.5 1 .4-.7.7-1.4.8-2.1H5.6zm3.5 0H7.9c0 .8-.3 1.5-.7 2.2.9-.2 1.8-1.1 1.9-2.2zm0-.8c0-.5-.2-1.1-.7-1.6-.4-.3-.8-.6-1.2-.7.4.7.7 1.5.8 2.3h1.1zM5.6 3.6c-.6.2-1 .5-1.4.9-.3.4-.5.9-.6 1.4h1.2c.1-.8.4-1.6.8-2.3zm0 5.3c-.4-.7-.7-1.4-.8-2.2H3.6c.2 1.1 1.1 2 2 2.2z" style="fill:#919191"/></svg>