<?xml version="1.0" encoding="utf-8"?>
<svg version="1.1" id="Слой_1" xmlns="http://www.w3.org/2000/svg" xmlns:xlink="http://www.w3.org/1999/xlink" x="0px" y="0px"
	 viewBox="0 0 44 40" style="enable-background:new 0 0 44 40;" xml:space="preserve">
<style type="text/css">
	.st0{fill-rule:evenodd;clip-rule:evenodd;fill:#999999;}
</style>
<g>
	<g transform="translate(-702.000000, -265.000000)">
		<path class="st0" d="M746,305h-9.7v-14.1c0-3.7-1.5-6.2-4.9-6.2c-2.6,0-4,1.7-4.6,3.3c-0.2,0.6-0.2,1.4-0.2,2.2V305h-9.6
			c0,0,0.1-24.9,0-27.2h9.6v4.3c0.6-1.9,3.6-4.5,8.6-4.5c6.1,0,10.9,3.9,10.9,12.3V305L746,305z M707.2,274.4L707.2,274.4
			c-3.2,0-5.2-2.1-5.2-4.7c0-2.7,2.1-4.7,5.2-4.7c3.2,0,5.1,2,5.2,4.7C712.4,272.3,710.4,274.4,707.2,274.4L707.2,274.4L707.2,274.4
			z M703.1,277.8h8.6V305h-8.6V277.8L703.1,277.8z"/>
	</g>
</g>
</svg>
