<?xml version="1.0" encoding="utf-8"?>
<svg version="1.1" id="Layer_1" xmlns="http://www.w3.org/2000/svg" xmlns:xlink="http://www.w3.org/1999/xlink" x="0px" y="0px"
	 viewBox="0 0 305 305" style="enable-background:new 0 0 305 305;" xml:space="preserve">
<style type="text/css">
	.st0{fill:#999999;}
</style>
<g id="XMLID_16_">
	<path id="XMLID_17_" class="st0" d="M160.7,19.5c-18.9,0-37.3,3.7-54.7,10.9L76.4,0.7c-0.8-0.8-2.1-1-3.1-0.4
		C44.4,18.2,19.8,42.9,1.9,71.7c-0.6,1-0.5,2.3,0.4,3.1l28.4,28.4c-8.5,18.6-12.8,38.5-12.8,59.1c0,78.7,64,142.8,142.8,142.8
		c78.7,0,142.8-64,142.8-142.8C303.4,83.5,239.4,19.5,160.7,19.5z M217.2,148.7l9.9,42.1l9.5,44.4l-44.3-9.5l-42.1-9.9L36.7,102.1
		C51,72.8,75.1,49.5,104.8,36.3L217.2,148.7z"/>
	<path id="XMLID_20_" class="st0" d="M221.8,187.4l-7.5-33c-25.9,11.9-46.4,32.4-58.3,58.3l33,7.5
		C196,206.2,207.7,194.4,221.8,187.4z"/>
</g>
</svg>
