<svg width="846" height="168" viewBox="0 0 846 168" fill="none" xmlns="http://www.w3.org/2000/svg">
<path d="M0 36.4745C0 16.3302 16.3302 0 36.4745 0H809.526C829.67 0 846 16.3302 846 36.4745V131.526C846 151.67 829.67 168 809.526 168H36.4745C16.3302 168 0 151.67 0 131.526V36.4745Z" fill="black"/>
<path d="M329 10L802.603 10C821.048 10 836 24.9522 836 43.3966V124.603C836 143.048 821.048 158 802.603 158H329L329 10Z" fill="white"/>
<path d="M432.9 72.7891H417.035C416.745 70.7365 416.153 68.9133 415.26 67.3196C414.366 65.7017 413.219 64.3253 411.819 63.1903C410.418 62.0554 408.8 61.1861 406.965 60.5824C405.154 59.9787 403.186 59.6768 401.061 59.6768C397.222 59.6768 393.877 60.6307 391.028 62.5383C388.178 64.4219 385.969 67.1747 384.399 70.7969C382.83 74.3949 382.045 78.7656 382.045 83.9091C382.045 89.1974 382.83 93.6406 384.399 97.2386C385.993 100.837 388.214 103.553 391.064 105.388C393.913 107.224 397.21 108.141 400.952 108.141C403.053 108.141 404.997 107.864 406.784 107.308C408.595 106.753 410.201 105.944 411.602 104.881C413.002 103.795 414.161 102.479 415.079 100.933C416.021 99.3878 416.673 97.625 417.035 95.6449L432.9 95.7173C432.489 99.1222 431.463 102.406 429.821 105.57C428.203 108.709 426.018 111.522 423.265 114.009C420.536 116.472 417.276 118.428 413.485 119.877C409.718 121.302 405.456 122.014 400.699 122.014C394.082 122.014 388.166 120.517 382.95 117.523C377.759 114.528 373.653 110.194 370.635 104.519C367.641 98.8445 366.143 91.9744 366.143 83.9091C366.143 75.8196 367.665 68.9375 370.707 63.2628C373.75 57.5881 377.879 53.2656 383.095 50.2955C388.311 47.3011 394.179 45.804 400.699 45.804C404.997 45.804 408.982 46.4077 412.652 47.6151C416.347 48.8224 419.619 50.5852 422.468 52.9034C425.317 55.1974 427.636 58.0107 429.423 61.343C431.234 64.6754 432.393 68.4908 432.9 72.7891ZM444.147 121V46.8182H459.831V77.4254H491.669V46.8182H507.317V121H491.669V90.3565H459.831V121H444.147ZM533.034 121H516.228L541.836 46.8182H562.048L587.62 121H570.814L552.232 63.7699H551.652L533.034 121ZM531.984 91.8416H571.683V104.085H531.984V91.8416ZM658.597 46.8182V121H645.05L612.776 74.3104H612.233V121H596.549V46.8182H610.313L642.333 93.4716H642.985V46.8182H658.597ZM720.744 70.7969C720.237 69.0341 719.524 67.4766 718.607 66.1243C717.689 64.7479 716.566 63.5888 715.238 62.647C713.934 61.6811 712.437 60.9446 710.747 60.4375C709.08 59.9304 707.233 59.6768 705.205 59.6768C701.414 59.6768 698.081 60.6186 695.208 62.5021C692.358 64.3857 690.137 67.1264 688.543 70.7244C686.949 74.2983 686.152 78.669 686.152 83.8366C686.152 89.0043 686.937 93.3991 688.507 97.0213C690.076 100.643 692.298 103.408 695.171 105.316C698.045 107.2 701.438 108.141 705.35 108.141C708.899 108.141 711.93 107.513 714.441 106.258C716.977 104.978 718.909 103.179 720.237 100.861C721.589 98.5426 722.265 95.8018 722.265 92.6385L725.453 93.1094H706.328V81.3011H737.37V90.6463C737.37 97.1662 735.993 102.768 733.24 107.453C730.487 112.114 726.696 115.712 721.867 118.247C717.037 120.759 711.507 122.014 705.277 122.014C698.323 122.014 692.213 120.481 686.949 117.414C681.685 114.323 677.58 109.94 674.634 104.266C671.712 98.5668 670.251 91.8054 670.251 83.9815C670.251 77.9687 671.12 72.608 672.859 67.8991C674.622 63.1662 677.085 59.1577 680.248 55.8736C683.411 52.5895 687.094 50.0902 691.296 48.3757C695.497 46.6612 700.049 45.804 704.951 45.804C709.153 45.804 713.065 46.4197 716.687 47.6513C720.309 48.8587 723.521 50.5732 726.322 52.7947C729.147 55.0163 731.453 57.6605 733.24 60.7273C735.027 63.7699 736.174 67.1264 736.681 70.7969H720.744ZM749.151 121V46.8182H799.136V59.7493H764.835V77.4254H796.565V90.3565H764.835V108.069H799.281V121H749.151Z" fill="black"/>
<path d="M37.4474 121V46.8182H67.1491C72.6065 46.8182 77.1584 47.6271 80.8047 49.245C84.451 50.8629 87.1918 53.1087 89.027 55.9822C90.8622 58.8317 91.7798 62.1158 91.7798 65.8345C91.7798 68.7322 91.2003 71.2798 90.0412 73.4773C88.8821 75.6506 87.2884 77.4375 85.2599 78.8381C83.2557 80.2145 80.9616 81.1925 78.3778 81.772V82.4964C81.2031 82.6172 83.8473 83.4141 86.3104 84.8871C88.7976 86.3601 90.8139 88.4247 92.3594 91.081C93.9048 93.7131 94.6776 96.8523 94.6776 100.499C94.6776 104.435 93.6996 107.948 91.7436 111.039C89.8118 114.106 86.9503 116.533 83.1591 118.32C79.3679 120.107 74.6953 121 69.1413 121H37.4474ZM53.1314 108.178H65.9176C70.2884 108.178 73.4759 107.344 75.4801 105.678C77.4844 103.988 78.4865 101.742 78.4865 98.941C78.4865 96.8885 77.9915 95.0774 77.0014 93.5078C76.0114 91.9382 74.5987 90.7067 72.7635 89.8132C70.9524 88.9197 68.7912 88.473 66.2798 88.473H53.1314V108.178ZM53.1314 77.8601H64.7585C66.9077 77.8601 68.8153 77.4858 70.4815 76.7372C72.1719 75.9645 73.5 74.8778 74.4659 73.4773C75.456 72.0767 75.951 70.3984 75.951 68.4425C75.951 65.7621 74.9972 63.6009 73.0895 61.9588C71.206 60.3168 68.5256 59.4957 65.0483 59.4957H53.1314V77.8601ZM104.883 121V46.8182H154.869V59.7493H120.567V77.4254H152.297V90.3565H120.567V108.069H155.014V121H104.883ZM207.58 68.1527C207.29 65.2308 206.047 62.9609 203.849 61.343C201.652 59.7251 198.67 58.9162 194.903 58.9162C192.343 58.9162 190.182 59.2784 188.419 60.0028C186.656 60.7031 185.304 61.6811 184.362 62.9368C183.445 64.1925 182.986 65.6172 182.986 67.2109C182.938 68.5391 183.215 69.6982 183.819 70.6882C184.447 71.6783 185.304 72.5355 186.391 73.2599C187.477 73.9602 188.733 74.576 190.158 75.1072C191.582 75.6143 193.104 76.049 194.722 76.4112L201.386 78.005C204.622 78.7294 207.592 79.6953 210.297 80.9027C213.001 82.1101 215.344 83.5952 217.324 85.358C219.304 87.1207 220.837 89.1974 221.924 91.5881C223.035 93.9787 223.602 96.7195 223.626 99.8104C223.602 104.35 222.443 108.286 220.149 111.619C217.879 114.927 214.595 117.499 210.297 119.334C206.023 121.145 200.867 122.05 194.83 122.05C188.842 122.05 183.626 121.133 179.183 119.298C174.763 117.462 171.31 114.746 168.823 111.148C166.36 107.526 165.068 103.046 164.947 97.7095H180.124C180.293 100.197 181.006 102.273 182.261 103.94C183.541 105.582 185.244 106.825 187.369 107.67C189.518 108.491 191.945 108.902 194.649 108.902C197.305 108.902 199.612 108.516 201.567 107.743C203.548 106.97 205.081 105.896 206.168 104.519C207.254 103.143 207.798 101.561 207.798 99.7741C207.798 98.108 207.303 96.7074 206.312 95.5724C205.347 94.4375 203.922 93.4716 202.038 92.6747C200.179 91.8778 197.897 91.1534 195.192 90.5014L187.115 88.473C180.861 86.9517 175.923 84.5732 172.3 81.3374C168.678 78.1016 166.879 73.7429 166.903 68.2614C166.879 63.7699 168.075 59.8459 170.489 56.4893C172.928 53.1328 176.273 50.5128 180.523 48.6293C184.773 46.7457 189.602 45.804 195.011 45.804C200.517 45.804 205.322 46.7457 209.428 48.6293C213.557 50.5128 216.768 53.1328 219.062 56.4893C221.357 59.8459 222.54 63.7337 222.612 68.1527H207.58ZM231.351 59.7493V46.8182H292.275V59.7493H269.564V121H254.062V59.7493H231.351Z" fill="white"/>
</svg>
