<svg xmlns="http://www.w3.org/2000/svg" viewBox="0 0 12.8 12.6" style="enable-background:new 0 0 12.8 12.6" xml:space="preserve"><linearGradient id="a" gradientUnits="userSpaceOnUse" x1="6.4" y1="12.442" x2="6.4" y2=".639" gradientTransform="translate(0 -.263)"><stop offset="0" style="stop-color:#cfe0ad"/><stop offset="1" style="stop-color:#fff"/></linearGradient><path d="M12.4 6.3c0 1.6-.6 3-1.6 4-1.1 1.2-2.6 1.9-4.4 1.9-1.7 0-3.3-.7-4.4-1.9-1-1-1.6-2.5-1.6-4C.4 3 3.1.4 6.3.4 9.7.3 12.4 3 12.4 6.3z" style="fill:url(#a)"/><path d="M6.4 12.6c-1.8 0-3.5-.7-4.7-2C.6 9.5 0 7.9 0 6.3 0 2.8 2.8 0 6.3 0 8-.1 9.6.6 10.8 1.8s1.9 2.8 1.9 4.5c0 1.6-.6 3.2-1.7 4.3-1.2 1.3-2.8 2-4.6 2zM6.5.8h-.2C3.2.8.8 3.3.8 6.3c0 1.4.6 2.8 1.5 3.7 1 1.1 2.6 1.8 4.1 1.8 1.6 0 3.1-.6 4.1-1.8 1-1 1.5-2.3 1.5-3.7 0-1.5-.6-2.9-1.7-4-1-1-2.4-1.5-3.8-1.5z" style="fill:#86bb56"/><g><path d="M4 7.2c0-.1.2-1 .2-1.4V3.2c0-.3.3-.6.7-.6H5c.3 0 .7.3.7.6v2.4c0 .1.8.1.8 0V3.2c0-.3.2-.6.7-.6.3 0 .6.3.6.6v2.6h.1c0 .1.6.1.6 0V3.7c0-.3.3-.6.7-.6.3 0 .7.3.7.6v4.2c0 .3-.3 1.7-1.8 2-1 .1-2.1.1-3.2-.2-.5-.1-2.3-1.9-3.2-2.8-.2-.2-.2-.6.1-.8.4-.2.7-.2 1.2.1l1 1z" style="fill:#7a7c7a"/></g></svg>