<?xml version="1.0" encoding="utf-8"?>
<svg version="1.1" xmlns="http://www.w3.org/2000/svg" xmlns:xlink="http://www.w3.org/1999/xlink" x="0px" y="0px"
	 viewBox="0 0 23.4 18.6" style="enable-background:new 0 0 23.4 18.6;" xml:space="preserve">
<style type="text/css">
	.st0{fill:#999999;}
</style>
<path class="st0" d="M2.8,14.2c0,0.6,0,0.7-0.3,1l-2.4,3v0.4h7v-0.4l-2.5-3c-0.3-0.3-0.3-0.5-0.3-1v-9l6.1,13.4H11l5.3-13.4v10.6
	c0,0.3,0,0.3-0.2,0.5l-1.9,1.8v0.4h9.2v-0.4l-1.8-1.8c-0.2-0.2-0.2-0.2-0.2-0.5V2.7c0-0.3,0-0.4,0.2-0.5l1.8-1.8V0h-6.5l-4.6,11.6
	L7.1,0H0.3v0.4L2.5,3c0.2,0.3,0.3,0.4,0.3,0.8C2.8,3.8,2.8,14.2,2.8,14.2z"/>
</svg>
