<svg version="1.1" xmlns="http://www.w3.org/2000/svg" x="0" y="0" viewBox="0 0 12.8 12.6" style="enable-background:new 0 0 12.8 12.6" xml:space="preserve"><style>.st2{fill:none}.st3{fill:#7a7c7a}</style><linearGradient id="SVGID_1_" gradientUnits="userSpaceOnUse" x1="6.4" y1="20.04" x2="6.4" y2="8.237" gradientTransform="translate(0 -7.861)"><stop offset="0" style="stop-color:#cfe0ad"/><stop offset="1" style="stop-color:#fff"/></linearGradient><path d="M12.4 6.3c0 1.6-.6 3-1.6 4-1.1 1.2-2.6 1.9-4.4 1.9-1.7 0-3.3-.7-4.4-1.9-1-1-1.6-2.5-1.6-4C.4 3 3.1.4 6.3.4 9.7.3 12.4 3 12.4 6.3z" style="fill:url(#SVGID_1_)"/><path d="M6.4 12.6c-1.8 0-3.5-.7-4.7-2C.6 9.5 0 7.9 0 6.3 0 2.8 2.8 0 6.3 0 8-.1 9.6.6 10.8 1.8s1.9 2.8 1.9 4.5c0 1.6-.6 3.2-1.7 4.3-1.2 1.3-2.8 2-4.6 2zM6.5.8h-.2C3.2.8.8 3.3.8 6.3c0 1.4.6 2.8 1.5 3.7 1 1.1 2.6 1.8 4.1 1.8 1.6 0 3.1-.6 4.1-1.8 1-1 1.5-2.3 1.5-3.7 0-1.5-.6-2.9-1.7-4-1-1-2.4-1.5-3.8-1.5z" style="fill:#86bb56"/><g><path class="st2" d="M8.2 7c-.1 0-.2.1-.3.2-.1.1-.1.4-.1.8s0 .6.1.8c.1.1.2.2.3.2.2 0 .3-.1.3-.2.1-.2.2-.4.2-.8s0-.7-.1-.8c-.1-.1-.2-.2-.4-.2zM4.9 5.3c0-.1.1-.4.1-.7 0-.4 0-.7-.1-.8-.1-.2-.2-.2-.4-.2s-.3.1-.3.2c-.1.1-.1.4-.1.7 0 .4 0 .6.1.8.1.1.2.2.3.2.2 0 .3 0 .4-.2z"/><path class="st3" d="M5.4 5.8c.2-.3.4-.8.4-1.3s-.1-.9-.4-1.3c-.2-.3-.6-.4-1.1-.4s-.8.2-1.1.5-.3.8-.3 1.3.1.9.4 1.3c.2.3.6.5 1.1.5.4-.1.8-.2 1-.6zM4 5.3c-.1-.1-.1-.4-.1-.8s0-.6.1-.8c.1-.1.2-.2.3-.2.2 0 .3.1.3.2.1.1.1.4.1.8 0 .3 0 .6-.1.7 0 .3-.1.3-.3.3-.1 0-.2 0-.3-.2zM9.4 6.7c-.3-.3-.6-.5-1.1-.5s-.8.2-1.1.5c-.2.4-.3.8-.3 1.3s.1.9.4 1.3c.2.3.6.5 1.1.5s.8-.2 1.1-.5c.1-.4.3-.8.3-1.3s-.2-.9-.4-1.3zm-.7 2.1c-.1.1-.2.2-.4.2-.1 0-.2-.1-.3-.2-.1-.2-.1-.4-.1-.8s0-.7.1-.8c.1-.1.2-.2.3-.2.2 0 .3.1.3.2.1.2.2.4.2.8s-.1.6-.1.8zM7.6 2.8 3.8 9.7H5l3.9-6.9z"/></g></svg>