<svg version="1.1" xmlns="http://www.w3.org/2000/svg" x="0" y="0" viewBox="0 0 12.8 12.6" style="enable-background:new 0 0 12.8 12.6" xml:space="preserve"><style>.st2{fill:#7a7c7a}</style><linearGradient id="SVGID_1_" gradientUnits="userSpaceOnUse" x1="6.4" y1="21.964" x2="6.4" y2="10.161" gradientTransform="translate(0 -9.785)"><stop offset="0" style="stop-color:#cfe0ad"/><stop offset="1" style="stop-color:#fff"/></linearGradient><path d="M12.4 6.3c0 1.6-.6 3-1.6 4-1.1 1.2-2.6 1.9-4.4 1.9-1.7 0-3.3-.7-4.4-1.9-1-1-1.6-2.5-1.6-4C.4 3 3.1.4 6.3.4 9.7.3 12.4 3 12.4 6.3z" style="fill:url(#SVGID_1_)"/><path d="M6.4 12.6c-1.8 0-3.5-.7-4.7-2C.6 9.5 0 7.9 0 6.3 0 2.8 2.8 0 6.3 0 8-.1 9.6.6 10.8 1.8s1.9 2.8 1.9 4.5c0 1.6-.6 3.2-1.7 4.3-1.2 1.3-2.8 2-4.6 2zM6.5.8h-.2C3.2.8.8 3.3.8 6.3c0 1.4.6 2.8 1.5 3.7 1 1.1 2.6 1.8 4.1 1.8 1.6 0 3.1-.6 4.1-1.8 1-1 1.5-2.3 1.5-3.7 0-1.5-.6-2.9-1.7-4-1-1-2.4-1.5-3.8-1.5z" style="fill:#86bb56"/><g><path class="st2" d="M9.1 4.8H3.6v-2h5.5v2zm-4.6-.9h3.8v-.3H4.5v.3z"/><path class="st2" d="M10 9.6H2.8V3.9H10v5.7zm-6.4-.8h5.5v-4H3.6v4z"/><path class="st2" d="M10 7.8H7.6v-2H10v2zM8.5 7h.7v-.4h-.7V7z"/></g></svg>