<?xml version="1.0" encoding="utf-8"?>
<svg version="1.1" id="Слой_1" xmlns="http://www.w3.org/2000/svg" xmlns:xlink="http://www.w3.org/1999/xlink" x="0px" y="0px"
	 viewBox="0 0 48 40" style="enable-background:new 0 0 48 40;" xml:space="preserve">
<style type="text/css">
	.st0{fill-rule:evenodd;clip-rule:evenodd;fill:#999999;}
</style>
<g>
	<g transform="translate(-800.000000, -566.000000)">
		<path class="st0" d="M831.1,592.3c-1.8,0-3.3-1.4-3.3-3.2s1.5-3.3,3.3-3.3s3.2,1.5,3.2,3.3S832.9,592.3,831.1,592.3 M831.9,598.6
			c-1.7,1.7-4.2,2.5-7.9,2.5c0,0,0,0,0,0c0,0,0,0,0,0c-3.6,0-6.2-0.8-7.9-2.5c-0.5-0.5-0.5-1.3,0-1.8c0.5-0.5,1.3-0.5,1.9,0
			c1.2,1.1,3.1,1.7,6,1.7c0,0,0,0,0,0c0,0,0,0,0,0c2.9,0,4.9-0.6,6-1.7c0.5-0.5,1.3-0.5,1.9,0C832.4,597.2,832.4,598.1,831.9,598.6
			 M813.6,589.1c0-1.8,1.5-3.3,3.3-3.3c1.8,0,3.2,1.5,3.2,3.3c0,1.8-1.5,3.2-3.2,3.2C815.1,592.3,813.6,590.9,813.6,589.1
			 M840,568.6c1.2,0,2.2,1,2.2,2.2c0,1.2-1,2.2-2.2,2.2c-1.2,0-2.2-1-2.2-2.2C837.8,569.6,838.8,568.6,840,568.6 M848,585.6
			c0-3.2-2.6-5.7-5.8-5.7c-1.4,0-2.6,0.5-3.6,1.3c-3.5-2.2-8-3.5-12.8-3.8l2.5-7.8l6.9,1.6c0.2,2.5,2.3,4.4,4.8,4.4
			c2.7,0,4.8-2.1,4.8-4.8c0-2.6-2.2-4.8-4.8-4.8c-1.9,0-3.5,1-4.3,2.6l-8-1.9c-0.7-0.2-1.3,0.2-1.5,0.9l-3.1,9.7
			c-5.2,0.1-10,1.4-13.8,3.8c-1-0.8-2.2-1.2-3.5-1.2c-3.2,0-5.8,2.6-5.8,5.7c0,1.9,1,3.7,2.5,4.7c-0.1,0.5-0.1,0.9-0.1,1.4
			c0,3.9,2.3,7.6,6.5,10.3c4,2.6,9.3,4,15,4c5.6,0,11-1.4,15-4c4.2-2.7,6.5-6.4,6.5-10.3c0-0.4,0-0.8-0.1-1.3
			C846.9,589.4,848,587.6,848,585.6"/>
	</g>
</g>
</svg>
