<svg version="1.1" xmlns="http://www.w3.org/2000/svg" x="0" y="0" viewBox="0 0 12.8 12.6" style="enable-background:new 0 0 12.8 12.6" xml:space="preserve"><style>.st2{fill:#7a7c7a}</style><linearGradient id="SVGID_1_" gradientUnits="userSpaceOnUse" x1="6.4" y1="19.699" x2="6.4" y2="7.896" gradientTransform="translate(0 -7.52)"><stop offset="0" style="stop-color:#cfe0ad"/><stop offset="1" style="stop-color:#fff"/></linearGradient><path d="M12.4 6.3c0 1.6-.6 3-1.6 4-1.1 1.2-2.6 1.9-4.4 1.9-1.7 0-3.3-.7-4.4-1.9-1-1-1.6-2.5-1.6-4C.4 3 3.1.4 6.3.4 9.7.3 12.4 3 12.4 6.3z" style="fill:url(#SVGID_1_)"/><path d="M6.4 12.6c-1.8 0-3.5-.7-4.7-2C.6 9.5 0 7.9 0 6.3 0 2.8 2.8 0 6.3 0 8 0 9.6.6 10.8 1.8s1.9 2.8 1.9 4.5c0 1.6-.6 3.2-1.7 4.3-1.2 1.3-2.8 2-4.6 2zM6.5.8h-.2C3.2.8.8 3.3.8 6.3c0 1.4.6 2.8 1.5 3.7 1 1.1 2.5 1.8 4.1 1.8s3.1-.6 4.1-1.8c1-1 1.5-2.3 1.5-3.7 0-1.5-.6-2.9-1.7-4-1-1-2.4-1.5-3.8-1.5z" style="fill:#86bb56"/><g><path transform="rotate(-45.001 5.213 7.325)" class="st2" d="M2.5 6.7h5.4v1.2H2.5z"/><path class="st2" d="M5.3 9.8 3.7 8.6l1.4-1.5 1.3 1.6zM9.4 3.1c-.8-.8-2.2-.8-3.1 0-.8.9-.8 2.3 0 3.1s2.2.8 3.1 0c.8-.8.8-2.2 0-3.1zM7.2 5.3c-.3-.3-.3-.9 0-1.2s.9-.3 1.2 0 .3.9 0 1.2c-.3.3-.8.3-1.2 0z"/></g></svg>