<svg width="203" height="34" viewBox="0 0 203 34" fill="none" xmlns="http://www.w3.org/2000/svg">
<rect x="0.5" y="0.5" width="202" height="33" rx="7.5" fill="url(#paint0_linear)" stroke="#8CB948"/>
<path d="M34.3813 9H18.1747C17.6224 9 17.1747 9.44772 17.1747 10V23C17.1747 23.5523 17.6224 24 18.1747 24H34.3813C34.9336 24 35.3813 23.5523 35.3813 23V10C35.3813 9.44772 34.9336 9 34.3813 9Z" fill="#D5D5D5"/>
<path d="M34.423 10H18.1329V14.35H34.423V10Z" fill="white"/>
<path d="M34.423 14.35H18.1329V18.7H34.423V14.35Z" fill="#0039A6"/>
<path d="M34.423 18.65H18.1329V23H34.423V18.65Z" fill="#D52B1E"/>
<path d="M56.2178 13.8906C56.2178 14.3327 56.1381 14.752 55.9786 15.1484C55.8236 15.5404 55.6072 15.8753 55.3292 16.1533C54.9783 16.4997 54.5658 16.7617 54.0919 16.9395C53.6179 17.1172 53.0186 17.2061 52.294 17.2061H51.1456V21H49.7921V10.8213H52.3487C52.9503 10.8213 53.463 10.8714 53.8868 10.9717C54.3106 11.0719 54.6843 11.2337 55.0079 11.457C55.3861 11.7168 55.6824 12.0472 55.8965 12.4482C56.1107 12.8447 56.2178 13.3255 56.2178 13.8906ZM54.8096 13.9248C54.8096 13.5739 54.7481 13.2686 54.6251 13.0088C54.5066 12.749 54.3243 12.5371 54.0782 12.373C53.864 12.2318 53.6133 12.1315 53.3262 12.0723C53.0437 12.013 52.6905 11.9834 52.2667 11.9834H51.1456V16.0508H52.0684C52.6153 16.0508 53.0574 16.0075 53.3946 15.9209C53.7318 15.8298 54.0121 15.6702 54.2354 15.4424C54.4359 15.2373 54.5818 15.014 54.6729 14.7725C54.7641 14.5309 54.8096 14.2484 54.8096 13.9248ZM63.4161 13.3643L59.3077 23.8164H57.9337L59.3008 20.6309L56.5255 13.3643H57.9131L59.9981 19.0176L62.0762 13.3643H63.4161ZM67.4219 21.1709C66.8978 21.1709 66.4171 21.0911 65.9796 20.9316C65.5421 20.7676 65.1661 20.5215 64.8516 20.1934C64.5372 19.8652 64.2934 19.4528 64.1202 18.9561C63.947 18.4548 63.8604 17.8669 63.8604 17.1924C63.8604 16.5225 63.9493 15.9437 64.127 15.4561C64.3093 14.9684 64.5508 14.5583 64.8516 14.2256C65.1524 13.8929 65.5261 13.6377 65.9727 13.46C66.4239 13.2777 66.907 13.1865 67.4219 13.1865C67.8412 13.1865 68.2445 13.2458 68.6319 13.3643C69.0238 13.4827 69.3725 13.6195 69.6778 13.7744V15.2168H69.6026C69.5115 15.1393 69.393 15.0505 69.2471 14.9502C69.1059 14.8499 68.9327 14.7474 68.7276 14.6426C68.5499 14.5514 68.3402 14.4717 68.0987 14.4033C67.8572 14.335 67.6247 14.3008 67.4014 14.3008C66.7361 14.3008 66.2006 14.5537 65.795 15.0596C65.3939 15.5609 65.1934 16.2718 65.1934 17.1924C65.1934 18.0947 65.3871 18.7988 65.7745 19.3047C66.1664 19.806 66.7087 20.0566 67.4014 20.0566C67.8207 20.0566 68.2195 19.9701 68.5977 19.7969C68.976 19.6237 69.3109 19.4004 69.6026 19.127H69.6778V20.5693C69.5502 20.6286 69.3907 20.7015 69.1993 20.7881C69.0079 20.8701 68.8347 20.9316 68.6797 20.9727C68.461 21.0365 68.265 21.0843 68.0919 21.1162C67.9187 21.1527 67.6954 21.1709 67.4219 21.1709ZM73.8887 21.1709C73.3646 21.1709 72.8839 21.0911 72.4464 20.9316C72.0089 20.7676 71.6329 20.5215 71.3184 20.1934C71.004 19.8652 70.7602 19.4528 70.587 18.9561C70.4138 18.4548 70.3272 17.8669 70.3272 17.1924C70.3272 16.5225 70.4161 15.9437 70.5938 15.4561C70.7761 14.9684 71.0176 14.5583 71.3184 14.2256C71.6192 13.8929 71.9929 13.6377 72.4395 13.46C72.8907 13.2777 73.3738 13.1865 73.8887 13.1865C74.308 13.1865 74.7113 13.2458 75.0987 13.3643C75.4906 13.4827 75.8393 13.6195 76.1446 13.7744V15.2168H76.0694C75.9783 15.1393 75.8598 15.0505 75.7139 14.9502C75.5727 14.8499 75.3995 14.7474 75.1944 14.6426C75.0167 14.5514 74.807 14.4717 74.5655 14.4033C74.324 14.335 74.0915 14.3008 73.8682 14.3008C73.2029 14.3008 72.6674 14.5537 72.2618 15.0596C71.8607 15.5609 71.6602 16.2718 71.6602 17.1924C71.6602 18.0947 71.8539 18.7988 72.2413 19.3047C72.6332 19.806 73.1755 20.0566 73.8682 20.0566C74.2875 20.0566 74.6863 19.9701 75.0645 19.7969C75.4428 19.6237 75.7777 19.4004 76.0694 19.127H76.1446V20.5693C76.017 20.6286 75.8575 20.7015 75.6661 20.7881C75.4747 20.8701 75.3015 20.9316 75.1465 20.9727C74.9278 21.0365 74.7318 21.0843 74.5587 21.1162C74.3855 21.1527 74.1622 21.1709 73.8887 21.1709ZM83.4659 21H81.8663L79.2481 17.4795H78.6055V21H77.3204V13.3643H78.6055V16.6865C78.9382 16.682 79.2208 16.6136 79.4532 16.4814C79.6902 16.3447 79.8907 16.0827 80.0547 15.6953C80.1049 15.5814 80.1596 15.4492 80.2188 15.2988C80.2826 15.1484 80.3327 15.0163 80.3692 14.9023C80.5697 14.3418 80.8477 13.9453 81.2032 13.7129C81.5587 13.4805 82.0212 13.3643 82.5909 13.3643H82.9395V14.4717H82.6456C82.2855 14.4717 82.0144 14.5469 81.8321 14.6973C81.6544 14.8431 81.504 15.112 81.3809 15.5039C81.2533 15.9004 81.1029 16.2103 80.9297 16.4336C80.7566 16.6523 80.5652 16.821 80.3555 16.9395L83.4659 21ZM88.5587 19.1201V17.001C88.2533 17.0283 87.8659 17.0671 87.3965 17.1172C86.9317 17.1628 86.5557 17.2288 86.2686 17.3154C85.9268 17.4202 85.6443 17.582 85.421 17.8008C85.1977 18.015 85.086 18.3158 85.086 18.7031C85.086 19.1406 85.209 19.471 85.4551 19.6943C85.7012 19.9176 86.0613 20.0293 86.5352 20.0293C86.9408 20.0293 87.3077 19.9427 87.6358 19.7695C87.9639 19.5918 88.2715 19.3753 88.5587 19.1201ZM88.5587 20.1865C88.4538 20.264 88.3126 20.3734 88.1348 20.5146C87.9616 20.6514 87.793 20.7607 87.629 20.8428C87.4011 20.9613 87.1801 21.0524 86.9659 21.1162C86.7562 21.18 86.46 21.2119 86.0772 21.2119C85.7628 21.2119 85.4643 21.1527 85.1817 21.0342C84.8991 20.9157 84.6508 20.7493 84.4366 20.5352C84.2315 20.3255 84.0674 20.068 83.9444 19.7627C83.8214 19.4528 83.7598 19.127 83.7598 18.7852C83.7598 18.2565 83.8715 17.8076 84.0948 17.4385C84.3181 17.0648 84.6713 16.7686 85.1544 16.5498C85.5827 16.3538 86.0886 16.2194 86.6719 16.1465C87.2553 16.069 87.8842 16.012 88.5587 15.9756V15.7295C88.5587 15.4287 88.5131 15.1872 88.4219 15.0049C88.3308 14.818 88.2032 14.6745 88.0391 14.5742C87.8751 14.4694 87.6745 14.401 87.4376 14.3691C87.2006 14.3327 86.9568 14.3145 86.7061 14.3145C86.4099 14.3145 86.0613 14.36 85.6602 14.4512C85.2592 14.5378 84.8581 14.6654 84.4571 14.834H84.3819V13.5283C84.6189 13.46 84.9584 13.3848 85.4005 13.3027C85.8425 13.2207 86.28 13.1797 86.713 13.1797C87.237 13.1797 87.6791 13.2207 88.0391 13.3027C88.3991 13.3848 88.7227 13.5329 89.0098 13.7471C89.2878 13.9567 89.4952 14.2279 89.6319 14.5605C89.7686 14.8932 89.837 15.2988 89.837 15.7773V21H88.5587V20.1865ZM97.1788 21H95.8936V17.9717H94.6221L92.3594 21H90.8624L93.3165 17.8555C92.683 17.6686 92.2182 17.3906 91.9219 17.0215C91.6303 16.6523 91.4844 16.1579 91.4844 15.5381C91.4844 15.1598 91.5665 14.8294 91.7305 14.5469C91.8991 14.2598 92.1247 14.0182 92.4073 13.8223C92.6352 13.6673 92.9223 13.5534 93.2686 13.4805C93.615 13.403 94.0023 13.3643 94.4307 13.3643H97.1788V21ZM95.8936 16.96V14.3896H94.4991C94.2029 14.3896 93.9682 14.4056 93.795 14.4375C93.6264 14.4694 93.4623 14.5309 93.3028 14.6221C93.1387 14.7223 93.0134 14.859 92.9268 15.0322C92.8448 15.2008 92.8038 15.3831 92.8038 15.5791C92.8038 15.8298 92.8311 16.0348 92.8858 16.1943C92.945 16.3493 93.0499 16.4928 93.2003 16.625C93.3598 16.7617 93.5534 16.8529 93.7813 16.8984C94.0137 16.9395 94.2667 16.96 94.5401 16.96H95.8936ZM109.408 18.6895C109.408 19.0586 109.338 19.3867 109.196 19.6738C109.055 19.9564 108.861 20.1934 108.615 20.3848C108.305 20.6263 107.98 20.7904 107.638 20.877C107.301 20.959 106.895 21 106.421 21H103.42V13.3643H106.223C106.783 13.3643 107.193 13.3825 107.453 13.4189C107.713 13.4508 107.97 13.5374 108.226 13.6787C108.495 13.8245 108.693 14.0182 108.82 14.2598C108.948 14.5013 109.012 14.7884 109.012 15.1211C109.012 15.4857 108.912 15.8138 108.711 16.1055C108.51 16.3926 108.244 16.6159 107.911 16.7754L107.945 16.8232C108.36 16.9281 108.706 17.14 108.984 17.459C109.267 17.778 109.408 18.1882 109.408 18.6895ZM107.692 15.3193C107.692 15.1462 107.663 14.9958 107.604 14.8682C107.549 14.7406 107.451 14.6403 107.31 14.5674C107.146 14.4808 106.961 14.4307 106.756 14.417C106.555 14.3988 106.275 14.3896 105.915 14.3896H104.691V16.4814H106.168C106.482 16.4814 106.706 16.4678 106.838 16.4404C106.97 16.4085 107.116 16.3447 107.275 16.249C107.426 16.1579 107.533 16.0348 107.597 15.8799C107.661 15.7249 107.692 15.5381 107.692 15.3193ZM108.082 18.6963C108.082 18.4365 108.043 18.2292 107.966 18.0742C107.893 17.9147 107.729 17.7734 107.474 17.6504C107.314 17.5729 107.143 17.5251 106.961 17.5068C106.779 17.4886 106.526 17.4795 106.202 17.4795H104.691V19.9746H105.806C106.266 19.9746 106.624 19.9564 106.879 19.9199C107.134 19.8835 107.353 19.8105 107.535 19.7012C107.727 19.5827 107.866 19.446 107.952 19.291C108.039 19.1361 108.082 18.9378 108.082 18.6963ZM114.077 21.1777C112.86 21.1777 111.915 20.8359 111.24 20.1523C110.57 19.4642 110.235 18.4889 110.235 17.2266C110.235 15.9824 110.561 14.9935 111.213 14.2598C111.865 13.5215 112.717 13.1523 113.77 13.1523C114.244 13.1523 114.663 13.2207 115.027 13.3574C115.392 13.4941 115.711 13.7083 115.984 14C116.258 14.2917 116.468 14.6494 116.613 15.0732C116.759 15.4925 116.832 16.0075 116.832 16.6182V17.3154H111.541C111.541 18.2041 111.764 18.8831 112.211 19.3525C112.658 19.8219 113.275 20.0566 114.064 20.0566C114.346 20.0566 114.622 20.0247 114.891 19.9609C115.164 19.8971 115.41 19.8151 115.629 19.7148C115.861 19.61 116.057 19.5098 116.217 19.4141C116.376 19.3138 116.509 19.2204 116.613 19.1338H116.689V20.5352C116.538 20.5944 116.351 20.6696 116.128 20.7607C115.905 20.8473 115.704 20.9157 115.526 20.9658C115.276 21.0342 115.048 21.0866 114.843 21.123C114.642 21.1595 114.387 21.1777 114.077 21.1777ZM115.581 16.3311C115.572 15.9847 115.531 15.6862 115.458 15.4355C115.385 15.1849 115.28 14.973 115.144 14.7998C114.993 14.6084 114.8 14.4626 114.563 14.3623C114.33 14.262 114.041 14.2119 113.694 14.2119C113.353 14.2119 113.061 14.2643 112.819 14.3691C112.582 14.4694 112.366 14.6175 112.17 14.8135C111.979 15.014 111.833 15.2373 111.732 15.4834C111.632 15.7249 111.568 16.0075 111.541 16.3311H115.581ZM124.536 16.9805C124.536 18.252 124.231 19.266 123.62 20.0225C123.014 20.7744 122.246 21.1504 121.316 21.1504C120.938 21.1504 120.603 21.1071 120.312 21.0205C120.02 20.9339 119.721 20.7995 119.416 20.6172V23.8164H118.131V13.3643H119.416V14.1641C119.735 13.877 120.088 13.6377 120.476 13.4463C120.868 13.2503 121.294 13.1523 121.754 13.1523C122.629 13.1523 123.31 13.4987 123.798 14.1914C124.29 14.8841 124.536 15.8138 124.536 16.9805ZM123.21 17.124C123.21 16.2536 123.071 15.5791 122.793 15.1006C122.515 14.6175 122.064 14.376 121.44 14.376C121.075 14.376 120.722 14.458 120.38 14.6221C120.043 14.7816 119.721 14.9889 119.416 15.2441V19.5713C119.753 19.7354 120.04 19.847 120.277 19.9062C120.519 19.9655 120.795 19.9951 121.105 19.9951C121.77 19.9951 122.287 19.7513 122.656 19.2637C123.025 18.776 123.21 18.0628 123.21 17.124ZM128.904 21.1709C128.38 21.1709 127.899 21.0911 127.462 20.9316C127.024 20.7676 126.648 20.5215 126.334 20.1934C126.02 19.8652 125.776 19.4528 125.603 18.9561C125.429 18.4548 125.343 17.8669 125.343 17.1924C125.343 16.5225 125.432 15.9437 125.609 15.4561C125.792 14.9684 126.033 14.5583 126.334 14.2256C126.635 13.8929 127.009 13.6377 127.455 13.46C127.906 13.2777 128.389 13.1865 128.904 13.1865C129.324 13.1865 129.727 13.2458 130.114 13.3643C130.506 13.4827 130.855 13.6195 131.16 13.7744V15.2168H131.085C130.994 15.1393 130.875 15.0505 130.73 14.9502C130.588 14.8499 130.415 14.7474 130.21 14.6426C130.032 14.5514 129.823 14.4717 129.581 14.4033C129.34 14.335 129.107 14.3008 128.884 14.3008C128.218 14.3008 127.683 14.5537 127.277 15.0596C126.876 15.5609 126.676 16.2718 126.676 17.1924C126.676 18.0947 126.87 18.7988 127.257 19.3047C127.649 19.806 128.191 20.0566 128.884 20.0566C129.303 20.0566 129.702 19.9701 130.08 19.7969C130.458 19.6237 130.793 19.4004 131.085 19.127H131.16V20.5693C131.033 20.6286 130.873 20.7015 130.682 20.7881C130.49 20.8701 130.317 20.9316 130.162 20.9727C129.943 21.0365 129.747 21.0843 129.574 21.1162C129.401 21.1527 129.178 21.1709 128.904 21.1709ZM138.365 21H137.094V15.3057L133.498 21H132.336V13.3643H133.607V18.9697L137.162 13.3643H138.365V21ZM145.755 21H144.47V17.9717H143.198L140.936 21H139.439L141.893 17.8555C141.259 17.6686 140.794 17.3906 140.498 17.0215C140.206 16.6523 140.061 16.1579 140.061 15.5381C140.061 15.1598 140.143 14.8294 140.307 14.5469C140.475 14.2598 140.701 14.0182 140.983 13.8223C141.211 13.6673 141.498 13.5534 141.845 13.4805C142.191 13.403 142.579 13.3643 143.007 13.3643H145.755V21ZM144.47 16.96V14.3896H143.075C142.779 14.3896 142.544 14.4056 142.371 14.4375C142.203 14.4694 142.038 14.5309 141.879 14.6221C141.715 14.7223 141.59 14.859 141.503 15.0322C141.421 15.2008 141.38 15.3831 141.38 15.5791C141.38 15.8298 141.407 16.0348 141.462 16.1943C141.521 16.3493 141.626 16.4928 141.776 16.625C141.936 16.7617 142.13 16.8529 142.357 16.8984C142.59 16.9395 142.843 16.96 143.116 16.96H144.47ZM155.031 21.1709C154.507 21.1709 154.026 21.0911 153.589 20.9316C153.151 20.7676 152.775 20.5215 152.461 20.1934C152.147 19.8652 151.903 19.4528 151.73 18.9561C151.556 18.4548 151.47 17.8669 151.47 17.1924C151.47 16.5225 151.559 15.9437 151.736 15.4561C151.919 14.9684 152.16 14.5583 152.461 14.2256C152.762 13.8929 153.135 13.6377 153.582 13.46C154.033 13.2777 154.516 13.1865 155.031 13.1865C155.451 13.1865 155.854 13.2458 156.241 13.3643C156.633 13.4827 156.982 13.6195 157.287 13.7744V15.2168H157.212C157.121 15.1393 157.002 15.0505 156.857 14.9502C156.715 14.8499 156.542 14.7474 156.337 14.6426C156.159 14.5514 155.95 14.4717 155.708 14.4033C155.467 14.335 155.234 14.3008 155.011 14.3008C154.345 14.3008 153.81 14.5537 153.404 15.0596C153.003 15.5609 152.803 16.2718 152.803 17.1924C152.803 18.0947 152.996 18.7988 153.384 19.3047C153.776 19.806 154.318 20.0566 155.011 20.0566C155.43 20.0566 155.829 19.9701 156.207 19.7969C156.585 19.6237 156.92 19.4004 157.212 19.127H157.287V20.5693C157.16 20.6286 157 20.7015 156.809 20.7881C156.617 20.8701 156.444 20.9316 156.289 20.9727C156.07 21.0365 155.874 21.0843 155.701 21.1162C155.528 21.1527 155.305 21.1709 155.031 21.1709ZM162.729 19.1201V17.001C162.423 17.0283 162.036 17.0671 161.566 17.1172C161.102 17.1628 160.726 17.2288 160.439 17.3154C160.097 17.4202 159.814 17.582 159.591 17.8008C159.368 18.015 159.256 18.3158 159.256 18.7031C159.256 19.1406 159.379 19.471 159.625 19.6943C159.871 19.9176 160.231 20.0293 160.705 20.0293C161.111 20.0293 161.478 19.9427 161.806 19.7695C162.134 19.5918 162.441 19.3753 162.729 19.1201ZM162.729 20.1865C162.624 20.264 162.482 20.3734 162.305 20.5146C162.132 20.6514 161.963 20.7607 161.799 20.8428C161.571 20.9613 161.35 21.0524 161.136 21.1162C160.926 21.18 160.63 21.2119 160.247 21.2119C159.933 21.2119 159.634 21.1527 159.352 21.0342C159.069 20.9157 158.821 20.7493 158.607 20.5352C158.401 20.3255 158.237 20.068 158.114 19.7627C157.991 19.4528 157.93 19.127 157.93 18.7852C157.93 18.2565 158.041 17.8076 158.265 17.4385C158.488 17.0648 158.841 16.7686 159.324 16.5498C159.753 16.3538 160.259 16.2194 160.842 16.1465C161.425 16.069 162.054 16.012 162.729 15.9756V15.7295C162.729 15.4287 162.683 15.1872 162.592 15.0049C162.501 14.818 162.373 14.6745 162.209 14.5742C162.045 14.4694 161.844 14.401 161.607 14.3691C161.371 14.3327 161.127 14.3145 160.876 14.3145C160.58 14.3145 160.231 14.36 159.83 14.4512C159.429 14.5378 159.028 14.6654 158.627 14.834H158.552V13.5283C158.789 13.46 159.128 13.3848 159.57 13.3027C160.012 13.2207 160.45 13.1797 160.883 13.1797C161.407 13.1797 161.849 13.2207 162.209 13.3027C162.569 13.3848 162.893 13.5329 163.18 13.7471C163.458 13.9567 163.665 14.2279 163.802 14.5605C163.939 14.8932 164.007 15.2988 164.007 15.7773V21H162.729V20.1865ZM171.848 21H170.576V15.3057L166.981 21H165.818V13.3643H167.09V18.9697L170.645 13.3643H171.848V21ZM171.273 9.81641C171.273 10.2083 171.226 10.5661 171.13 10.8896C171.034 11.2087 170.898 11.4775 170.72 11.6963C170.515 11.9378 170.282 12.1201 170.023 12.2432C169.763 12.3617 169.43 12.4209 169.024 12.4209C168.651 12.4209 168.323 12.3594 168.04 12.2363C167.762 12.1087 167.527 11.9287 167.336 11.6963C167.149 11.4684 167.008 11.195 166.912 10.876C166.816 10.557 166.769 10.2038 166.769 9.81641H167.876C167.876 10.4316 167.972 10.876 168.163 11.1494C168.355 11.4183 168.642 11.5527 169.024 11.5527C169.385 11.5527 169.665 11.4206 169.865 11.1562C170.066 10.8874 170.166 10.4408 170.166 9.81641H171.273ZM179.285 14.4922H176.688V21H175.402V14.4922H172.805V13.3643H179.285V14.4922ZM184.508 19.1201V17.001C184.203 17.0283 183.815 17.0671 183.346 17.1172C182.881 17.1628 182.505 17.2288 182.218 17.3154C181.876 17.4202 181.593 17.582 181.37 17.8008C181.147 18.015 181.035 18.3158 181.035 18.7031C181.035 19.1406 181.158 19.471 181.404 19.6943C181.65 19.9176 182.01 20.0293 182.484 20.0293C182.89 20.0293 183.257 19.9427 183.585 19.7695C183.913 19.5918 184.221 19.3753 184.508 19.1201ZM184.508 20.1865C184.403 20.264 184.262 20.3734 184.084 20.5146C183.911 20.6514 183.742 20.7607 183.578 20.8428C183.35 20.9613 183.129 21.0524 182.915 21.1162C182.705 21.18 182.409 21.2119 182.026 21.2119C181.712 21.2119 181.413 21.1527 181.131 21.0342C180.848 20.9157 180.6 20.7493 180.386 20.5352C180.181 20.3255 180.017 20.068 179.894 19.7627C179.771 19.4528 179.709 19.127 179.709 18.7852C179.709 18.2565 179.821 17.8076 180.044 17.4385C180.267 17.0648 180.621 16.7686 181.104 16.5498C181.532 16.3538 182.038 16.2194 182.621 16.1465C183.204 16.069 183.833 16.012 184.508 15.9756V15.7295C184.508 15.4287 184.462 15.1872 184.371 15.0049C184.28 14.818 184.152 14.6745 183.988 14.5742C183.824 14.4694 183.624 14.401 183.387 14.3691C183.15 14.3327 182.906 14.3145 182.655 14.3145C182.359 14.3145 182.01 14.36 181.609 14.4512C181.208 14.5378 180.807 14.6654 180.406 14.834H180.331V13.5283C180.568 13.46 180.908 13.3848 181.35 13.3027C181.792 13.2207 182.229 13.1797 182.662 13.1797C183.186 13.1797 183.628 13.2207 183.988 13.3027C184.348 13.3848 184.672 13.5329 184.959 13.7471C185.237 13.9567 185.444 14.2279 185.581 14.5605C185.718 14.8932 185.786 15.2988 185.786 15.7773V21H184.508V20.1865Z" fill="white"/>
<defs>
<linearGradient id="paint0_linear" x1="101.5" y1="0" x2="101.5" y2="34" gradientUnits="userSpaceOnUse">
<stop stop-color="#6B9D22"/>
<stop offset="1" stop-color="#5C901E"/>
</linearGradient>
</defs>
</svg>
