<svg viewBox="0 0 14 14" fill="none" xmlns="http://www.w3.org/2000/svg">
<path d="M6.96973 0.5C7.10528 0.499701 7.23458 0.527629 7.3623 0.585938C7.47155 0.635811 7.57301 0.715627 7.66602 0.839844L7.6709 0.845703L9.62207 3.37207L9.71484 3.49219L9.8584 3.54004L12.8203 4.5332L12.832 4.53711C13.0315 4.59851 13.1753 4.70461 13.2832 4.85938C13.3995 5.02629 13.455 5.20239 13.4551 5.40039C13.4551 5.4901 13.4411 5.5822 13.4131 5.67773C13.3896 5.75792 13.35 5.84121 13.2881 5.92676L13.2842 5.93164L11.3682 8.64941L11.2734 8.78418L11.2773 8.94922L11.3467 11.8066V11.8086C11.3545 12.0824 11.2707 12.2907 11.0928 12.4688C10.9054 12.6561 10.7089 12.736 10.4844 12.7393C10.4706 12.7376 10.451 12.735 10.4248 12.7314C10.3698 12.7239 10.2926 12.7122 10.1924 12.6973L7.10352 11.835L6.96875 11.7979L6.83398 11.835L3.71582 12.7061L3.68945 12.7139L3.66406 12.7236C3.65651 12.7266 3.64139 12.7311 3.61523 12.7334C3.55822 12.7383 3.51023 12.7406 3.4707 12.7402H3.4668C3.23645 12.7402 3.03599 12.66 2.84473 12.4688C2.66667 12.2907 2.58299 12.0825 2.59082 11.8086V11.8066L2.66016 8.93164L2.66406 8.7666L2.56934 8.63184L0.669922 5.93164L0.666016 5.92578L0.588867 5.7998C0.568152 5.75849 0.551757 5.71768 0.540039 5.67773C0.512227 5.58279 0.499705 5.4914 0.5 5.40234V5.40039C0.50005 5.21387 0.552206 5.04098 0.666992 4.87109C0.771494 4.7165 0.916813 4.60307 1.12305 4.53125L1.12207 4.53027L4.0791 3.54004L4.22266 3.49219L4.31543 3.37207L6.2666 0.845703L6.27148 0.839844C6.36558 0.714484 6.4668 0.63557 6.57422 0.586914C6.70228 0.528931 6.83259 0.500305 6.96973 0.5Z" fill="url(#paint0_linear_3168_32589)" stroke="#83A034"/>
<defs>
<linearGradient id="paint0_linear_3168_32589" x1="6.9773" y1="0" x2="6.9773" y2="13.2404" gradientUnits="userSpaceOnUse">
<stop offset="0.139423" stop-color="white"/>
<stop offset="1" stop-color="white" stop-opacity="0.13"/>
</linearGradient>
</defs>
</svg>
