<?xml version="1.0" encoding="utf-8"?>
<svg version="1.1" id="Слой_1" xmlns="http://www.w3.org/2000/svg" xmlns:xlink="http://www.w3.org/1999/xlink" x="0px" y="0px"
	 viewBox="0 0 135.7 112.2" style="enable-background:new 0 0 135.7 112.2;" xml:space="preserve">
<style type="text/css">
	.st0{fill:#999999;}
</style>
<g transform="matrix(3.468208 0 0 3.468208 0 -.00001)">
	<path class="st0" d="M2.4,14.1l23.3-9.6c2.3-1,10.1-4.2,10.1-4.2s3.6-1.4,3.3,2c-0.1,1.4-0.9,6.3-1.7,11.6l-2.5,15.7
		c0,0-0.2,2.3-1.9,2.7c-1.7,0.4-4.5-1.4-5-1.8c-0.4-0.3-7.5-4.8-10.1-7c-0.7-0.6-1.5-1.8,0.1-3.2c3.6-3.3,7.9-7.4,10.5-10
		c1.2-1.2,2.4-4-2.6-0.6l-14.1,9.5c0,0-1.6,1-4.6,0.1s-6.5-2.1-6.5-2.1S-1.7,15.7,2.4,14.1L2.4,14.1z"/>
</g>
</svg>
