<svg version="1.1" xmlns="http://www.w3.org/2000/svg" x="0" y="0" viewBox="0 0 12.8 12.6" style="enable-background:new 0 0 12.8 12.6" xml:space="preserve"><style>.st2{fill:#7a7c7a}</style><linearGradient id="SVGID_1_" gradientUnits="userSpaceOnUse" x1="6.4" y1="12.956" x2="6.4" y2="1.153" gradientTransform="translate(0 -.756)"><stop offset="0" style="stop-color:#cfe0ad"/><stop offset="1" style="stop-color:#fff"/></linearGradient><path d="M12.4 6.3c0 1.6-.6 3-1.6 4-1.1 1.2-2.6 1.9-4.4 1.9-1.7 0-3.3-.7-4.4-1.9-1-1-1.6-2.5-1.6-4C.4 3 3.1.4 6.3.4 9.7.3 12.4 3 12.4 6.3z" style="fill:url(#SVGID_1_)"/><path d="M6.4 12.6c-1.8 0-3.5-.7-4.7-2C.7 9.5 0 7.9 0 6.3 0 2.8 2.8 0 6.3 0 8 0 9.6.6 10.9 1.8c1.2 1.2 1.9 2.8 1.9 4.5 0 1.6-.6 3.2-1.7 4.3-1.2 1.3-2.9 2-4.7 2zM6.5.8h-.2C3.2.8.8 3.3.8 6.3c0 1.4.6 2.8 1.5 3.7 1 1.1 2.6 1.8 4.1 1.8 1.6 0 3.1-.6 4.1-1.8 1-1 1.5-2.3 1.5-3.7 0-1.5-.6-2.9-1.7-4-1-1-2.4-1.5-3.8-1.5z" style="fill:#86bb56"/><g><circle class="st2" cx="6.3" cy="4.6" r="1.5"/><path class="st2" d="M9.3 9H3.5V7.3c0-.4.3-.7.7-.7h1.4L6.4 8l.7-1.4h1.5c.4 0 .7.4.7.7V9z"/></g></svg>