<?xml version="1.0" encoding="utf-8"?>
<svg version="1.1"
	 xmlns="http://www.w3.org/2000/svg" xmlns:xlink="http://www.w3.org/1999/xlink" x="0px" y="0px" viewBox="0 0 37.7 21.4"
	 style="enable-background:new 0 0 37.7 21.4;" xml:space="preserve">
<style type="text/css">
	.st0{fill:#999999;}
</style>
<path class="st0" d="M37.4,19.3c0-0.1-0.1-0.2-0.1-0.2c-1-1.6-2.3-3.1-3.7-4.3c-0.6-0.5-1.1-1-1.6-1.6
	c-0.4-0.4-0.5-1-0.3-1.6c0.5-0.9,1.1-1.8,1.8-2.6l1.3-1.7c2.3-3,3.2-4.9,2.9-5.8l-0.1-0.2c-0.2-0.2-0.4-0.3-0.6-0.3
	c-0.4-0.1-0.8-0.1-1.2,0H30c-0.1,0-0.3,0-0.4,0l-0.3,0.1h-0.1l-0.1,0.1C29.1,1.3,29,1.4,29,1.4c-0.1,0.1-0.1,0.2-0.2,0.3
	c-0.6,1.5-1.3,3-2.1,4.4c-0.5,0.8-0.9,1.5-1.3,2.1c-0.3,0.5-0.6,0.9-1,1.3c-0.2,0.2-0.5,0.5-0.7,0.7c-0.1,0.1-0.3,0.2-0.5,0.2
	l-0.3-0.1c-0.2-0.1-0.3-0.3-0.4-0.5c-0.1-0.2-0.2-0.5-0.2-0.8c0-0.3-0.1-0.6-0.1-0.8V2.5c0-0.3,0-0.6-0.1-0.9c0-0.2-0.1-0.4-0.2-0.6
	c-0.1-0.2-0.2-0.4-0.4-0.5c-0.2-0.1-0.4-0.2-0.7-0.3C19.8,0.1,18.9,0,18,0c-1.6-0.1-3.2,0-4.7,0.5c-0.3,0.2-0.5,0.4-0.7,0.6
	c-0.2,0.3-0.3,0.4-0.1,0.5c0.6,0,1.2,0.3,1.7,0.8l0.1,0.2c0.1,0.3,0.2,0.6,0.3,0.9c0.1,0.5,0.2,1,0.2,1.5c0.1,0.8,0.1,1.6,0,2.4
	c-0.1,0.7-0.1,1.2-0.2,1.6c0,0.3-0.1,0.6-0.3,0.9c-0.1,0.1-0.2,0.3-0.2,0.4c0,0-0.1,0.1-0.1,0.1c-0.2,0.1-0.3,0.1-0.5,0.1
	c-0.2,0-0.5-0.1-0.7-0.3c-0.3-0.2-0.5-0.5-0.8-0.8c-0.4-0.4-0.7-0.9-1-1.3c-0.4-0.6-0.7-1.2-1.1-2L9.6,5.6C9.4,5.3,9.2,4.7,8.8,4
	C8.5,3.3,8.2,2.7,7.9,2C7.8,1.8,7.7,1.6,7.5,1.4L7.4,1.3C7.3,1.3,7.2,1.2,7.1,1.2C6.9,1.1,6.8,1.1,6.6,1H1.2C0.8,1,0.4,1.1,0.1,1.4
	L0,1.5C0,1.6,0,1.7,0,1.8C0,2,0,2.2,0.1,2.4C0.9,4.2,1.7,6,2.6,7.7c0.9,1.7,1.7,3.1,2.4,4.1c0.7,1,1.4,2,2.1,3s1.2,1.6,1.4,1.8
	c0.2,0.3,0.4,0.5,0.5,0.6l0.5,0.5c0.4,0.4,0.9,0.8,1.4,1.1c0.6,0.5,1.3,0.9,2,1.3c0.8,0.4,1.7,0.8,2.6,1c0.9,0.3,1.9,0.4,2.9,0.3
	h2.2c0.4,0,0.7-0.2,1-0.4l0.1-0.1c0.1-0.1,0.1-0.2,0.2-0.4c0-0.2,0.1-0.4,0.1-0.5c0-0.5,0-1,0.1-1.5c0.1-0.3,0.2-0.7,0.3-1
	c0.1-0.2,0.3-0.4,0.4-0.6c0.1-0.1,0.2-0.2,0.3-0.3l0.2-0.1c0.4-0.1,0.8,0,1.1,0.3c0.4,0.3,0.8,0.7,1.2,1.1c0.4,0.5,0.8,1,1.3,1.5
	c0.4,0.4,0.9,0.8,1.5,1.1l0.4,0.2c0.3,0.2,0.7,0.3,1,0.4c0.3,0.1,0.7,0.2,1.1,0.1l5-0.1c0.4,0,0.8-0.1,1.2-0.2
	c0.2-0.1,0.4-0.3,0.5-0.5c0-0.2,0-0.4,0-0.7C37.5,19.6,37.4,19.5,37.4,19.3L37.4,19.3z"/>
</svg>
