<svg viewBox="0 0 38 38" fill="none" xmlns="http://www.w3.org/2000/svg">
<path d="M20.0663 0.237749C20.161 7.82942 20.6802 12.0972 23.5287 14.9454C26.3771 17.7937 30.6451 18.3129 38.2373 18.4076C37.9457 8.50427 29.9696 0.52928 20.0663 0.237749Z" fill="#999999"></path>
<path d="M15.4805 14.9454C18.329 12.0972 18.8482 7.82943 18.9429 0.23775C9.03956 0.529284 1.06349 8.50428 0.77193 18.4076C8.36408 18.3129 12.6321 17.7937 15.4805 14.9454Z" fill="#999999"></path>
<path d="M0.77193 19.5309C1.06349 29.4342 9.03956 37.4092 18.9429 37.7008C18.8482 30.1091 18.329 25.8413 15.4805 22.9931C12.6321 20.1448 8.36409 19.6256 0.77193 19.5309Z" fill="#999999"></path>
<path d="M38.2373 19.5309C30.6451 19.6256 26.3771 20.1448 23.5287 22.9931C20.6802 25.8413 20.161 30.1091 20.0663 37.7008C29.9696 37.4092 37.9457 29.4342 38.2373 19.5309Z" fill="#999999"></path>
</svg>