<svg width="100" height="24" viewBox="0 0 100 24" fill="none" xmlns="http://www.w3.org/2000/svg">
<path fill-rule="evenodd" clip-rule="evenodd" d="M87.4707 19.4761L86.8959 22.7255H90.1532L90.728 19.4761H87.4707ZM90.6248 18.0124L92.4229 10.2549L94 1.26792H90.6248L89.0478 10.2256L88.1045 17.9831L90.6248 18.0124ZM81.5015 13.8409H82.9754L82.2826 17.7929C82.2194 18.4049 81.9492 18.9775 81.5162 19.4175C81.1332 19.7246 80.6523 19.8855 80.1602 19.8713C79.9397 19.8895 79.7179 19.8582 79.5112 19.7796C79.3045 19.7011 79.1183 19.5773 78.9664 19.4175C78.8213 19.1753 78.7292 18.9054 78.6962 18.6255C78.6632 18.3455 78.69 18.0618 78.7748 17.7929L80.8235 6.20052C80.8847 5.58366 81.1549 5.00569 81.5899 4.5612C81.9681 4.24249 82.4499 4.07086 82.9459 4.07818C83.1687 4.06361 83.392 4.09952 83.5988 4.1832C83.8056 4.26687 83.9906 4.39613 84.1397 4.5612C84.2811 4.8077 84.3697 5.0805 84.4002 5.36256C84.4306 5.64461 84.4021 5.92987 84.3166 6.20052L84.0513 8.4985H87.2349L87.6034 6.42007C87.7724 5.75696 87.8061 5.06694 87.7023 4.39072C87.5985 3.71449 87.3594 3.06575 86.9991 2.48277C86.5736 1.96781 86.027 1.56487 85.4074 1.30958C84.7879 1.0543 84.1146 0.954526 83.447 1.01909C81.975 0.975224 80.5433 1.49989 79.4528 2.48277C78.3601 3.56173 77.6645 4.97426 77.4778 6.49325L75.5028 17.5733C75.3203 18.2449 75.2758 18.9461 75.372 19.6351C75.4682 20.3241 75.7032 20.9869 76.0629 21.5838C76.4983 22.0867 77.0508 22.4763 77.6725 22.7186C78.2941 22.961 78.966 23.0487 79.6296 22.9743C81.0968 23.0435 82.5339 22.5451 83.6386 21.5838C84.6934 20.4886 85.3563 19.0794 85.5252 17.5733L86.719 10.7672H82.0026L81.5015 13.8409ZM66.7184 1.26792H62.0167L58.2289 22.7255H61.1766L63.8591 7.5471L63.697 22.7255H66.8806L71.936 7.34219L69.224 22.7255H72.4076L76.1955 1.26792H71.4938L66.5121 16.5048L66.7184 1.26792ZM46.7326 17.5733C46.5509 18.248 46.5121 18.9527 46.6187 19.643C46.7252 20.3333 46.9748 20.9942 47.3516 21.5838C47.794 22.078 48.3476 22.4615 48.9674 22.7031C49.5872 22.9447 50.2556 23.0376 50.9184 22.9743C52.3973 23.0325 53.8442 22.5361 54.9716 21.5838C56.0787 20.5098 56.7898 19.0972 56.9908 17.5733L58.9953 6.42007C59.1621 5.75445 59.1907 5.06206 59.0792 4.38512C58.9677 3.70819 58.7185 3.06091 58.3468 2.48277C57.9118 1.97533 57.3615 1.57794 56.7413 1.32344C56.1211 1.06893 55.4488 0.964612 54.78 1.01909C53.2913 0.981103 51.8432 1.50402 50.7268 2.48277C49.6234 3.5335 48.9028 4.91845 48.6781 6.42007L46.7326 17.5733ZM52.127 6.20052C52.1811 5.58175 52.4523 5.00153 52.8934 4.5612C53.2716 4.24249 53.7534 4.07086 54.2494 4.07818C54.4722 4.06361 54.6955 4.09952 54.9023 4.1832C55.1091 4.26687 55.2941 4.39613 55.4432 4.5612C55.5806 4.8092 55.6669 5.08182 55.6973 5.36324C55.7276 5.64465 55.7014 5.92925 55.6201 6.20052L53.5714 17.7929C53.5173 18.4116 53.2461 18.9919 52.805 19.4322C52.4268 19.7509 51.945 19.9225 51.449 19.9152C51.2262 19.9298 51.0029 19.8939 50.7961 19.8102C50.5893 19.7265 50.4043 19.5972 50.2552 19.4322C50.1299 19.1792 50.0563 18.9041 50.0386 18.6228C50.0209 18.3414 50.0595 18.0594 50.152 17.7929L52.127 6.20052ZM40.9107 19.4761L40.3359 22.7255H43.5932L44.168 19.4761H40.9107ZM44.0649 18.0124L45.863 10.2549L47.44 1.26792H44.0649L42.4878 10.2256L41.5445 17.9831L44.0649 18.0124ZM34.9415 13.8409H36.4154L35.7227 17.7929C35.6594 18.4049 35.3893 18.9775 34.9563 19.4175C34.5732 19.7246 34.0923 19.8855 33.6003 19.8713C33.3798 19.8895 33.1579 19.8582 32.9513 19.7796C32.7446 19.7011 32.5584 19.5773 32.4064 19.4175C32.2613 19.1753 32.1693 18.9054 32.1362 18.6255C32.1032 18.3455 32.13 18.0618 32.2148 17.7929L34.2635 6.20052C34.3247 5.58366 34.5949 5.00569 35.03 4.5612C35.4088 4.24365 35.8902 4.07219 36.3859 4.07818C36.6088 4.06361 36.832 4.09952 37.0388 4.1832C37.2457 4.26687 37.4306 4.39613 37.5798 4.5612C37.7211 4.8077 37.8098 5.0805 37.8402 5.36256C37.8706 5.64461 37.8422 5.92987 37.7566 6.20052L37.3587 8.4985H40.5423L40.9107 6.42007C41.0918 5.76328 41.1408 5.07748 41.0548 4.40189C40.9688 3.72629 40.7496 3.07416 40.4096 2.48277C39.9854 1.9741 39.4433 1.5752 38.8298 1.32027C38.2163 1.06534 37.5496 0.961993 36.887 1.01909C35.4146 0.972132 33.9817 1.49722 32.8928 2.48277C31.8003 3.56363 31.1004 4.97437 30.9031 6.49325L28.9428 17.6465C28.7727 18.308 28.7359 18.9964 28.8345 19.6721C28.9332 20.3478 29.1653 20.9975 29.5176 21.5838C29.9494 22.0792 30.4949 22.4642 31.108 22.7062C31.7211 22.9482 32.3838 23.0401 33.0402 22.9743C34.5026 23.0412 35.9342 22.5428 37.0344 21.5838C38.127 20.5029 38.8269 19.0922 39.0242 17.5733L40.218 10.7672H35.4132L34.9415 13.8409ZM20.1585 1.26792H15.4568L11.6689 22.7255H14.6167L17.2991 7.5471L17.137 22.7255H20.3206L25.376 7.34219L22.6493 22.7255H25.8477L29.6355 1.26792H24.9339L19.9521 16.5048L20.1585 1.26792ZM0.172627 17.5733C-0.00905369 18.248 -0.0478445 18.9527 0.0587055 19.643C0.165256 20.3333 0.41483 20.9942 0.791657 21.5838C1.23403 22.078 1.78763 22.4615 2.40742 22.7031C3.02721 22.9447 3.69568 23.0376 4.35845 22.9743C5.83737 23.0325 7.28423 22.5361 8.41163 21.5838C9.5187 20.5098 10.2299 19.0972 10.4309 17.5733L12.4059 6.42007C12.5835 5.75933 12.6242 5.06964 12.5254 4.39284C12.4265 3.71603 12.1903 3.0662 11.831 2.48277C11.3916 1.96896 10.834 1.56773 10.2055 1.31297C9.57703 1.05822 8.89602 0.957419 8.22003 1.01909C6.73131 0.981103 5.28327 1.50402 4.16685 2.48277C3.07432 3.53768 2.36429 4.92217 2.14763 6.42007L0.172627 17.5733ZM5.56704 6.20052C5.62111 5.58175 5.89238 5.00153 6.33346 4.5612C6.71166 4.24249 7.19346 4.07086 7.68943 4.07818C7.91227 4.06361 8.13553 4.09952 8.34235 4.1832C8.54916 4.26687 8.73413 4.39613 8.88327 4.5612C9.0206 4.8092 9.10695 5.08182 9.13731 5.36324C9.16768 5.64465 9.14144 5.92925 9.06014 6.20052L7.01144 17.7929C6.95026 18.4097 6.68004 18.9877 6.24502 19.4322C5.86682 19.7509 5.38502 19.9225 4.88905 19.9152C4.66621 19.9298 4.44295 19.8939 4.23613 19.8102C4.02932 19.7265 3.84435 19.5972 3.69521 19.4322C3.55788 19.1842 3.47153 18.9116 3.44117 18.6301C3.41081 18.3487 3.43704 18.0641 3.51834 17.7929L5.56704 6.20052Z" fill="#191C1F"/>
</svg>
