<svg width="112" height="20" viewBox="0 0 112 20" fill="none" xmlns="http://www.w3.org/2000/svg">
<path d="M5.04714 5.08401C7.55228 3.38648 10.0626 1.69581 12.5686 0C11.9033 1.34859 11.25 2.70318 10.5855 4.05177C12.0653 5.49038 13.5493 6.92471 15.0283 8.36418C14.1718 12.1776 13.3144 15.9919 12.4605 19.8071C8.30673 19.8088 4.1538 19.8079 0 19.8071C2.68003 16.2508 5.35921 12.6946 8.04439 9.14178C7.05588 7.78119 6.04422 6.43774 5.04714 5.08401Z" fill="#4D4D4D"/>
<path d="M16.685 1.93457C16.6782 2.69074 16.6756 3.44777 16.6705 4.20394C17.9753 5.15816 19.2871 6.1038 20.5919 7.05801C20.6151 9.0719 20.6408 11.0858 20.6639 13.0997C19.3942 13.1005 18.1254 13.0997 16.8556 13.0997C17.3769 11.4004 17.9016 9.70118 18.4254 8.00194C17.3349 7.00486 16.2384 6.01378 15.1453 5.02013C15.6442 3.98446 16.1698 2.96252 16.685 1.93457Z" fill="#4D4D4D"/>
<path d="M22.0885 7.88965C23.3916 9.01533 24.6931 10.1419 26.0005 11.2616C26.0914 11.3216 26.136 11.4176 26.1548 11.5222C26.6615 13.5558 27.1776 15.5877 27.6852 17.6213C25.613 17.6213 23.5417 17.6213 21.4703 17.6213C22.2505 16.2693 23.0333 14.9181 23.8169 13.5678C23.8717 13.4872 23.8957 13.398 23.8897 13.3012C23.888 12.6487 23.8872 11.9963 23.8889 11.3439C23.4285 10.9984 22.9664 10.6571 22.506 10.3116C22.3663 9.50487 22.2256 8.69726 22.0885 7.88965Z" fill="#4D4D4D"/>
<path d="M74.3707 5.36741C75.6984 5.36581 77.0261 5.36581 78.3538 5.36741C78.3538 7.20698 78.3538 9.04655 78.3522 10.8845C78.7297 10.8861 79.1088 10.8861 79.4863 10.8845C80.4557 9.04175 81.4379 7.20698 82.4153 5.36741C83.9173 5.36741 85.4194 5.36741 86.9214 5.36741C85.6433 7.66288 84.3572 9.95354 83.0791 12.249C84.434 14.7652 85.7857 17.2846 87.1342 19.8041C85.5473 19.8041 83.9589 19.8056 82.3721 19.8024C81.3963 17.8669 80.4029 15.9409 79.4256 14.0054C79.0672 14.0054 78.7105 14.0054 78.3538 14.0054C78.3522 15.9378 78.3538 17.8701 78.3538 19.8024C77.0261 19.8056 75.6984 19.8056 74.3707 19.8024C74.3723 14.9908 74.3707 10.1791 74.3707 5.36741Z" fill="#4D4D4D"/>
<path d="M99.9973 5.36692C101.103 5.36532 102.206 5.36692 103.312 5.36692C105.041 7.87354 106.762 10.3866 108.496 12.89C108.419 10.3834 108.471 7.87514 108.456 5.36692C109.624 5.36532 110.792 5.36692 111.961 5.36692C111.975 10.1786 111.988 14.9919 112.001 19.8036C111.073 19.8052 110.145 19.802 109.219 19.8052C107.327 17.1386 105.399 14.496 103.545 11.8038C103.54 14.4576 103.545 17.1098 103.544 19.7636C102.362 19.7636 101.179 19.7636 99.9973 19.7636C99.9973 14.9647 99.9973 10.1658 99.9973 5.36692Z" fill="#4D4D4D"/>
<path d="M33.0504 5.36684C34.3861 5.36524 35.7218 5.36524 37.0575 5.36684C37.0575 7.20641 37.0575 9.04598 37.0575 10.884C37.4238 10.8855 37.7901 10.8856 38.1564 10.8856C39.1322 9.04598 40.1128 7.20961 41.0853 5.36844C42.5874 5.36364 44.091 5.36843 45.5931 5.36523C44.3182 7.6639 43.0273 9.95297 41.7492 12.2484C43.1089 14.7662 44.4638 17.2857 45.8154 19.8067C44.2318 19.8019 42.6482 19.8051 41.0645 19.8051C40.0696 17.8727 39.0938 15.9308 38.0924 14.0016C37.7485 14.0032 37.403 14.0048 37.0591 14.0048C37.0559 15.9372 37.0591 17.8695 37.0575 19.8035C35.7218 19.8051 34.3861 19.8035 33.052 19.8035C33.0504 14.9918 33.0504 10.1785 33.0504 5.36684Z" fill="#4D4D4D"/>
<path d="M46.9583 5.36692C48.921 5.36532 50.8853 5.36692 52.8481 5.36692C54.3117 5.43571 55.8938 5.69805 57.0071 6.73301C57.9957 7.66239 58.2068 9.10525 58.17 10.3962C58.1013 11.8342 57.4534 13.429 56.0329 14.0049C57.0327 15.9005 58.0613 17.7816 59.061 19.6788C60.6159 14.9039 62.1963 10.1386 63.7623 5.36692C65.354 5.36692 66.944 5.36692 68.534 5.36692C70.1353 10.1818 71.7493 14.9919 73.3425 19.8084C71.8629 19.7988 70.3832 19.8068 68.9035 19.8036C68.6988 18.975 68.5036 18.1447 68.2717 17.3241C66.8016 17.3241 65.3332 17.3241 63.8647 17.3241C63.636 18.1479 63.4376 18.9798 63.2281 19.8084C60.3135 19.8004 57.4006 19.8068 54.4861 19.8052C53.7839 18.1384 53.088 16.4715 52.3874 14.8047C51.9043 14.8047 51.4228 14.8047 50.9413 14.8047C50.9397 16.4715 50.9413 18.1368 50.9397 19.8036C49.612 19.8036 48.2859 19.8036 46.9583 19.8036C46.9583 14.9919 46.9583 10.1786 46.9583 5.36692ZM66.0962 8.4686C65.6371 10.345 65.162 12.2165 64.6773 14.0849C65.6067 14.0849 66.5361 14.0849 67.4671 14.0849C67.0112 12.2117 66.5345 10.345 66.0962 8.4686ZM50.9445 8.56618C50.9461 9.67312 50.9445 10.7785 50.9445 11.8854C51.7123 11.839 52.5042 11.991 53.2544 11.783C53.8558 11.6439 54.0238 10.9304 54.0334 10.3978C54.0622 9.7819 53.987 8.95489 53.3168 8.70534C52.5538 8.4574 51.7331 8.60617 50.9445 8.56618Z" fill="#4D4D4D"/>
<path d="M88.2832 5.36719C91.5625 5.36719 94.8417 5.36719 98.1209 5.36719C98.0953 6.50132 98.1897 7.63226 98.1609 8.7664C96.2014 8.768 94.2418 8.7664 92.2839 8.768C92.2823 9.47343 92.2823 10.1789 92.2823 10.8859C93.9091 10.8859 95.5343 10.8859 97.1612 10.8859C97.1612 11.9129 97.1612 12.9382 97.1612 13.9652C95.5343 13.9668 93.9075 13.9636 92.2823 13.9668C92.2823 14.7794 92.2823 15.592 92.2823 16.4046C94.3378 16.4062 96.3933 16.4046 98.4473 16.4046C98.3961 17.5372 98.3865 18.6697 98.3609 19.8022C95.0001 19.8054 91.6408 19.8054 88.2816 19.8022C88.2832 14.9905 88.2816 10.1789 88.2832 5.36719Z" fill="#4D4D4D"/>
</svg>
