<svg width="116" height="26" viewBox="0 0 116 26" fill="none" xmlns="http://www.w3.org/2000/svg">
<g clip-path="url(#clip0_2872_54631)">
<path d="M16.2384 6.71798C15.6254 2.14097 10.3422 -1.10916 5.79839 0.35489C2.47138 1.30906 -0.184075 4.50253 0.0100013 7.92262C0.0223236 13.3882 0.0223236 18.8508 0.0100013 24.3134C0.0224923 24.4311 0.0203516 24.5568 0.018183 24.6842C0.0123292 25.0281 0.00627173 25.3839 0.287252 25.6254C0.92801 26.3887 2.3882 25.9027 2.41593 24.9127C2.45556 21.8324 2.44916 18.7512 2.44276 15.6705C2.43722 13.0047 2.43168 10.3393 2.45597 7.67513C2.54531 5.27183 4.46142 3.06532 6.90431 2.60016C9.33796 2.01872 12.0643 3.25615 13.1856 5.41793C13.9292 6.76691 13.886 8.28097 13.8432 9.78003C13.8268 10.3552 13.8105 10.9282 13.8387 11.4888C13.8696 11.7488 13.8532 12.0329 13.8366 12.3206C13.7971 13.0064 13.7563 13.7122 14.3531 14.1575C15.0216 14.733 16.3339 14.2499 16.2723 13.3315C16.2714 12.6837 16.2758 12.0356 16.2803 11.3874C16.2909 9.83103 16.3015 8.2735 16.2384 6.71798Z" fill="#343434"/>
<path d="M7.04912 4.64177C5.69675 5.19638 4.54462 6.42188 4.57234 7.90979C4.57433 9.60265 4.57024 11.2958 4.56616 12.989C4.55755 16.5537 4.54895 20.1184 4.59699 23.6804C4.72945 25.0043 6.90741 25.0072 7.04912 23.6833C7.10149 17.3381 7.09841 10.987 7.04912 4.64177Z" fill="#343434"/>
<path d="M9.21169 7.8894C9.14083 6.3687 10.3176 5.10443 11.6854 4.52298C11.7326 7.71611 11.7265 10.9104 11.7205 14.1044C11.7166 16.1179 11.7128 18.1315 11.7223 20.1445C11.7686 20.6543 11.596 21.1851 11.1309 21.4714C10.37 22.1184 9.13159 21.3133 9.21477 20.4188C9.20055 17.2051 9.20456 13.9914 9.20857 10.779C9.20977 9.81567 9.21097 8.85245 9.21169 7.8894Z" fill="#343434"/>
<path d="M51.558 15.2757C51.558 16.955 52.9036 17.7947 55.5948 17.7947C56.551 17.7947 57.4481 17.704 58.286 17.5228V16.4636C57.3396 16.6926 56.4722 16.8071 55.6835 16.8071C53.85 16.8071 52.9332 16.2728 52.9332 15.2041V10.8531C52.9332 10.1566 53.2191 9.68906 53.7908 9.45051C54.057 9.34556 54.333 9.27399 54.6189 9.23583C54.9048 9.18812 55.2399 9.16426 55.6244 9.16426C56.413 9.16426 57.2805 9.27876 58.2269 9.50776V8.47727C57.3889 8.29597 56.5116 8.20533 55.5948 8.20533C52.9036 8.20533 51.558 9.0927 51.558 10.8675V15.2757Z" fill="#343434"/>
<path fill-rule="evenodd" clip-rule="evenodd" d="M27.1133 8.36276H23.6827V17.6516H27.2168C28.4391 17.6516 29.3116 17.5132 29.834 17.2365C30.3565 16.9598 30.6177 16.4827 30.6177 15.8053V14.2452C30.6177 13.854 30.4551 13.5296 30.1298 13.2719C29.8143 13.0048 29.3953 12.8283 28.8729 12.7424V12.6851C29.3165 12.5897 29.6467 12.4418 29.8636 12.2414C30.0805 12.0315 30.1889 11.7405 30.1889 11.3684V10.1232C30.1889 9.72245 30.11 9.40758 29.9523 9.17858C29.8044 8.94958 29.5087 8.75874 29.0651 8.60608C28.5821 8.44387 27.9315 8.36276 27.1133 8.36276ZM28.4441 12.1699C28.1878 12.3416 27.7589 12.4275 27.1576 12.4275H25.117V9.27876H27.1133C27.7343 9.27876 28.1779 9.35033 28.4441 9.49345C28.7102 9.63658 28.8433 9.88466 28.8433 10.2377V11.3255C28.8433 11.7071 28.7102 11.9886 28.4441 12.1699ZM28.7398 16.4779C28.4441 16.6211 27.9364 16.6926 27.2168 16.6926H25.117V13.3006H27.2168C27.5519 13.3006 27.8033 13.3101 27.9709 13.3292C28.1385 13.3387 28.3307 13.3721 28.5476 13.4294C28.7644 13.4962 28.9222 13.6059 29.0207 13.7586C29.1292 13.9017 29.1834 14.0973 29.1834 14.3454V15.748C29.1834 16.0915 29.0355 16.3348 28.7398 16.4779Z" fill="#343434"/>
<path d="M34.7769 8.36276H33.3426V17.6516H39.4939V16.6783H34.7769V8.36276Z" fill="#343434"/>
<path fill-rule="evenodd" clip-rule="evenodd" d="M44.411 8.36276H46.0671L49.7933 17.6516H48.2999L47.2057 14.832H43.0949L42.0155 17.6516H40.596L44.411 8.36276ZM46.8508 13.8731L45.2242 9.67951H45.0911L43.4646 13.8731H46.8508Z" fill="#343434"/>
<path d="M60.7917 8.36276H62.226V17.6516H60.7917V8.36276Z" fill="#343434"/>
<path d="M62.2555 12.7138L66.5437 8.36276H68.2737L63.956 12.6565L68.7026 17.6516H66.8394L62.2555 12.7138Z" fill="#343434"/>
<path d="M70.2311 17.5657C71.3648 17.7184 72.3407 17.7947 73.1589 17.7947C74.0067 17.7947 74.6918 17.7136 75.2143 17.5514C75.7367 17.3892 76.1212 17.1172 76.3676 16.7356C76.6239 16.3539 76.7521 15.8339 76.7521 15.1755V14.5028C76.7521 13.978 76.6732 13.563 76.5155 13.2576C76.3676 12.9428 76.1064 12.709 75.7318 12.5563C75.3671 12.4037 74.8545 12.3273 74.194 12.3273H73.0406C72.4491 12.3273 72.0302 12.2558 71.7837 12.1126C71.5472 11.96 71.4289 11.7214 71.4289 11.397V10.3379C71.4289 9.91806 71.5817 9.61749 71.8873 9.4362C72.183 9.26445 72.7892 9.17858 73.706 9.17858C74.2975 9.17858 75.1551 9.25968 76.2789 9.42189V8.37708C75.2734 8.27212 74.4503 8.21964 73.8095 8.21964C72.8533 8.21964 72.0992 8.29597 71.5472 8.44864C71.005 8.60131 70.6156 8.83508 70.379 9.14995C70.1523 9.46483 70.0389 9.87512 70.0389 10.3808V11.1251C70.0389 11.8884 70.2361 12.4514 70.6304 12.8139C71.0247 13.1765 71.6901 13.3578 72.6266 13.3578H73.7504C74.3418 13.3578 74.7559 13.4389 74.9925 13.6011C75.2291 13.7633 75.3473 14.0448 75.3473 14.4456V15.6478C75.3473 16.0772 75.1798 16.373 74.8446 16.5352C74.5094 16.6879 73.9771 16.7642 73.2476 16.7642C72.3801 16.7642 71.3746 16.6449 70.2311 16.4064V17.5657Z" fill="#343434"/>
<path fill-rule="evenodd" clip-rule="evenodd" d="M79.4039 8.36276H82.5387C82.9823 8.36276 83.3372 8.37231 83.6033 8.39139C83.8793 8.41047 84.1701 8.45341 84.4757 8.5202C84.7912 8.58699 85.0425 8.68718 85.2298 8.82076C85.427 8.95435 85.5946 9.13564 85.7326 9.36464C85.8607 9.5841 85.9248 9.8608 85.9248 10.1948V12.1269C85.9248 12.8998 85.6143 13.458 84.9933 13.8015C84.3821 14.1355 83.4752 14.3024 82.2725 14.3024H80.8382V17.6516H79.4039V8.36276ZM82.4647 13.4294C83.0858 13.4294 83.5836 13.3197 83.9582 13.1002C84.3328 12.8807 84.5201 12.5325 84.5201 12.0554V10.3665C84.5201 10.1089 84.4511 9.89897 84.3131 9.73676C84.1751 9.56501 83.9779 9.44574 83.7216 9.37895C83.4752 9.3217 83.2682 9.28353 83.1006 9.26445C82.933 9.24537 82.7112 9.23583 82.4351 9.23583H80.8234V13.4294H82.4647Z" fill="#343434"/>
<path fill-rule="evenodd" clip-rule="evenodd" d="M91.7998 8.36276H88.4284V17.6516H89.8627V13.687H91.2527L94.003 17.6516H95.7626L92.687 13.5153C93.4066 13.5153 93.9981 13.3674 94.4614 13.0716C94.9346 12.7662 95.1712 12.3369 95.1712 11.7834V10.1805C95.1712 9.68428 95.0578 9.30739 94.8311 9.04976C94.6142 8.79214 94.2642 8.61562 93.7812 8.5202C93.308 8.41524 92.6476 8.36276 91.7998 8.36276ZM93.2637 12.5277C92.9581 12.6899 92.4504 12.771 91.7406 12.771H89.8627V9.27876H91.8737C93.1158 9.27876 93.7368 9.62703 93.7368 10.3236V11.6117C93.7368 12.0506 93.5791 12.3559 93.2637 12.5277Z" fill="#343434"/>
<path d="M102.104 17.7947C101.581 17.7947 101.123 17.7613 100.729 17.6945C100.344 17.6277 99.9646 17.5132 99.59 17.351C99.1956 17.1793 98.8901 16.9169 98.6732 16.5638C98.4662 16.2108 98.3627 15.7814 98.3627 15.2757V8.36276H99.7378V15.2614C99.7378 15.8434 99.9399 16.2585 100.344 16.5066C100.748 16.7451 101.345 16.8644 102.133 16.8644C102.922 16.8644 103.508 16.7451 103.893 16.5066C104.287 16.2585 104.484 15.8434 104.484 15.2614V8.36276H105.86V15.2757C105.86 16.955 104.608 17.7947 102.104 17.7947Z" fill="#343434"/>
<path d="M108.06 9.33601H111.313V17.6516H112.762V9.33601H116V8.36276H108.06V9.33601Z" fill="#343434"/>
</g>
<defs>
<clipPath id="clip0_2872_54631">
<rect width="116" height="26" fill="white"/>
</clipPath>
</defs>
</svg>
