<svg width="135" height="32" viewBox="0 0 135 32" fill="none" xmlns="http://www.w3.org/2000/svg">
<path d="M15.0853 5.45511H0.424084L0 8.5998H5.39193L2.99888 26.0189H6.87623L9.29957 8.5998H14.6612L15.0853 5.45511Z" fill="#ABABAD"/>
<path d="M21.5251 10.3571H18.2839C15.6485 10.3571 14.346 11.2512 13.9825 13.8718L12.3164 26.0189H15.7697L17.3146 14.8892C17.5266 13.4402 17.7992 13.1627 19.1321 13.1627H21.1313L21.5251 10.3571Z" fill="#ABABAD"/>
<path d="M27.2978 10.3571H23.8446L21.6939 26.0189H25.1471L27.2978 10.3571Z" fill="#ABABAD"/>
<path d="M44.6671 14.2109C44.6974 13.8101 44.7277 13.5018 44.7277 13.286C44.7277 11.3437 43.5766 10.3571 41.3047 10.3571H34.792C31.9748 10.3571 30.6723 11.4054 30.3391 13.841L27.8249 32H31.2781L32.1263 26.0189H39.3963C42.0923 26.0189 43.2131 24.9399 43.5463 22.4426L44.6671 14.2109ZM40.2142 21.456C40.0021 22.8434 39.8507 23.2134 38.5481 23.2134H32.5201L33.7015 14.6734C33.8529 13.4402 34.1558 13.1627 35.4584 13.1627H39.7901C40.8806 13.1627 41.1835 13.3477 41.1835 14.0568C41.1835 14.1493 41.1532 14.3959 41.1229 14.7659L40.2142 21.456Z" fill="#ABABAD"/>
<path d="M56.0253 26.0189C59.2059 26.0189 60.6599 24.7857 61.0537 21.9185L61.5687 18.0647C61.599 17.6639 61.6293 17.3556 61.6293 17.1706C61.6293 15.0742 60.3267 14.1184 57.5399 14.1184H53.4808C52.1177 14.1184 51.6936 13.7793 51.6936 12.8852C51.6936 12.7311 51.7239 12.4844 51.7542 12.1145L51.9965 10.388C52.2085 8.9081 52.5417 8.5998 54.2381 8.5998H62.538L62.9621 5.45511H53.2687C50.2396 5.45511 48.6644 6.44168 48.3009 9.06226L47.6951 13.0702C47.6345 13.4402 47.6042 13.7793 47.6042 14.1184C47.6042 16.2149 48.8764 17.1398 51.6936 17.1398H55.6618C57.1158 17.1398 57.5702 17.4789 57.5702 18.4655C57.5702 18.6197 57.5399 18.8971 57.5096 19.2979L57.2673 21.0552C57.0249 22.5351 56.51 22.9051 55.0257 22.9051H46.7257L46.3016 26.0189H56.0253Z" fill="#ABABAD"/>
<path d="M68.7334 23.2134C67.6732 23.2134 67.34 22.9976 67.34 22.2885C67.34 22.196 67.3703 21.9802 67.4006 21.641L68.3396 14.7967C68.4911 13.5635 68.794 13.1627 70.1268 13.1627H76.3669L76.7607 10.3571H69.3695C66.6736 10.3571 65.371 11.3745 65.0075 13.841L63.8564 22.2576C63.8261 22.5968 63.7958 22.8742 63.7958 23.1209C63.7958 25.0632 64.9772 26.0189 67.34 26.0189H74.8523L75.2158 23.2134H68.7334Z" fill="#ABABAD"/>
<path d="M77.8782 22.2576C77.8176 22.5968 77.7873 22.8742 77.7873 23.1517C77.7873 25.0632 78.9384 26.0189 81.2709 26.0189H91.7821L93.9328 10.3571H83.361C80.6044 10.3571 79.3322 11.467 78.999 13.9643L77.8782 22.2576ZM82.3614 14.92C82.5128 13.5943 82.8157 13.1627 84.1486 13.1627H90.0555L88.662 23.2134H82.7552C81.6646 23.2134 81.3314 23.0284 81.3314 22.3809C81.3314 22.1651 81.3617 21.9185 81.4223 21.6102L82.3614 14.92Z" fill="#ABABAD"/>
<path d="M111.134 14.1801C111.165 13.7793 111.195 13.471 111.195 13.3168C111.195 11.3437 109.953 10.3571 107.5 10.3571H101.35C98.5634 10.3571 97.382 11.3745 97.0185 13.9334L95.3525 26.0189H98.8058L100.381 14.7659C100.532 13.4402 100.896 13.1627 102.259 13.1627H106.136C107.227 13.1627 107.621 13.4402 107.621 14.2726C107.621 14.3651 107.59 14.6117 107.56 14.9817L106.015 26.0189H109.499L111.134 14.1801Z" fill="#ABABAD"/>
<path d="M133.139 1.93501L132.062 0.492767L129.877 0.909416L131.859 3.55754L133.139 1.93501Z" fill="#ABABAD"/>
<path d="M134.667 0L132.936 0.328511L133.654 1.286L134.667 0Z" fill="#ABABAD"/>
<path d="M113.704 3.97018L111.519 4.38282L111.527 4.39484L114.574 5.12798L113.704 3.97018Z" fill="#ABABAD"/>
<path d="M131.344 4.20254L129.003 1.07367L126.818 1.48631L130.064 5.82507L131.344 4.20254Z" fill="#ABABAD"/>
<path d="M121.461 14.3303L121.079 17.1547L121.095 17.1747L122.379 15.5522L121.461 14.3303Z" fill="#ABABAD"/>
<path d="M122.455 7.03095L122.151 9.25441L124.684 12.6357L125.964 11.0131L119.822 2.81238L117.637 3.22502L120.054 6.45405L122.455 7.03095Z" fill="#ABABAD"/>
<path d="M127.759 8.74562L122.881 2.23147L120.696 2.64412L126.479 10.3641L127.759 8.74562Z" fill="#ABABAD"/>
<path d="M118.837 6.15759L116.763 3.38928L114.578 3.80593L115.79 5.42445L118.837 6.15759Z" fill="#ABABAD"/>
<path d="M121.617 13.2046L122.889 14.9032L124.17 13.2847L122 10.3842L121.617 13.2046Z" fill="#ABABAD"/>
<path d="M129.554 6.47408L125.944 1.65057L123.755 2.06722L128.269 8.09661L129.554 6.47408Z" fill="#ABABAD"/>
<path d="M121.075 17.2028L121.095 17.1747L121.079 17.1547L121.075 17.2028Z" fill="#ABABAD"/>
<path d="M111.499 4.3869L111.527 4.39484L111.519 4.38282L111.499 4.3869Z" fill="#ABABAD"/>
</svg>
