<svg width="108" height="24" viewBox="0 0 108 24" fill="none" xmlns="http://www.w3.org/2000/svg">
<path d="M106.286 1.4722L105.431 0.374907L103.694 0.691902L105.269 2.70665L106.286 1.4722Z" fill="#1976D2"/>
<path d="M107.5 0L106.125 0.249938L106.695 0.978417L107.5 0Z" fill="#1976D2"/>
<path d="M90.8442 3.0206L89.1076 3.33454L89.114 3.34369L91.535 3.90148L90.8442 3.0206Z" fill="#1976D2"/>
<path d="M104.86 3.19738L103 0.816871L101.264 1.13082L103.843 4.43183L104.86 3.19738Z" fill="#1976D2"/>
<path d="M97.0077 10.9028L96.7035 13.0517L96.7162 13.0669L97.7366 11.8324L97.0077 10.9028Z" fill="#1976D2"/>
<path d="M97.7968 5.34929L97.5559 7.04094L99.5682 9.61348L100.585 8.37903L95.7053 2.13972L93.9687 2.45366L95.8891 4.91037L97.7968 5.34929Z" fill="#1976D2"/>
<path d="M102.011 6.65384L98.1359 1.69775L96.3993 2.0117L100.994 7.88525L102.011 6.65384Z" fill="#1976D2"/>
<path d="M94.9226 4.68482L93.2748 2.57863L91.5382 2.89563L92.5015 4.12703L94.9226 4.68482Z" fill="#1976D2"/>
<path d="M97.1313 10.0463L98.1422 11.3387L99.1594 10.1073L97.4355 7.90049L97.1313 10.0463Z" fill="#1976D2"/>
<path d="M103.437 4.92561L100.57 1.25579L98.8299 1.57278L102.417 6.16006L103.437 4.92561Z" fill="#1976D2"/>
<path d="M96.7004 13.0882L96.7162 13.0669L96.7035 13.0517L96.7004 13.0882Z" fill="#1976D2"/>
<path d="M89.0918 3.33764L89.114 3.34369L89.1076 3.33454L89.0918 3.33764Z" fill="#1976D2"/>
<path d="M12.4861 3.80469H0.836958L0.5 6.19723H4.78418L2.88278 19.4501H5.96354L7.88901 6.19723H12.1491L12.4861 3.80469Z" fill="#191C1F"/>
<path d="M17.6029 7.53424H15.0276C12.9336 7.53424 11.8987 8.21448 11.6098 10.2083L10.2861 19.4501H13.0299L14.2574 10.9823C14.4258 9.87988 14.6425 9.66877 15.7015 9.66877H17.29L17.6029 7.53424Z" fill="#191C1F"/>
<path d="M22.1896 7.53424H19.4458L17.737 19.4501H20.4808L22.1896 7.53424Z" fill="#191C1F"/>
<path d="M35.9904 10.4663C36.0145 10.1614 36.0386 9.92679 36.0386 9.76259C36.0386 8.28485 35.124 7.53424 33.3188 7.53424H28.1441C25.9057 7.53424 24.8708 8.33176 24.606 10.1848L22.6084 24.0006H25.3522L26.0261 19.4501H31.8025C33.9446 19.4501 34.8351 18.6291 35.0999 16.7291L35.9904 10.4663ZM32.4524 15.9785C32.2839 17.0341 32.1635 17.3155 31.1286 17.3155H26.339L27.2776 10.8181C27.398 9.87988 27.6387 9.66877 28.6736 9.66877H32.1154C32.9819 9.66877 33.2225 9.80951 33.2225 10.349C33.2225 10.4194 33.1985 10.607 33.1744 10.8885L32.4524 15.9785Z" fill="#191C1F"/>
<path d="M45.0151 19.4501C47.5423 19.4501 48.6976 18.5118 49.0105 16.3304L49.4197 13.3983C49.4437 13.0934 49.4678 12.8588 49.4678 12.7181C49.4678 11.1231 48.4329 10.3959 46.2186 10.3959H42.9934C41.9103 10.3959 41.5734 10.1379 41.5734 9.45766C41.5734 9.34038 41.5974 9.15273 41.6215 8.87125L41.814 7.5577C41.9825 6.4318 42.2473 6.19723 43.5951 6.19723H50.1899L50.5268 3.80469H42.8249C40.4181 3.80469 39.1665 4.55529 38.8777 6.54908L38.3963 9.5984C38.3482 9.87988 38.3241 10.1379 38.3241 10.3959C38.3241 11.9909 39.335 12.6946 41.5734 12.6946H44.7263C45.8816 12.6946 46.2426 12.9527 46.2426 13.7033C46.2426 13.8205 46.2186 14.0317 46.1945 14.3366L46.0019 15.6736C45.8094 16.7995 45.4002 17.081 44.2209 17.081H37.6261L37.2892 19.4501H45.0151Z" fill="#191C1F"/>
<path d="M55.1124 17.3155C54.27 17.3155 54.0053 17.1513 54.0053 16.6118C54.0053 16.5415 54.0293 16.3773 54.0534 16.1193L54.7995 10.912C54.9199 9.9737 55.1606 9.66877 56.2196 9.66877H61.1777L61.4906 7.53424H55.6179C53.4758 7.53424 52.4408 8.3083 52.152 10.1848L51.2374 16.5884C51.2133 16.8464 51.1893 17.0575 51.1893 17.2452C51.1893 18.7229 52.1279 19.4501 54.0053 19.4501H59.9742L60.2631 17.3155H55.1124Z" fill="#191C1F"/>
<path d="M62.3785 16.5884C62.3303 16.8464 62.3063 17.0575 62.3063 17.2686C62.3063 18.7229 63.2208 19.4501 65.0741 19.4501H73.4259L75.1347 7.53424H66.7348C64.5446 7.53424 63.5337 8.37867 63.269 10.2786L62.3785 16.5884ZM65.9406 11.0058C66.0609 9.99716 66.3016 9.66877 67.3606 9.66877H72.054L70.9468 17.3155H66.2535C65.387 17.3155 65.1223 17.1748 65.1223 16.6822C65.1223 16.518 65.1463 16.3304 65.1945 16.0958L65.9406 11.0058Z" fill="#191C1F"/>
<path d="M88.8024 10.4428C88.8265 10.1379 88.8505 9.90333 88.8505 9.78605C88.8505 8.28485 87.8637 7.53424 85.9142 7.53424H81.0283C78.814 7.53424 77.8753 8.3083 77.5865 10.2552L76.2628 19.4501H79.0065L80.2581 10.8885C80.3785 9.87988 80.6673 9.66877 81.7503 9.66877H84.8311C85.6976 9.66877 86.0105 9.87988 86.0105 10.5132C86.0105 10.5836 85.9864 10.7712 85.9623 11.0527L84.7348 19.4501H87.5027L88.8024 10.4428Z" fill="#191C1F"/>
</svg>
