<svg width="103" height="19" viewBox="0 0 103 19" fill="none" xmlns="http://www.w3.org/2000/svg">
<g clip-path="url(#clip0_2872_54628)">
<path d="M31.225 0.358879H34.7673L40.0124 14.9612L45.2201 0.358879H48.7252V17.6301H46.3761V7.43665C46.3761 7.08394 46.3843 6.5 46.4009 5.68484C46.4175 4.86968 46.4258 3.99574 46.4258 3.06301L41.218 17.6301H38.7694L33.5244 3.06301V3.59208C33.5244 4.01534 33.5326 4.66198 33.5492 5.532C33.5741 6.39419 33.5865 7.02907 33.5865 7.43665V17.6301H31.225V0.358879Z" fill="black"/>
<path d="M52.7273 0.358879H66.0389V2.47516H55.1386V7.71882H65.2186V9.71753H55.1386V15.5726H66.2253V17.6301H52.7273V0.358879Z" fill="black"/>
<path d="M77.3618 -0.0878906C79.077 -0.0878906 80.5602 0.225632 81.8114 0.852677C83.6261 1.75405 84.7364 3.33342 85.1424 5.59079H82.6939C82.3956 4.32886 81.7783 3.41181 80.842 2.83963C79.9056 2.25961 78.7249 1.9696 77.2997 1.9696C75.6093 1.9696 74.1841 2.56921 73.0241 3.76844C71.8723 4.96766 71.2964 6.75474 71.2964 9.12967C71.2964 11.1832 71.7729 12.8567 72.7258 14.15C73.6787 15.4354 75.2323 16.0781 77.3867 16.0781C79.0356 16.0781 80.3987 15.6274 81.4758 14.7261C82.5613 13.8168 83.1165 12.3511 83.1413 10.3289H77.424V8.38898H85.4407V17.6301H83.8498L83.2532 15.408C82.4163 16.278 81.6747 16.8815 81.0284 17.2186C79.9429 17.7986 78.5633 18.0886 76.8895 18.0886C74.7268 18.0886 72.8666 17.4263 71.3088 16.1016C69.6102 14.44 68.7609 12.1591 68.7609 9.259C68.7609 6.36676 69.5895 4.06628 71.2467 2.35759C72.821 0.727268 74.8594 -0.0878906 77.3618 -0.0878906Z" fill="black"/>
<path d="M98.6529 10.5523L95.8812 2.92193L92.9355 10.5523H98.6529ZM94.5886 0.358879H97.3851L104.01 17.6301H101.3L99.4483 12.4569H92.227L90.2508 17.6301H87.7153L94.5886 0.358879Z" fill="black"/>
<path d="M9.83115 0.360352H11.7204L5.92841 17.6315H4.03918L9.83115 0.360352Z" fill="#FF7F22"/>
<path d="M16.9157 0.360352H18.805L13.013 17.6315H11.1238L16.9157 0.360352Z" fill="#FF7F22"/>
<path d="M24.0003 0.360352H25.8896L20.0976 17.6315H18.2084L24.0003 0.360352Z" fill="#FF7F22"/>
<path d="M9.83115 -0.14455H9.46793L9.35245 0.199817L3.56048 17.471L3.33733 18.1364H4.03918H5.92841H6.29162L6.40711 17.7921L12.1991 0.520886L12.4222 -0.14455H11.7204H9.83115ZM16.9157 -0.14455H16.5525L16.437 0.199817L10.6451 17.471L10.4219 18.1364H11.1238H13.013H13.3762L13.4917 17.7921L19.2837 0.520886L19.5068 -0.14455H18.805H16.9157ZM24.0003 -0.14455H23.6371L23.5216 0.199817L17.7297 17.471L17.5065 18.1364H18.2084H20.0976H20.4608L20.5763 17.7921L26.3683 0.520886L26.5914 -0.14455H25.8896H24.0003Z" stroke="#FF7F22" stroke-width="1.0098"/>
</g>
<defs>
<clipPath id="clip0_2872_54628">
<rect width="103" height="18.1765" fill="white"/>
</clipPath>
</defs>
</svg>
