<svg width="116" height="26" viewBox="0 0 116 26" fill="none" xmlns="http://www.w3.org/2000/svg">
<g clip-path="url(#clip0_4546_169421)">
<path d="M38.9585 12.6007C39.3064 12.184 39.5792 11.7127 39.7702 11.1798C39.9611 10.647 40.0566 10.0664 40.0566 9.43789C40.0566 8.6933 39.9202 8.01019 39.6474 7.39538C39.3746 6.78058 38.9926 6.25459 38.5152 5.82423C38.031 5.39387 37.4717 5.05914 36.8238 4.81322C36.1759 4.57413 35.4802 4.45117 34.7368 4.45117H22.1328V21.8979H35.2483C36.094 21.8979 36.8579 21.7749 37.5399 21.5221C38.2219 21.2762 38.7949 20.921 39.2723 20.4633C39.7429 20.0056 40.1112 19.4591 40.3635 18.817C40.6227 18.1749 40.7523 17.4645 40.7523 16.6857C40.7523 15.8045 40.5954 15.0189 40.2885 14.329C39.9816 13.639 39.5383 13.0652 38.9585 12.6007ZM25.3656 7.43637H34.7231C35.3233 7.43637 35.8212 7.62081 36.2168 7.98286C36.6124 8.35174 36.8101 8.82992 36.8101 9.43106C36.8101 10.0322 36.6124 10.5104 36.2168 10.8793C35.8212 11.2481 35.3233 11.4257 34.7231 11.4257H25.3656V7.43637ZM36.9056 18.2979C36.4964 18.7077 35.944 18.9058 35.2483 18.9058H25.3656V14.4178H35.2483C35.944 14.4178 36.4964 14.6227 36.9056 15.0257C37.308 15.4356 37.5126 15.9753 37.5126 16.6379C37.5126 17.3347 37.308 17.888 36.9056 18.2979Z" fill="#28AB69"/>
<path d="M44.9828 14.0421V4.44434H41.75V21.8978H44.9828L49.1159 11.9244V21.8978H52.3556V4.44434H49.1159L44.9828 14.0421Z" fill="#28AB69"/>
<path d="M73.9056 4.44434H57.0799V12.792C57.0799 13.1267 57.0117 13.4341 56.8821 13.7278C56.7525 14.0216 56.5683 14.2675 56.3364 14.4724C56.1046 14.6774 55.8386 14.8481 55.5385 14.9711C55.2384 15.0941 54.9178 15.1555 54.57 15.1555H53.5742V21.8842H56.807V18.1476H72.9098V21.8842H76.1427V15.1555H73.9056V4.44434ZM70.6659 15.1692H59.8148C60.149 14.4519 60.3127 13.6732 60.3127 12.8261V7.43637H70.6659V15.1692Z" fill="#28AB69"/>
<path d="M88.1417 4.44434H84.486L80.7485 10.9817V4.44434H77.5156V21.8978H80.7485V15.34L84.486 21.8978H88.1417L83.1628 13.1745L88.1417 4.44434Z" fill="#28AB69"/>
<path d="M103.316 6.85546C102.559 6.02206 101.625 5.35261 100.499 4.84028C99.3806 4.32794 98.0575 4.06836 96.5502 4.06836C95.3157 4.06836 94.204 4.24597 93.2219 4.59436C92.2398 4.94274 91.3872 5.41409 90.6574 6.0084C89.9345 6.6027 89.3343 7.29948 88.8637 8.09872C88.3931 8.89796 88.0453 9.73819 87.8134 10.6126H91.1553C91.3531 10.1412 91.6055 9.6972 91.926 9.2805C92.2398 8.86381 92.6285 8.50859 93.0855 8.20802C93.5424 7.90745 94.054 7.66836 94.6337 7.49758C95.2134 7.3268 95.8477 7.238 96.5502 7.238C97.3277 7.238 98.037 7.34047 98.6577 7.55223C99.2851 7.76399 99.8308 8.0509 100.301 8.41978C100.772 8.78866 101.161 9.21219 101.474 9.70403C101.781 10.1959 102.013 10.715 102.157 11.2684H93.9107V14.1989H102.279C102.163 14.8 101.952 15.3739 101.645 15.9204C101.338 16.4668 100.942 16.945 100.472 17.3617C100.001 17.7784 99.4352 18.1063 98.7804 18.3522C98.1189 18.5982 97.3755 18.7211 96.5502 18.7211C95.8341 18.7211 95.1861 18.6255 94.5996 18.441C94.013 18.2566 93.4947 18.0038 93.0377 17.6828C92.5808 17.3617 92.1988 16.9928 91.8783 16.5556C91.5646 16.1253 91.3054 15.6676 91.1076 15.1758H87.7656C87.9771 16.0706 88.3249 16.9245 88.8023 17.7443C89.2797 18.5572 89.8867 19.2744 90.6165 19.8961C91.3463 20.5177 92.2125 21.0027 93.2014 21.3648C94.1904 21.72 95.3089 21.9044 96.5434 21.9044C98.037 21.9044 99.3465 21.6448 100.472 21.1325C101.59 20.6202 102.532 19.9439 103.289 19.1037C104.046 18.2634 104.612 17.3139 104.994 16.2482C105.376 15.1826 105.567 14.0964 105.567 12.9898C105.567 11.8695 105.383 10.7697 105.007 9.70403C104.632 8.63838 104.073 7.68885 103.316 6.85546Z" fill="#28AB69"/>
<path d="M105.301 4.44434V7.43637H109.107V21.8978H112.346V7.43637H116.002V4.44434H105.301Z" fill="#28AB69"/>
<path d="M9.34343 15.3877C9.0297 15.3877 8.77734 15.538 8.77734 15.7293C8.77734 15.9205 9.0297 16.0708 9.34343 16.0708C9.65716 16.0708 9.90952 15.9205 9.90952 15.7293C9.90952 15.538 9.65716 15.3877 9.34343 15.3877Z" fill="url(#paint0_linear_4546_169421)"/>
<path d="M12.1052 15.7496C12.644 15.7496 13.0737 15.3124 13.0737 14.7796C13.0737 14.2399 12.6372 13.8096 12.1052 13.8096C11.5664 13.8096 11.1367 14.2468 11.1367 14.7796C11.1367 15.3124 11.5664 15.7496 12.1052 15.7496Z" fill="url(#paint1_linear_4546_169421)"/>
<path d="M6.58958 13.8027C6.05077 13.8027 5.62109 14.2399 5.62109 14.7728C5.62109 15.3124 6.05759 15.7428 6.58958 15.7428C7.12838 15.7428 7.55806 15.3056 7.55806 14.7728C7.55806 14.2399 7.12156 13.8027 6.58958 13.8027Z" fill="url(#paint2_linear_4546_169421)"/>
<path d="M15.2707 4.3828C13.6543 4.53992 12.4607 5.99495 12.4607 7.62076V7.68224C12.4607 7.79836 12.3652 7.894 12.2493 7.894C12.1743 7.894 12.1061 7.85301 12.0651 7.7847C11.5332 6.82835 10.5101 6.17939 9.34384 6.17939C8.17074 6.17939 7.15452 6.82835 6.62253 7.7847C6.58843 7.84618 6.51341 7.894 6.43838 7.894C6.32244 7.894 6.22695 7.79836 6.22695 7.68224V7.49096C6.22695 5.76952 4.82879 4.36914 3.11007 4.36914C1.39817 4.36914 0 5.76952 0 7.49096V13.7414C0 17.0955 1.76646 20.0397 4.41275 21.686C5.16298 22.1574 6.15875 21.9046 6.62253 21.1464L7.93885 18.9946C7.93885 18.9877 7.93885 18.9877 7.94567 18.9809C7.97295 18.9263 7.99341 18.8784 7.99341 18.8238C7.99341 18.817 7.98659 18.8101 7.98659 18.7965C7.97977 18.6325 7.86383 18.4822 7.67968 18.4549C7.57738 18.4412 7.47507 18.4208 7.37277 18.4003C7.26364 18.3798 7.15452 18.3661 7.05221 18.3456C6.95673 18.3251 6.86124 18.2978 6.76576 18.2773C6.65663 18.25 6.54751 18.2295 6.4452 18.2022C6.35654 18.1748 6.26787 18.1475 6.18603 18.1202C6.08372 18.086 5.9746 18.0587 5.87912 18.0246C5.79045 17.9904 5.70179 17.9562 5.61312 17.9221C5.52446 17.8879 5.42897 17.8538 5.34031 17.8196C5.25165 17.7855 5.1698 17.7376 5.08796 17.7035C5.00611 17.6693 4.92427 17.6283 4.84925 17.5942C4.77422 17.56 4.70602 17.519 4.63782 17.4781C4.55597 17.4302 4.47413 17.3893 4.39911 17.3414C4.3309 17.2936 4.2627 17.2458 4.20132 17.2048C4.13311 17.157 4.06491 17.116 4.00353 17.0682C3.88076 16.9726 3.76482 16.8701 3.65569 16.7676C3.28057 16.8496 2.98048 17.116 2.85089 17.4644C2.80997 17.5805 2.78269 17.7103 2.78269 17.8401H2.31209C2.31209 17.8196 2.31891 17.7991 2.31891 17.7786C2.33255 17.4712 2.42121 17.1843 2.59172 16.9521C2.68039 16.8223 2.78951 16.713 2.90546 16.6173C3.02822 16.5217 3.16463 16.4466 3.30786 16.3851C3.26693 16.3304 3.23965 16.2758 3.20555 16.2211C3.06232 15.9957 2.93956 15.7703 2.87817 15.5244C2.53716 15.62 2.25753 15.8864 2.14158 16.2211C2.10066 16.3304 2.0802 16.4534 2.0802 16.5764H1.61642C1.61642 16.1118 1.81421 15.702 2.13476 15.4151C2.19614 15.3604 2.26435 15.3058 2.33937 15.2579C2.4826 15.1623 2.64628 15.094 2.81679 15.053C2.81679 15.0462 2.81679 15.0325 2.81679 15.0257C2.81679 14.3016 3.21919 13.6321 3.90804 13.072C4.00353 12.99 4.11265 12.9149 4.22178 12.8397L5.79045 9.26022C5.96778 8.85719 6.52023 8.80937 6.76576 9.17825L7.29774 9.99798L8.30033 11.535C8.64135 11.5077 8.98918 11.4872 9.34384 11.4872C9.35748 11.4872 9.37112 11.4872 9.38476 11.4872C9.72578 11.4872 10.06 11.5008 10.3873 11.5282L11.3899 9.99115L11.9219 9.17142C11.9287 9.15776 11.9424 9.15776 11.9492 9.14409C12.0174 9.05529 12.0992 8.99381 12.1947 8.95965C12.4539 8.86402 12.7676 8.95965 12.8972 9.24656L14.4727 12.8329C14.691 12.9832 14.8888 13.1471 15.0593 13.3111C15.1479 13.3931 15.223 13.4819 15.298 13.5707C15.5913 13.9259 15.7822 14.3084 15.8504 14.7115C15.8641 14.8139 15.8777 14.9164 15.8777 15.0189C15.8777 15.0257 15.8777 15.0394 15.8777 15.0462C16.0482 15.0872 16.2119 15.1555 16.3551 15.2511C16.4302 15.2989 16.4984 15.3468 16.5597 15.4082C16.8803 15.6951 17.0781 16.1118 17.0781 16.5695H16.6143C16.6143 16.0708 16.2801 15.6473 15.8163 15.5107C15.7754 15.661 15.7208 15.8044 15.6526 15.9479C15.5844 16.0913 15.4958 16.228 15.3935 16.3646C15.9732 16.59 16.3892 17.157 16.3892 17.8264H15.9254C15.9254 17.3005 15.5503 16.8564 15.0524 16.7471C14.9433 16.8496 14.8274 16.9521 14.7046 17.0477C14.6705 17.075 14.6296 17.0955 14.5955 17.1228C14.5 17.1912 14.4045 17.2595 14.3022 17.3278C14.2408 17.3619 14.1794 17.3961 14.1181 17.4371C14.0294 17.4849 13.9476 17.5395 13.8589 17.5874C13.7975 17.6215 13.7293 17.6488 13.6679 17.6762C13.5656 17.724 13.4701 17.7718 13.3678 17.8196C13.2928 17.8538 13.211 17.8811 13.1291 17.9084C13.0336 17.9494 12.9381 17.9836 12.8358 18.0177C12.7472 18.045 12.6517 18.0724 12.563 18.0997C12.4675 18.127 12.3721 18.1612 12.2698 18.1885C12.1743 18.2158 12.072 18.2363 11.9697 18.2568C11.8674 18.2841 11.7651 18.3046 11.6627 18.332C11.5604 18.3524 11.4581 18.3661 11.3558 18.3866C11.2467 18.4071 11.1444 18.4276 11.0353 18.4412C10.8511 18.4686 10.7352 18.6189 10.7284 18.7828C10.7284 18.7896 10.7215 18.7965 10.7215 18.8033C10.7215 18.8579 10.742 18.9194 10.7761 18.9741L12.0924 21.1259C12.5562 21.8841 13.552 22.1301 14.3022 21.6655C16.9485 20.0124 18.715 17.075 18.715 13.7209V7.49096C18.6945 5.66706 17.1326 4.2052 15.2707 4.3828Z" fill="url(#paint3_linear_4546_169421)"/>
</g>
<defs>
<linearGradient id="paint0_linear_4546_169421" x1="10.4789" y1="14.7258" x2="9.84685" y2="15.2837" gradientUnits="userSpaceOnUse">
<stop offset="0.1553" stop-color="white"/>
<stop offset="1" stop-color="#86C065"/>
</linearGradient>
<linearGradient id="paint1_linear_4546_169421" x1="14.4008" y1="12.7406" x2="13.1197" y2="13.8714" gradientUnits="userSpaceOnUse">
<stop offset="0.1553" stop-color="white"/>
<stop offset="1" stop-color="#86C065"/>
</linearGradient>
<linearGradient id="paint2_linear_4546_169421" x1="8.88428" y1="12.7406" x2="7.60321" y2="13.8714" gradientUnits="userSpaceOnUse">
<stop offset="0.1553" stop-color="white"/>
<stop offset="1" stop-color="#86C065"/>
</linearGradient>
<linearGradient id="paint3_linear_4546_169421" x1="34.5843" y1="-10.3301" x2="20.5629" y2="2.04681" gradientUnits="userSpaceOnUse">
<stop offset="0.1553" stop-color="white"/>
<stop offset="1" stop-color="#86C065"/>
</linearGradient>
<clipPath id="clip0_4546_169421">
<rect width="116" height="18" fill="white" transform="translate(0 4)"/>
</clipPath>
</defs>
</svg>
