<svg width="16" height="16" viewBox="0 0 16 16" fill="none" xmlns="http://www.w3.org/2000/svg">
<path d="M14.9451 3.34979L14.2014 2.34374L12.692 2.63437L14.0609 4.4816L14.9451 3.34979Z" fill="#145EA8"/>
<path d="M16 2L14.8046 2.22916L15.3004 2.89707L16 2Z" fill="#145EA8"/>
<path d="M1.52315 4.76945L0.0137708 5.05729L0.0192819 5.06567L2.12359 5.57708L1.52315 4.76945Z" fill="#145EA8"/>
<path d="M13.7056 4.93153L12.0888 2.74895L10.5794 3.0368L12.8215 6.06334L13.7056 4.93153Z" fill="#145EA8"/>
<path d="M6.88036 11.9963L6.61594 13.9665L6.62695 13.9804L7.51385 12.8486L6.88036 11.9963Z" fill="#145EA8"/>
<path d="M7.56619 6.90452L7.35685 8.45552L9.10586 10.8142L9.99001 9.68235L5.74831 3.96181L4.23893 4.24965L5.90807 6.5021L7.56619 6.90452Z" fill="#145EA8"/>
<path d="M11.2295 8.10061L7.8609 3.55659L6.35152 3.84443L10.3453 9.22962L11.2295 8.10061Z" fill="#145EA8"/>
<path d="M5.06799 6.2953L3.63573 4.36423L2.12635 4.65487L2.96368 5.78388L5.06799 6.2953Z" fill="#145EA8"/>
<path d="M6.98778 11.211L7.86642 12.3959L8.75056 11.2669L7.25219 9.2436L6.98778 11.211Z" fill="#145EA8"/>
<path d="M12.4689 6.51607L9.97624 3.15137L8.46411 3.44201L11.582 7.64788L12.4689 6.51607Z" fill="#145EA8"/>
<path d="M6.61319 14L6.62695 13.9804L6.61594 13.9665L6.61319 14Z" fill="#145EA8"/>
<path d="M0 5.06013L0.0192819 5.06567L0.0137708 5.05729L0 5.06013Z" fill="#145EA8"/>
</svg>
