<svg width="18" height="18" viewBox="0 0 18 18" fill="none" xmlns="http://www.w3.org/2000/svg">
<path d="M15.2559 -0.000244141C16.7745 -0.000127943 18.0059 1.23104 18.0059 2.74976V9.75366C18.0057 11.2723 16.7745 12.5035 15.2559 12.5037H12.5039V15.2576C12.5038 16.7762 11.2725 18.0075 9.75391 18.0076H2.75C1.23129 18.0076 0.000116605 16.7763 0 15.2576V8.25366C0 6.73488 1.23122 5.50366 2.75 5.50366H5.50195V2.74976C5.50195 1.23102 6.73323 -0.00017379 8.25195 -0.000244141H15.2559ZM2.75 7.00366C2.05964 7.00366 1.5 7.56331 1.5 8.25366V15.2576C1.50012 15.9478 2.05972 16.5076 2.75 16.5076H9.75391C10.4441 16.5075 11.0038 15.9478 11.0039 15.2576V12.5037H8.25195C6.7333 12.5036 5.50207 11.2723 5.50195 9.75366V7.00366H2.75ZM8.25195 1.49976C7.56166 1.49983 7.00195 2.05944 7.00195 2.74976V9.75366C7.00207 10.4439 7.56173 11.0036 8.25195 11.0037H15.2559C15.946 11.0035 16.5057 10.4438 16.5059 9.75366V2.74976C16.5059 2.05947 15.9461 1.49987 15.2559 1.49976H8.25195Z" fill="#1976D2"/>
</svg>
